<svg width="16" height="12" viewBox="0 0 16 12" fill="none" xmlns="http://www.w3.org/2000/svg">
<path d="M10.0243 11.6849C9.86602 11.6849 9.70768 11.6266 9.58268 11.5016C9.34102 11.2599 9.34102 10.8599 9.58268 10.6182L14.1993 6.00156L9.58268 1.3849C9.34102 1.14323 9.34102 0.743229 9.58268 0.501562C9.82435 0.259896 10.2243 0.259896 10.466 0.501562L15.5243 5.5599C15.766 5.80156 15.766 6.20156 15.5243 6.44323L10.466 11.5016C10.341 11.6266 10.1827 11.6849 10.0243 11.6849Z" fill="black"/>
<path d="M14.941 6.62656H0.916016C0.574349 6.62656 0.291016 6.34323 0.291016 6.00156C0.291016 5.6599 0.574349 5.37656 0.916016 5.37656H14.941C15.2827 5.37656 15.566 5.6599 15.566 6.00156C15.566 6.34323 15.2827 6.62656 14.941 6.62656Z" fill="black"/>
</svg>
