<svg width="16" height="16" viewBox="0 0 16 16" fill="none" xmlns="http://www.w3.org/2000/svg">
<g id="vuesax/outline/arrow-up">
<g id="arrow-up">
<g id="Vector">
<mask id="path-1-inside-1_158_21996" fill="white">
<path d="M13.279 10.5327C13.1524 10.5327 13.0257 10.4861 12.9257 10.3861L8.57904 6.0394C8.25904 5.7194 7.73904 5.7194 7.41904 6.0394L3.07237 10.3861C2.87904 10.5794 2.55904 10.5794 2.3657 10.3861C2.17237 10.1927 2.17237 9.87274 2.3657 9.6794L6.71237 5.33273C7.41904 4.62607 8.57237 4.62607 9.2857 5.33273L13.6324 9.6794C13.8257 9.87274 13.8257 10.1927 13.6324 10.3861C13.5324 10.4794 13.4057 10.5327 13.279 10.5327Z"/>
</mask>
<path d="M13.279 10.5327C13.1524 10.5327 13.0257 10.4861 12.9257 10.3861L8.57904 6.0394C8.25904 5.7194 7.73904 5.7194 7.41904 6.0394L3.07237 10.3861C2.87904 10.5794 2.55904 10.5794 2.3657 10.3861C2.17237 10.1927 2.17237 9.87274 2.3657 9.6794L6.71237 5.33273C7.41904 4.62607 8.57237 4.62607 9.2857 5.33273L13.6324 9.6794C13.8257 9.87274 13.8257 10.1927 13.6324 10.3861C13.5324 10.4794 13.4057 10.5327 13.279 10.5327Z" fill="black"/>
<path d="M12.9257 10.3861L12.2186 11.0932L12.9257 10.3861ZM8.57904 6.0394L9.28614 5.33229V5.33229L8.57904 6.0394ZM7.41904 6.0394L8.12614 6.74651L7.41904 6.0394ZM3.07237 10.3861L2.36526 9.67896H2.36526L3.07237 10.3861ZM2.3657 9.6794L3.07281 10.3865L2.3657 9.6794ZM6.71237 5.33273L6.00526 4.62563V4.62563L6.71237 5.33273ZM9.2857 5.33273L9.99282 4.62562L9.98948 4.62232L9.2857 5.33273ZM13.6324 9.6794L12.9253 10.3865L13.6324 9.6794ZM13.6324 10.3861L14.3147 11.1171L14.3273 11.1054L14.3395 11.0932L13.6324 10.3861ZM13.279 9.53273C13.4033 9.53273 13.5354 9.58154 13.6328 9.67896L12.2186 11.0932C12.516 11.3906 12.9015 11.5327 13.279 11.5327V9.53273ZM13.6328 9.67896L9.28614 5.33229L7.87193 6.74651L12.2186 11.0932L13.6328 9.67896ZM9.28614 5.33229C8.57562 4.62177 7.42245 4.62177 6.71193 5.33229L8.12614 6.74651C8.05562 6.81703 7.94245 6.81703 7.87193 6.74651L9.28614 5.33229ZM6.71193 5.33229L2.36526 9.67896L3.77948 11.0932L8.12614 6.74651L6.71193 5.33229ZM2.36526 9.67896C2.56245 9.48177 2.87562 9.48177 3.07281 9.67896L1.6586 11.0932C2.24245 11.677 3.19562 11.677 3.77948 11.0932L2.36526 9.67896ZM3.07281 9.67896C3.27 9.87615 3.27 10.1893 3.07281 10.3865L1.6586 8.97229C1.07474 9.55615 1.07474 10.5093 1.6586 11.0932L3.07281 9.67896ZM3.07281 10.3865L7.41948 6.03984L6.00526 4.62563L1.6586 8.97229L3.07281 10.3865ZM7.41948 6.03984C7.7338 5.72552 8.2565 5.72077 8.58192 6.04315L9.98948 4.62232C8.88824 3.53136 7.10428 3.52661 6.00526 4.62563L7.41948 6.03984ZM8.5786 6.03984L12.9253 10.3865L14.3395 8.97229L9.99281 4.62563L8.5786 6.03984ZM12.9253 10.3865C12.7281 10.1893 12.7281 9.87615 12.9253 9.67896L14.3395 11.0932C14.9233 10.5093 14.9233 9.55615 14.3395 8.97229L12.9253 10.3865ZM12.9501 9.65501C13.0145 9.59488 13.1254 9.53273 13.279 9.53273V11.5327C13.686 11.5327 14.0503 11.3639 14.3147 11.1171L12.9501 9.65501Z" fill="#161616" mask="url(#path-1-inside-1_158_21996)"/>
</g>
</g>
</g>
</svg>
