<svg width="69" height="68" viewBox="0 0 69 68" fill="none" xmlns="http://www.w3.org/2000/svg">
<path d="M34.1917 1C15.9663 1 1.19165 15.7746 1.19165 34C1.19165 52.2254 15.9663 67 34.1917 67C52.417 67 67.1917 52.2254 67.1917 34C67.1917 15.7746 52.417 1 34.1917 1Z" fill="#F7FDF9" stroke="white" stroke-width="2"/>
<path d="M33.7619 29.0601C32.8728 29.2983 32.3451 30.2122 32.5834 31.1013C32.8216 31.9904 33.7355 32.5181 34.6246 32.2798L34.6391 32.276C35.5282 32.0377 36.0558 31.1238 35.8176 30.2347C35.5794 29.3456 34.6655 28.818 33.7764 29.0562L33.7619 29.0601Z" fill="#1B8354"/>
<path fill-rule="evenodd" clip-rule="evenodd" d="M25.6809 21.1551C26.3385 21.096 27.1301 21.0855 28.068 21.0836C28.6469 18.2306 31.1692 16.0833 34.193 16.0833C37.2169 16.0833 39.7392 18.2306 40.3181 21.0836C41.256 21.0855 42.0476 21.096 42.7053 21.1551C43.5289 21.2292 44.2865 21.3885 44.9624 21.801C45.7522 22.283 46.3849 22.9818 46.7695 23.8182C47.1042 24.5463 47.1467 25.3116 47.0873 26.1083C47.0303 26.8743 46.8647 27.8112 46.6657 28.9369L46.55 29.592C46.4071 30.4016 46.307 30.9687 46.1052 31.5012C46.0555 31.6321 46.0014 31.7612 45.943 31.888L46.4088 36.0833H47.9245C50.6504 36.0833 52.5207 38.6882 52.0302 41.2954L51.5887 43.642C51.0939 46.2719 49.0087 48.2956 46.424 48.5551C46.205 49.0099 45.9218 49.4333 45.5587 49.8248C44.4959 50.9706 43.1007 51.4628 41.4195 51.6933C39.792 51.9163 37.7019 51.9163 35.0901 51.9163H33.2957C30.6839 51.9163 28.5937 51.9163 26.9663 51.6933C25.285 51.4628 23.8898 50.9706 22.827 49.8248C22.4639 49.4333 22.1807 49.0099 21.9617 48.5552C19.3766 48.2961 17.2909 46.2722 16.7961 43.642L16.3546 41.2954C15.8641 38.6882 17.7343 36.0833 20.4603 36.0833H21.9769L22.4428 31.8872C22.3845 31.7606 22.3306 31.6318 22.281 31.5012C22.0791 30.9687 21.9791 30.4017 21.8362 29.592L21.7204 28.9368C21.5215 27.8111 21.3559 26.8743 21.2989 26.1083C21.2395 25.3116 21.282 24.5463 21.6167 23.8182C22.0013 22.9818 22.634 22.283 23.4238 21.801C24.0997 21.3885 24.8573 21.2292 25.6809 21.1551ZM34.193 18.5833C35.8258 18.5833 37.2149 19.6268 37.7297 21.0833H30.6564C31.1712 19.6268 32.5603 18.5833 34.193 18.5833ZM42.811 35.058C43.1595 34.8389 43.4551 34.6532 43.7151 34.4768L44.2674 39.4513C44.5032 42.1328 44.6655 44.0143 44.5917 45.4412C44.5198 46.833 44.2296 47.5814 43.7257 48.1247C43.2196 48.6704 42.4838 49.024 41.0799 49.2164C39.6421 49.4135 37.7239 49.4163 34.9945 49.4163H33.3912C30.6618 49.4163 28.7436 49.4135 27.3058 49.2164C25.9019 49.024 25.1661 48.6704 24.66 48.1247C24.1561 47.5814 23.8659 46.833 23.794 45.4412C23.7202 44.0143 23.8825 42.1328 24.1183 39.4513L24.6706 34.4765C24.9308 34.653 25.2267 34.839 25.5757 35.0583L25.7375 35.16C26.4416 35.6028 26.888 35.8835 27.3659 36.1067C28.1885 36.4909 29.0709 36.7426 29.9773 36.8528C30.5032 36.9167 31.0364 36.9167 31.8845 36.9166H36.5017C37.3497 36.9167 37.8829 36.9167 38.4089 36.8528C39.3153 36.7426 40.1977 36.4909 41.0203 36.1067C41.4982 35.8835 41.9446 35.6028 42.6486 35.1601L42.811 35.058ZM21.632 39.1896L21.6994 38.5833H20.4603C19.483 38.5833 18.5757 39.58 18.8115 40.8332L19.253 43.1798C19.4911 44.4458 20.3003 45.4047 21.3136 45.8346C21.3073 45.7472 21.3019 45.6591 21.2973 45.5702C21.2133 43.9452 21.3946 41.8845 21.6207 39.315L21.6292 39.218L21.632 39.1896ZM46.7537 39.1896L46.6863 38.5833H47.9245C48.9018 38.5833 49.809 39.58 49.5733 40.8332L49.1318 43.1798C48.8937 44.4454 48.0849 45.4041 47.0722 45.8342C47.0784 45.7469 47.0838 45.6589 47.0884 45.5702C47.1724 43.9453 46.9911 41.8845 46.765 39.3151L46.7565 39.218L46.7537 39.1896ZM25.9047 23.6451C25.2411 23.7047 24.9264 23.8128 24.7261 23.935C24.3457 24.1672 24.0581 24.493 23.8881 24.8626C23.8076 25.0377 23.7466 25.3139 23.792 25.9227C23.8385 26.5478 23.9805 27.3598 24.1935 28.5652L24.2787 29.0474C24.4486 30.0085 24.5105 30.3296 24.6186 30.6149C24.8225 31.1527 25.1583 31.6455 25.6057 32.0516C25.8463 32.27 26.1432 32.462 26.9997 33.0005C27.7942 33.5001 28.1039 33.6922 28.4238 33.8416C29.0049 34.113 29.6318 34.2924 30.279 34.371C30.6365 34.4145 31.011 34.4166 31.965 34.4166H36.4212C37.3752 34.4166 37.7497 34.4145 38.1072 34.371C38.7543 34.2924 39.3813 34.113 39.9624 33.8416C40.2823 33.6922 40.5919 33.5001 41.3865 33.0005C42.2429 32.462 42.5399 32.27 42.7805 32.0516C43.2279 31.6455 43.5637 31.1527 43.7675 30.6149C43.8757 30.3296 43.9376 30.0085 44.1075 29.0474L44.1927 28.5652C44.4057 27.3598 44.5477 26.5478 44.5942 25.9227C44.6396 25.3139 44.5786 25.0377 44.4981 24.8626C44.3281 24.493 44.0405 24.1672 43.6601 23.935C43.4598 23.8128 43.1451 23.7047 42.4815 23.6451C41.8069 23.5844 40.9219 23.5833 39.6306 23.5833H28.7556C27.4643 23.5833 26.5793 23.5844 25.9047 23.6451Z" fill="#1B8354"/>
</svg>
