<svg width="18" height="18" viewBox="0 0 18 18" fill="none" xmlns="http://www.w3.org/2000/svg">
<g id="elements">
<g id="Icon">
<path d="M5.66683 9.00008C5.20659 9.00008 4.8335 9.37318 4.8335 9.83341C4.8335 10.2937 5.20659 10.6667 5.66683 10.6667H5.67431C6.13454 10.6667 6.50764 10.2937 6.50764 9.83341C6.50764 9.37318 6.13454 9.00008 5.67431 9.00008H5.66683Z" fill="#161616"/>
<path d="M8.99642 9.00008C8.53619 9.00008 8.16309 9.37318 8.16309 9.83341C8.16309 10.2937 8.53619 10.6667 8.99642 10.6667H9.0039C9.46414 10.6667 9.83723 10.2937 9.83723 9.83341C9.83723 9.37318 9.46414 9.00008 9.0039 9.00008H8.99642Z" fill="#161616"/>
<path d="M12.326 9.00008C11.8658 9.00008 11.4927 9.37318 11.4927 9.83341C11.4927 10.2937 11.8658 10.6667 12.326 10.6667H12.3335C12.7937 10.6667 13.1668 10.2937 13.1668 9.83341C13.1668 9.37318 12.7937 9.00008 12.3335 9.00008H12.326Z" fill="#161616"/>
<path d="M5.66683 12.3334C5.20659 12.3334 4.8335 12.7065 4.8335 13.1667C4.8335 13.627 5.20659 14.0001 5.66683 14.0001H5.67431C6.13454 14.0001 6.50764 13.627 6.50764 13.1667C6.50764 12.7065 6.13454 12.3334 5.67431 12.3334H5.66683Z" fill="#161616"/>
<path d="M8.99642 12.3334C8.53619 12.3334 8.16309 12.7065 8.16309 13.1667C8.16309 13.627 8.53619 14.0001 8.99642 14.0001H9.0039C9.46414 14.0001 9.83723 13.627 9.83723 13.1667C9.83723 12.7065 9.46414 12.3334 9.0039 12.3334H8.99642Z" fill="#161616"/>
<path fill-rule="evenodd" clip-rule="evenodd" d="M4.62516 0.666748C4.62516 0.32157 4.34534 0.041748 4.00016 0.041748C3.65498 0.041748 3.37516 0.32157 3.37516 0.666748V1.19574C2.70453 1.38582 2.13891 1.69475 1.66812 2.20372C1.01986 2.90454 0.731704 3.79002 0.593703 4.89967C0.45848 5.987 0.458487 7.38047 0.458496 9.15845V9.67505C0.458487 11.453 0.45848 12.8465 0.593703 13.9338C0.731704 15.0435 1.01986 15.929 1.66812 16.6298C2.32278 17.3375 3.1608 17.6585 4.20957 17.8109C5.22459 17.9584 6.52145 17.9584 8.15786 17.9584H9.84246C11.4789 17.9584 12.7757 17.9584 13.7908 17.8109C14.8395 17.6585 15.6775 17.3375 16.3322 16.6298C16.9805 15.929 17.2686 15.0435 17.4066 13.9338C17.5418 12.8465 17.5418 11.453 17.5418 9.67502V9.15847C17.5418 7.38048 17.5418 5.98701 17.4066 4.89967C17.2686 3.79002 16.9805 2.90454 16.3322 2.20372C15.8614 1.69475 15.2958 1.38582 14.6252 1.19574V0.666748C14.6252 0.32157 14.3453 0.041748 14.0002 0.041748C13.655 0.041748 13.3752 0.32157 13.3752 0.666748V0.97166C12.4284 0.875057 11.2635 0.875068 9.84246 0.875082H8.15787C6.73685 0.875068 5.57188 0.875057 4.62516 0.97166V0.666748ZM3.399 2.50495C3.47355 2.76673 3.71447 2.95841 4.00016 2.95841C4.34534 2.95841 4.62516 2.67859 4.62516 2.33341V2.2289C5.50933 2.12638 6.65214 2.12508 8.2085 2.12508H9.79183C11.3482 2.12508 12.491 2.12638 13.3752 2.2289V2.33341C13.3752 2.67859 13.655 2.95841 14.0002 2.95841C14.2859 2.95841 14.5268 2.76673 14.6013 2.50495C14.9408 2.64001 15.1985 2.81888 15.4146 3.05252C15.8088 3.47874 16.0422 4.06331 16.1653 5.04706C16.1385 5.04355 16.1112 5.04175 16.0835 5.04175H1.91683C1.8891 5.04175 1.86178 5.04355 1.83501 5.04706C1.95809 4.06332 2.19149 3.47874 2.58574 3.05252C2.80186 2.81888 3.05957 2.64001 3.399 2.50495ZM1.74194 6.26695C1.70896 7.06937 1.7085 8.03036 1.7085 9.20278V9.63071C1.7085 11.4626 1.70964 12.7784 1.83415 13.7796C1.95701 14.7675 2.19057 15.3538 2.58574 15.781C2.97451 16.2013 3.4979 16.4443 4.38936 16.5739C5.30413 16.7069 6.51006 16.7084 8.2085 16.7084H9.79183C11.4903 16.7084 12.6962 16.7069 13.611 16.5739C14.5024 16.4443 15.0258 16.2013 15.4146 15.781C15.8098 15.3538 16.0433 14.7675 16.1662 13.7796C16.2907 12.7784 16.2918 11.4626 16.2918 9.63071V9.20278C16.2918 8.03036 16.2914 7.06937 16.2584 6.26695C16.2029 6.28309 16.1442 6.29175 16.0835 6.29175H1.91683C1.85612 6.29175 1.79744 6.28309 1.74194 6.26695Z" fill="#161616"/>
</g>
</g>
</svg>
