<svg width="16" height="16" viewBox="0 0 16 16" fill="none" xmlns="http://www.w3.org/2000/svg">
<path d="M11.0359 6.33852C11.2225 6.13496 11.2087 5.81867 11.0052 5.63208C10.8016 5.44548 10.4853 5.45923 10.2987 5.66279L6.98495 9.27784L5.68754 7.98043C5.49228 7.78517 5.17569 7.78517 4.98043 7.98043C4.78517 8.1757 4.78517 8.49228 4.98043 8.68754L6.6471 10.3542C6.74353 10.4506 6.87517 10.5035 7.01151 10.5005C7.14786 10.4976 7.27708 10.439 7.36923 10.3385L11.0359 6.33852Z" fill="#1B8354"/>
<path fill-rule="evenodd" clip-rule="evenodd" d="M8.00065 15.1673C4.04261 15.1673 0.833984 11.9587 0.833984 8.00065C0.833984 4.04261 4.04261 0.833984 8.00065 0.833984C11.9587 0.833984 15.1673 4.04261 15.1673 8.00065C15.1673 11.9587 11.9587 15.1673 8.00065 15.1673ZM1.83398 8.00065C1.83398 11.4064 4.5949 14.1673 8.00065 14.1673C11.4064 14.1673 14.1673 11.4064 14.1673 8.00065C14.1673 4.5949 11.4064 1.83398 8.00065 1.83398C4.5949 1.83398 1.83398 4.5949 1.83398 8.00065Z" fill="#1B8354"/>
</svg>
