<svg width="22" height="22" viewBox="0 0 22 22" fill="none" xmlns="http://www.w3.org/2000/svg">
<path fill-rule="evenodd" clip-rule="evenodd" d="M8.54891 0.25H8.45109C6.84883 0.249988 5.57947 0.249978 4.57525 0.36868C3.54428 0.490545 2.69558 0.746383 1.98663 1.3282C1.74612 1.52558 1.52558 1.74612 1.3282 1.98663C0.746384 2.69558 0.490545 3.54428 0.368681 4.57525C0.249979 5.57947 0.249988 6.84883 0.25 8.45109V8.54891C0.249988 10.1512 0.249978 11.4205 0.36868 12.4247C0.490545 13.4557 0.746383 14.3044 1.3282 15.0134C1.52558 15.2539 1.74612 15.4744 1.98663 15.6718C2.6585 16.2232 3.45589 16.4818 4.41544 16.6111C5.1943 16.7161 6.13184 16.7415 7.26071 16.7479C7.27373 17.3699 7.30259 17.9162 7.36652 18.3918C7.48754 19.2919 7.74643 20.0497 8.34835 20.6516C8.95027 21.2536 9.70814 21.5125 10.6082 21.6335C11.4752 21.75 12.5775 21.75 13.9451 21.75H15.0549C16.4225 21.75 17.5248 21.75 18.3918 21.6335C19.2919 21.5125 20.0497 21.2536 20.6517 20.6516C21.2536 20.0497 21.5125 19.2919 21.6335 18.3918C21.75 17.5248 21.75 16.4225 21.75 15.0549V13.9451C21.75 12.5775 21.75 11.4752 21.6335 10.6083C21.5125 9.70814 21.2536 8.95027 20.6517 8.34835C20.0497 7.74644 19.2919 7.48754 18.3918 7.36652C17.9162 7.30259 17.3699 7.27373 16.7479 7.26071C16.7415 6.13184 16.7161 5.1943 16.6111 4.41544C16.4818 3.45589 16.2232 2.6585 15.6718 1.98663C15.4744 1.74612 15.2539 1.52558 15.0134 1.3282C14.3044 0.746384 13.4557 0.490545 12.4248 0.368681C11.4205 0.249979 10.1512 0.249988 8.54891 0.25ZM15.2477 7.25001C15.2411 6.13983 15.2161 5.29484 15.1246 4.61576C15.0157 3.80799 14.8216 3.31514 14.5123 2.93822C14.3772 2.77366 14.2263 2.62277 14.0618 2.48772C13.6644 2.16158 13.138 1.96344 12.2487 1.85831C11.3428 1.75123 10.1621 1.75 8.5 1.75C6.83789 1.75 5.65724 1.75123 4.75133 1.85831C3.86197 1.96344 3.33563 2.16158 2.93822 2.48772C2.77366 2.62277 2.62277 2.77366 2.48772 2.93822C2.16158 3.33563 1.96344 3.86197 1.85831 4.75133C1.75123 5.65724 1.75 6.83789 1.75 8.5C1.75 10.1621 1.75123 11.3428 1.85831 12.2487C1.96343 13.138 2.16158 13.6644 2.48772 14.0618C2.62277 14.2263 2.77366 14.3772 2.93822 14.5123C3.31513 14.8216 3.80799 15.0157 4.61576 15.1246C5.29484 15.2161 6.13983 15.2411 7.25001 15.2477C7.25 15.184 7.25 15.1197 7.25 15.0549V13.9451C7.24998 12.5775 7.24996 11.4752 7.36652 10.6082C7.48754 9.70814 7.74644 8.95027 8.34835 8.34835C8.95027 7.74643 9.70814 7.48754 10.6083 7.36652C11.4752 7.24996 12.5775 7.24998 13.9451 7.25H15.0549C15.1197 7.25 15.184 7.25 15.2477 7.25001ZM9.40901 9.40901C9.68577 9.13225 10.0743 8.9518 10.8081 8.85315C11.5635 8.75159 12.5646 8.75 14 8.75H15C16.4354 8.75 17.4365 8.75159 18.1919 8.85315C18.9257 8.9518 19.3142 9.13225 19.591 9.40901C19.8678 9.68577 20.0482 10.0743 20.1469 10.8081C20.2484 11.5635 20.25 12.5646 20.25 14V15C20.25 16.4354 20.2484 17.4365 20.1469 18.1919C20.0482 18.9257 19.8678 19.3142 19.591 19.591C19.3142 19.8678 18.9257 20.0482 18.1919 20.1469C17.4365 20.2484 16.4354 20.25 15 20.25H14C12.5646 20.25 11.5635 20.2484 10.8081 20.1469C10.0743 20.0482 9.68577 19.8678 9.40901 19.591C9.13225 19.3142 8.9518 18.9257 8.85315 18.1919C8.75159 17.4365 8.75 16.4354 8.75 15V14C8.75 12.5646 8.75159 11.5635 8.85315 10.8081C8.9518 10.0743 9.13225 9.68577 9.40901 9.40901Z" fill="#175CD3"/>
</svg>
