<svg width="48" height="48" viewBox="0 0 48 48" fill="none" xmlns="http://www.w3.org/2000/svg">
<path d="M0 24C0 10.7452 10.7452 0 24 0C37.2548 0 48 10.7452 48 24C48 37.2548 37.2548 48 24 48C10.7452 48 0 37.2548 0 24Z" fill="#F3FCF6"/>
<path d="M18.2817 22.6261C18.401 22.2294 18.8192 22.0045 19.2159 22.1237C19.7794 22.2932 20.4172 22.4349 21.1125 22.5404C21.522 22.6026 21.8036 22.9849 21.7415 23.3945C21.6793 23.804 21.2969 24.0856 20.8874 24.0234C20.1314 23.9087 19.4236 23.7525 18.784 23.5602C18.3874 23.441 18.1625 23.0228 18.2817 22.6261Z" fill="#1B8354"/>
<path d="M18.2817 29.6261C18.401 29.2294 18.8192 29.0045 19.2159 29.1237C19.7794 29.2932 20.4172 29.4349 21.1125 29.5404C21.522 29.6026 21.8036 29.9849 21.7415 30.3945C21.6793 30.804 21.2969 31.0856 20.8874 31.0234C20.1314 30.9087 19.4236 30.7525 18.784 30.5602C18.3874 30.441 18.1625 30.0228 18.2817 29.6261Z" fill="#1B8354"/>
<path fill-rule="evenodd" clip-rule="evenodd" d="M15.25 31C15.25 31.7057 15.6341 32.2883 16.1311 32.7289C16.629 33.1704 17.3067 33.5337 18.0798 33.8236C19.6315 34.4054 21.7247 34.75 24 34.75C26.2753 34.75 28.3685 34.4054 29.9202 33.8236C30.6933 33.5337 31.371 33.1704 31.8689 32.7289C32.3659 32.2883 32.75 31.7057 32.75 31V17C32.75 16.2943 32.3659 15.7117 31.8689 15.2711C31.371 14.8296 30.6933 14.4663 29.9202 14.1764C28.3685 13.5946 26.2753 13.25 24 13.25C21.7247 13.25 19.6315 13.5946 18.0798 14.1764C17.3067 14.4663 16.629 14.8296 16.1311 15.2711C15.6341 15.7117 15.25 16.2943 15.25 17L15.25 31ZM17.1262 16.3935C16.8136 16.6706 16.75 16.8773 16.75 17C16.75 17.1227 16.8136 17.3294 17.1262 17.6065C17.438 17.8829 17.9318 18.1661 18.6065 18.4191C19.9503 18.923 21.857 19.25 24 19.25C26.143 19.25 28.0497 18.923 29.3935 18.4191C30.0682 18.1661 30.562 17.8829 30.8738 17.6065C31.1864 17.3294 31.25 17.1227 31.25 17C31.25 16.8773 31.1864 16.6706 30.8738 16.3935C30.562 16.1171 30.0682 15.8339 29.3935 15.5809C28.0497 15.077 26.143 14.75 24 14.75C21.857 14.75 19.9503 15.077 18.6065 15.5809C17.9318 15.8339 17.438 16.1171 17.1262 16.3935ZM31.25 19.185C30.859 19.4279 30.4086 19.6404 29.9202 19.8236C28.3685 20.4054 26.2753 20.75 24 20.75C21.7247 20.75 19.6315 20.4054 18.0798 19.8236C17.5914 19.6404 17.141 19.4279 16.75 19.185L16.75 24C16.75 24.1227 16.8136 24.3294 17.1262 24.6065C17.438 24.8829 17.9318 25.1661 18.6065 25.4191C19.9503 25.923 21.857 26.25 24 26.25C26.143 26.25 28.0497 25.923 29.3935 25.4191C30.0682 25.1661 30.562 24.8829 30.8738 24.6065C31.1864 24.3294 31.25 24.1227 31.25 24V19.185ZM31.25 26.185C30.859 26.4279 30.4086 26.6404 29.9202 26.8236C28.3685 27.4054 26.2753 27.75 24 27.75C21.7247 27.75 19.6315 27.4054 18.0798 26.8236C17.5914 26.6404 17.141 26.4279 16.75 26.185V31C16.75 31.1227 16.8136 31.3294 17.1262 31.6065C17.438 31.8829 17.9318 32.1661 18.6065 32.4191C19.9503 32.923 21.857 33.25 24 33.25C26.143 33.25 28.0497 32.923 29.3935 32.4191C30.0682 32.1661 30.562 31.8829 30.8738 31.6065C31.1864 31.3294 31.25 31.1227 31.25 31V26.185Z" fill="#1B8354"/>
</svg>
