<svg width="24" height="24" viewBox="0 0 24 24" fill="none" xmlns="http://www.w3.org/2000/svg">
<path d="M12 2.25H11.9431C9.87002 2.24999 8.23769 2.24997 6.96234 2.42144C5.65376 2.59738 4.60928 2.9661 3.78769 3.78769C2.9661 4.60928 2.59738 5.65376 2.42144 6.96234C2.24997 8.23769 2.24999 9.87002 2.25 11.9431V12.0569C2.24999 14.13 2.24997 15.7623 2.42144 17.0377C2.59738 18.3462 2.9661 19.3907 3.78769 20.2123C4.60928 21.0339 5.65376 21.4026 6.96234 21.5786C8.23769 21.75 9.87002 21.75 11.9431 21.75H12.0569C14.13 21.75 15.7623 21.75 17.0377 21.5786C18.3462 21.4026 19.3907 21.0339 20.2123 20.2123C21.0339 19.3907 21.4026 18.3462 21.5786 17.0377C21.75 15.7623 21.75 14.13 21.75 12.0569V12C21.75 11.5858 21.4142 11.25 21 11.25C20.5858 11.25 20.25 11.5858 20.25 12C20.25 14.1425 20.2484 15.674 20.0919 16.8378C19.9384 17.98 19.6481 18.6552 19.1516 19.1516C18.6552 19.6481 17.98 19.9384 16.8378 20.0919C15.674 20.2484 14.1425 20.25 12 20.25C9.85748 20.25 8.32604 20.2484 7.16221 20.0919C6.01997 19.9384 5.34478 19.6481 4.84835 19.1516C4.35192 18.6552 4.06164 17.98 3.90807 16.8378C3.75159 15.674 3.75 14.1425 3.75 12C3.75 9.85748 3.75159 8.32604 3.90807 7.16221C4.06164 6.01997 4.35192 5.34478 4.84835 4.84835C5.34478 4.35192 6.01997 4.06164 7.16221 3.90807C8.32604 3.75159 9.85748 3.75 12 3.75C12.4142 3.75 12.75 3.41421 12.75 3C12.75 2.58579 12.4142 2.25 12 2.25Z" fill="#161616"/>
<path fill-rule="evenodd" clip-rule="evenodd" d="M20.9497 3.0503C19.8827 1.98323 18.1526 1.98323 17.0855 3.0503L10.3695 9.76637C9.40084 10.7347 8.80884 11.3266 8.40167 12.0553C8.17455 12.4617 7.97615 13.0782 7.8006 13.709C7.62 14.358 7.44221 15.1047 7.27249 15.8175L7.27041 15.8263C7.21009 16.0796 7.28552 16.3462 7.46969 16.5303C7.65385 16.7145 7.92037 16.7899 8.17373 16.7296L8.18242 16.7275C8.89524 16.5578 9.64198 16.38 10.291 16.1994C10.9218 16.0239 11.5383 15.8255 11.9448 15.5983C12.6734 15.1912 13.2653 14.5992 14.2337 13.6306L20.9497 6.91448C22.0168 5.84742 22.0168 4.11736 20.9497 3.0503ZM18.1462 4.11096C18.6275 3.62968 19.4078 3.62968 19.8891 4.11096C20.3703 4.59224 20.3703 5.37254 19.8891 5.85382L19.0176 6.72525L17.2748 4.98239L18.1462 4.11096ZM16.2141 6.04305L17.957 7.78591L13.2534 12.4894C12.1793 13.5636 11.7382 13.9955 11.2131 14.2889C10.9826 14.4177 10.5287 14.5763 9.88884 14.7543C9.61543 14.8304 9.32217 14.9064 9.01767 14.9823C9.09362 14.6778 9.1696 14.3846 9.24569 14.1112C9.42374 13.4713 9.58232 13.0174 9.7111 12.787C10.0046 12.2618 10.4365 11.8207 11.5106 10.7466L16.2141 6.04305Z" fill="#161616"/>
</svg>
