<svg width="501" height="450" viewBox="0 0 501 450" fill="none" xmlns="http://www.w3.org/2000/svg">
<path d="M248.5 449C124.788 449 24.5 348.712 24.5 225C24.5 101.288 124.788 1 248.5 1C372.212 1 472.5 101.288 472.5 225C472.5 348.712 372.212 449 248.5 449Z" stroke="white" stroke-opacity="0.1" stroke-width="2" stroke-linecap="round"/>
<path d="M248.5 281C217.572 281 192.5 255.928 192.5 225C192.5 194.072 217.572 169 248.5 169C279.428 169 304.5 194.072 304.5 225C304.5 255.928 279.428 281 248.5 281Z" stroke="#F3F4F6" stroke-width="2" stroke-linecap="round"/>
<g opacity="0.7">
<path d="M249 320C196.809 320 154.5 277.691 154.5 225.5C154.5 173.309 196.809 131 249 131C301.191 131 343.5 173.309 343.5 225.5C343.5 277.691 301.191 320 249 320Z" stroke="#F3F4F6" stroke-width="2" stroke-linecap="round"/>
</g>
<g opacity="0.55">
<path d="M248.5 359C174.494 359 114.5 299.006 114.5 225C114.5 150.994 174.494 91 248.5 91C322.506 91 382.5 150.994 382.5 225C382.5 299.006 322.506 359 248.5 359Z" stroke="#F3F4F6" stroke-width="2" stroke-linecap="round"/>
</g>
<g opacity="0.5">
<path d="M248.5 402C150.746 402 71.5 322.754 71.5 225C71.5 127.246 150.746 48 248.5 48C346.254 48 425.5 127.246 425.5 225C425.5 322.754 346.254 402 248.5 402Z" stroke="#F3F4F6" stroke-width="2" stroke-linecap="round"/>
</g>
<path d="M321.602 124C321.602 119.582 325.183 116 329.602 116H346.402C350.82 116 354.402 119.582 354.402 124V140.8C354.402 145.218 350.82 148.8 346.402 148.8H329.602C325.183 148.8 321.602 145.218 321.602 140.8V124Z" fill="#E5E7EB"/>
<path d="M341.472 133.915C341.831 133.915 342.122 133.624 342.122 133.265C342.122 132.906 341.831 132.615 341.472 132.615H338.872C338.513 132.615 338.222 132.906 338.222 133.265C338.222 133.624 338.513 133.915 338.872 133.915H341.472Z" fill="#6C737F"/>
<path d="M341.472 137.382C341.831 137.382 342.122 137.091 342.122 136.732C342.122 136.373 341.831 136.082 341.472 136.082L335.405 136.082C335.046 136.082 334.755 136.373 334.755 136.732C334.755 137.091 335.046 137.382 335.405 137.382H341.472Z" fill="#6C737F"/>
<path fill-rule="evenodd" clip-rule="evenodd" d="M338.052 141.715H337.298C335.916 141.715 334.829 141.715 333.966 141.625C333.084 141.534 332.36 141.342 331.74 140.905C331.409 140.672 331.114 140.395 330.864 140.081C330.392 139.487 330.184 138.789 330.085 137.946C329.988 137.128 329.988 136.099 329.988 134.804V132.533C329.988 131.269 329.988 130.288 330.04 129.496C330.093 128.694 330.202 128.041 330.44 127.439C331.167 125.606 332.696 124.175 334.616 123.501C335.811 123.082 337.278 123.082 339.848 123.082L340.162 123.082C341.579 123.082 342.462 123.082 343.191 123.337C344.36 123.748 345.297 124.621 345.744 125.748C345.895 126.13 345.96 126.535 345.991 127.008C346.022 127.469 346.022 128.037 346.022 128.752V134.184C346.022 135.774 346.022 137.038 345.88 138.028C345.734 139.051 345.425 139.877 344.738 140.523C344.057 141.165 343.196 141.448 342.128 141.583C341.084 141.715 339.748 141.715 338.052 141.715ZM341.965 140.294C342.903 140.175 343.45 139.951 343.847 139.577C344.239 139.208 344.47 138.708 344.593 137.844C344.72 136.957 344.722 135.786 344.722 134.132V128.774C344.722 128.032 344.721 127.507 344.694 127.093C344.667 126.685 344.616 126.431 344.535 126.227C344.235 125.469 343.593 124.856 342.76 124.564C342.268 124.391 341.628 124.382 340.014 124.382C339.736 124.382 339.474 124.382 339.226 124.383C338.026 124.425 337.067 125.41 337.067 126.62C337.067 126.748 337.072 126.885 337.079 127.039L337.082 127.096C337.088 127.23 337.095 127.376 337.098 127.522C337.105 127.851 337.095 128.236 336.995 128.607C336.802 129.329 336.237 129.894 335.514 130.088C335.143 130.187 334.759 130.198 334.429 130.191C334.284 130.188 334.138 130.181 334.003 130.174L333.946 130.172C333.792 130.165 333.655 130.159 333.528 130.159C332.291 130.159 331.289 131.161 331.289 132.398C331.289 132.408 331.289 132.418 331.288 132.428C331.288 132.47 331.288 132.513 331.288 132.556V134.762C331.288 136.108 331.289 137.061 331.376 137.795C331.46 138.513 331.619 138.942 331.882 139.272C332.053 139.487 332.257 139.679 332.489 139.843C332.85 140.097 333.323 140.251 334.1 140.332C334.888 140.415 335.908 140.415 337.335 140.415H338.005C339.759 140.415 341.012 140.414 341.965 140.294ZM331.335 129.62C331.938 129.143 332.7 128.859 333.528 128.859C333.689 128.859 333.853 128.866 334.007 128.873L334.065 128.876C334.201 128.882 334.329 128.888 334.456 128.891C334.752 128.897 334.988 128.883 335.178 128.832C335.452 128.759 335.666 128.544 335.74 128.27C335.791 128.08 335.805 127.844 335.799 127.549C335.796 127.421 335.79 127.294 335.784 127.158L335.781 127.099C335.774 126.945 335.767 126.781 335.767 126.62C335.767 125.803 336.044 125.051 336.508 124.452C335.908 124.501 335.453 124.585 335.047 124.728C333.463 125.284 332.229 126.454 331.649 127.918C331.481 128.342 331.386 128.844 331.338 129.582C331.337 129.594 331.336 129.607 331.335 129.62Z" fill="#6C737F"/>
<path d="M134.5 201C134.5 196.582 138.082 193 142.5 193H159.3C163.718 193 167.3 196.582 167.3 201V217.8C167.3 222.218 163.718 225.8 159.3 225.8H142.5C138.082 225.8 134.5 222.218 134.5 217.8V201Z" fill="#E5E7EB"/>
<path d="M154.37 210.915C154.729 210.915 155.02 210.624 155.02 210.265C155.02 209.906 154.729 209.615 154.37 209.615H151.77C151.411 209.615 151.12 209.906 151.12 210.265C151.12 210.624 151.411 210.915 151.77 210.915H154.37Z" fill="#6C737F"/>
<path d="M154.37 214.382C154.729 214.382 155.02 214.091 155.02 213.732C155.02 213.373 154.729 213.082 154.37 213.082L148.303 213.082C147.944 213.082 147.653 213.373 147.653 213.732C147.653 214.091 147.944 214.382 148.303 214.382H154.37Z" fill="#6C737F"/>
<path fill-rule="evenodd" clip-rule="evenodd" d="M150.95 218.715H150.196C148.815 218.715 147.727 218.715 146.864 218.625C145.983 218.534 145.258 218.342 144.638 217.905C144.307 217.672 144.012 217.395 143.763 217.081C143.29 216.487 143.082 215.789 142.983 214.946C142.887 214.128 142.887 213.099 142.887 211.804V209.533C142.887 208.269 142.887 207.288 142.939 206.496C142.992 205.694 143.1 205.041 143.339 204.439C144.065 202.606 145.595 201.175 147.515 200.501C148.71 200.082 150.176 200.082 152.746 200.082L153.06 200.082C154.477 200.082 155.361 200.082 156.089 200.337C157.258 200.748 158.196 201.621 158.642 202.748C158.793 203.13 158.858 203.535 158.89 204.008C158.92 204.469 158.92 205.037 158.92 205.752V211.184C158.92 212.774 158.92 214.038 158.779 215.028C158.632 216.051 158.324 216.877 157.637 217.523C156.955 218.165 156.095 218.448 155.027 218.583C153.983 218.715 152.647 218.715 150.95 218.715ZM154.863 217.294C155.801 217.175 156.348 216.951 156.746 216.577C157.138 216.208 157.368 215.708 157.492 214.844C157.618 213.957 157.62 212.786 157.62 211.132V205.774C157.62 205.032 157.62 204.507 157.592 204.093C157.566 203.685 157.514 203.431 157.434 203.227C157.133 202.469 156.491 201.856 155.659 201.564C155.167 201.391 154.527 201.382 152.912 201.382C152.635 201.382 152.372 201.382 152.124 201.383C150.925 201.425 149.965 202.41 149.965 203.62C149.965 203.748 149.971 203.885 149.978 204.039L149.981 204.096C149.987 204.23 149.994 204.376 149.997 204.522C150.004 204.851 149.993 205.236 149.894 205.607C149.7 206.329 149.136 206.894 148.413 207.088C148.042 207.187 147.657 207.198 147.328 207.191C147.182 207.188 147.036 207.181 146.902 207.174L146.845 207.172C146.691 207.165 146.554 207.159 146.426 207.159C145.19 207.159 144.187 208.161 144.187 209.398C144.187 209.408 144.187 209.418 144.187 209.428C144.187 209.47 144.187 209.513 144.187 209.556V211.762C144.187 213.108 144.188 214.061 144.274 214.795C144.359 215.513 144.518 215.942 144.78 216.272C144.951 216.487 145.156 216.679 145.387 216.843C145.749 217.097 146.221 217.251 146.999 217.332C147.786 217.415 148.807 217.415 150.234 217.415H150.903C152.657 217.415 153.911 217.414 154.863 217.294ZM144.234 206.62C144.837 206.143 145.598 205.859 146.426 205.859C146.587 205.859 146.752 205.866 146.905 205.873L146.964 205.876C147.1 205.882 147.227 205.888 147.355 205.891C147.65 205.897 147.886 205.883 148.076 205.832C148.35 205.759 148.565 205.544 148.638 205.27C148.689 205.08 148.703 204.844 148.697 204.549C148.694 204.421 148.688 204.294 148.682 204.158L148.679 204.099C148.672 203.945 148.665 203.781 148.665 203.62C148.665 202.803 148.942 202.051 149.407 201.452C148.806 201.501 148.352 201.585 147.945 201.728C146.362 202.284 145.128 203.454 144.547 204.918C144.379 205.342 144.285 205.844 144.236 206.582C144.235 206.594 144.234 206.607 144.234 206.62Z" fill="#6C737F"/>
<g opacity="0.7">
<path d="M71.6992 148.599C71.6992 145.065 74.5646 142.199 78.0992 142.199H91.5392C95.0738 142.199 97.9392 145.065 97.9392 148.599V162.039C97.9392 165.574 95.0738 168.439 91.5392 168.439H78.0992C74.5646 168.439 71.6992 165.574 71.6992 162.039V148.599Z" fill="#E5E7EB"/>
<path d="M87.5929 156.534C87.8801 156.534 88.1129 156.301 88.1129 156.014C88.1129 155.727 87.8801 155.494 87.5929 155.494H85.5129C85.2257 155.494 84.9929 155.727 84.9929 156.014C84.9929 156.301 85.2257 156.534 85.5129 156.534H87.5929Z" fill="#6C737F"/>
<path d="M87.5929 159.307C87.8801 159.307 88.1129 159.074 88.1129 158.787C88.1129 158.5 87.8801 158.267 87.5929 158.267L82.7396 158.267C82.4524 158.267 82.2196 158.5 82.2196 158.787C82.2196 159.074 82.4524 159.307 82.7396 159.307H87.5929Z" fill="#6C737F"/>
<path fill-rule="evenodd" clip-rule="evenodd" d="M84.8568 162.774H84.2538C83.1487 162.774 82.2784 162.774 81.588 162.702C80.8831 162.628 80.3034 162.475 79.8075 162.126C79.5428 161.939 79.3068 161.717 79.107 161.466C78.7292 160.991 78.5626 160.433 78.4833 159.759C78.4062 159.104 78.4062 158.281 78.4063 157.245V155.428C78.4063 154.417 78.4063 153.632 78.448 152.999C78.4904 152.357 78.5772 151.834 78.768 151.353C79.349 149.887 80.5727 148.742 82.1086 148.203C83.0646 147.867 84.2377 147.867 86.2937 147.867L86.5452 147.867C87.6789 147.867 88.3854 147.867 88.9682 148.071C89.9036 148.4 90.6535 149.099 91.0106 150C91.1317 150.305 91.1836 150.63 91.2086 151.008C91.2329 151.377 91.2329 151.831 91.2329 152.403V156.748C91.2329 158.021 91.2329 159.032 91.1198 159.824C91.0028 160.643 90.7559 161.303 90.2062 161.82C89.6611 162.333 88.9727 162.56 88.1182 162.668C87.2831 162.774 86.2143 162.774 84.8568 162.774ZM87.9876 161.636C88.7379 161.542 89.1756 161.362 89.4935 161.063C89.8069 160.768 89.9915 160.368 90.0903 159.677C90.1917 158.967 90.1929 158.03 90.1929 156.707V152.421C90.1929 151.827 90.1927 151.407 90.1708 151.076C90.1493 150.75 90.1084 150.546 90.0437 150.383C89.8034 149.777 89.29 149.287 88.6238 149.053C88.2304 148.915 87.7182 148.907 86.4269 148.907C86.2046 148.907 85.9948 148.907 85.7964 148.908C84.8367 148.941 84.069 149.73 84.069 150.698C84.069 150.8 84.0735 150.909 84.0792 151.033L84.0813 151.078C84.0864 151.186 84.0919 151.302 84.0943 151.419C84.0998 151.683 84.0915 151.99 84.0119 152.287C83.857 152.865 83.4053 153.317 82.8271 153.472C82.5303 153.551 82.2228 153.56 81.9592 153.554C81.8427 153.552 81.7258 153.546 81.6184 153.541L81.5727 153.539C81.4496 153.533 81.3399 153.529 81.2379 153.529C80.2487 153.529 79.4468 154.331 79.4468 155.32C79.4468 155.328 79.4466 155.336 79.4463 155.344C79.4463 155.378 79.4463 155.412 79.4463 155.447V157.211C79.4463 158.288 79.4471 159.05 79.5162 159.637C79.5838 160.212 79.711 160.555 79.921 160.819C80.058 160.991 80.2214 161.145 80.4065 161.276C80.6958 161.479 81.074 161.603 81.6959 161.668C82.326 161.733 83.1421 161.734 84.2838 161.734H84.8196C86.2225 161.734 87.2254 161.733 87.9876 161.636ZM79.4838 153.098C79.9661 152.716 80.5754 152.489 81.2379 152.489C81.3667 152.489 81.4982 152.494 81.6209 152.5L81.668 152.502C81.7766 152.507 81.8789 152.512 81.9808 152.514C82.217 152.519 82.406 152.508 82.558 152.467C82.7773 152.408 82.9486 152.237 83.0074 152.018C83.0481 151.866 83.0594 151.677 83.0545 151.441C83.0524 151.339 83.0476 151.236 83.0425 151.128L83.0403 151.081C83.0346 150.958 83.029 150.826 83.029 150.698C83.029 150.044 83.2504 149.442 83.6224 148.963C83.1418 149.003 82.7783 149.07 82.4531 149.184C81.1863 149.629 80.1991 150.564 79.7348 151.736C79.6004 152.075 79.5247 152.477 79.4858 153.067C79.4851 153.077 79.4844 153.087 79.4838 153.098Z" fill="#6C737F"/>
</g>
<g opacity="0.7" filter="url(#filter0_b_982_190501)">
<path d="M402.5 274.4C402.5 270.865 405.365 268 408.9 268H422.34C425.875 268 428.74 270.865 428.74 274.4V287.84C428.74 291.375 425.875 294.24 422.34 294.24H408.9C405.365 294.24 402.5 291.375 402.5 287.84V274.4Z" fill="#E5E7EB"/>
<path d="M418.394 282.335C418.681 282.335 418.914 282.102 418.914 281.815C418.914 281.527 418.681 281.295 418.394 281.295H416.314C416.027 281.295 415.794 281.527 415.794 281.815C415.794 282.102 416.027 282.335 416.314 282.335H418.394Z" fill="#6C737F"/>
<path d="M418.394 285.108C418.681 285.108 418.914 284.875 418.914 284.588C418.914 284.301 418.681 284.068 418.394 284.068L413.54 284.068C413.253 284.068 413.02 284.301 413.02 284.588C413.02 284.875 413.253 285.108 413.54 285.108H418.394Z" fill="#6C737F"/>
<path fill-rule="evenodd" clip-rule="evenodd" d="M415.658 288.575H415.055C413.949 288.575 413.079 288.575 412.389 288.503C411.684 288.429 411.104 288.276 410.608 287.927C410.344 287.74 410.108 287.518 409.908 287.267C409.53 286.792 409.363 286.234 409.284 285.559C409.207 284.905 409.207 284.081 409.207 283.046V281.228C409.207 280.217 409.207 279.433 409.249 278.799C409.291 278.157 409.378 277.635 409.569 277.154C410.15 275.687 411.373 274.543 412.909 274.003C413.865 273.668 415.038 273.668 417.094 273.668L417.346 273.668C418.48 273.668 419.186 273.668 419.769 273.872C420.704 274.201 421.454 274.9 421.811 275.801C421.932 276.106 421.984 276.431 422.009 276.808C422.034 277.178 422.034 277.632 422.034 278.204V282.549C422.034 283.822 422.034 284.833 421.921 285.625C421.804 286.443 421.557 287.104 421.007 287.621C420.462 288.134 419.774 288.361 418.919 288.469C418.084 288.575 417.015 288.575 415.658 288.575ZM418.788 287.437C419.539 287.342 419.976 287.163 420.294 286.864C420.608 286.569 420.792 286.169 420.891 285.478C420.992 284.768 420.994 283.831 420.994 282.508V278.222C420.994 277.628 420.993 277.208 420.972 276.877C420.95 276.55 420.909 276.347 420.844 276.184C420.604 275.577 420.091 275.087 419.425 274.854C419.031 274.715 418.519 274.708 417.228 274.708C417.005 274.708 416.796 274.708 416.597 274.708C415.637 274.742 414.87 275.531 414.87 276.498C414.87 276.6 414.874 276.71 414.88 276.833L414.882 276.879C414.887 276.986 414.893 277.103 414.895 277.22C414.901 277.483 414.892 277.791 414.813 278.088C414.658 278.666 414.206 279.118 413.628 279.272C413.331 279.352 413.024 279.36 412.76 279.355C412.643 279.352 412.527 279.347 412.419 279.342L412.373 279.34C412.25 279.334 412.141 279.33 412.039 279.33C411.049 279.33 410.248 280.131 410.248 281.121C410.248 281.129 410.247 281.137 410.247 281.145C410.247 281.178 410.247 281.213 410.247 281.247V283.012C410.247 284.089 410.248 284.851 410.317 285.438C410.385 286.013 410.512 286.356 410.722 286.62C410.859 286.792 411.022 286.946 411.207 287.076C411.497 287.28 411.875 287.404 412.497 287.468C413.127 287.534 413.943 287.535 415.085 287.535H415.62C417.023 287.535 418.026 287.534 418.788 287.437ZM410.285 278.898C410.767 278.517 411.376 278.29 412.039 278.29C412.167 278.29 412.299 278.295 412.422 278.301L412.469 278.303C412.577 278.308 412.68 278.313 412.782 278.315C413.018 278.32 413.207 278.309 413.359 278.268C413.578 278.209 413.749 278.038 413.808 277.819C413.849 277.667 413.86 277.478 413.855 277.241C413.853 277.139 413.848 277.037 413.843 276.929L413.841 276.881C413.835 276.759 413.83 276.627 413.83 276.498C413.83 275.845 414.051 275.243 414.423 274.764C413.943 274.803 413.579 274.87 413.254 274.985C411.987 275.429 411 276.365 410.536 277.537C410.401 277.876 410.325 278.277 410.287 278.868C410.286 278.878 410.285 278.888 410.285 278.898Z" fill="#6C737F"/>
</g>
<path d="M228.5 213.801C228.5 209.383 232.082 205.801 236.5 205.801H259.86C264.278 205.801 267.86 209.383 267.86 213.801V237.161C267.86 241.579 264.278 245.161 259.86 245.161H236.5C232.082 245.161 228.5 241.579 228.5 237.161V213.801Z" fill="#1F2A37"/>
<path fill-rule="evenodd" clip-rule="evenodd" d="M245.064 214.299C240.612 214.299 237.004 217.907 237.004 222.359C237.004 226.81 240.612 230.419 245.064 230.419C247.009 230.419 248.793 229.73 250.185 228.583L251.786 230.185C251.379 231.045 251.531 232.105 252.243 232.817L255.406 235.98C256.312 236.885 257.779 236.885 258.685 235.98C259.59 235.074 259.59 233.606 258.685 232.701L255.522 229.538C254.81 228.826 253.75 228.674 252.89 229.081L251.288 227.48C252.435 226.088 253.124 224.304 253.124 222.359C253.124 217.907 249.515 214.299 245.064 214.299ZM238.564 222.359C238.564 218.769 241.474 215.859 245.064 215.859C248.654 215.859 251.564 218.769 251.564 222.359C251.564 225.949 248.654 228.859 245.064 228.859C241.474 228.859 238.564 225.949 238.564 222.359ZM254.419 230.641C254.122 230.345 253.642 230.345 253.346 230.641C253.05 230.937 253.05 231.417 253.346 231.713L256.509 234.877C256.805 235.173 257.286 235.173 257.582 234.877C257.878 234.581 257.878 234.1 257.582 233.804L254.419 230.641Z" fill="white"/>
<defs>
<filter id="filter0_b_982_190501" x="394.18" y="259.68" width="42.8783" height="42.8802" filterUnits="userSpaceOnUse" color-interpolation-filters="sRGB">
<feFlood flood-opacity="0" result="BackgroundImageFix"/>
<feGaussianBlur in="BackgroundImageFix" stdDeviation="4.16"/>
<feComposite in2="SourceAlpha" operator="in" result="effect1_backgroundBlur_982_190501"/>
<feBlend mode="normal" in="SourceGraphic" in2="effect1_backgroundBlur_982_190501" result="shape"/>
</filter>
</defs>
</svg>
