<svg width="48" height="48" viewBox="0 0 48 48" fill="none" xmlns="http://www.w3.org/2000/svg">
<path d="M0 24C0 10.7452 10.7452 0 24 0C37.2548 0 48 10.7452 48 24C48 37.2548 37.2548 48 24 48C10.7452 48 0 37.2548 0 24Z" fill="#F3FCF6"/>
<path fill-rule="evenodd" clip-rule="evenodd" d="M24.0572 13.75H23.9428C21.7521 13.75 20.0314 13.75 18.688 13.9306C17.3114 14.1157 16.2191 14.5027 15.3609 15.3609C14.5027 16.2191 14.1157 17.3114 13.9306 18.688C13.75 20.0314 13.75 21.7521 13.75 23.9428V24.0572C13.75 26.2479 13.75 27.9686 13.9306 29.312C14.1157 30.6886 14.5027 31.7809 15.3609 32.6391C16.2191 33.4973 17.3114 33.8843 18.688 34.0694C20.0314 34.25 21.7521 34.25 23.9428 34.25H24.0572C26.2479 34.25 27.9686 34.25 29.312 34.0694C30.6886 33.8843 31.7809 33.4973 32.6391 32.6391C33.4973 31.7809 33.8843 30.6886 34.0694 29.312C34.25 27.9686 34.25 26.2479 34.25 24.0572V23.9428C34.25 21.7521 34.25 20.0314 34.0694 18.688C33.8843 17.3114 33.4973 16.2191 32.6391 15.3609C31.7809 14.5027 30.6886 14.1157 29.312 13.9306C27.9686 13.75 26.2479 13.75 24.0572 13.75ZM16.4216 16.4216C16.9546 15.8885 17.6776 15.5799 18.8879 15.4172C20.1198 15.2516 21.7396 15.25 24 15.25C26.2604 15.25 27.8802 15.2516 29.1121 15.4172C30.3224 15.5799 31.0454 15.8885 31.5784 16.4216C32.1115 16.9546 32.4201 17.6776 32.5828 18.8879C32.7484 20.1198 32.75 21.7396 32.75 24C32.75 24.2582 32.75 24.5081 32.7497 24.75H28.5743C27.2942 24.75 26.4389 25.7898 26.0284 26.6123C25.7382 27.1938 25.1746 27.75 24 27.75C22.8254 27.75 22.2618 27.1938 21.9716 26.6123C21.5611 25.7898 20.7058 24.75 19.4257 24.75H15.2503C15.25 24.5081 15.25 24.2582 15.25 24C15.25 21.7396 15.2516 20.1198 15.4172 18.8879C15.5799 17.6776 15.8885 16.9546 16.4216 16.4216ZM15.2588 26.25C15.2734 27.4012 15.3126 28.334 15.4172 29.1121C15.5799 30.3224 15.8885 31.0454 16.4216 31.5784C16.9546 32.1115 17.6776 32.4201 18.8879 32.5828C20.1198 32.7484 21.7396 32.75 24 32.75C26.2604 32.75 27.8802 32.7484 29.1121 32.5828C30.3224 32.4201 31.0454 32.1115 31.5784 31.5784C32.1115 31.0454 32.4201 30.3224 32.5828 29.1121C32.6874 28.334 32.7266 27.4012 32.7412 26.25H28.5743C28.1703 26.25 27.7023 26.6174 27.3705 27.2821C26.8544 28.3164 25.8032 29.25 24 29.25C22.1968 29.25 21.1456 28.3164 20.6295 27.2821C20.2977 26.6174 19.8297 26.25 19.4257 26.25H15.2588Z" fill="#1B8354"/>
</svg>
