<svg width="32" height="32" viewBox="0 0 32 32" fill="none" xmlns="http://www.w3.org/2000/svg">
<path d="M0.5 4C0.5 2.067 2.067 0.5 4 0.5H28C29.933 0.5 31.5 2.067 31.5 4V28C31.5 29.933 29.933 31.5 28 31.5H4C2.067 31.5 0.5 29.933 0.5 28V4Z" stroke="white" stroke-opacity="0.3"/>
<path fill-rule="evenodd" clip-rule="evenodd" d="M11.6247 16.0007C11.6247 13.5844 13.5834 11.6257 15.9997 11.6257C18.4159 11.6257 20.3747 13.5844 20.3747 16.0007C20.3747 18.4169 18.4159 20.3756 15.9997 20.3756C13.5834 20.3756 11.6247 18.4169 11.6247 16.0007ZM15.9997 12.8757C14.2738 12.8757 12.8747 14.2748 12.8747 16.0007C12.8747 17.7265 14.2738 19.1257 15.9997 19.1257C17.7256 19.1257 19.1247 17.7265 19.1247 16.0007C19.1247 14.2748 17.7256 12.8757 15.9997 12.8757Z" fill="white"/>
<path d="M20.5895 12.2507C21.0498 12.2507 21.4229 11.8776 21.4229 11.4173C21.4229 10.9571 21.0498 10.584 20.5895 10.584H20.582C20.1218 10.584 19.7487 10.9571 19.7487 11.4173C19.7487 11.8776 20.1218 12.2507 20.582 12.2507H20.5895Z" fill="white"/>
<path fill-rule="evenodd" clip-rule="evenodd" d="M16.0473 7.45898C17.8729 7.45897 19.3068 7.45897 20.4263 7.60948C21.5735 7.76372 22.4837 8.08625 23.1989 8.80141C23.9141 9.51658 24.2366 10.4268 24.3908 11.574C24.5414 12.6935 24.5414 14.1274 24.5413 15.953V16.0483C24.5414 17.8739 24.5414 19.3078 24.3908 20.4273C24.2366 21.5745 23.9141 22.4847 23.1989 23.1999C22.4837 23.9151 21.5735 24.2376 20.4263 24.3918C19.3068 24.5423 17.8729 24.5423 16.0473 24.5423H15.952C14.1265 24.5423 12.6925 24.5423 11.573 24.3918C10.4258 24.2376 9.5156 23.9151 8.80044 23.1999C8.08527 22.4847 7.76274 21.5745 7.6085 20.4273C7.45799 19.3078 7.458 17.8739 7.45801 16.0483V15.953C7.458 14.1274 7.45799 12.6935 7.6085 11.574C7.76274 10.4268 8.08527 9.51658 8.80044 8.80141C9.5156 8.08625 10.4258 7.76372 11.573 7.60948C12.6925 7.45897 14.1264 7.45897 15.952 7.45898H16.0473ZM11.7396 8.84833C10.731 8.98394 10.1285 9.24109 9.68432 9.6853C9.24012 10.1295 8.98296 10.732 8.84736 11.7406C8.70934 12.7671 8.70801 14.117 8.70801 16.0007C8.70801 17.8843 8.70934 19.2342 8.84736 20.2607C8.98296 21.2693 9.24012 21.8718 9.68432 22.316C10.1285 22.7602 10.731 23.0174 11.7396 23.153C12.7662 23.291 14.116 23.2923 15.9997 23.2923C17.8833 23.2923 19.2332 23.291 20.2598 23.153C21.2684 23.0174 21.8708 22.7602 22.315 22.316C22.7592 21.8718 23.0164 21.2693 23.152 20.2607C23.29 19.2342 23.2913 17.8843 23.2913 16.0007C23.2913 14.117 23.29 12.7671 23.152 11.7406C23.0164 10.732 22.7592 10.1295 22.315 9.6853C21.8708 9.24109 21.2684 8.98394 20.2598 8.84833C19.2332 8.71031 17.8833 8.70898 15.9997 8.70898C14.116 8.70898 12.7662 8.71031 11.7396 8.84833Z" fill="white"/>
</svg>
