<svg width="48" height="48" viewBox="0 0 48 48" fill="none" xmlns="http://www.w3.org/2000/svg">
<path d="M0 24C0 10.7452 10.7452 0 24 0C37.2548 0 48 10.7452 48 24C48 37.2548 37.2548 48 24 48C10.7452 48 0 37.2548 0 24Z" fill="#F3FCF6"/>
<path d="M24 13.249C24.4142 13.249 24.75 13.5848 24.75 13.999V14.999C24.75 15.4132 24.4142 15.749 24 15.749C23.5858 15.749 23.25 15.4132 23.25 14.999V13.999C23.25 13.5848 23.5858 13.249 24 13.249Z" fill="#1B8354"/>
<path d="M24 18.249C20.8462 18.249 18.25 20.8933 18.25 24.2049C18.25 25.0956 18.4383 25.9381 18.7746 26.6942C18.943 27.0726 18.7727 27.5159 18.3942 27.6843C18.0158 27.8526 17.5725 27.6823 17.4041 27.3039C16.9837 26.3587 16.75 25.3087 16.75 24.2049C16.75 20.1094 19.9741 16.749 24 16.749C28.026 16.749 31.25 20.1094 31.25 24.2049C31.25 25.3087 31.0163 26.3587 30.5959 27.3039C30.4275 27.6823 29.9842 27.8526 29.6058 27.6843C29.2273 27.5159 29.057 27.0726 29.2253 26.6942C29.5617 25.9381 29.75 25.0955 29.75 24.2049C29.75 20.8933 27.1538 18.249 24 18.249Z" fill="#1B8354"/>
<path d="M33 23.249C32.5858 23.249 32.25 23.5848 32.25 23.999C32.25 24.4132 32.5858 24.749 33 24.749H34C34.4142 24.749 34.75 24.4132 34.75 23.999C34.75 23.5848 34.4142 23.249 34 23.249H33Z" fill="#1B8354"/>
<path d="M13.25 23.999C13.25 23.5848 13.5858 23.249 14 23.249H15C15.4142 23.249 15.75 23.5848 15.75 23.999C15.75 24.4132 15.4142 24.749 15 24.749H14C13.5858 24.749 13.25 24.4132 13.25 23.999Z" fill="#1B8354"/>
<path d="M31.6007 17.4581C31.8936 17.1652 31.8936 16.6903 31.6007 16.3974C31.3078 16.1045 30.8329 16.1045 30.54 16.3974L29.8329 17.1045C29.5401 17.3974 29.5401 17.8723 29.833 18.1652C30.1259 18.4581 30.6007 18.4581 30.8936 18.1652L31.6007 17.4581Z" fill="#1B8354"/>
<path d="M16.3994 16.3984C16.6923 16.1055 17.1671 16.1055 17.46 16.3984L18.1671 17.1055C18.46 17.3984 18.46 17.8733 18.1671 18.1662C17.8742 18.459 17.3994 18.459 17.1065 18.1662L16.3994 17.459C16.1065 17.1661 16.1065 16.6913 16.3994 16.3984Z" fill="#1B8354"/>
<path fill-rule="evenodd" clip-rule="evenodd" d="M28.7919 29.2148C28.6791 30.135 28.2852 31.2474 27.2273 31.8161C27.1385 32.6268 26.9375 33.3529 26.4634 33.8874C25.8683 34.5584 25.0048 34.7594 24.0101 34.7492C22.9243 34.7674 22.0543 34.5122 21.4753 33.8093C21.0192 33.2555 20.8372 32.524 20.7467 31.7649C20.304 31.4851 19.967 31.1569 19.7239 30.7622C19.4236 30.2747 19.3069 29.7495 19.2455 29.2383C19.1535 28.4738 19.7697 27.8654 20.4777 27.8654L27.5728 27.8652C28.2476 27.8652 28.8872 28.4365 28.7919 29.2148ZM21.0011 29.9756C20.9013 29.8136 20.8317 29.621 20.7818 29.3654L27.2466 29.3652C27.1159 29.9544 26.8399 30.3681 26.3862 30.5554H21.6448C21.3008 30.3564 21.1158 30.1619 21.0011 29.9756ZM22.6331 32.8556C22.4966 32.6898 22.3896 32.4402 22.3107 32.0554H25.6771C25.5958 32.4863 25.4777 32.7382 25.3412 32.8921C25.1706 33.0845 24.844 33.259 24.0165 33.2492C24.0089 33.2491 24.0014 33.2491 23.9938 33.2493C23.1307 33.2652 22.8029 33.0617 22.6331 32.8556Z" fill="#1B8354"/>
</svg>
