<svg width="54" height="53" viewBox="0 0 54 53" fill="none" xmlns="http://www.w3.org/2000/svg">
<path fill-rule="evenodd" clip-rule="evenodd" d="M34.15 8.91536C34.15 5.57403 36.8587 2.86536 40.2 2.86536C43.5413 2.86536 46.25 5.57403 46.25 8.91536C46.25 12.2567 43.5413 14.9654 40.2 14.9654C36.8587 14.9654 34.15 12.2567 34.15 8.91536ZM40.2 6.16536C38.6812 6.16536 37.45 7.39657 37.45 8.91536C37.45 10.4341 38.6812 11.6654 40.2 11.6654C41.7188 11.6654 42.95 10.4341 42.95 8.91536C42.95 7.39657 41.7188 6.16536 40.2 6.16536Z" fill="white"/>
<path fill-rule="evenodd" clip-rule="evenodd" d="M34.0637 17.7179C37.8228 15.5145 42.5771 15.5145 46.3363 17.7179C46.4233 17.7689 46.5405 17.8337 46.6798 17.9107C47.3608 18.2872 48.5721 18.9569 49.3946 19.7494C49.9069 20.243 50.5184 21.0062 50.6319 22.0284C50.7572 23.1565 50.2355 24.1294 49.4319 24.8831C48.2008 26.0376 46.6133 27.0654 44.5111 27.0654H35.8888C33.7867 27.0654 32.1992 26.0376 30.9681 24.8831C30.1645 24.1294 29.6428 23.1565 29.7681 22.0284C29.8816 21.0062 30.4931 20.243 31.0054 19.7494C31.8279 18.9569 33.0392 18.2872 33.7202 17.9107C33.8595 17.8337 33.9766 17.7689 34.0637 17.7179ZM45.2825 20.9145C45.0769 20.7994 44.8698 20.6834 44.6676 20.5649C41.9389 18.9655 38.4611 18.9655 35.7324 20.5649C35.5301 20.6835 35.3235 20.7991 35.1179 20.9143C34.4383 21.2948 33.7681 21.6701 33.2951 22.1258C33.1972 22.2201 33.1359 22.2929 33.0981 22.344C33.1272 22.3784 33.1683 22.4223 33.2255 22.476C34.1527 23.3455 34.9689 23.7654 35.8888 23.7654H44.5111C45.4311 23.7654 46.2473 23.3455 47.1745 22.476C47.2317 22.4223 47.2728 22.3784 47.3019 22.344C47.2641 22.2929 47.2027 22.2201 47.1048 22.1258C46.6318 21.6701 45.9621 21.295 45.2825 20.9145ZM47.3676 22.2481C47.3676 22.2481 47.3665 22.2532 47.3607 22.2636C47.3617 22.2604 47.3628 22.2577 47.3638 22.2555C47.3643 22.2542 47.3648 22.2531 47.3653 22.2521L47.3676 22.2481ZM33.0324 22.2481C33.0324 22.2481 33.036 22.2534 33.0393 22.2636C33.0334 22.2532 33.0324 22.2481 33.0324 22.2481Z" fill="white"/>
<path d="M25.9422 5.06527H28.1467C29.0579 5.06527 29.7967 5.804 29.7967 6.71527C29.7967 7.62654 29.0579 8.36527 28.1467 8.36527H25.9546C24.7478 8.38341 23.5472 8.43167 22.3687 8.50986C13.9893 9.06586 7.28726 15.8284 6.73536 24.3527C6.62168 26.1085 6.62168 27.9291 6.73536 29.6849C6.9291 32.6774 8.26665 35.5418 9.96128 38.0818C9.9866 38.1198 10.0103 38.1588 10.0324 38.1987C11.5063 40.8623 10.4253 43.8997 9.32503 45.981C9.14494 46.3217 8.99696 46.6018 8.87437 46.846C9.04155 46.8518 9.2298 46.8565 9.44778 46.8618C11.8053 46.9191 13.3002 46.2682 14.4901 45.3923L14.5287 45.3639C14.9116 45.082 15.2586 44.8265 15.5456 44.6412C15.795 44.4801 16.2503 44.1967 16.8032 44.1288C17.3821 44.0578 17.9439 44.2542 18.2252 44.3529C18.5846 44.479 19.0413 44.6668 19.5694 44.8839L19.6124 44.9016C20.4494 45.2457 21.4512 45.4669 22.3687 45.5278C25.4356 45.7313 28.6471 45.7317 31.7202 45.5278C39.7728 44.9935 46.3639 38.7344 47.3627 30.7115C47.4753 29.8072 48.2997 29.1654 49.2039 29.2779C50.1082 29.3905 50.75 30.2149 50.6375 31.1192C49.4446 40.7001 41.5819 48.1807 31.9387 48.8205C28.7199 49.0341 25.3624 49.0337 22.1503 48.8205C20.9055 48.738 19.5506 48.4442 18.3577 47.9538C17.831 47.7372 17.4739 47.5909 17.2128 47.4955C17.0332 47.6186 16.7945 47.7937 16.4464 48.0499C14.7001 49.3353 12.4958 50.2368 9.36762 50.1608L9.26695 50.1584C8.663 50.144 8.01995 50.1286 7.49565 50.0274C6.86484 49.9055 6.08357 49.6011 5.59421 48.7683C5.06108 47.8609 5.27491 46.9432 5.48165 46.3655C5.67672 45.8205 6.01483 45.1813 6.36019 44.5284L6.40763 44.4387C7.4357 42.494 7.72148 40.906 7.17236 39.8475C5.33762 37.0829 3.68681 33.6755 3.44225 29.8981C3.31938 28.0003 3.31938 26.0373 3.44225 24.1395C4.09913 13.9938 12.0874 5.8848 22.1503 5.2171C23.3907 5.13479 24.652 5.08426 25.9177 5.06545L25.9422 5.06527Z" fill="white"/>
<path d="M18.1996 25.4154C16.9845 25.4154 15.9996 26.4003 15.9996 27.6154C15.9996 28.8304 16.9845 29.8154 18.1996 29.8154H18.2193C19.4343 29.8154 20.4193 28.8304 20.4193 27.6154C20.4193 26.4003 19.4343 25.4154 18.2193 25.4154H18.1996Z" fill="white"/>
<path d="M26.9897 25.4154C25.7747 25.4154 24.7897 26.4003 24.7897 27.6154C24.7897 28.8304 25.7747 29.8154 26.9897 29.8154H27.0094C28.2245 29.8154 29.2094 28.8304 29.2094 27.6154C29.2094 26.4003 28.2245 25.4154 27.0094 25.4154H26.9897Z" fill="white"/>
</svg>
