<svg width="24" height="24" viewBox="0 0 24 24" fill="none" xmlns="http://www.w3.org/2000/svg">
<path d="M13.0739 6.29179C12.6737 6.18515 12.2628 6.42317 12.1561 6.82342C12.0495 7.22367 12.2875 7.63459 12.6877 7.74123L17.4606 9.01291C17.8609 9.11955 18.2718 8.88154 18.3785 8.48129C18.4851 8.08104 18.2471 7.67012 17.8468 7.56348L13.0739 6.29179Z" fill="#161616"/>
<path d="M12.0508 10.0886C11.6506 9.98195 11.2396 10.22 11.133 10.6202C11.0264 11.0205 11.2644 11.4314 11.6646 11.538L14.0511 12.1739C14.4513 12.2805 14.8622 12.0425 14.9689 11.6422C15.0755 11.242 14.8375 10.8311 14.4373 10.7244L12.0508 10.0886Z" fill="#161616"/>
<path fill-rule="evenodd" clip-rule="evenodd" d="M17.2693 2.32287L16.2093 2.04043C14.9041 1.69265 13.8515 1.4122 12.9938 1.30229C12.1033 1.18818 11.3123 1.241 10.582 1.66025C9.85111 2.07986 9.40858 2.73583 9.06201 3.5614C8.72858 4.35566 8.4464 5.40287 8.09685 6.70016L7.04511 10.6032C6.69553 11.9004 6.41332 12.9476 6.30269 13.8013C6.18771 14.6885 6.24088 15.4779 6.66385 16.2064C7.08645 16.9342 7.74612 17.3737 8.57468 17.7176C9.37282 18.0489 10.4254 18.3293 11.7305 18.677L12.7906 18.9595C14.0958 19.3072 15.1484 19.5877 16.0061 19.6976C16.8966 19.8117 17.6876 19.7589 18.4179 19.3396C19.1488 18.92 19.5913 18.2641 19.9379 17.4385C20.2713 16.6442 20.5535 15.597 20.903 14.2997L21.9548 10.3967C22.3044 9.09954 22.5866 8.05231 22.6972 7.19861C22.8122 6.31139 22.759 5.52199 22.336 4.79352C21.9134 4.06567 21.2538 3.62623 20.4252 3.28231C19.6271 2.95102 18.5745 2.67059 17.2693 2.32287ZM11.3288 2.96112C11.6621 2.76981 12.0779 2.69719 12.8032 2.79013C13.5498 2.8858 14.5054 3.13879 15.8758 3.50391L16.8304 3.75824C18.2008 4.12337 19.1556 4.37939 19.8502 4.66771C20.5251 4.94786 20.8474 5.21702 21.0388 5.5467C21.2299 5.87576 21.3029 6.28629 21.2096 7.00583C21.1136 7.74725 20.8594 8.69664 20.4921 10.0596L19.469 13.8564C19.1017 15.2193 18.8444 16.1679 18.5548 16.8579C18.2738 17.5273 18.0037 17.8478 17.6711 18.0388C17.3378 18.2301 16.922 18.3027 16.1967 18.2098C15.4501 18.1141 14.4944 17.8611 13.1241 17.496L12.1695 17.2417C10.7991 16.8765 9.84433 16.6205 9.14973 16.3322C8.4748 16.052 8.15246 15.7829 7.96104 15.4532C7.76999 15.1241 7.697 14.7136 7.79025 13.9941C7.88633 13.2526 8.14049 12.3033 8.50777 10.9403L9.53089 7.1435C9.89815 5.78058 10.1554 4.83197 10.4451 4.14201C10.7261 3.47257 10.9962 3.15208 11.3288 2.96112Z" fill="#161616"/>
<path d="M5.4999 6.25029L5.32693 6.25014C4.66446 6.2493 3.97863 6.24842 3.39568 6.36442C2.72067 6.49874 2.06747 6.81078 1.65961 7.5287C1.24117 8.26524 1.18813 9.06288 1.30233 9.96353C1.41245 10.832 1.69358 11.8982 2.04277 13.2224L3.09113 17.1986C3.44022 18.5226 3.72134 19.5889 4.05334 20.3972C4.39748 21.235 4.83709 21.9023 5.5666 22.3303C6.29791 22.7594 7.09102 22.8134 7.98204 22.6968C8.83887 22.5846 9.88979 22.2984 11.191 21.944L12.197 21.6701C12.5967 21.5613 12.8324 21.149 12.7236 20.7494C12.6148 20.3497 12.2026 20.114 11.8029 20.2228L10.8506 20.4821C9.48295 20.8545 8.53075 21.1121 7.78727 21.2095C7.06622 21.3039 6.65541 21.23 6.32569 21.0366C5.99418 20.8421 5.72284 20.5138 5.44085 19.8272C5.1511 19.1218 4.89393 18.1526 4.5277 16.7636L3.50699 12.8923C3.14079 11.5035 2.88658 10.5332 2.79041 9.77484C2.69688 9.03721 2.76969 8.61137 2.96383 8.26965C3.08587 8.05484 3.27679 7.91749 3.68842 7.83558C4.11864 7.74997 4.65799 7.7501 5.3842 7.75027L5.50001 7.75029C5.91423 7.75026 6.24999 7.41444 6.24995 7.00023C6.24992 6.58602 5.91411 6.25026 5.4999 6.25029Z" fill="#161616"/>
</svg>
