<svg width="48" height="48" viewBox="0 0 48 48" fill="none" xmlns="http://www.w3.org/2000/svg">
<path d="M0 24C0 10.7452 10.7452 0 24 0C37.2548 0 48 10.7452 48 24C48 37.2548 37.2548 48 24 48C10.7452 48 0 37.2548 0 24Z" fill="#F3FCF6"/>
<path fill-rule="evenodd" clip-rule="evenodd" d="M22.5 26.7461C19.881 26.7461 17.75 24.6151 17.75 21.9961C17.75 19.3771 19.881 17.2461 22.5 17.2461C25.119 17.2461 27.25 19.3771 27.25 21.9961C27.25 24.6151 25.119 26.7461 22.5 26.7461ZM22.5 18.7781C22.239 19.0251 21.75 20.1161 21.75 21.9961C21.75 23.8761 22.239 24.9671 22.5 25.2141C22.761 24.9671 23.25 23.8761 23.25 21.9961C23.25 20.1161 22.761 19.0251 22.5 18.7781ZM24.413 19.3701C24.64 20.1651 24.75 21.0941 24.75 21.9961C24.75 22.8981 24.641 23.8271 24.413 24.6221C25.223 24.0301 25.75 23.0741 25.75 21.9961C25.75 20.9181 25.223 19.9621 24.413 19.3701ZM20.587 19.3701C19.777 19.9621 19.25 20.9181 19.25 21.9961C19.25 23.0741 19.777 24.0301 20.587 24.6221C20.36 23.8271 20.25 22.8981 20.25 21.9961C20.25 21.0941 20.359 20.1651 20.587 19.3701Z" fill="#1B8354"/>
<path d="M19 29.7461L26 29.7461C26.414 29.7461 26.75 29.4101 26.75 28.9961C26.75 28.5821 26.414 28.2461 26 28.2461L19 28.2461C18.586 28.2461 18.25 28.5821 18.25 28.9961C18.25 29.4101 18.586 29.7461 19 29.7461Z" fill="#1B8354"/>
<path fill-rule="evenodd" clip-rule="evenodd" d="M24 34.7461C24.3169 34.7461 24.6206 34.7461 24.9116 34.7451C24.9241 34.7457 24.9366 34.746 24.9492 34.746V34.748C27.6762 34.748 29.1782 34.748 30.3342 33.828C31.4872 32.908 31.8312 31.439 32.4552 28.771L34.3732 20.57C34.7412 18.998 34.9432 18.132 34.4882 17.355C33.8119 16.202 32.4202 16.2075 31.4547 16.2353C31.273 15.5302 30.9793 14.9655 30.505 14.4911C29.261 13.2461 27.392 13.2461 24 13.2461H21C17.608 13.2461 15.74 13.2461 14.495 14.4911C13.25 15.7351 13.25 17.6041 13.25 20.9961L13.25 26.9961C13.25 30.3881 13.25 32.2561 14.495 33.5011C15.739 34.7461 17.608 34.7461 21 34.7461H24ZM31.6809 17.7296C31.75 18.63 31.75 19.7022 31.75 20.9961V25.1968L32.9132 20.2234C33.1741 19.1072 33.3459 18.3723 33.1933 18.113C32.9774 17.7456 32.3036 17.717 31.6809 17.7296ZM20.9998 14.7461L24 14.7461C27.0889 14.7461 28.64 14.7461 29.445 15.5511C30.25 16.3571 30.25 17.907 30.25 20.9959V26.9961C30.25 30.0849 30.25 31.6361 29.445 32.4411C28.639 33.2461 27.0891 33.2461 24.0002 33.2461H21C17.9111 33.2461 16.36 33.2461 15.555 32.4411C14.75 31.6351 14.75 30.0852 14.75 26.9963L14.75 20.9961C14.75 17.9072 14.75 16.3561 15.555 15.5511C16.361 14.7461 17.9109 14.7461 20.9998 14.7461Z" fill="#1B8354"/>
</svg>
