<svg width="18" height="18" viewBox="0 0 18 18" fill="none" xmlns="http://www.w3.org/2000/svg">
<path fill-rule="evenodd" clip-rule="evenodd" d="M3 0.9375C2.68934 0.9375 2.4375 1.18934 2.4375 1.5C2.4375 1.81066 2.68934 2.0625 3 2.0625H3.1875V3.75C3.1875 6.06608 4.54213 8.06578 6.50232 9C4.54213 9.93422 3.1875 11.9339 3.1875 14.25V15.9375H3C2.68934 15.9375 2.4375 16.1893 2.4375 16.5C2.4375 16.8107 2.68934 17.0625 3 17.0625H15C15.3107 17.0625 15.5625 16.8107 15.5625 16.5C15.5625 16.1893 15.3107 15.9375 15 15.9375H14.8125V14.25C14.8125 11.9339 13.4579 9.93423 11.4977 9C13.4579 8.06578 14.8125 6.06608 14.8125 3.75V2.0625H15C15.3107 2.0625 15.5625 1.81066 15.5625 1.5C15.5625 1.18934 15.3107 0.9375 15 0.9375H3ZM13.6875 2.0625H4.3125V3.75C4.3125 6.33883 6.41117 8.4375 9 8.4375C11.5888 8.4375 13.6875 6.33883 13.6875 3.75V2.0625ZM13.6875 15.9375V14.25C13.6875 11.6612 11.5888 9.5625 9 9.5625C6.41116 9.5625 4.3125 11.6612 4.3125 14.25V15.9375H13.6875Z" fill="#161616"/>
</svg>
