<svg width="48" height="48" viewBox="0 0 48 48" fill="none" xmlns="http://www.w3.org/2000/svg">
<path d="M0 24C0 10.7452 10.7452 0 24 0V0C37.2548 0 48 10.7452 48 24V24C48 37.2548 37.2548 48 24 48V48C10.7452 48 0 37.2548 0 24V24Z" fill="#F3FCF6"/>
<path fill-rule="evenodd" clip-rule="evenodd" d="M21 13.25C16.7198 13.25 13.25 16.7198 13.25 21C13.25 25.2802 16.7198 28.75 21 28.75C22.87 28.75 24.5853 28.0877 25.9241 26.9849L27.464 28.5247C27.0721 29.3522 27.2184 30.371 27.9029 31.0555L30.9445 34.0971C31.8151 34.9676 33.2265 34.9676 34.0971 34.0971C34.9676 33.2265 34.9676 31.8151 34.0971 30.9445L31.0555 27.9029C30.371 27.2184 29.3521 27.0721 28.5246 27.464L26.9848 25.9242C28.0877 24.5854 28.75 22.87 28.75 21C28.75 16.7198 25.2802 13.25 21 13.25ZM14.75 21C14.75 17.5482 17.5482 14.75 21 14.75C24.4518 14.75 27.25 17.5482 27.25 21C27.25 24.4518 24.4518 27.25 21 27.25C17.5482 27.25 14.75 24.4518 14.75 21ZM29.9948 28.9636C29.7101 28.6788 29.2484 28.6788 28.9636 28.9636C28.6788 29.2484 28.6788 29.7101 28.9636 29.9948L32.0052 33.0364C32.2899 33.3212 32.7516 33.3212 33.0364 33.0364C33.3212 32.7516 33.3212 32.2899 33.0364 32.0052L29.9948 28.9636Z" fill="#1B8354"/>
</svg>
