<svg width="64" height="64" viewBox="0 0 64 64" fill="none" xmlns="http://www.w3.org/2000/svg">
<g clip-path="url(#clip0_835_170084)">
<path d="M64 32C64 49.6731 49.6731 64 32 64C14.3269 64 0 49.6731 0 32C0 14.3269 14.3269 0 32 0C49.6731 0 64 14.3269 64 32ZM3.84 32C3.84 47.5523 16.4477 60.16 32 60.16C47.5523 60.16 60.16 47.5523 60.16 32C60.16 16.4477 47.5523 3.84 32 3.84C16.4477 3.84 3.84 16.4477 3.84 32Z" fill="#E5E7EB"/>
<path d="M32 0C49.6731 0 64 14.3269 64 32C64 49.6731 49.6731 64 32 64C14.3269 64 0 49.6731 0 32C0 14.3269 14.3269 0 32 0ZM32 60.161C47.5529 60.161 60.161 47.5529 60.161 32C60.161 16.4471 47.5529 3.83904 32 3.83904C16.4471 3.83904 3.83904 16.4471 3.83904 32C3.83904 47.5529 16.4471 60.161 32 60.161Z" fill="#1B8354"/>
<path d="M15.718 37V35.124H11.42V33.332L15.228 27.228H17.72V33.5H18.952V35.124H17.72V37H15.718ZM13.1 33.5H15.718V29.398H15.578L13.1 33.5ZM27.5471 40.36C26.1098 40.36 25.0225 40.024 24.2851 39.352C23.5571 38.6893 23.1931 37.7467 23.1931 36.524C23.1931 36.104 23.2491 35.6327 23.3611 35.11C23.4825 34.578 23.6458 34.0647 23.8511 33.57L25.1951 33.962C25.0085 34.3633 24.8591 34.7693 24.7471 35.18C24.6445 35.5907 24.5931 35.9453 24.5931 36.244C24.5931 36.832 24.8031 37.2847 25.2231 37.602C25.6431 37.9287 26.2311 38.092 26.9871 38.092H28.1071C28.9005 38.092 29.4838 37.91 29.8571 37.546C30.2305 37.182 30.4171 36.6127 30.4171 35.838C30.4171 35.6233 30.3938 35.348 30.3471 35.012C30.3005 34.676 30.2445 34.3587 30.1791 34.06L29.8991 32.758L31.4111 32.464L31.6771 33.752C31.7145 33.92 31.7471 34.1067 31.7751 34.312C31.8031 34.508 31.8265 34.704 31.8451 34.9H33.1051V36.58L32.6851 37H31.8171C31.6585 38.148 31.2291 38.9927 30.5291 39.534C29.8385 40.0847 28.8445 40.36 27.5471 40.36ZM27.4071 32.828C27.1645 32.828 26.9638 32.7533 26.8051 32.604C26.6558 32.4547 26.5811 32.2167 26.5811 31.89C26.5811 31.5633 26.6558 31.3253 26.8051 31.176C26.9638 31.0267 27.1645 30.952 27.4071 30.952H27.6871C27.9298 30.952 28.1258 31.0267 28.2751 31.176C28.4338 31.3253 28.5131 31.5633 28.5131 31.89C28.5131 32.2167 28.4338 32.4547 28.2751 32.604C28.1258 32.7533 27.9298 32.828 27.6871 32.828H27.4071ZM34.7454 36.216C34.5308 36.5053 34.2601 36.7107 33.9334 36.832C33.6161 36.944 33.2008 37 32.6874 37V35.32L33.1074 34.9C33.4528 34.9 33.7048 34.8487 33.8634 34.746C34.0221 34.6433 34.1528 34.4613 34.2554 34.2L34.6474 33.234C34.7688 32.9353 34.9041 32.6553 35.0534 32.394C35.2028 32.1327 35.3801 31.904 35.5854 31.708C35.7908 31.512 36.0194 31.358 36.2714 31.246C36.5328 31.134 36.8314 31.078 37.1674 31.078C38.0448 31.078 38.7028 31.4233 39.1414 32.114C39.5894 32.8047 39.8134 33.7613 39.8134 34.984V35.39L38.4834 37.364L34.7454 36.216ZM35.5154 34.27L38.3294 35.124V34.984C38.3294 34.424 38.1941 33.9853 37.9234 33.668C37.6528 33.3507 37.2841 33.192 36.8174 33.192C36.5188 33.192 36.2574 33.2713 36.0334 33.43C35.8188 33.5887 35.6554 33.8407 35.5434 34.186L35.5154 34.27ZM48.3254 37V35.124H44.0274V33.332L47.8354 27.228H50.3274V33.5H51.5594V35.124H50.3274V37H48.3254ZM45.7074 33.5H48.3254V29.398H48.1854L45.7074 33.5Z" fill="#384250"/>
</g>
<defs>
<clipPath id="clip0_835_170084">
<rect width="64" height="64" fill="white"/>
</clipPath>
</defs>
</svg>
