<svg width="64" height="64" viewBox="0 0 64 64" fill="none" xmlns="http://www.w3.org/2000/svg">
<g clip-path="url(#clip0_835_170076)">
<path d="M64 32C64 49.6731 49.6731 64 32 64C14.3269 64 0 49.6731 0 32C0 14.3269 14.3269 0 32 0C49.6731 0 64 14.3269 64 32ZM3.84 32C3.84 47.5523 16.4477 60.16 32 60.16C47.5523 60.16 60.16 47.5523 60.16 32C60.16 16.4477 47.5523 3.84 32 3.84C16.4477 3.84 3.84 16.4477 3.84 32Z" fill="#E5E7EB"/>
<path d="M32 62.0805C32 63.1406 32.8602 64.006 33.9184 63.9424C37.4647 63.7295 40.9554 62.9271 44.2459 61.5641C48.1283 59.956 51.6559 57.5989 54.6274 54.6274C57.5989 51.6559 59.956 48.1283 61.5641 44.2459C63.1723 40.3635 64 36.2023 64 32C64 27.7977 63.1723 23.6366 61.5641 19.7541C59.956 15.8717 57.5989 12.3441 54.6274 9.37258C51.6559 6.40111 48.1283 4.04401 44.2459 2.43586C40.9554 1.07289 37.4647 0.270533 33.9184 0.0575534C32.8602 -0.00599985 32 0.859399 32 1.91952V1.91952C32 2.97964 32.8604 3.83223 33.9181 3.90444C36.9598 4.1121 39.9521 4.81267 42.7767 5.98267C46.1934 7.39789 49.2978 9.47221 51.9128 12.0872C54.5278 14.7022 56.6021 17.8066 58.0173 21.2233C59.4326 24.6399 60.161 28.3019 60.161 32C60.161 35.6982 59.4326 39.3601 58.0173 42.7767C56.6021 46.1934 54.5278 49.2978 51.9128 51.9128C49.2978 54.5278 46.1934 56.6021 42.7767 58.0173C39.9521 59.1873 36.9598 59.8879 33.9181 60.0956C32.8604 60.1678 32 61.0204 32 62.0805V62.0805Z" fill="#1B8354"/>
<path d="M15.718 37V35.124H11.42V33.332L15.228 27.228H17.72V33.5H18.952V35.124H17.72V37H15.718ZM13.1 33.5H15.718V29.398H15.578L13.1 33.5ZM27.5471 40.36C26.1098 40.36 25.0225 40.024 24.2851 39.352C23.5571 38.6893 23.1931 37.7467 23.1931 36.524C23.1931 36.104 23.2491 35.6327 23.3611 35.11C23.4825 34.578 23.6458 34.0647 23.8511 33.57L25.1951 33.962C25.0085 34.3633 24.8591 34.7693 24.7471 35.18C24.6445 35.5907 24.5931 35.9453 24.5931 36.244C24.5931 36.832 24.8031 37.2847 25.2231 37.602C25.6431 37.9287 26.2311 38.092 26.9871 38.092H28.1071C28.9005 38.092 29.4838 37.91 29.8571 37.546C30.2305 37.182 30.4171 36.6127 30.4171 35.838C30.4171 35.6233 30.3938 35.348 30.3471 35.012C30.3005 34.676 30.2445 34.3587 30.1791 34.06L29.8991 32.758L31.4111 32.464L31.6771 33.752C31.7145 33.92 31.7471 34.1067 31.7751 34.312C31.8031 34.508 31.8265 34.704 31.8451 34.9H33.1051V36.58L32.6851 37H31.8171C31.6585 38.148 31.2291 38.9927 30.5291 39.534C29.8385 40.0847 28.8445 40.36 27.5471 40.36ZM27.4071 32.828C27.1645 32.828 26.9638 32.7533 26.8051 32.604C26.6558 32.4547 26.5811 32.2167 26.5811 31.89C26.5811 31.5633 26.6558 31.3253 26.8051 31.176C26.9638 31.0267 27.1645 30.952 27.4071 30.952H27.6871C27.9298 30.952 28.1258 31.0267 28.2751 31.176C28.4338 31.3253 28.5131 31.5633 28.5131 31.89C28.5131 32.2167 28.4338 32.4547 28.2751 32.604C28.1258 32.7533 27.9298 32.828 27.6871 32.828H27.4071ZM34.7454 36.216C34.5308 36.5053 34.2601 36.7107 33.9334 36.832C33.6161 36.944 33.2008 37 32.6874 37V35.32L33.1074 34.9C33.4528 34.9 33.7048 34.8487 33.8634 34.746C34.0221 34.6433 34.1528 34.4613 34.2554 34.2L34.6474 33.234C34.7688 32.9353 34.9041 32.6553 35.0534 32.394C35.2028 32.1327 35.3801 31.904 35.5854 31.708C35.7908 31.512 36.0194 31.358 36.2714 31.246C36.5328 31.134 36.8314 31.078 37.1674 31.078C38.0448 31.078 38.7028 31.4233 39.1414 32.114C39.5894 32.8047 39.8134 33.7613 39.8134 34.984V35.39L38.4834 37.364L34.7454 36.216ZM35.5154 34.27L38.3294 35.124V34.984C38.3294 34.424 38.1941 33.9853 37.9234 33.668C37.6528 33.3507 37.2841 33.192 36.8174 33.192C36.5188 33.192 36.2574 33.2713 36.0334 33.43C35.8188 33.5887 35.6554 33.8407 35.5434 34.186L35.5154 34.27ZM51.3214 37H44.4054V35.082L47.4154 32.506C47.6861 32.2727 47.9148 32.0627 48.1014 31.876C48.2881 31.68 48.4374 31.4933 48.5494 31.316C48.6708 31.1293 48.7548 30.9473 48.8014 30.77C48.8574 30.5927 48.8854 30.4013 48.8854 30.196V30C48.8854 29.8133 48.8481 29.65 48.7734 29.51C48.6988 29.37 48.6008 29.2533 48.4794 29.16C48.3581 29.0667 48.2181 28.9967 48.0594 28.95C47.9101 28.9033 47.7561 28.88 47.5974 28.88C47.3641 28.88 47.1588 28.9173 46.9814 28.992C46.8134 29.0667 46.6641 29.1693 46.5334 29.3C46.4121 29.4213 46.3094 29.566 46.2254 29.734C46.1414 29.8927 46.0761 30.0653 46.0294 30.252L44.1954 29.552C44.3074 29.216 44.4614 28.8987 44.6574 28.6C44.8534 28.292 45.0961 28.026 45.3854 27.802C45.6841 27.5687 46.0341 27.3867 46.4354 27.256C46.8368 27.1253 47.2894 27.06 47.7934 27.06C48.3254 27.06 48.7968 27.1347 49.2074 27.284C49.6181 27.4333 49.9634 27.6387 50.2434 27.9C50.5328 28.1613 50.7521 28.474 50.9014 28.838C51.0508 29.1927 51.1254 29.58 51.1254 30C51.1254 30.42 51.0554 30.8027 50.9154 31.148C50.7754 31.4933 50.5841 31.82 50.3414 32.128C50.1081 32.4267 49.8328 32.7113 49.5154 32.982C49.1981 33.2527 48.8668 33.528 48.5214 33.808L46.7014 35.236H51.3214V37Z" fill="#384250"/>
</g>
<defs>
<clipPath id="clip0_835_170076">
<rect width="64" height="64" fill="white"/>
</clipPath>
</defs>
</svg>
