<svg width="48" height="48" viewBox="0 0 48 48" fill="none" xmlns="http://www.w3.org/2000/svg">
<path d="M0 24C0 10.7452 10.7452 0 24 0C37.2548 0 48 10.7452 48 24C48 37.2548 37.2548 48 24 48C10.7452 48 0 37.2548 0 24Z" fill="#F3FCF6"/>
<path fill-rule="evenodd" clip-rule="evenodd" d="M22.4932 13.25H25.042C28.1763 13.25 29.9089 13.2542 31.23 14.185C31.611 14.453 31.95 14.773 32.24 15.136C33.251 16.407 33.251 18.034 33.251 21.273V23.818C33.251 26.873 33.251 28.406 32.729 29.722C31.895 31.827 30.139 33.484 27.911 34.266C26.7097 34.6868 25.3248 34.741 22.8533 34.748C22.841 34.749 22.8287 34.75 22.8163 34.751C22.8019 34.7521 22.7878 34.751 22.7741 34.7482C22.4315 34.749 22.0683 34.749 21.6821 34.749C19.8002 34.749 18.855 34.749 18.017 34.455C16.656 33.977 15.582 32.963 15.071 31.674C14.75 30.865 14.75 29.968 14.75 28.1821V26.0161C14.75 25.6021 15.086 25.2661 15.5 25.2661C15.914 25.2661 16.25 25.6021 16.25 26.0161V28.182C16.25 29.7779 16.25 30.579 16.465 31.122C16.816 32.007 17.563 32.707 18.513 33.041C19.11 33.251 19.969 33.251 21.681 33.251C22.0634 33.251 22.4221 33.251 22.7591 33.2502C24.0619 33.1198 25.083 32.0167 25.083 30.6801C25.083 30.5202 25.075 30.3479 25.0666 30.1657L25.0647 30.1252C25.0398 29.5806 25.0115 28.964 25.165 28.3881C25.388 27.5561 26.043 26.9011 26.875 26.6781C27.4506 26.5248 28.0659 26.5529 28.6112 26.5778L28.6511 26.5797C28.8339 26.5881 29.0067 26.5961 29.167 26.5961C30.5666 26.5961 31.7102 25.4765 31.749 24.086C31.749 23.9985 31.749 23.9095 31.749 23.8192V21.274C31.749 18.383 31.749 16.932 31.064 16.071C30.864 15.82 30.629 15.598 30.364 15.413C29.4694 14.7831 28.0014 14.7523 25.042 14.752L22.4912 14.752C22.0772 14.752 21.7412 14.416 21.7412 14.002C21.7412 13.588 22.0772 13.252 22.4912 13.252L22.4932 13.25ZM31.6944 27.2175C30.9986 27.7675 30.1204 28.0961 29.167 28.0961C28.9762 28.0961 28.7811 28.0875 28.5905 28.079C28.5763 28.0784 28.5621 28.0777 28.548 28.0771L28.5321 28.0764C28.0781 28.0556 27.6109 28.0342 27.263 28.1281C26.948 28.2121 26.699 28.4611 26.615 28.7761C26.5212 29.1283 26.5429 29.6009 26.5638 30.0578L26.564 30.0611C26.574 30.2651 26.583 30.4751 26.583 30.6801C26.583 31.6161 26.2663 32.4796 25.7344 33.1691C26.4126 33.1122 26.9462 33.0157 27.413 32.852C29.23 32.214 30.659 30.872 31.333 29.171C31.5375 28.6548 31.6415 28.0447 31.6944 27.2175Z" fill="#1B8354"/>
<path d="M17.5 14.75C16.8018 14.75 16.25 15.3076 16.25 15.978C16.25 16.3922 15.9142 16.728 15.5 16.728C15.0858 16.728 14.75 16.3922 14.75 15.978C14.75 14.4636 15.9891 13.25 17.5 13.25C19.0109 13.25 20.25 14.4636 20.25 15.978C20.25 16.5218 20.0888 17.0301 19.8118 17.456C19.6386 17.7222 19.4362 17.9762 19.2497 18.2053L19.1491 18.3286C18.9945 18.518 18.8526 18.6916 18.7215 18.8698C18.3978 19.3099 18.25 19.6375 18.25 19.9341V20.4286C18.25 20.8428 17.9142 21.1786 17.5 21.1786C17.0858 21.1786 16.75 20.8428 16.75 20.4286V19.9341C16.75 19.1382 17.1449 18.4816 17.5133 17.9809C17.6691 17.7691 17.8399 17.5601 17.9951 17.3703L18.0862 17.2587C18.2714 17.031 18.4288 16.8311 18.5545 16.6379C18.6785 16.4473 18.75 16.2218 18.75 15.978C18.75 15.3076 18.1982 14.75 17.5 14.75Z" fill="#1B8354"/>
<path d="M16.75 23C16.75 22.5858 17.0858 22.25 17.5 22.25H17.512C17.9262 22.25 18.262 22.5858 18.262 23C18.262 23.4142 17.9262 23.75 17.512 23.75H17.5C17.0858 23.75 16.75 23.4142 16.75 23Z" fill="#1B8354"/>
</svg>
