<svg width="48" height="48" viewBox="0 0 48 48" fill="none" xmlns="http://www.w3.org/2000/svg">
<path d="M0 24C0 10.7452 10.7452 0 24 0C37.2548 0 48 10.7452 48 24C48 37.2548 37.2548 48 24 48C10.7452 48 0 37.2548 0 24Z" fill="#F3FCF6"/>
<path d="M27.4922 18.75C27.078 18.75 26.7422 19.0858 26.7422 19.5C26.7422 19.9142 27.078 20.25 27.4922 20.25H27.5003C27.9145 20.25 28.2503 19.9142 28.2503 19.5C28.2503 19.0858 27.9145 18.75 27.5003 18.75H27.4922Z" fill="#1B8354"/>
<path d="M30.4922 18.75C30.078 18.75 29.7422 19.0858 29.7422 19.5C29.7422 19.9142 30.078 20.25 30.4922 20.25H30.5003C30.9145 20.25 31.2503 19.9142 31.2503 19.5C31.2503 19.0858 30.9145 18.75 30.5003 18.75H30.4922Z" fill="#1B8354"/>
<path fill-rule="evenodd" clip-rule="evenodd" d="M29 13.75C25.8562 13.75 23.25 16.1966 23.25 19.2834C23.25 20.7618 23.853 22.1008 24.825 23.0878C24.855 23.1183 24.8705 23.1402 24.878 23.1526C24.8165 23.4579 24.6834 23.7398 24.4935 23.9734C24.3266 24.1787 24.2803 24.4568 24.3715 24.7052C24.4628 24.9536 24.6782 25.1355 24.9383 25.1839C25.829 25.3495 26.7504 25.2 27.5396 24.7804C27.623 24.736 27.681 24.7052 27.7247 24.683L27.7379 24.6853C27.7793 24.6927 27.8291 24.7021 27.8942 24.7143C28.2587 24.7828 28.6288 24.8171 29 24.8167C32.1436 24.8167 34.75 22.3701 34.75 19.2834C34.75 16.2013 32.1977 13.75 29 13.75ZM24.75 19.2834C24.75 17.087 26.6214 15.25 29 15.25C31.4227 15.25 33.25 17.0823 33.25 19.2834C33.25 21.4797 31.3776 23.3167 28.9991 23.3167C28.7212 23.317 28.4442 23.2914 28.1712 23.2401L28.1549 23.237C28.0422 23.2159 27.9385 23.1964 27.8543 23.1851C27.7569 23.172 27.6353 23.162 27.4953 23.1834C27.3403 23.207 27.2086 23.2665 27.1312 23.3033C27.0486 23.3425 26.9503 23.3948 26.8477 23.4494L26.8353 23.456C26.6641 23.547 26.4833 23.6176 26.2971 23.6667C26.3198 23.583 26.3393 23.4983 26.3556 23.4127L26.3558 23.4115C26.4653 22.8313 26.21 22.3565 25.8938 22.0354C25.1802 21.3108 24.75 20.3433 24.75 19.2834ZM27.7247 24.683C27.6906 24.677 27.669 24.6736 27.6546 24.6717C27.6469 24.6707 27.6435 24.6704 27.6435 24.6704C27.6435 24.6704 27.676 24.6731 27.7211 24.6662C27.7645 24.6596 27.7922 24.6497 27.7971 24.648L27.7987 24.6474C27.7987 24.6474 27.7908 24.6506 27.7747 24.6583C27.7601 24.6652 27.7438 24.6733 27.7247 24.683ZM24.878 23.1526L24.8818 23.1333C24.8814 23.1354 24.8806 23.1417 24.8815 23.1504C24.8819 23.1543 24.8825 23.1577 24.8831 23.1604L24.8837 23.1627L24.8842 23.1643C24.8842 23.1643 24.8825 23.1601 24.878 23.1526Z" fill="#1B8354"/>
<path fill-rule="evenodd" clip-rule="evenodd" d="M16.3214 28.9445C17.3925 28.5042 18.557 28.253 19.5068 28.2529C20.4567 28.2529 21.6201 28.5042 22.6902 28.9445C23.7533 29.3821 24.8185 30.0451 25.4906 30.9378C25.8039 31.3539 25.869 31.95 25.5452 32.436C25.2429 32.8898 24.6425 33.5387 23.5315 34.016C23.1131 34.1958 22.68 34.25 22.2906 34.25H16.7183C16.3289 34.25 15.8958 34.1958 15.4774 34.016C14.369 33.5398 13.7835 32.9161 13.4637 32.436C13.1399 31.95 13.205 31.3539 13.5183 30.9378C14.1906 30.0448 15.2573 29.3818 16.3214 28.9445ZM14.8033 31.7308C15.002 31.9854 15.3699 32.3372 16.0695 32.6378C16.245 32.7132 16.4612 32.75 16.7183 32.75H22.2906C22.5477 32.75 22.7639 32.7132 22.9394 32.6378C23.6309 32.3407 24.01 31.9766 24.2051 31.7302C23.7457 31.1802 22.9937 30.6915 22.1193 30.3317C21.1941 29.9509 20.2251 29.7529 19.5069 29.7529C18.7884 29.753 17.8182 29.951 16.8917 30.3318C16.0156 30.6919 15.2626 31.1808 14.8033 31.7308Z" fill="#1B8354"/>
<path fill-rule="evenodd" clip-rule="evenodd" d="M19.5068 20.2661C17.5594 20.2661 15.978 21.8417 15.978 23.7888C15.978 25.7358 17.5594 27.3114 19.5068 27.3114C21.4541 27.3114 23.0355 25.7358 23.0355 23.7888C23.0355 21.8417 21.4541 20.2661 19.5068 20.2661ZM17.478 23.7888C17.478 22.6732 18.3848 21.7661 19.5068 21.7661C20.6287 21.7661 21.5355 22.6732 21.5355 23.7888C21.5355 24.9043 20.6287 25.8114 19.5068 25.8114C18.3848 25.8114 17.478 24.9043 17.478 23.7888Z" fill="#1B8354"/>
</svg>
