<svg width="69" height="68" viewBox="0 0 69 68" fill="none" xmlns="http://www.w3.org/2000/svg">
<path d="M34.8083 1C16.583 1 1.80835 15.7746 1.80835 34C1.80835 52.2254 16.583 67 34.8083 67C53.0337 67 67.8083 52.2254 67.8083 34C67.8083 15.7746 53.0337 1 34.8083 1Z" fill="#F7FDF9" stroke="white" stroke-width="2"/>
<path fill-rule="evenodd" clip-rule="evenodd" d="M34.8082 19.4167C30.8962 19.4167 27.7249 22.5881 27.7249 26.5001C27.7249 30.4121 30.8962 33.5834 34.8082 33.5834C38.7202 33.5834 41.8915 30.4121 41.8915 26.5001C41.8915 22.5881 38.7202 19.4167 34.8082 19.4167ZM30.2249 26.5001C30.2249 23.9688 32.2769 21.9167 34.8082 21.9167C37.3395 21.9167 39.3915 23.9688 39.3915 26.5001C39.3915 29.0314 37.3395 31.0834 34.8082 31.0834C32.2769 31.0834 30.2249 29.0314 30.2249 26.5001Z" fill="#1B8354"/>
<path d="M23.9749 22.7501C20.9834 22.7501 18.5583 25.1752 18.5583 28.1667C18.5583 31.1583 20.9834 33.5834 23.9749 33.5834C24.6653 33.5834 25.2249 33.0238 25.2249 32.3334C25.2249 31.6431 24.6653 31.0834 23.9749 31.0834C22.3641 31.0834 21.0583 29.7776 21.0583 28.1667C21.0583 26.5559 22.3641 25.2501 23.9749 25.2501C24.6653 25.2501 25.2249 24.6904 25.2249 24.0001C25.2249 23.3097 24.6653 22.7501 23.9749 22.7501Z" fill="#1B8354"/>
<path d="M24.3865 35.5541C24.3243 34.8666 23.7165 34.3596 23.029 34.4218C21.4648 34.5633 19.9438 35.1651 18.6033 36.1974C18.5261 36.2568 18.4244 36.3309 18.3048 36.4178C17.737 36.8309 16.7675 37.5362 16.1142 38.3633C15.6967 38.8917 15.3063 39.5833 15.236 40.4149C15.1624 41.2858 15.4544 42.1319 16.0803 42.9031C17.0384 44.0835 18.353 45.2501 20.1849 45.2501C20.8752 45.2501 21.4349 44.6904 21.4349 44.0001C21.4349 43.3097 20.8752 42.7501 20.1849 42.7501C19.519 42.7501 18.847 42.3449 18.0214 41.3276C17.7344 40.974 17.7164 40.7518 17.7271 40.6255C17.7411 40.4598 17.8293 40.2252 18.0759 39.913C18.4913 39.3871 19.0736 38.9591 19.6396 38.5431C19.8056 38.4212 19.9701 38.3002 20.1287 38.1781C21.1126 37.4204 22.187 37.0082 23.2542 36.9117C23.9418 36.8495 24.4487 36.2417 24.3865 35.5541Z" fill="#1B8354"/>
<path d="M44.8082 22.7501C44.1178 22.7501 43.5582 23.3097 43.5582 24.0001C43.5582 24.6904 44.1178 25.2501 44.8082 25.2501C46.419 25.2501 47.7249 26.5559 47.7249 28.1667C47.7249 29.7776 46.419 31.0834 44.8082 31.0834C44.1178 31.0834 43.5582 31.6431 43.5582 32.3334C43.5582 33.0238 44.1178 33.5834 44.8082 33.5834C47.7997 33.5834 50.2249 31.1583 50.2249 28.1667C50.2249 25.1752 47.7997 22.7501 44.8082 22.7501Z" fill="#1B8354"/>
<path d="M46.5875 34.4218C45.8999 34.3596 45.2921 34.8666 45.2299 35.5541C45.1677 36.2417 45.6747 36.8495 46.3622 36.9117C47.4294 37.0082 48.5039 37.4204 49.4878 38.1781C49.6463 38.3002 49.8108 38.4211 49.9767 38.5431C50.5427 38.9591 51.1252 39.3871 51.5406 39.913C51.7872 40.2252 51.8753 40.4598 51.8893 40.6255C51.9 40.7518 51.882 40.974 51.5951 41.3276C50.7694 42.3449 50.0974 42.7501 49.4316 42.7501C48.7412 42.7501 48.1816 43.3097 48.1816 44.0001C48.1816 44.6904 48.7412 45.2501 49.4316 45.2501C51.2634 45.2501 52.5781 44.0835 53.5362 42.9031C54.1621 42.1319 54.4541 41.2858 54.3804 40.4149C54.3102 39.5833 53.9198 38.8917 53.5023 38.3633C52.8489 37.5362 51.8796 36.831 51.3118 36.418C51.1923 36.331 51.0903 36.2568 51.0131 36.1974C49.6726 35.1651 48.1517 34.5633 46.5875 34.4218Z" fill="#1B8354"/>
<path fill-rule="evenodd" clip-rule="evenodd" d="M27.624 38.1222C32.0203 35.4038 37.5965 35.4038 41.9928 38.1222C42.1224 38.2024 42.2865 38.2984 42.4751 38.4087C43.3288 38.9083 44.6843 39.7015 45.6092 40.6415C46.1901 41.232 46.7694 42.0369 46.875 43.0404C46.988 44.114 46.5323 45.1077 45.6631 45.9677C44.227 47.3885 42.4482 48.5834 40.1157 48.5834H29.5011C27.1687 48.5834 25.3898 47.3885 23.9538 45.9677C23.0845 45.1077 22.6288 44.114 22.7419 43.0404C22.8475 42.0369 23.4268 41.232 24.0077 40.6415C24.9325 39.7015 26.2878 38.9084 27.1416 38.4088C27.3303 38.2984 27.4944 38.2024 27.624 38.1222ZM40.678 40.2486C37.0875 38.0284 32.5294 38.0284 28.9388 40.2486C28.7233 40.3818 28.4922 40.5181 28.2538 40.6587C27.4006 41.1617 26.4535 41.7202 25.7898 42.3948C25.3815 42.8099 25.248 43.1128 25.2281 43.3021C25.2156 43.4213 25.2216 43.7053 25.7121 44.1905C26.933 45.3984 28.1132 46.0834 29.5011 46.0834H40.1157C41.5036 46.0834 42.6839 45.3984 43.9048 44.1905C44.3953 43.7053 44.4013 43.4213 44.3887 43.3021C44.3688 43.1128 44.2354 42.8099 43.827 42.3948C43.1633 41.7202 42.2163 41.1618 41.3632 40.6587C41.1247 40.5181 40.8936 40.3818 40.678 40.2486Z" fill="#1B8354"/>
</svg>
