<svg width="458" height="324" viewBox="0 0 458 324" fill="none" xmlns="http://www.w3.org/2000/svg">
<path d="M120.4 233V206.2H59V180.6L113.4 93.4H149V183H166.6V206.2H149V233H120.4ZM83 183H120.4V124.4H118.4L83 183ZM228.922 235.4C210.655 235.4 197.122 229.067 188.322 216.4C179.522 203.733 175.122 186 175.122 163.2C175.122 140.4 179.522 122.667 188.322 110C197.122 97.3333 210.655 91 228.922 91C247.189 91 260.722 97.3333 269.522 110C278.322 122.667 282.722 140.4 282.722 163.2C282.722 186 278.322 203.733 269.522 216.4C260.722 229.067 247.189 235.4 228.922 235.4ZM228.922 210C236.922 210 242.455 207.067 245.522 201.2C248.589 195.333 250.122 187.067 250.122 176.4V150C250.122 139.333 248.589 131.067 245.522 125.2C242.455 119.333 236.922 116.4 228.922 116.4C220.922 116.4 215.389 119.333 212.322 125.2C209.255 131.067 207.722 139.333 207.722 150V176.4C207.722 187.067 209.255 195.333 212.322 201.2C215.389 207.067 220.922 210 228.922 210ZM352.244 233V206.2H290.844V180.6L345.244 93.4H380.844V183H398.444V206.2H380.844V233H352.244ZM314.844 183H352.244V124.4H350.244L314.844 183Z" fill="#384250"/>
<path d="M441.327 39.666C441.327 39.2978 441.625 38.9993 441.993 38.9993H441.999C442.368 38.9993 442.666 39.2978 442.666 39.666C442.666 40.0342 442.368 40.3327 441.999 40.3327H441.993C441.625 40.3327 441.327 40.0342 441.327 39.666Z" fill="#D2D6DB"/>
<path d="M441.499 37.666C441.499 37.9422 441.723 38.166 441.999 38.166C442.275 38.166 442.499 37.9422 442.499 37.666V34.9993C442.499 34.7232 442.275 34.4993 441.999 34.4993C441.723 34.4993 441.499 34.7232 441.499 34.9993V37.666Z" fill="#D2D6DB"/>
<path fill-rule="evenodd" clip-rule="evenodd" d="M440.907 30.3427C441.616 30.1071 442.381 30.1071 443.091 30.3427C443.797 30.5773 444.352 31.1336 444.91 31.9153C445.465 32.6944 446.079 33.7807 446.871 35.181L446.902 35.236C447.693 36.6365 448.307 37.7228 448.69 38.6037C449.074 39.4889 449.266 40.2532 449.113 40.9874C448.959 41.7267 448.58 42.399 448.027 42.9071C447.476 43.414 446.726 43.6278 445.781 43.7306C444.842 43.8327 443.613 43.8327 442.031 43.8327H441.966C440.385 43.8327 439.156 43.8327 438.216 43.7306C437.272 43.6278 436.521 43.414 435.97 42.9071C435.418 42.399 435.038 41.7267 434.885 40.9874C434.732 40.2532 434.923 39.4889 435.308 38.6037C435.69 37.7227 436.304 36.6365 437.096 35.236L437.127 35.181C437.918 33.7807 438.532 32.6944 439.088 31.9153C439.645 31.1336 440.2 30.5773 440.907 30.3427ZM442.776 31.2918C442.271 31.1241 441.727 31.1241 441.222 31.2918C440.824 31.4237 440.425 31.7624 439.902 32.4959C439.381 33.227 438.792 34.267 437.982 35.7006C437.172 37.1342 436.584 38.175 436.225 39.002C435.865 39.8305 435.775 40.358 435.864 40.7837C435.975 41.3208 436.25 41.8062 436.647 42.1712C436.959 42.4578 437.444 42.6407 438.324 42.7364C439.203 42.832 440.378 42.8327 441.999 42.8327C443.62 42.8327 444.794 42.832 445.673 42.7364C446.553 42.6407 447.039 42.4578 447.35 42.1712C447.747 41.8062 448.022 41.3208 448.134 40.7837C448.222 40.358 448.132 39.8305 447.772 39.002C447.413 38.175 446.826 37.1342 446.016 35.7006C445.205 34.267 444.617 33.227 444.096 32.4959C443.572 31.7624 443.173 31.4237 442.776 31.2918Z" fill="#D2D6DB"/>
<path d="M323.327 275.666C323.327 275.298 323.625 274.999 323.993 274.999H323.999C324.368 274.999 324.666 275.298 324.666 275.666C324.666 276.034 324.368 276.333 323.999 276.333H323.993C323.625 276.333 323.327 276.034 323.327 275.666Z" fill="#D2D6DB"/>
<path d="M323.499 273.666C323.499 273.942 323.723 274.166 323.999 274.166C324.275 274.166 324.499 273.942 324.499 273.666V270.999C324.499 270.723 324.275 270.499 323.999 270.499C323.723 270.499 323.499 270.723 323.499 270.999V273.666Z" fill="#D2D6DB"/>
<path fill-rule="evenodd" clip-rule="evenodd" d="M322.907 266.343C323.616 266.107 324.381 266.107 325.091 266.343C325.797 266.577 326.352 267.134 326.91 267.915C327.465 268.694 328.079 269.781 328.871 271.181L328.902 271.236C329.693 272.636 330.307 273.723 330.69 274.604C331.074 275.489 331.266 276.253 331.113 276.987C330.959 277.727 330.58 278.399 330.027 278.907C329.476 279.414 328.726 279.628 327.781 279.731C326.842 279.833 325.613 279.833 324.031 279.833H323.966C322.385 279.833 321.156 279.833 320.216 279.731C319.272 279.628 318.521 279.414 317.97 278.907C317.418 278.399 317.038 277.727 316.885 276.987C316.732 276.253 316.923 275.489 317.308 274.604C317.69 273.723 318.304 272.636 319.096 271.236L319.127 271.181C319.918 269.781 320.532 268.694 321.088 267.915C321.645 267.134 322.2 266.577 322.907 266.343ZM324.776 267.292C324.271 267.124 323.727 267.124 323.222 267.292C322.824 267.424 322.425 267.762 321.902 268.496C321.381 269.227 320.792 270.267 319.982 271.701C319.172 273.134 318.584 274.175 318.225 275.002C317.865 275.83 317.775 276.358 317.864 276.784C317.975 277.321 318.25 277.806 318.647 278.171C318.959 278.458 319.444 278.641 320.324 278.736C321.203 278.832 322.378 278.833 323.999 278.833C325.62 278.833 326.794 278.832 327.673 278.736C328.553 278.641 329.039 278.458 329.35 278.171C329.747 277.806 330.022 277.321 330.134 276.784C330.222 276.358 330.132 275.83 329.772 275.002C329.413 274.175 328.826 273.134 328.016 271.701C327.205 270.267 326.617 269.227 326.096 268.496C325.572 267.762 325.173 267.424 324.776 267.292Z" fill="#D2D6DB"/>
<path fill-rule="evenodd" clip-rule="evenodd" d="M85.4697 282.47C85.7626 282.177 86.2374 282.177 86.5303 282.47L93 288.939L99.4697 282.47C99.7626 282.177 100.237 282.177 100.53 282.47C100.823 282.763 100.823 283.237 100.53 283.53L94.0607 290L100.53 296.47C100.823 296.763 100.823 297.237 100.53 297.53C100.237 297.823 99.7626 297.823 99.4697 297.53L93 291.061L86.5303 297.53C86.2374 297.823 85.7626 297.823 85.4697 297.53C85.1768 297.237 85.1768 296.763 85.4697 296.47L91.9393 290L85.4697 283.53C85.1768 283.237 85.1768 282.763 85.4697 282.47Z" fill="#9DA4AE"/>
<path fill-rule="evenodd" clip-rule="evenodd" d="M18.9785 133.98C19.1737 133.785 19.4903 133.785 19.6856 133.98L23.9987 138.294L28.3118 133.98C28.5071 133.785 28.8237 133.785 29.0189 133.98C29.2142 134.176 29.2142 134.492 29.0189 134.688L24.7058 139.001L29.0189 143.314C29.2142 143.509 29.2142 143.826 29.0189 144.021C28.8237 144.216 28.5071 144.216 28.3118 144.021L23.9987 139.708L19.6856 144.021C19.4903 144.216 19.1737 144.216 18.9785 144.021C18.7832 143.826 18.7832 143.509 18.9785 143.314L23.2916 139.001L18.9785 134.688C18.7832 134.492 18.7832 134.176 18.9785 133.98Z" fill="#D2D6DB"/>
<path d="M214.53 37.4697C214.237 37.1768 213.763 37.1768 213.47 37.4696C213.177 37.7625 213.177 38.2374 213.47 38.5303L215.939 41.0003L213.47 43.4697C213.177 43.7626 213.177 44.2375 213.47 44.5304C213.763 44.8232 214.238 44.8232 214.531 44.5303L217 42.061L219.469 44.5303C219.762 44.8232 220.237 44.8232 220.53 44.5304C220.823 44.2375 220.823 43.7626 220.53 43.4697L218.061 41.0003L220.53 38.5303C220.823 38.2374 220.823 37.7625 220.53 37.4696C220.237 37.1768 219.763 37.1768 219.47 37.4697L217 39.9396L214.53 37.4697Z" fill="#9DA4AE"/>
<path fill-rule="evenodd" clip-rule="evenodd" d="M217 51.75C211.063 51.75 206.25 46.9371 206.25 41C206.25 35.0629 211.063 30.25 217 30.25C222.937 30.25 227.75 35.0629 227.75 41C227.75 46.9371 222.937 51.75 217 51.75ZM207.75 41C207.75 46.1086 211.891 50.25 217 50.25C222.109 50.25 226.25 46.1086 226.25 41C226.25 35.8914 222.109 31.75 217 31.75C211.891 31.75 207.75 35.8914 207.75 41Z" fill="#9DA4AE"/>
<path d="M151.352 313.647C151.157 313.452 150.84 313.452 150.645 313.647C150.45 313.842 150.45 314.159 150.645 314.354L152.292 316.001L150.646 317.647C150.45 317.842 150.45 318.159 150.646 318.354C150.841 318.549 151.157 318.549 151.353 318.354L152.999 316.708L154.645 318.354C154.84 318.549 155.157 318.549 155.352 318.354C155.547 318.159 155.547 317.842 155.352 317.647L153.706 316.001L155.352 314.354C155.548 314.159 155.548 313.842 155.352 313.647C155.157 313.452 154.84 313.452 154.645 313.647L152.999 315.294L151.352 313.647Z" fill="#D2D6DB"/>
<path fill-rule="evenodd" clip-rule="evenodd" d="M152.999 323.167C149.041 323.167 145.832 319.959 145.832 316.001C145.832 312.043 149.041 308.834 152.999 308.834C156.957 308.834 160.165 312.043 160.165 316.001C160.165 319.959 156.957 323.167 152.999 323.167ZM146.832 316.001C146.832 319.406 149.593 322.167 152.999 322.167C156.404 322.167 159.165 319.406 159.165 316.001C159.165 312.595 156.404 309.834 152.999 309.834C149.593 309.834 146.832 312.595 146.832 316.001Z" fill="#D2D6DB"/>
<path d="M449.53 126.53C449.823 126.237 449.823 125.763 449.53 125.47C449.237 125.177 448.763 125.177 448.47 125.47L446 127.939L443.53 125.47C443.237 125.177 442.763 125.177 442.47 125.47C442.177 125.763 442.177 126.238 442.47 126.531L444.939 129L442.47 131.469C442.177 131.762 442.177 132.237 442.47 132.53C442.763 132.823 443.237 132.823 443.53 132.53L446 130.061L448.47 132.53C448.763 132.823 449.237 132.823 449.53 132.53C449.823 132.237 449.823 131.763 449.53 131.47L447.06 129L449.53 126.53Z" fill="#9DA4AE"/>
<path fill-rule="evenodd" clip-rule="evenodd" d="M446.057 118.75H445.943C443.752 118.75 442.031 118.75 440.688 118.931C439.311 119.116 438.219 119.503 437.361 120.361C436.503 121.219 436.116 122.311 435.931 123.688C435.75 125.031 435.75 126.752 435.75 128.943V129.057C435.75 131.248 435.75 132.969 435.931 134.312C436.116 135.689 436.503 136.781 437.361 137.639C438.219 138.497 439.311 138.884 440.688 139.069C442.031 139.25 443.752 139.25 445.943 139.25H446.057C448.248 139.25 449.969 139.25 451.312 139.069C452.689 138.884 453.781 138.497 454.639 137.639C455.497 136.781 455.884 135.689 456.069 134.312C456.25 132.969 456.25 131.248 456.25 129.057V128.943C456.25 126.752 456.25 125.031 456.069 123.688C455.884 122.311 455.497 121.219 454.639 120.361C453.781 119.503 452.689 119.116 451.312 118.931C449.969 118.75 448.248 118.75 446.057 118.75ZM438.422 121.422C438.955 120.889 439.678 120.58 440.888 120.417C442.12 120.252 443.74 120.25 446 120.25C448.26 120.25 449.88 120.252 451.112 120.417C452.322 120.58 453.045 120.889 453.578 121.422C454.111 121.955 454.42 122.678 454.583 123.888C454.748 125.12 454.75 126.74 454.75 129C454.75 131.26 454.748 132.88 454.583 134.112C454.42 135.322 454.111 136.045 453.578 136.578C453.045 137.111 452.322 137.42 451.112 137.583C449.88 137.748 448.26 137.75 446 137.75C443.74 137.75 442.12 137.748 440.888 137.583C439.678 137.42 438.955 137.111 438.422 136.578C437.889 136.045 437.58 135.322 437.417 134.112C437.252 132.88 437.25 131.26 437.25 129C437.25 126.74 437.252 125.12 437.417 123.888C437.58 122.678 437.889 121.955 438.422 121.422Z" fill="#9DA4AE"/>
<path d="M410.03 278.53C410.323 278.237 410.323 277.763 410.03 277.47C409.737 277.177 409.263 277.177 408.97 277.47L406.5 279.939L404.03 277.47C403.737 277.177 403.263 277.177 402.97 277.47C402.677 277.763 402.677 278.238 402.97 278.531L405.439 281L402.97 283.469C402.677 283.762 402.677 284.237 402.97 284.53C403.263 284.823 403.737 284.823 404.03 284.53L406.5 282.061L408.97 284.53C409.263 284.823 409.737 284.823 410.03 284.53C410.323 284.237 410.323 283.763 410.03 283.47L407.56 281L410.03 278.53Z" fill="#9DA4AE"/>
<path fill-rule="evenodd" clip-rule="evenodd" d="M406.557 270.75H406.443C404.252 270.75 402.531 270.75 401.188 270.931C399.811 271.116 398.719 271.503 397.861 272.361C397.003 273.219 396.616 274.311 396.431 275.688C396.25 277.031 396.25 278.752 396.25 280.943V281.057C396.25 283.248 396.25 284.969 396.431 286.312C396.616 287.689 397.003 288.781 397.861 289.639C398.719 290.497 399.811 290.884 401.188 291.069C402.531 291.25 404.252 291.25 406.443 291.25H406.557C408.748 291.25 410.469 291.25 411.812 291.069C413.189 290.884 414.281 290.497 415.139 289.639C415.997 288.781 416.384 287.689 416.569 286.312C416.75 284.969 416.75 283.248 416.75 281.057V280.943C416.75 278.752 416.75 277.031 416.569 275.688C416.384 274.311 415.997 273.219 415.139 272.361C414.281 271.503 413.189 271.116 411.812 270.931C410.469 270.75 408.748 270.75 406.557 270.75ZM398.922 273.422C399.455 272.889 400.178 272.58 401.388 272.417C402.62 272.252 404.24 272.25 406.5 272.25C408.76 272.25 410.38 272.252 411.612 272.417C412.822 272.58 413.545 272.889 414.078 273.422C414.611 273.955 414.92 274.678 415.083 275.888C415.248 277.12 415.25 278.74 415.25 281C415.25 283.26 415.248 284.88 415.083 286.112C414.92 287.322 414.611 288.045 414.078 288.578C413.545 289.111 412.822 289.42 411.612 289.583C410.38 289.748 408.76 289.75 406.5 289.75C404.24 289.75 402.62 289.748 401.388 289.583C400.178 289.42 399.455 289.111 398.922 288.578C398.389 288.045 398.08 287.322 397.917 286.112C397.752 284.88 397.75 283.26 397.75 281C397.75 278.74 397.752 277.12 397.917 275.888C398.08 274.678 398.389 273.955 398.922 273.422Z" fill="#9DA4AE"/>
<path d="M285.533 13.8342C284.773 13.8342 284.2 13.2542 283.973 13.0275C283.667 12.7208 282.733 11.7942 283.407 10.6342C283.52 10.4342 283.68 10.2741 283.973 9.98081L285.14 8.81415C285.52 8.43415 285.82 8.13417 285.82 8.00083C285.82 7.8675 285.52 7.56752 285.14 7.18752L283.967 6.01418C283.673 5.72085 283.513 5.56082 283.4 5.36082C282.733 4.20082 283.66 3.27417 283.967 2.96751C284.273 2.66084 285.2 1.72748 286.36 2.40082C286.56 2.51415 286.72 2.67417 287.013 2.96751L288.18 4.13417C288.56 4.51417 288.86 4.81415 288.993 4.81415C289.127 4.81415 289.427 4.51417 289.807 4.13417L290.973 2.96751C291.267 2.67417 291.427 2.51415 291.627 2.40082C292.78 1.73415 293.713 2.66084 294.02 2.96751C294.327 3.27417 295.26 4.20082 294.587 5.36082C294.473 5.56082 294.313 5.72085 294.02 6.01418L292.853 7.18085C292.473 7.56085 292.173 7.86083 292.173 7.99416C292.173 8.12749 292.473 8.42751 292.853 8.80751L294.02 9.97418C294.313 10.2675 294.473 10.4275 294.587 10.6275C295.253 11.7875 294.327 12.7142 294.02 13.0209C293.713 13.3275 292.787 14.2608 291.627 13.5875C291.427 13.4742 291.267 13.3142 290.973 13.0209L289.807 11.8542C289.427 11.4742 289.127 11.1742 288.993 11.1742C288.86 11.1742 288.56 11.4742 288.18 11.8542L287.013 13.0209C286.72 13.3142 286.56 13.4742 286.36 13.5875C286.067 13.7542 285.787 13.8208 285.533 13.8208V13.8342ZM285.533 3.1675C285.313 3.1675 285.053 3.30084 284.68 3.67417C284.1 4.25417 284.093 4.55415 284.267 4.86082C284.313 4.94749 284.453 5.08085 284.673 5.30751L285.84 6.47418C286.447 7.08085 286.813 7.44749 286.813 7.99416C286.813 8.54083 286.447 8.90751 285.84 9.51418L284.673 10.6808C284.447 10.9075 284.313 11.0408 284.26 11.1275C284.087 11.4342 284.093 11.7341 284.667 12.3141C285.247 12.8941 285.547 12.9009 285.853 12.7275C285.94 12.6809 286.073 12.5408 286.3 12.3208L287.467 11.1542C288.073 10.5475 288.44 10.1808 288.987 10.1808C289.533 10.1808 289.9 10.5475 290.507 11.1542L291.673 12.3208C291.9 12.5475 292.033 12.6808 292.12 12.7341C292.427 12.9075 292.727 12.9008 293.307 12.3275C293.887 11.7475 293.893 11.4475 293.72 11.1408C293.673 11.0542 293.533 10.9208 293.313 10.6942L292.147 9.52748C291.54 8.92082 291.173 8.55417 291.173 8.00751C291.173 7.46084 291.54 7.09415 292.147 6.48749L293.32 5.31415C293.547 5.08748 293.68 4.95416 293.733 4.86749C293.907 4.56083 293.9 4.26085 293.327 3.68085C292.747 3.10085 292.447 3.09418 292.14 3.26752C292.053 3.31418 291.92 3.45417 291.693 3.67417L290.527 4.84084C289.92 5.44751 289.553 5.81415 289.007 5.81415C288.46 5.81415 288.093 5.44751 287.487 4.84084L286.32 3.67417C286.093 3.44751 285.96 3.31418 285.873 3.26084C285.767 3.20084 285.66 3.16083 285.54 3.16083L285.533 3.1675Z" fill="#D2D6DB"/>
<path d="M63.7999 87.7503C62.6599 87.7503 61.8 86.8803 61.46 86.5403C61 86.0803 59.5999 84.6903 60.6099 82.9503C60.7799 82.6503 61.02 82.4102 61.46 81.9702L63.21 80.2202C63.78 79.6502 64.2299 79.2003 64.2299 79.0003C64.2299 78.8003 63.78 78.3503 63.21 77.7803L61.4499 76.0203C61.0099 75.5803 60.7699 75.3403 60.5999 75.0403C59.5999 73.3003 60.9899 71.9103 61.4499 71.4503C61.9099 70.9903 63.2999 69.5902 65.0399 70.6002C65.3399 70.7702 65.58 71.0103 66.02 71.4503L67.77 73.2003C68.34 73.7703 68.7899 74.2202 68.9899 74.2202C69.1899 74.2202 69.64 73.7703 70.21 73.2003L71.96 71.4503C72.4 71.0103 72.6399 70.7702 72.9399 70.6002C74.6699 69.6002 76.07 70.9903 76.53 71.4503C76.99 71.9103 78.3899 73.3003 77.3799 75.0403C77.2099 75.3403 76.97 75.5803 76.53 76.0203L74.78 77.7703C74.21 78.3403 73.7599 78.7903 73.7599 78.9903C73.7599 79.1903 74.21 79.6403 74.78 80.2103L76.53 81.9603C76.97 82.4003 77.2099 82.6403 77.3799 82.9403C78.3799 84.6803 76.99 86.0703 76.53 86.5303C76.07 86.9903 74.6799 88.3903 72.9399 87.3803C72.6399 87.2103 72.4 86.9703 71.96 86.5303L70.21 84.7803C69.64 84.2103 69.1899 83.7603 68.9899 83.7603C68.7899 83.7603 68.34 84.2103 67.77 84.7803L66.02 86.5303C65.58 86.9703 65.3399 87.2103 65.0399 87.3803C64.5999 87.6303 64.1799 87.7303 63.7999 87.7303V87.7503ZM63.7999 71.7503C63.4699 71.7503 63.08 71.9503 62.52 72.5103C61.65 73.3803 61.64 73.8303 61.9 74.2903C61.97 74.4203 62.1799 74.6203 62.5099 74.9603L64.2599 76.7103C65.1699 77.6203 65.7199 78.1703 65.7199 78.9903C65.7199 79.8103 65.1699 80.3603 64.2599 81.2703L62.5099 83.0203C62.1699 83.3603 61.97 83.5603 61.89 83.6903C61.63 84.1503 61.6399 84.6002 62.4999 85.4702C63.3699 86.3402 63.82 86.3503 64.28 86.0903C64.41 86.0203 64.6099 85.8103 64.9499 85.4803L66.6999 83.7303C67.6099 82.8203 68.1599 82.2703 68.9799 82.2703C69.7999 82.2703 70.3499 82.8203 71.2599 83.7303L73.0099 85.4803C73.3499 85.8203 73.5499 86.0202 73.6799 86.1002C74.1399 86.3602 74.59 86.3503 75.46 85.4903C76.33 84.6203 76.34 84.1703 76.08 83.7103C76.01 83.5803 75.7999 83.3803 75.4699 83.0403L73.7199 81.2903C72.8099 80.3803 72.2599 79.8303 72.2599 79.0103C72.2599 78.1903 72.8099 77.6403 73.7199 76.7303L75.4799 74.9702C75.8199 74.6302 76.0199 74.4303 76.0999 74.3003C76.3599 73.8403 76.3499 73.3903 75.4899 72.5203C74.6199 71.6503 74.17 71.6403 73.71 71.9003C73.58 71.9703 73.3799 72.1803 73.0399 72.5103L71.2899 74.2603C70.3799 75.1703 69.8299 75.7202 69.0099 75.7202C68.1899 75.7202 67.6399 75.1703 66.7299 74.2603L64.9799 72.5103C64.6399 72.1703 64.4399 71.9703 64.3099 71.8903C64.1499 71.8003 63.9899 71.7403 63.8099 71.7403L63.7999 71.7503Z" fill="#9DA4AE"/>
<path fill-rule="evenodd" clip-rule="evenodd" d="M269 319.75C263.063 319.75 258.25 314.937 258.25 309C258.25 303.063 263.063 298.25 269 298.25C274.937 298.25 279.75 303.063 279.75 309C279.75 314.937 274.937 319.75 269 319.75ZM259.75 309C259.75 314.109 263.891 318.25 269 318.25C271.284 318.25 273.375 317.422 274.989 316.05L261.95 303.011C260.578 304.625 259.75 306.716 259.75 309ZM276.05 314.989C277.422 313.375 278.25 311.284 278.25 309C278.25 303.891 274.109 299.75 269 299.75C266.716 299.75 264.625 300.578 263.011 301.95L276.05 314.989Z" fill="#9DA4AE"/>
<path fill-rule="evenodd" clip-rule="evenodd" d="M363 47.75C357.063 47.75 352.25 42.9371 352.25 37C352.25 31.0629 357.063 26.25 363 26.25C368.937 26.25 373.75 31.0629 373.75 37C373.75 42.9371 368.937 47.75 363 47.75ZM353.75 37C353.75 42.1086 357.891 46.25 363 46.25C365.284 46.25 367.375 45.422 368.989 44.0497L355.95 31.011C354.578 32.6247 353.75 34.7157 353.75 37ZM370.05 42.989C371.422 41.3753 372.25 39.2843 372.25 37C372.25 31.8914 368.109 27.75 363 27.75C360.716 27.75 358.625 28.578 357.011 29.9503L370.05 42.989Z" fill="#9DA4AE"/>
<path fill-rule="evenodd" clip-rule="evenodd" d="M449.999 213.167C446.041 213.167 442.832 209.959 442.832 206.001C442.832 202.043 446.041 198.834 449.999 198.834C453.957 198.834 457.165 202.043 457.165 206.001C457.165 209.959 453.957 213.167 449.999 213.167ZM443.832 206.001C443.832 209.406 446.593 212.167 449.999 212.167C451.522 212.167 452.916 211.615 453.991 210.7L445.299 202.008C444.384 203.084 443.832 204.478 443.832 206.001ZM454.698 209.993C455.613 208.917 456.165 207.524 456.165 206.001C456.165 202.595 453.404 199.834 449.999 199.834C448.476 199.834 447.082 200.386 446.006 201.301L454.698 209.993Z" fill="#D2D6DB"/>
<path d="M9.03033 221.47C8.73744 221.177 8.26256 221.177 7.96967 221.47C7.67678 221.763 7.67678 222.237 7.96967 222.53L10.4393 225L7.96967 227.47C7.67678 227.763 7.67678 228.237 7.96967 228.53C8.26256 228.823 8.73744 228.823 9.03033 228.53L11.5 226.061L13.9697 228.53C14.2626 228.823 14.7374 228.823 15.0303 228.53C15.3232 228.237 15.3232 227.763 15.0303 227.47L12.5607 225L15.0303 222.53C15.3232 222.237 15.3232 221.763 15.0303 221.47C14.7374 221.177 14.2626 221.177 13.9697 221.47L11.5 223.939L9.03033 221.47Z" fill="#9DA4AE"/>
<path fill-rule="evenodd" clip-rule="evenodd" d="M1.75 225C1.75 219.615 6.11522 215.25 11.5 215.25C16.8848 215.25 21.25 219.615 21.25 225C21.25 227.422 20.3666 229.639 18.9043 231.344L23.0303 235.47C23.3232 235.763 23.3232 236.237 23.0303 236.53C22.7374 236.823 22.2626 236.823 21.9697 236.53L17.8437 232.404C16.1385 233.867 13.9224 234.75 11.5 234.75C6.11522 234.75 1.75 230.385 1.75 225ZM11.5 216.75C6.94365 216.75 3.25 220.444 3.25 225C3.25 229.556 6.94365 233.25 11.5 233.25C16.0563 233.25 19.75 229.556 19.75 225C19.75 220.444 16.0563 216.75 11.5 216.75Z" fill="#9DA4AE"/>
<path d="M110.686 25.9804C110.49 25.7852 110.174 25.7852 109.978 25.9804C109.783 26.1757 109.783 26.4923 109.978 26.6875L111.625 28.334L109.978 29.9804C109.783 30.1757 109.783 30.4923 109.978 30.6875C110.174 30.8828 110.49 30.8828 110.686 30.6875L112.332 29.0411L113.978 30.6875C114.174 30.8828 114.49 30.8828 114.686 30.6875C114.881 30.4923 114.881 30.1757 114.686 29.9804L113.039 28.334L114.686 26.6875C114.881 26.4923 114.881 26.1757 114.686 25.9804C114.49 25.7852 114.174 25.7852 113.978 25.9804L112.332 27.6269L110.686 25.9804Z" fill="#D2D6DB"/>
<path fill-rule="evenodd" clip-rule="evenodd" d="M105.832 28.334C105.832 24.7441 108.742 21.834 112.332 21.834C115.922 21.834 118.832 24.7441 118.832 28.334C118.832 29.9489 118.243 31.4263 117.268 32.5631L120.019 35.3138C120.214 35.509 120.214 35.8256 120.019 36.0209C119.824 36.2161 119.507 36.2161 119.312 36.0209L116.561 33.2702C115.424 34.245 113.947 34.834 112.332 34.834C108.742 34.834 105.832 31.9238 105.832 28.334ZM112.332 22.834C109.294 22.834 106.832 25.2964 106.832 28.334C106.832 31.3716 109.294 33.834 112.332 33.834C115.37 33.834 117.832 31.3716 117.832 28.334C117.832 25.2964 115.37 22.834 112.332 22.834Z" fill="#D2D6DB"/>
</svg>
