<svg width="48" height="48" viewBox="0 0 48 48" fill="none" xmlns="http://www.w3.org/2000/svg">
<path d="M0 24C0 10.7452 10.7452 0 24 0C37.2548 0 48 10.7452 48 24C48 37.2548 37.2548 48 24 48C10.7452 48 0 37.2548 0 24Z" fill="#F3FCF6"/>
<path d="M21.75 26C21.75 25.5858 21.4142 25.25 21 25.25C20.5858 25.25 20.25 25.5858 20.25 26C20.25 27.5188 21.4812 28.75 23 28.75H25C26.5188 28.75 27.75 27.5188 27.75 26C27.75 25.5858 27.4142 25.25 27 25.25C26.5858 25.25 26.25 25.5858 26.25 26C26.25 26.6904 25.6904 27.25 25 27.25H23C22.3096 27.25 21.75 26.6904 21.75 26Z" fill="#1B8354"/>
<path fill-rule="evenodd" clip-rule="evenodd" d="M21.948 13.25H26.052C26.9505 13.25 27.6997 13.2499 28.2945 13.3299C28.9223 13.4143 29.4891 13.6 29.9445 14.0555C30.4 14.5109 30.5857 15.0777 30.6701 15.7055C30.7365 16.1993 30.7477 16.7994 30.7496 17.503C30.826 17.5329 30.9012 17.5664 30.9755 17.6042C31.587 17.9158 32.0842 18.413 32.3958 19.0245C32.5949 19.4153 32.6756 19.8337 32.7134 20.2969C32.7487 20.728 32.75 21.2547 32.75 21.8945L32.7611 21.9014C33.3018 22.2411 33.7589 22.6982 34.0986 23.2389C34.4544 23.8052 34.6069 24.442 34.6794 25.1896C34.75 25.9174 34.75 26.8246 34.75 27.9609V28.0391C34.75 29.1754 34.75 30.0826 34.6794 30.8104C34.6069 31.558 34.4544 32.1948 34.0986 32.7611C33.7589 33.3018 33.3018 33.7589 32.7611 34.0986C32.1948 34.4544 31.558 34.6069 30.8104 34.6794C30.0826 34.75 29.1754 34.75 28.0391 34.75H19.9609C18.8246 34.75 17.9174 34.75 17.1896 34.6794C16.442 34.6069 15.8052 34.4544 15.2389 34.0986C14.6982 33.7589 14.2411 33.3018 13.9014 32.7611C13.5456 32.1948 13.3931 31.558 13.3206 30.8104C13.25 30.0826 13.25 29.1754 13.25 28.0391V27.9609C13.25 26.8246 13.25 25.9174 13.3206 25.1896C13.3931 24.442 13.5456 23.8052 13.9014 23.2389C14.2411 22.6982 14.6982 22.2411 15.2389 21.9014L15.25 21.8945C15.25 21.2547 15.2513 20.728 15.2866 20.2969C15.3244 19.8337 15.4051 19.4153 15.6042 19.0245C15.9158 18.413 16.413 17.9158 17.0245 17.6042C17.0988 17.5664 17.174 17.5328 17.2504 17.503C17.2523 16.7994 17.2635 16.1993 17.3299 15.7055C17.4143 15.0777 17.6 14.5109 18.0555 14.0555C18.5109 13.6 19.0777 13.4143 19.7055 13.3299C20.3003 13.2499 21.0495 13.25 21.948 13.25ZM29.1835 15.9054C29.2302 16.2533 29.2442 16.6865 29.2483 17.2617C28.896 17.25 28.4925 17.25 28.0314 17.25H19.9686C19.5076 17.25 19.104 17.25 18.7517 17.2617C18.7559 16.6865 18.7698 16.2533 18.8165 15.9054C18.8786 15.4439 18.9858 15.2464 19.1161 15.1161C19.2464 14.9858 19.4439 14.8786 19.9054 14.8165C20.3884 14.7516 21.036 14.75 22 14.75H26C26.964 14.75 27.6116 14.7516 28.0946 14.8165C28.5561 14.8786 28.7536 14.9858 28.8839 15.1161C29.0142 15.2464 29.1214 15.4439 29.1835 15.9054ZM31.2488 21.3751C31.2464 20.9827 31.2394 20.6757 31.2184 20.4191C31.1882 20.0486 31.1327 19.8496 31.0593 19.7055C30.8915 19.3762 30.6238 19.1085 30.2945 18.9407C30.1504 18.8673 29.9514 18.8118 29.5809 18.7816C29.2017 18.7506 28.7124 18.75 28 18.75H20C19.2876 18.75 18.7983 18.7506 18.4191 18.7816C18.0486 18.8118 17.8496 18.8673 17.7055 18.9407C17.3762 19.1085 17.1085 19.3762 16.9407 19.7055C16.8673 19.8496 16.8118 20.0486 16.7816 20.4191C16.7606 20.6757 16.7536 20.9827 16.7512 21.3751C16.8931 21.353 17.0391 21.3352 17.1896 21.3206C17.9174 21.25 18.8246 21.25 19.9609 21.25H28.0391C29.1754 21.25 30.0826 21.25 30.8104 21.3206C30.9609 21.3352 31.1069 21.353 31.2488 21.3751ZM16.0369 23.1715C16.3243 22.9909 16.6991 22.8752 17.3344 22.8136C17.9813 22.7508 18.8157 22.75 20 22.75H28C29.1843 22.75 30.0187 22.7508 30.6656 22.8136C31.3009 22.8752 31.6757 22.9909 31.9631 23.1715C32.3129 23.3913 32.6087 23.6871 32.8285 24.0369C33.0091 24.3243 33.1248 24.6991 33.1864 25.3344C33.2492 25.9813 33.25 26.8157 33.25 28C33.25 29.1843 33.2492 30.0187 33.1864 30.6656C33.1248 31.3009 33.0091 31.6757 32.8285 31.9631C32.6087 32.3129 32.3129 32.6087 31.9631 32.8285C31.6757 33.0091 31.3009 33.1248 30.6656 33.1864C30.0187 33.2492 29.1843 33.25 28 33.25H20C18.8157 33.25 17.9813 33.2492 17.3344 33.1864C16.6991 33.1248 16.3243 33.0091 16.0369 32.8285C15.6871 32.6087 15.3913 32.3129 15.1715 31.9631C14.9909 31.6757 14.8752 31.3009 14.8136 30.6656C14.7508 30.0187 14.75 29.1843 14.75 28C14.75 26.8157 14.7508 25.9813 14.8136 25.3344C14.8752 24.6991 14.9909 24.3243 15.1715 24.0369C15.3913 23.6871 15.6871 23.3913 16.0369 23.1715Z" fill="#1B8354"/>
</svg>
