<svg width="10" height="10" viewBox="0 0 10 10" fill="none" xmlns="http://www.w3.org/2000/svg">
<g id="elements">
<path id="Icon" d="M0.974874 0.999698C0.82247 1.16404 0.737937 1.38089 0.684757 1.56549C0.628026 1.76242 0.589346 1.98768 0.56226 2.21964C0.507979 2.6845 0.494412 3.22959 0.49882 3.73977C0.503252 4.25284 0.526046 4.74429 0.547611 5.10652C0.558412 5.28794 0.568949 5.43768 0.576814 5.54239C0.580747 5.59476 0.584016 5.63591 0.586319 5.66418L0.589013 5.69672L0.589748 5.70537L0.590037 5.70872C0.614003 5.98382 0.856443 6.18741 1.13154 6.16344C1.40663 6.13948 1.61018 5.89667 1.58623 5.62159L1.58609 5.61991L1.58547 5.61264L1.58302 5.58297C1.58087 5.55667 1.57777 5.51763 1.574 5.46749C1.56647 5.36719 1.5563 5.22266 1.54584 5.04709C1.5249 4.69532 1.50302 4.22183 1.49878 3.73113C1.49452 3.23755 1.50828 2.74006 1.55551 2.33562C1.55816 2.31291 1.5609 2.29066 1.56373 2.26887L8.6471 9.35225C8.84236 9.54751 9.15894 9.54751 9.35421 9.35225C9.54947 9.15698 9.54947 8.8404 9.35421 8.64514L2.26919 1.56013C2.27876 1.55895 2.28843 1.55779 2.29819 1.55665C2.69807 1.50979 3.19836 1.49579 3.69835 1.49963C4.19522 1.50345 4.67775 1.52471 5.03708 1.54513C5.21643 1.55532 5.36436 1.56527 5.46714 1.57264C5.51851 1.57632 5.55857 1.57936 5.58558 1.58146L5.61608 1.58387L5.62574 1.58466C5.90092 1.60752 6.14253 1.40298 6.16541 1.1278C6.18829 0.852604 5.98341 0.610943 5.70822 0.588067L5.70516 0.587815L5.69635 0.5871L5.66312 0.584474C5.63424 0.582228 5.59218 0.579039 5.53867 0.575202C5.43169 0.567529 5.27878 0.557254 5.09383 0.546741C4.72455 0.52575 4.22462 0.503643 3.70603 0.499659C3.19058 0.495698 2.64244 0.509463 2.1818 0.563444C1.95228 0.590339 1.72929 0.628883 1.53656 0.686103C1.36092 0.738249 1.13533 0.826667 0.974874 0.999698Z" fill="white"/>
</g>
</svg>
