<svg width="86" height="86" viewBox="0 0 86 86" fill="none" xmlns="http://www.w3.org/2000/svg">
<path d="M32.0501 36.4152C32.0501 35.5039 32.7888 34.7652 33.7001 34.7652L40.3001 34.7652C41.2114 34.7652 41.9501 35.5039 41.9501 36.4152C41.9501 37.3265 41.2114 38.0652 40.3001 38.0652H33.7001C32.7888 38.0652 32.0501 37.3265 32.0501 36.4152Z" fill="white"/>
<path d="M32.0501 45.2152C32.0501 44.3039 32.7888 43.5652 33.7001 43.5652H40.3001C41.2114 43.5652 41.9501 44.3039 41.9501 45.2152C41.9501 46.1265 41.2114 46.8652 40.3001 46.8652H33.7001C32.7888 46.8652 32.0501 46.1265 32.0501 45.2152Z" fill="white"/>
<path fill-rule="evenodd" clip-rule="evenodd" d="M45.4238 24.2344L34.1999 20.9765C31.7482 20.2647 29.7275 19.6781 28.105 19.4609C26.4059 19.2334 24.7949 19.3586 23.4201 20.4409C22.0601 21.5116 21.5256 23.0526 21.2837 24.7787C21.05 26.4457 21.05 28.6122 21.0501 31.2648L21.0501 63.3652H20.5001C19.5888 63.3652 18.8501 64.1039 18.8501 65.0152C18.8501 65.9265 19.5888 66.6652 20.5001 66.6652H22.6917C22.6945 66.6652 22.6973 66.6652 22.7001 66.6652C22.7029 66.6652 22.7057 66.6652 22.7085 66.6652H51.2917C51.2945 66.6652 51.2973 66.6652 51.3001 66.6652C51.3029 66.6652 51.3057 66.6652 51.3085 66.6652L64.5001 66.6652C65.4114 66.6652 66.1501 65.9265 66.1501 65.0152C66.1501 64.1039 65.4114 63.3652 64.5001 63.3652H63.9505L63.9505 48.3689C63.9505 46.8719 63.9506 45.608 63.8307 44.5775C63.7033 43.4826 63.4255 42.4796 62.7544 41.5775C62.0832 40.6754 61.2022 40.1211 60.1901 39.6845C59.2375 39.2735 58.027 38.9104 56.5931 38.4803L52.9501 37.3874V34.4932C52.9501 32.9057 52.9502 31.5769 52.8278 30.4973C52.6985 29.3571 52.4177 28.3191 51.7375 27.3886C51.0532 26.4527 50.1523 25.8817 49.1098 25.4372C48.1322 25.0204 46.8911 24.6602 45.4238 24.2344ZM52.9501 40.8327L55.555 41.6142C57.1028 42.0785 58.1274 42.3886 58.8829 42.7145C59.5988 43.0234 59.9081 43.2802 60.1068 43.5473C60.3055 43.8145 60.4627 44.1845 60.5528 44.9589C60.6479 45.7762 60.6505 46.8468 60.6505 48.4626L60.6505 63.3652H52.9501L52.9501 40.8327ZM49.6501 63.3652L49.6501 34.5861C49.6501 32.8814 49.6476 31.7409 49.5488 30.869C49.4544 30.0367 49.2878 29.6295 49.0735 29.3363C48.8631 29.0485 48.5434 28.7832 47.8154 28.4728C47.0433 28.1436 45.9962 27.8367 44.4107 27.3765L33.4107 24.1836C30.7952 23.4244 29.0142 22.9121 27.6671 22.7317C26.368 22.5578 25.8272 22.7458 25.4614 23.0338C25.0807 23.3334 24.7449 23.8585 24.5517 25.2368C24.354 26.6474 24.3501 28.5807 24.3501 31.3932L24.3501 63.3652H29.8501L29.8501 58.3168C29.85 57.3646 29.8499 56.4915 29.9454 55.7814C30.0505 54.9993 30.2979 54.1727 30.9778 53.4929C31.6576 52.813 32.4842 52.5656 33.2663 52.4605C33.9764 52.365 34.8495 52.3651 35.8017 52.3652H38.1986C39.1508 52.3651 40.0238 52.365 40.734 52.4605C41.516 52.5656 42.3426 52.813 43.0225 53.4929C43.7023 54.1727 43.9497 54.9993 44.0549 55.7814C44.1503 56.4915 44.1502 57.3645 44.1501 58.3166L44.1501 63.3652H49.6501ZM33.1501 58.4152L33.1501 63.3652L40.8501 63.3652V58.4152C40.8501 57.3315 40.8466 56.6847 40.7843 56.2211C40.7557 56.0086 40.7221 55.9023 40.7024 55.8543C40.6978 55.8432 40.6942 55.8359 40.692 55.8317L40.689 55.8263L40.6836 55.8233C40.6794 55.8211 40.6721 55.8175 40.661 55.813C40.6131 55.7932 40.5067 55.7596 40.2943 55.731C39.8307 55.6687 39.1838 55.6652 38.1001 55.6652H35.9001C34.8164 55.6652 34.1696 55.6687 33.706 55.731C33.4935 55.7596 33.3872 55.7932 33.3392 55.813C33.3281 55.8175 33.3208 55.8211 33.3166 55.8233L33.3112 55.8263L33.3082 55.8317C33.306 55.8359 33.3024 55.8432 33.2979 55.8543C33.2781 55.9023 33.2445 56.0086 33.2159 56.2211C33.1536 56.6847 33.1501 57.3315 33.1501 58.4152Z" fill="white"/>
<path d="M1.9 43.0154C1.9 65.7143 20.3011 84.1154 43 84.1154C65.6989 84.1154 84.1 65.7143 84.1 43.0154C84.1 20.3165 65.6989 1.91538 43 1.91538C20.3011 1.91538 1.9 20.3165 1.9 43.0154Z" stroke="white" stroke-width="2.2"/>
</svg>
