<svg width="48" height="48" viewBox="0 0 48 48" fill="none" xmlns="http://www.w3.org/2000/svg">
<path d="M0 24C0 10.7452 10.7452 0 24 0C37.2548 0 48 10.7452 48 24C48 37.2548 37.2548 48 24 48C10.7452 48 0 37.2548 0 24Z" fill="#F3FCF6"/>
<path fill-rule="evenodd" clip-rule="evenodd" d="M11.459 24.0007C11.459 30.9271 17.0742 36.5423 24.0007 36.5423C30.9271 36.5423 36.5423 30.9271 36.5423 24.0007C36.5423 17.0742 30.9271 11.459 24.0007 11.459C17.0742 11.459 11.459 17.0742 11.459 24.0007ZM29.456 19.6408C29.9308 20.076 29.9623 20.8145 29.5272 21.2893L23.1105 28.2893C22.8958 28.5238 22.5936 28.6603 22.2763 28.6673C21.9578 28.6743 21.651 28.5507 21.4258 28.3255L18.5091 25.4089C18.053 24.9539 18.053 24.2141 18.5091 23.7591C18.9641 23.3029 19.7038 23.3029 20.1588 23.7591L22.2145 25.8137L27.8075 19.712C28.2426 19.2372 28.9812 19.2056 29.456 19.6408Z" fill="#067647"/>
</svg>
