<svg width="22" height="22" viewBox="0 0 22 22" fill="none" xmlns="http://www.w3.org/2000/svg">
<path d="M1.75 11C1.75 16.1086 5.89137 20.25 11 20.25C16.1086 20.25 20.25 16.1086 20.25 11C20.25 10.0319 20.1015 9.0999 19.8267 8.22474C19.7025 7.82956 19.9223 7.40858 20.3175 7.28446C20.7126 7.16034 21.1336 7.38008 21.2577 7.77526C21.5778 8.79419 21.75 9.87769 21.75 11C21.75 16.9371 16.9371 21.75 11 21.75C5.06294 21.75 0.25 16.9371 0.25 11C0.25 5.06294 5.06294 0.25 11 0.25C12.1223 0.25 13.2058 0.422239 14.2247 0.742266C14.6199 0.866385 14.8397 1.28736 14.7155 1.68254C14.5914 2.07772 14.1704 2.29746 13.7753 2.17334C12.9001 1.89847 11.9681 1.75 11 1.75C5.89137 1.75 1.75 5.89137 1.75 11Z" fill="#1B8354"/>
<path d="M20.5577 2.50174C20.8348 2.19386 20.8099 1.71964 20.502 1.44254C20.1941 1.16544 19.7199 1.1904 19.4428 1.49828L10.9714 10.9107L8.03033 7.96968C7.73744 7.67678 7.26256 7.67678 6.96967 7.96968C6.67678 8.26257 6.67678 8.73744 6.96967 9.03034L10.4697 12.5303C10.6152 12.6758 10.814 12.7552 11.0197 12.7497C11.2254 12.7443 11.4198 12.6547 11.5575 12.5017L20.5577 2.50174Z" fill="#1B8354"/>
</svg>
