<svg width="960" height="37" viewBox="0 0 960 37" fill="none" xmlns="http://www.w3.org/2000/svg">
<path d="M0 4C0 1.79086 1.79086 0 4 0H956C958.209 0 960 1.79086 960 4V33C960 35.2091 958.209 37 956 37H4C1.79086 37 0 35.2091 0 33V4Z" fill="#F3F4F6"/>
<path d="M24.6673 13.5L15.5007 22.6667L11.334 18.5" stroke="#161616" stroke-width="1.5" stroke-linecap="round" stroke-linejoin="round"/>
<g clip-path="url(#clip0_356_147808)">
<path d="M923.01 25.156H923.528C924.041 25.156 924.461 25.0813 924.788 24.932C925.114 24.7827 925.371 24.582 925.558 24.33C925.744 24.0873 925.875 23.798 925.95 23.462C926.024 23.1353 926.062 22.79 926.062 22.426C926.062 22.1553 926.048 21.8753 926.02 21.586C925.992 21.2873 925.954 21.0027 925.908 20.732L925.614 19.15L926.594 18.954L926.776 20.018C926.925 20.8767 927 21.6887 927 22.454C927 22.9673 926.944 23.4573 926.832 23.924C926.72 24.4 926.528 24.8153 926.258 25.17C925.996 25.534 925.642 25.8233 925.194 26.038C924.755 26.2527 924.2 26.36 923.528 26.36H923.01V25.156ZM931.041 23C930.593 23 930.21 22.9627 929.893 22.888C929.585 22.8133 929.333 22.692 929.137 22.524C928.95 22.3467 928.815 22.118 928.731 21.838C928.647 21.558 928.605 21.2173 928.605 20.816V12.64H929.641V20.816C929.641 21.1707 929.739 21.4227 929.935 21.572C930.131 21.7213 930.434 21.796 930.845 21.796H931.335V22.72L931.055 23H931.041ZM931.048 22.076L931.328 21.796H931.818C932.611 21.796 933.008 21.3993 933.008 20.606V18.394H933.988V20.606C933.988 21.3993 934.385 21.796 935.178 21.796H935.668V22.72L935.388 23C934.1 23 933.344 22.5427 933.12 21.628H933.05C932.947 22.1413 932.747 22.5007 932.448 22.706C932.149 22.902 931.683 23 931.048 23V22.076ZM934.324 25.8C934.137 25.8 933.988 25.744 933.876 25.632C933.764 25.5293 933.708 25.3567 933.708 25.114C933.708 24.8713 933.764 24.694 933.876 24.582C933.988 24.4793 934.137 24.428 934.324 24.428H934.478C934.665 24.428 934.814 24.4793 934.926 24.582C935.038 24.694 935.094 24.8713 935.094 25.114C935.094 25.3567 935.038 25.5293 934.926 25.632C934.814 25.744 934.665 25.8 934.478 25.8H934.324ZM932.518 25.8C932.331 25.8 932.182 25.744 932.07 25.632C931.958 25.5293 931.902 25.3567 931.902 25.114C931.902 24.8713 931.958 24.694 932.07 24.582C932.182 24.4793 932.331 24.428 932.518 24.428H932.672C932.859 24.428 933.008 24.4793 933.12 24.582C933.232 24.694 933.288 24.8713 933.288 25.114C933.288 25.3567 933.232 25.5293 933.12 25.632C933.008 25.744 932.859 25.8 932.672 25.8H932.518ZM935.382 22.076L935.662 21.796H936.152C936.945 21.796 937.342 21.3993 937.342 20.606V18.394H938.322V20.606C938.322 21.3993 938.719 21.796 939.512 21.796H940.002V22.72L939.722 23C938.434 23 937.678 22.5427 937.454 21.628H937.384C937.281 22.1413 937.081 22.5007 936.782 22.706C936.483 22.902 936.017 23 935.382 23V22.076ZM938.616 16.714C938.429 16.714 938.28 16.6627 938.168 16.56C938.056 16.448 938 16.2707 938 16.028C938 15.7853 938.056 15.6127 938.168 15.51C938.28 15.398 938.429 15.342 938.616 15.342H938.77C938.957 15.342 939.106 15.398 939.218 15.51C939.33 15.6127 939.386 15.7853 939.386 16.028C939.386 16.2707 939.33 16.448 939.218 16.56C939.106 16.6627 938.957 16.714 938.77 16.714H938.616ZM936.81 16.714C936.623 16.714 936.474 16.6627 936.362 16.56C936.25 16.448 936.194 16.2707 936.194 16.028C936.194 15.7853 936.25 15.6127 936.362 15.51C936.474 15.398 936.623 15.342 936.81 15.342H936.964C937.151 15.342 937.3 15.398 937.412 15.51C937.524 15.6127 937.58 15.7853 937.58 16.028C937.58 16.2707 937.524 16.448 937.412 16.56C937.3 16.6627 937.151 16.714 936.964 16.714H936.81ZM939.716 22.076L939.996 21.796H940.472C940.883 21.796 941.261 21.782 941.606 21.754C941.961 21.726 942.32 21.6747 942.684 21.6C943.048 21.516 943.431 21.3993 943.832 21.25C944.243 21.1007 944.705 20.9047 945.218 20.662L946.506 20.046V19.99L944.434 19.528L941.536 18.814V20.018H940.556V18.94C940.556 18.548 940.663 18.254 940.878 18.058C941.102 17.8527 941.382 17.75 941.718 17.75C941.821 17.75 941.942 17.764 942.082 17.792C942.231 17.8107 942.46 17.8573 942.768 17.932L946.184 18.814C946.697 18.9447 947.127 19.038 947.472 19.094C947.817 19.1407 948.116 19.164 948.368 19.164H948.592V20.368H947.5L945.596 21.516C945.017 21.8613 944.504 22.1367 944.056 22.342C943.608 22.538 943.188 22.6873 942.796 22.79C942.404 22.8833 942.021 22.944 941.648 22.972C941.284 22.9907 940.892 23 940.472 23H939.716V22.076ZM943.468 16.154C943.281 16.154 943.132 16.1027 943.02 16C942.908 15.888 942.852 15.7107 942.852 15.468C942.852 15.2253 942.908 15.0527 943.02 14.95C943.132 14.838 943.281 14.782 943.468 14.782H943.622C943.809 14.782 943.958 14.838 944.07 14.95C944.182 15.0527 944.238 15.2253 944.238 15.468C944.238 15.7107 944.182 15.888 944.07 16C943.958 16.1027 943.809 16.154 943.622 16.154H943.468ZM949.919 12.64H950.955V23H949.919V12.64ZM949.023 25.786H949.527L949.541 25.73C949.466 25.6367 949.406 25.5247 949.359 25.394C949.312 25.2727 949.289 25.1467 949.289 25.016C949.289 24.652 949.41 24.3487 949.653 24.106C949.896 23.8633 950.204 23.742 950.577 23.742C950.792 23.742 951.011 23.7933 951.235 23.896C951.459 24.008 951.627 24.1527 951.739 24.33L951.221 24.96C951.034 24.7453 950.82 24.638 950.577 24.638C950.409 24.638 950.269 24.68 950.157 24.764C950.045 24.8573 949.989 24.9693 949.989 25.1C949.989 25.296 950.078 25.45 950.255 25.562C950.432 25.674 950.68 25.73 950.997 25.73H951.893V26.626H949.023V25.786Z" fill="#161616"/>
</g>
<defs>
<clipPath id="clip0_356_147808">
<rect width="916" height="21" fill="white" transform="translate(36 8)"/>
</clipPath>
</defs>
</svg>
