<svg width="20" height="20" viewBox="0 0 20 20" fill="none" xmlns="http://www.w3.org/2000/svg">
<g id="Feedback Icon">
<path id="bg" fill-rule="evenodd" clip-rule="evenodd" d="M10.0007 19.1673C15.0633 19.1673 19.1673 15.0633 19.1673 10.0007C19.1673 4.93804 15.0633 0.833984 10.0007 0.833984C4.93804 0.833984 0.833984 4.93804 0.833984 10.0007C0.833984 15.0633 4.93804 19.1673 10.0007 19.1673Z" fill="white"/>
<path id="Icon" fill-rule="evenodd" clip-rule="evenodd" d="M10.0007 19.1673C15.0633 19.1673 19.1673 15.0633 19.1673 10.0007C19.1673 4.93804 15.0633 0.833984 10.0007 0.833984C4.93804 0.833984 0.833984 4.93804 0.833984 10.0007C0.833984 15.0633 4.93804 19.1673 10.0007 19.1673ZM5.87583 9.26842C5.5504 9.59385 5.5504 10.1215 5.87583 10.4469L8.23285 12.804C8.55829 13.1294 9.08593 13.1294 9.41137 12.804L14.1254 8.08991C14.4508 7.76447 14.4508 7.23683 14.1254 6.9114C13.8 6.58596 13.2723 6.58596 12.9469 6.9114L8.82211 11.0362L7.05434 9.26842C6.72891 8.94298 6.20127 8.94298 5.87583 9.26842Z" fill="#067647"/>
</g>
</svg>
