<svg width="18" height="18" viewBox="0 0 18 18" fill="none" xmlns="http://www.w3.org/2000/svg">
<g id="elements">
<g id="Icon">
<path d="M10.7597 2.30213C7.52208 1.43765 4.21033 2.98312 2.74608 5.82818L3.82024 5.89357C4.13033 5.91245 4.3664 6.17913 4.34752 6.48922C4.32865 6.7993 4.06197 7.03537 3.75188 7.0165L1.86928 6.90189C1.69082 6.89102 1.52815 6.79597 1.43108 6.64582C1.33401 6.49568 1.3141 6.30833 1.37745 6.14113C2.82901 2.3099 6.99312 0.132 11.0499 1.21521C15.3709 2.36896 17.9426 6.78877 16.7857 11.0913C15.629 15.3931 11.1856 17.9386 6.86537 16.785C3.656 15.9281 1.41322 13.2705 0.944026 10.1983C0.897124 9.89122 1.10806 9.60424 1.41516 9.55734C1.72226 9.51044 2.00923 9.72137 2.05613 10.0285C2.45981 12.6717 4.39044 14.9598 7.15559 15.6981C10.8819 16.6931 14.7052 14.4961 15.6993 10.7992C16.6931 7.10305 14.4853 3.29691 10.7597 2.30213Z" fill="#912018"/>
<path d="M9.56258 6.00011C9.56258 5.68945 9.31074 5.43761 9.00008 5.43761C8.68942 5.43761 8.43758 5.68945 8.43758 6.00011V9.00011C8.43758 9.1493 8.49684 9.29237 8.60233 9.39786L10.1023 10.8979C10.322 11.1175 10.6782 11.1175 10.8978 10.8979C11.1175 10.6782 11.1175 10.322 10.8978 10.1024L9.56258 8.76712V6.00011Z" fill="#912018"/>
</g>
</g>
</svg>
