<svg width="20" height="20" viewBox="0 0 20 20" fill="none" xmlns="http://www.w3.org/2000/svg">
<path d="M10.6252 3.33398C10.6252 2.98881 10.3454 2.70898 10.0002 2.70898C9.65503 2.70898 9.3752 2.98881 9.3752 3.33398V10.3856L9.37015 10.3796C9.19458 10.1724 9.02267 9.95346 8.86191 9.74869L8.82465 9.70123C8.66446 9.49729 8.49593 9.28303 8.36505 9.14837C8.12446 8.90085 7.72877 8.89522 7.48125 9.13581C7.23373 9.37639 7.22811 9.77208 7.46869 10.0196C7.54261 10.0957 7.66397 10.2472 7.84163 10.4733L7.88082 10.5233C8.03921 10.7251 8.22504 10.9618 8.41648 11.1877C8.62165 11.4299 8.8513 11.6814 9.08086 11.8769C9.1959 11.9748 9.32556 12.0715 9.46506 12.1461C9.59959 12.2181 9.78497 12.2923 10.0002 12.2923C10.2154 12.2923 10.4008 12.2181 10.5354 12.1461C10.6748 12.0715 10.8045 11.9748 10.9195 11.8769C11.1491 11.6814 11.3788 11.4299 11.5839 11.1877C11.7754 10.9618 11.9611 10.7251 12.1195 10.5233L12.1588 10.4733C12.3364 10.2472 12.4578 10.0957 12.5317 10.0196C12.7723 9.77208 12.7667 9.37639 12.5192 9.13581C12.2716 8.89522 11.8759 8.90085 11.6354 9.14837C11.5045 9.28302 11.3359 9.49728 11.1758 9.70123L11.1385 9.7487C10.9777 9.95346 10.8058 10.1725 10.6303 10.3796L10.6252 10.3856V3.33398Z" fill="#161616"/>
<path d="M18.0895 11.8753C18.2044 11.5498 18.0337 11.1928 17.7082 11.078C17.3827 10.9631 17.0257 11.1338 16.9108 11.4593L16.7159 12.0115C16.332 13.0993 16.0604 13.866 15.7816 14.4408C15.5097 15.0012 15.2568 15.3217 14.9413 15.5449C14.6259 15.7681 14.2395 15.8999 13.6205 15.9698C12.9857 16.0414 12.1723 16.0423 11.0187 16.0423H8.98164C7.82799 16.0423 7.0146 16.0414 6.37984 15.9698C5.76086 15.8999 5.37447 15.7681 5.059 15.5449C4.74353 15.3217 4.49069 15.0012 4.21879 14.4408C3.93995 13.866 3.66837 13.0993 3.28441 12.0115L3.08954 11.4593C2.97466 11.1338 2.61766 10.9631 2.29216 11.078C1.96666 11.1928 1.79592 11.5498 1.9108 11.8753L2.11812 12.4628C2.48678 13.5073 2.78096 14.3408 3.09416 14.9864C3.41781 15.6535 3.78722 16.1763 4.33704 16.5653C4.88685 16.9543 5.50283 17.1287 6.23962 17.2119C6.95261 17.2924 7.83652 17.2923 8.94422 17.2923H11.0561C12.1638 17.2923 13.0477 17.2924 13.7607 17.2119C14.4975 17.1287 15.1135 16.9543 15.6633 16.5653C16.2131 16.1763 16.5825 15.6535 16.9062 14.9864C17.2194 14.3408 17.5136 13.5073 17.8822 12.4627L18.0895 11.8753Z" fill="#161616"/>
</svg>
