<svg width="69" height="68" viewBox="0 0 69 68" fill="none" xmlns="http://www.w3.org/2000/svg">
<path d="M34.5959 1.00757C16.3706 1.00757 1.59595 15.7822 1.59595 34.0076C1.59595 52.233 16.3706 67.0076 34.5959 67.0076C52.8213 67.0076 67.5959 52.233 67.5959 34.0076C67.5959 15.7822 52.8213 1.00757 34.5959 1.00757Z" fill="#F7FDF9" stroke="white" stroke-width="2"/>
<path d="M43.3459 27.3409C43.3459 28.0309 43.9059 28.5909 44.5959 28.5909C45.2859 28.5909 45.8459 28.0309 45.8459 27.3409V19.0076C45.8459 18.3176 45.2859 17.7576 44.5959 17.7576C43.9059 17.7576 43.3459 18.3176 43.3459 19.0076V21.9242L25.8459 21.9242V19.0076C25.8459 18.3176 25.2859 17.7576 24.5959 17.7576C23.9059 17.7576 23.3459 18.3176 23.3459 19.0076L23.3459 27.3409C23.3459 28.0309 23.9059 28.5909 24.5959 28.5909C25.2859 28.5909 25.8459 28.0309 25.8459 27.3409V24.4242L43.3459 24.4242V27.3409Z" fill="#1B8354"/>
<path d="M47.5125 25.6742C47.5125 26.3642 48.0725 26.9242 48.7625 26.9242C49.4525 26.9242 50.0125 26.3642 50.0125 25.6742V24.4242H51.2625C51.9525 24.4242 52.5125 23.8642 52.5125 23.1742C52.5125 22.4842 51.9525 21.9242 51.2625 21.9242H50.0125V20.6742C50.0125 19.9842 49.4525 19.4242 48.7625 19.4242C48.0725 19.4242 47.5125 19.9842 47.5125 20.6742V25.6742Z" fill="#1B8354"/>
<path d="M19.1792 25.6742C19.1792 26.3642 19.7392 26.9242 20.4292 26.9242C21.1192 26.9242 21.6792 26.3642 21.6792 25.6742V20.6742C21.6792 19.9842 21.1192 19.4242 20.4292 19.4242C19.7392 19.4242 19.1792 19.9842 19.1792 20.6742V21.9242H17.9292C17.2392 21.9242 16.6792 22.4842 16.6792 23.1742C16.6792 23.8642 17.2392 24.4242 17.9292 24.4242H19.1792V25.6742Z" fill="#1B8354"/>
<path fill-rule="evenodd" clip-rule="evenodd" d="M42.5125 46.9242C44.9305 46.9242 46.1469 46.9183 46.9436 45.9759C48.4969 44.1392 46.5352 42.1309 45.6969 41.2743C45.5669 41.1409 45.4436 41.0142 45.3602 40.9209C44.3786 39.8159 43.4936 39.4242 41.9786 39.4242H40.8459V27.3409C40.8459 26.6509 40.2859 26.0909 39.5959 26.0909C38.9059 26.0909 38.3459 26.6509 38.3459 27.3409V39.4242H30.8459L30.8459 27.3409C30.8459 26.6509 30.2859 26.0909 29.5959 26.0909C28.9059 26.0909 28.3459 26.6509 28.3459 27.3409L28.3459 39.4242H27.212C25.6953 39.4242 24.8103 39.8159 23.8303 40.9209C23.747 41.0142 23.6236 41.1409 23.4936 41.2743C22.6553 42.1309 20.6936 44.1392 22.247 45.9759C23.0438 46.9185 24.262 46.9242 26.6792 46.9242V49.0076C26.6792 49.6976 27.2392 50.2576 27.9292 50.2576C28.6192 50.2576 29.1792 49.6976 29.1792 49.0076V46.9242L40.0125 46.9242V49.0076C40.0125 49.6976 40.5725 50.2576 41.2625 50.2576C41.9525 50.2576 42.5125 49.6976 42.5125 49.0076V46.9242ZM26.7236 44.4242C25.7003 44.4242 24.647 44.4242 24.212 44.3309C24.3692 43.9569 25.011 43.2987 25.2763 43.0267L25.282 43.0209C25.4336 42.8659 25.5769 42.7192 25.7002 42.5809C26.2069 42.0109 26.4036 41.9242 27.212 41.9242L41.9786 41.9242C42.7852 41.9242 42.9836 42.0092 43.4903 42.5809C43.6136 42.7192 43.7569 42.8659 43.9086 43.0209C44.1719 43.2909 44.8202 43.9559 44.9786 44.3309C44.5436 44.4242 43.4903 44.4242 42.4669 44.4242L26.7236 44.4242Z" fill="#1B8354"/>
</svg>
