<svg width="69" height="68" viewBox="0 0 69 68" fill="none" xmlns="http://www.w3.org/2000/svg">
<path d="M34.4043 1.00757C16.1789 1.00757 1.4043 15.7822 1.4043 34.0076C1.4043 52.233 16.1789 67.0076 34.4043 67.0076C52.6297 67.0076 67.4043 52.233 67.4043 34.0076C67.4043 15.7822 52.6297 1.00757 34.4043 1.00757Z" fill="#F7FDF9" stroke="white" stroke-width="2"/>
<path d="M27.7376 34.0075C26.8172 34.0075 26.071 34.7537 26.071 35.6742C26.071 36.5946 26.8172 37.3408 27.7376 37.3408H27.7526C28.673 37.3408 29.4192 36.5946 29.4192 35.6742C29.4192 34.7537 28.673 34.0075 27.7526 34.0075H27.7376Z" fill="#1B8354"/>
<path d="M34.3894 34.0075C33.4689 34.0075 32.7227 34.7537 32.7227 35.6742C32.7227 36.5946 33.4689 37.3408 34.3894 37.3408H34.4043C35.3248 37.3408 36.071 36.5946 36.071 35.6742C36.071 34.7537 35.3248 34.0075 34.4043 34.0075H34.3894Z" fill="#1B8354"/>
<path d="M41.0579 34.0075C40.1375 34.0075 39.3913 34.7537 39.3913 35.6742C39.3913 36.5946 40.1375 37.3408 41.0579 37.3408H41.0729C41.9934 37.3408 42.7395 36.5946 42.7395 35.6742C42.7395 34.7537 41.9934 34.0075 41.0729 34.0075H41.0579Z" fill="#1B8354"/>
<path d="M35.6543 21.5075C35.6543 20.8171 35.0947 20.2575 34.4043 20.2575C33.7139 20.2575 33.1543 20.8171 33.1543 21.5075V22.7575H31.9043C31.2139 22.7575 30.6543 23.3171 30.6543 24.0075C30.6543 24.6978 31.2139 25.2575 31.9043 25.2575H33.1543V26.5075C33.1543 27.1978 33.7139 27.7575 34.4043 27.7575C35.0947 27.7575 35.6543 27.1978 35.6543 26.5075V25.2575L36.9043 25.2575C37.5947 25.2575 38.1543 24.6978 38.1543 24.0075C38.1543 23.3171 37.5947 22.7575 36.9043 22.7575H35.6543V21.5075Z" fill="#1B8354"/>
<path fill-rule="evenodd" clip-rule="evenodd" d="M34.491 16.0908H34.3176C32.8202 16.0908 31.5715 16.0907 30.5802 16.224C29.5338 16.3647 28.5892 16.6741 27.8301 17.4333C27.0709 18.1924 26.7615 19.137 26.6208 20.1834C26.5791 20.4933 26.5505 20.8285 26.5308 21.1886C24.6339 21.4012 23.0932 21.8865 21.8943 23.0889C20.7697 24.2167 20.2777 25.6421 20.0456 27.3732C19.8209 29.0494 19.8209 31.1868 19.821 33.866L19.821 49.4242H19.4043C18.7139 49.4242 18.1543 49.9838 18.1543 50.6742C18.1543 51.3645 18.7139 51.9242 19.4043 51.9242H21.0607L21.071 51.9242L21.0812 51.9242H30.2348L30.2376 51.9242L30.2405 51.9242L38.5681 51.9242L38.571 51.9242L38.5738 51.9242H47.7274L47.7376 51.9242L47.7479 51.9242H49.4043C50.0947 51.9242 50.6543 51.3645 50.6543 50.6742C50.6543 49.9838 50.0947 49.4242 49.4043 49.4242H48.9876L48.9876 33.8661C48.9877 31.1869 48.9877 29.0494 48.763 27.3732C48.5309 25.6421 48.0388 24.2167 46.9143 23.0889C45.7154 21.8865 44.1747 21.4012 42.2778 21.1886C42.2581 20.8285 42.2295 20.4933 42.1878 20.1834C42.0471 19.137 41.7377 18.1924 40.9785 17.4333C40.2194 16.6741 39.2748 16.3647 38.2284 16.224C37.2371 16.0907 35.9884 16.0908 34.491 16.0908ZM37.321 46.5075V49.4242L31.4876 49.4242V46.5075C31.4876 45.7056 31.4888 45.1878 31.5244 44.7954C31.5584 44.4202 31.6158 44.2839 31.6551 44.2158C31.7648 44.0258 31.9226 43.868 32.1126 43.7583C32.1807 43.719 32.317 43.6616 32.6922 43.6276C33.0846 43.592 33.6024 43.5908 34.4043 43.5908C35.2062 43.5908 35.724 43.592 36.1164 43.6276C36.4916 43.6616 36.6279 43.719 36.696 43.7583C36.886 43.868 37.0438 44.0258 37.1535 44.2158C37.1928 44.2839 37.2502 44.4202 37.2842 44.7954C37.3198 45.1878 37.321 45.7056 37.321 46.5075ZM39.821 46.4538V49.4242H46.4876L46.4876 33.9587C46.4876 31.1656 46.485 29.1961 46.2851 27.7053C46.0901 26.2501 45.7279 25.4397 45.1439 24.8541C44.5602 24.2686 43.757 23.9091 42.321 23.7134L42.321 24.0941C42.321 25.5916 42.3211 26.8403 42.1878 27.8316C42.0471 28.8779 41.7377 29.8226 40.9785 30.5817C40.2194 31.3408 39.2748 31.6503 38.2284 31.791C37.2371 31.9242 35.9885 31.9242 34.491 31.9242H34.3176C32.8202 31.9242 31.5715 31.9242 30.5802 31.791C29.5338 31.6503 28.5892 31.3408 27.8301 30.5817C27.0709 29.8226 26.7615 28.8779 26.6208 27.8316C26.4875 26.8403 26.4876 25.5916 26.4876 24.0942L26.4876 23.7134C25.0516 23.9091 24.2484 24.2686 23.6647 24.8541C23.0807 25.4397 22.7185 26.2501 22.5234 27.7053C22.3236 29.1961 22.321 31.1656 22.321 33.9587L22.321 49.4242H28.9876L28.9876 46.4538C28.9876 45.7208 28.9876 45.0886 29.0346 44.5697C29.0843 44.0211 29.1944 43.4778 29.49 42.9658C29.8192 42.3958 30.2926 41.9224 30.8626 41.5932C31.3747 41.2976 31.9179 41.1875 32.4665 41.1378C32.9854 41.0908 33.6176 41.0908 34.3506 41.0908H34.458C35.191 41.0908 35.8232 41.0908 36.342 41.1378C36.8907 41.1875 37.4339 41.2976 37.946 41.5932C38.516 41.9224 38.9894 42.3958 39.3186 42.9658C39.6142 43.4778 39.7243 44.0211 39.774 44.5697C39.821 45.0886 39.821 45.7208 39.821 46.4538ZM29.5978 19.201C29.815 18.9838 30.1442 18.8051 30.9133 18.7017C31.7183 18.5935 32.7976 18.5908 34.4043 18.5908C36.011 18.5908 37.0903 18.5935 37.8953 18.7017C38.6644 18.8051 38.9936 18.9838 39.2108 19.201C39.428 19.4182 39.6067 19.7474 39.7101 20.5165C39.8183 21.3215 39.821 22.4008 39.821 24.0075C39.821 25.6142 39.8183 26.6934 39.7101 27.4985C39.6067 28.2676 39.428 28.5968 39.2108 28.814C38.9936 29.0312 38.6644 29.2099 37.8953 29.3133C37.0903 29.4215 36.011 29.4242 34.4043 29.4242C32.7976 29.4242 31.7183 29.4215 30.9133 29.3133C30.1442 29.2099 29.815 29.0312 29.5978 28.814C29.3806 28.5968 29.2019 28.2676 29.0985 27.4985C28.9903 26.6934 28.9876 25.6142 28.9876 24.0075C28.9876 22.4008 28.9903 21.3215 29.0985 20.5165C29.2019 19.7474 29.3806 19.4182 29.5978 19.201Z" fill="#1B8354"/>
</svg>
