<svg width="68" height="68" viewBox="0 0 68 68" fill="none" xmlns="http://www.w3.org/2000/svg">
<path d="M34 1C15.7746 1 1 15.7746 1 34C1 52.2254 15.7746 67 34 67C52.2254 67 67 52.2254 67 34C67 15.7746 52.2254 1 34 1Z" fill="#F7FDF9" stroke="white" stroke-width="2"/>
<path d="M42.3333 38.5833C43.0236 38.5833 43.5833 38.0237 43.5833 37.3333C43.5833 36.643 43.0236 36.0833 42.3333 36.0833L38.9999 36.0833C38.3096 36.0833 37.7499 36.643 37.7499 37.3333C37.7499 38.0237 38.3096 38.5833 38.9999 38.5833L42.3333 38.5833Z" fill="#1B8354"/>
<path d="M25.6796 35.6667C26.6001 35.6667 27.3463 34.9205 27.3463 34C27.3463 33.0795 26.6001 32.3333 25.6796 32.3333H25.6646C24.7442 32.3333 23.998 33.0795 23.998 34C23.998 34.9205 24.7442 35.6667 25.6646 35.6667H25.6796Z" fill="#1B8354"/>
<path fill-rule="evenodd" clip-rule="evenodd" d="M18.9999 48.5833C18.3096 48.5833 17.7499 48.0237 17.7499 47.3333L17.7499 31.8453C17.3481 31.9869 16.8841 31.9194 16.5331 31.6269C16.0027 31.1849 15.9311 30.3967 16.373 29.8663L19.4166 26.2141V20.6667C19.4166 19.9763 19.9762 19.4167 20.6666 19.4167C21.3569 19.4167 21.9166 19.9763 21.9166 20.6667V23.2141L24.7063 19.8663C24.9438 19.5814 25.2956 19.4166 25.6666 19.4166L39.4387 19.4164C40.7488 19.415 41.7865 19.4139 42.7161 19.8493C43.6456 20.2847 44.3091 21.0826 45.1467 22.0899L51.6269 29.8663C51.9374 30.2389 52.0043 30.7575 51.7986 31.1968C51.5929 31.636 51.1516 31.9166 50.6666 31.9166H50.2499L50.2499 47.3333C50.2499 48.0237 49.6903 48.5833 48.9999 48.5833L18.9999 48.5833ZM33.5833 46.0833L33.5833 30.351L33.8064 30.5741L33.9006 30.6687C34.2833 31.0536 34.6963 31.469 35.2408 31.6946C35.7853 31.9201 36.3711 31.9184 36.9139 31.9168L37.0473 31.9166H47.7499L47.7499 46.0833L33.5833 46.0833ZM31.0833 46.0833H26.9166V40.6667C26.9166 39.9763 26.3569 39.4167 25.6666 39.4167C24.9762 39.4167 24.4166 39.9763 24.4166 40.6667V46.0833H20.2499L20.2499 29.1192L25.7506 22.5183L31.0833 27.851L31.0833 46.0833ZM47.7499 29.4166V29.1191L43.372 23.8656C42.3143 22.5963 42.0167 22.2823 41.6557 22.1133C41.2947 21.9442 40.863 21.9166 39.2108 21.9166L28.6844 21.9166L35.5742 28.8064C35.828 29.0602 35.9704 29.2014 36.0849 29.2997C36.1359 29.3435 36.166 29.3652 36.182 29.3756L36.192 29.3819L36.1955 29.3839L36.1975 29.3849L36.1997 29.3856C36.1997 29.3856 36.2061 29.3875 36.215 29.3893C36.2338 29.3932 36.2704 29.3992 36.3374 29.4043C36.4878 29.4158 36.6884 29.4166 37.0473 29.4166H47.7499Z" fill="#1B8354"/>
</svg>
