<svg width="18" height="18" viewBox="0 0 18 18" fill="none" xmlns="http://www.w3.org/2000/svg">
<g id="elements">
<g id="Icon">
<path d="M8.57619 8.79297C8.51831 8.79204 8.45138 8.79201 8.36882 8.79201C8.02364 8.79201 7.74382 8.51219 7.74382 8.16701C7.74382 7.82183 8.02364 7.54201 8.36882 7.54201L8.39752 7.542C8.56845 7.54193 8.75328 7.54186 8.90929 7.56284C9.09206 7.58741 9.32555 7.6506 9.52205 7.8471C9.71855 8.0436 9.78175 8.2771 9.80632 8.45986C9.8273 8.61588 9.82722 8.80071 9.82716 8.97164L9.82715 13.167C9.82715 13.5122 9.54733 13.792 9.20215 13.792C8.85697 13.792 8.57715 13.5122 8.57715 13.167V9.00034C8.57715 8.91778 8.57712 8.85085 8.57619 8.79297Z" fill="#161616"/>
<path d="M8.99382 4.83366C8.53358 4.83366 8.16048 5.20676 8.16048 5.66699C8.16048 6.12723 8.53358 6.50033 8.99382 6.50033H9.0013C9.46154 6.50033 9.83463 6.12723 9.83463 5.66699C9.83463 5.20676 9.46154 4.83366 9.0013 4.83366H8.99382Z" fill="#161616"/>
<path fill-rule="evenodd" clip-rule="evenodd" d="M0.0419922 9.00033C0.0419922 13.9479 4.05277 17.9587 9.00033 17.9587C13.9479 17.9587 17.9587 13.9479 17.9587 9.00033C17.9587 4.05277 13.9479 0.0419922 9.00033 0.0419922C4.05277 0.0419922 0.0419922 4.05277 0.0419922 9.00033ZM9.00033 16.7087C4.74313 16.7087 1.29199 13.2575 1.29199 9.00033C1.29199 4.74313 4.74313 1.29199 9.00033 1.29199C13.2575 1.29199 16.7087 4.74313 16.7087 9.00033C16.7087 13.2575 13.2575 16.7087 9.00033 16.7087Z" fill="#161616"/>
</g>
</g>
</svg>
