<svg width="48" height="48" viewBox="0 0 48 48" fill="none" xmlns="http://www.w3.org/2000/svg">
<path d="M0 24C0 10.7452 10.7452 0 24 0C37.2548 0 48 10.7452 48 24C48 37.2548 37.2548 48 24 48C10.7452 48 0 37.2548 0 24Z" fill="#F3FCF6"/>
<path fill-rule="evenodd" clip-rule="evenodd" d="M28.5303 23.1018C28.8232 22.8089 28.8232 22.334 28.5303 22.0411C28.3348 21.8456 28.0583 21.7806 27.8089 21.8461C27.7417 21.7639 27.6685 21.6753 27.5905 21.5818C27.1844 21.0951 26.6363 20.4645 26.0859 19.9141C25.5355 19.3637 24.9049 18.8156 24.4182 18.4095C24.3247 18.3315 24.2361 18.2583 24.1539 18.1911C24.2194 17.9417 24.1544 17.6652 23.9589 17.4697C23.666 17.1768 23.1911 17.1768 22.8982 17.4697L20.3586 20.0094C20.0657 20.3022 20.0657 20.7771 20.3586 21.07C20.554 21.2655 20.8306 21.3305 21.08 21.2651C21.1472 21.3472 21.2203 21.4358 21.2984 21.5293C21.5755 21.8615 21.9188 22.2606 22.2838 22.6555L19.4697 25.4697C19.1768 25.7626 19.1768 26.2374 19.4697 26.5303C19.7626 26.8232 20.2374 26.8232 20.5303 26.5303L23.3445 23.7162C23.7394 24.0812 24.1385 24.4245 24.4707 24.7016C24.5642 24.7797 24.6528 24.8528 24.7349 24.92C24.6695 25.1694 24.7345 25.446 24.93 25.6414C25.2229 25.9343 25.6978 25.9343 25.9906 25.6414L28.5303 23.1018ZM23.1673 19.322L22.2108 20.2784C22.2833 20.3672 22.3635 20.4646 22.4501 20.5683C22.8438 21.0401 23.3591 21.6318 23.8637 22.1363C24.3682 22.6409 24.9599 23.1562 25.4317 23.5499C25.5354 23.6365 25.6328 23.7167 25.7216 23.7892L26.678 22.8327C26.6056 22.7439 26.5254 22.6465 26.4388 22.5428C26.0451 22.071 25.5298 21.4793 25.0252 20.9748C24.5207 20.4702 23.929 19.9549 23.4572 19.5612C23.3535 19.4746 23.2561 19.3944 23.1673 19.322Z" fill="#1B8354"/>
<path d="M20 29.25C19.5858 29.25 19.25 29.5858 19.25 30C19.25 30.4142 19.5858 30.75 20 30.75L28 30.75C28.4142 30.75 28.75 30.4142 28.75 30C28.75 29.5858 28.4142 29.25 28 29.25L20 29.25Z" fill="#1B8354"/>
<path fill-rule="evenodd" clip-rule="evenodd" d="M22.9436 13.25H25.0564C26.8942 13.25 28.3498 13.25 29.489 13.4031C30.6614 13.5608 31.6104 13.8929 32.3588 14.6412C33.1071 15.3896 33.4392 16.3386 33.5969 17.511C33.75 18.6502 33.75 20.1058 33.75 21.9435V26.0564C33.75 27.8942 33.75 29.3498 33.5969 30.489C33.4392 31.6614 33.1071 32.6104 32.3588 33.3588C31.6104 34.1071 30.6614 34.4392 29.489 34.5969C28.3498 34.75 26.8942 34.75 25.0565 34.75H22.9436C21.1059 34.75 19.6502 34.75 18.511 34.5969C17.3386 34.4392 16.3896 34.1071 15.6412 33.3588C14.8929 32.6104 14.5608 31.6614 14.4031 30.489C14.25 29.3498 14.25 27.8942 14.25 26.0564L14.25 21.9436C14.25 20.1058 14.25 18.6502 14.4031 17.511C14.5608 16.3386 14.8929 15.3896 15.6412 14.6412C16.3896 13.8929 17.3386 13.5608 18.511 13.4031C19.6502 13.25 21.1058 13.25 22.9436 13.25ZM18.7108 14.8898C17.7048 15.025 17.1251 15.2787 16.7019 15.7019C16.2787 16.1251 16.025 16.7048 15.8898 17.7108C15.7516 18.7385 15.75 20.0932 15.75 22L15.75 26C15.75 27.9068 15.7516 29.2615 15.8898 30.2892C16.025 31.2952 16.2787 31.8749 16.7019 32.2981C17.1251 32.7213 17.7048 32.975 18.7108 33.1102C19.7385 33.2484 21.0932 33.25 23 33.25H25C26.9068 33.25 28.2615 33.2484 29.2892 33.1102C30.2952 32.975 30.8749 32.7213 31.2981 32.2981C31.7213 31.8749 31.975 31.2952 32.1102 30.2892C32.2484 29.2615 32.25 27.9068 32.25 26V22C32.25 20.0932 32.2484 18.7385 32.1102 17.7108C31.975 16.7048 31.7213 16.1251 31.2981 15.7019C30.8749 15.2787 30.2952 15.025 29.2892 14.8898C28.2615 14.7516 26.9068 14.75 25 14.75L23 14.75C21.0932 14.75 19.7385 14.7516 18.7108 14.8898Z" fill="#1B8354"/>
</svg>
