<svg width="24" height="24" viewBox="0 0 24 24" fill="none" xmlns="http://www.w3.org/2000/svg">
<path d="M15.7494 17.6548C15.7659 17.2409 15.4437 16.8921 15.0298 16.8756C14.6159 16.8592 14.267 17.1814 14.2506 17.5953C14.193 19.044 12.9856 20.2895 11.334 20.2491C10.9722 20.2403 10.493 20.1115 9.25473 19.7622C6.45545 18.9726 4.35508 17.7352 3.84554 15.1372C3.75341 14.6675 3.75001 14.1268 3.75001 12.8373L3.75001 11.1628C3.75001 9.87329 3.75341 9.33257 3.84554 8.86283C4.35508 6.26485 6.45545 5.02745 9.25474 4.23787C10.493 3.88859 10.9722 3.75982 11.334 3.75097C12.9856 3.71056 14.193 4.95605 14.2506 6.40481C14.267 6.81869 14.6159 7.14088 15.0298 7.12443C15.4437 7.10798 15.7659 6.75913 15.7494 6.34524C15.6598 4.09011 13.7806 2.19067 11.2973 2.25142C10.7204 2.26553 10.0421 2.45699 8.97809 2.75735L8.84752 2.7942C5.92379 3.61889 3.05604 5.09449 2.37359 8.57414C2.24987 9.20493 2.24992 9.9012 2.25 11.0693L2.25 12.9308C2.24992 14.0989 2.24987 14.7951 2.37359 15.4259C3.05604 18.9056 5.92379 20.3812 8.84752 21.2059L8.97811 21.2427C10.0421 21.5431 10.7204 21.7345 11.2973 21.7487C13.7806 21.8094 15.6598 19.9099 15.7494 17.6548Z" fill="#161616"/>
<path d="M13.0228 10.0378C13.3198 9.74911 13.3265 9.27428 13.0378 8.97726C12.7491 8.68023 12.2743 8.67349 11.9773 8.96219C11.886 9.05089 11.7042 9.19651 11.4328 9.40971L11.3729 9.45676C11.1307 9.64682 10.8466 9.86981 10.5755 10.0995C10.285 10.3457 9.98318 10.6213 9.74856 10.8968C9.63098 11.0348 9.51501 11.1904 9.42543 11.3578C9.33904 11.5193 9.25002 11.7417 9.25002 12C9.25002 12.2583 9.33904 12.4807 9.42543 12.6422C9.51501 12.8096 9.63098 12.9652 9.74856 13.1032C9.98318 13.3787 10.285 13.6543 10.5755 13.9005C10.8466 14.1302 11.1307 14.3532 11.3728 14.5432L11.4328 14.5903C11.7042 14.8035 11.886 14.9491 11.9773 15.0378C12.2743 15.3265 12.7491 15.3198 13.0378 15.0227C13.3265 14.7257 13.3198 14.2509 13.0228 13.9622C12.8612 13.8051 12.6041 13.6029 12.3593 13.4107L12.3024 13.3659C12.0566 13.173 11.7939 12.9667 11.5452 12.7561L11.5381 12.75H21C21.4142 12.75 21.75 12.4142 21.75 12C21.75 11.5858 21.4142 11.25 21 11.25H11.5381L11.5452 11.2439C11.7939 11.0333 12.0566 10.827 12.3024 10.6341L12.3593 10.5893C12.6041 10.3971 12.8612 10.1949 13.0228 10.0378Z" fill="#161616"/>
</svg>
