<svg width="18" height="16" viewBox="0 0 18 16" fill="none" xmlns="http://www.w3.org/2000/svg">
<g id="elements">
<g id="Icon">
<path d="M8.99902 9.30982C8.68852 9.30982 8.43652 9.05782 8.43652 8.74732V8.46233C8.43652 7.81283 8.8235 7.32006 9.1655 6.88506L9.1738 6.87447C9.28473 6.7329 9.38947 6.59923 9.46851 6.4741C9.52776 6.3796 9.56152 6.26409 9.56152 6.15234C9.56152 5.82534 9.30952 5.55981 8.99902 5.55981C8.68852 5.55981 8.43652 5.82534 8.43652 6.15234C8.43652 6.47934 8.18452 6.71484 7.87402 6.71484C7.56352 6.71484 7.31152 6.46284 7.31152 6.15234C7.31152 5.20509 8.06827 4.43481 8.99902 4.43481C9.92977 4.43481 10.6865 5.20509 10.6865 6.15234C10.6865 6.47709 10.595 6.79504 10.421 7.07329C10.307 7.25254 10.1765 7.41904 10.0505 7.57954L10.048 7.58267C9.8088 7.88769 9.56152 8.20297 9.56152 8.46233V8.74732C9.56152 9.05782 9.30952 9.30982 8.99902 9.30982Z" fill="#1849A9"/>
<path d="M8.44018 10.2473C8.44018 10.5578 8.69592 10.8098 9.00642 10.8098C9.31692 10.8098 9.56892 10.5578 9.56892 10.2473C9.56892 9.93682 9.31692 9.68482 9.00642 9.68482H8.99895C8.68845 9.68482 8.44018 9.93682 8.44018 10.2473Z" fill="#1849A9"/>
<path fill-rule="evenodd" clip-rule="evenodd" d="M3.10774 15.6862C3.06724 15.6862 3.02675 15.6862 2.9855 15.6847L2.92698 15.6832C2.41473 15.6675 1.97149 15.6532 1.70449 15.2257L1.69094 15.2025C1.43822 14.751 1.6587 14.3355 1.9639 13.7604L1.97747 13.7347C2.22722 13.266 2.47247 12.6172 2.23997 12.1664C1.46672 11.0144 1.0392 9.87449 0.968703 8.77724C0.929703 8.12549 0.929703 7.467 0.968703 6.8175C1.18845 3.36675 3.92519 0.593227 7.33469 0.365227C8.42069 0.296227 9.5712 0.296227 10.6625 0.365227C14.0742 0.593977 16.8117 3.36671 17.0307 6.81596C17.0697 7.46771 17.0697 8.1262 17.0307 8.7757C16.811 12.2265 14.0742 14.9992 10.6647 15.228C9.57122 15.3045 8.41844 15.3045 7.33169 15.228C6.89744 15.201 6.437 15.096 6.03875 14.9317L5.94646 14.8935L5.89994 14.8744C5.81119 14.8379 5.72415 14.8021 5.65774 14.7772C5.60721 14.8116 5.54314 14.8568 5.4777 14.9029L5.43794 14.931L5.39151 14.9639C4.73751 15.4507 3.9882 15.6877 3.1062 15.6877L3.10774 15.6862ZM2.81821 14.5537C2.84958 14.5552 2.88194 14.556 2.91398 14.5569L2.96221 14.5582L3.01699 14.5597C3.70624 14.5755 4.23644 14.421 4.72544 14.0565C4.72732 14.0553 4.72902 14.054 4.73071 14.0527C4.73241 14.0514 4.73411 14.0501 4.73599 14.049L4.78696 14.013L4.78862 14.0118C5.11452 13.7801 5.27861 13.6634 5.50173 13.6289C5.74623 13.5922 5.95698 13.6784 6.37698 13.8517L6.46846 13.8892C6.75121 14.0062 7.09246 14.0835 7.40596 14.103C8.44621 14.1757 9.54495 14.1765 10.5875 14.103H10.589C13.4375 13.9125 15.7235 11.5905 15.908 8.7037C15.944 8.1097 15.944 7.47899 15.908 6.88349C15.7242 3.99824 13.4375 1.67694 10.5897 1.48569C9.54647 1.42044 8.4455 1.42044 7.4075 1.48569C4.56125 1.67619 2.27445 3.99745 2.0907 6.88495C2.0547 7.47895 2.0547 8.10974 2.0907 8.70524C2.14845 9.60599 2.51819 10.5667 3.18794 11.559C3.19694 11.5725 3.20599 11.5867 3.21423 11.6017C3.61098 12.3187 3.52922 13.2135 2.97122 14.2612L2.95774 14.2859C2.91049 14.3744 2.86096 14.469 2.81821 14.5537Z" fill="#1849A9"/>
</g>
</g>
</svg>
