<svg width="19" height="30" viewBox="0 0 19 30" fill="none" xmlns="http://www.w3.org/2000/svg">
<mask id="path-1-inside-1_521_218168" fill="white">
<path fill-rule="evenodd" clip-rule="evenodd" d="M4.8665 0.792236L0.103516 5.55522L4.78935 10.2411L0.103516 14.9269L4.8626 19.686L0.103516 24.4451L4.8665 29.208L9.62509 24.4495L14.2372 29.0616L19.0002 24.2986L14.3151 19.6135L14.3158 19.6128L14.315 19.6121L19.0002 14.9269L14.3151 10.2418L14.3158 10.2412L14.315 10.2404L19.0002 5.55522L14.2372 0.792236L9.55185 5.47759L4.8665 0.792236Z"/>
</mask>
<path fill-rule="evenodd" clip-rule="evenodd" d="M4.8665 0.792236L0.103516 5.55522L4.78935 10.2411L0.103516 14.9269L4.8626 19.686L0.103516 24.4451L4.8665 29.208L9.62509 24.4495L14.2372 29.0616L19.0002 24.2986L14.3151 19.6135L14.3158 19.6128L14.315 19.6121L19.0002 14.9269L14.3151 10.2418L14.3158 10.2412L14.315 10.2404L19.0002 5.55522L14.2372 0.792236L9.55185 5.47759L4.8665 0.792236Z" fill="#D6C36D"/>
<path d="M0.103516 5.55522L-0.439542 5.01216L-0.9826 5.55522L-0.439542 6.09828L0.103516 5.55522ZM4.8665 0.792236L5.40956 0.249178L4.8665 -0.29388L4.32344 0.249178L4.8665 0.792236ZM4.78935 10.2411L5.33241 10.7841L5.87547 10.2411L5.33241 9.698L4.78935 10.2411ZM0.103516 14.9269L-0.439542 14.3838L-0.9826 14.9269L-0.439543 15.47L0.103516 14.9269ZM4.8626 19.686L5.40565 20.229L5.94871 19.686L5.40566 19.1429L4.8626 19.686ZM0.103516 24.4451L-0.439542 23.902L-0.9826 24.4451L-0.439542 24.9881L0.103516 24.4451ZM4.8665 29.208L4.32344 29.7511L4.8665 30.2942L5.40956 29.7511L4.8665 29.208ZM9.62509 24.4495L10.1682 23.9064L9.62509 23.3633L9.08204 23.9064L9.62509 24.4495ZM14.2372 29.0616L13.6941 29.6046L14.2372 30.1477L14.7803 29.6046L14.2372 29.0616ZM19.0002 24.2986L19.5432 24.8416L20.0863 24.2986L19.5432 23.7555L19.0002 24.2986ZM14.3151 19.6135L13.7721 19.0705L13.229 19.6135L13.7721 20.1566L14.3151 19.6135ZM14.3158 19.6128L14.8589 20.1559L15.4023 19.6125L14.8585 19.0694L14.3158 19.6128ZM14.315 19.6121L13.772 19.069L13.2286 19.6124L13.7723 20.1554L14.315 19.6121ZM19.0002 14.9269L19.5432 15.47L20.0863 14.9269L19.5432 14.3838L19.0002 14.9269ZM14.3151 10.2418L13.7721 9.69878L13.229 10.2418L13.7721 10.7849L14.3151 10.2418ZM14.3158 10.2412L14.8589 10.7842L15.4019 10.2412L14.8589 9.6981L14.3158 10.2412ZM14.315 10.2404L13.772 9.69732L13.2289 10.2404L13.772 10.7834L14.315 10.2404ZM19.0002 5.55522L19.5432 6.09828L20.0863 5.55522L19.5432 5.01216L19.0002 5.55522ZM14.2372 0.792236L14.7803 0.249178L14.2372 -0.29388L13.6941 0.249178L14.2372 0.792236ZM9.55185 5.47759L9.00879 6.02065L9.55185 6.5637L10.0949 6.02065L9.55185 5.47759ZM0.646574 6.09828L5.40956 1.33529L4.32344 0.249178L-0.439542 5.01216L0.646574 6.09828ZM5.33241 9.698L0.646574 5.01216L-0.439542 6.09828L4.2463 10.7841L5.33241 9.698ZM0.646574 15.47L5.33241 10.7841L4.2463 9.698L-0.439542 14.3838L0.646574 15.47ZM5.40566 19.1429L0.646574 14.3838L-0.439543 15.47L4.31954 20.229L5.40566 19.1429ZM0.646574 24.9881L5.40565 20.229L4.31954 19.1429L-0.439542 23.902L0.646574 24.9881ZM5.40956 28.665L0.646574 23.902L-0.439542 24.9881L4.32344 29.7511L5.40956 28.665ZM9.08204 23.9064L4.32344 28.665L5.40956 29.7511L10.1682 24.9925L9.08204 23.9064ZM14.7803 28.5185L10.1682 23.9064L9.08204 24.9925L13.6941 29.6046L14.7803 28.5185ZM18.4571 23.7555L13.6941 28.5185L14.7803 29.6046L19.5432 24.8416L18.4571 23.7555ZM13.7721 20.1566L18.4571 24.8416L19.5432 23.7555L14.8582 19.0705L13.7721 20.1566ZM13.7728 19.0698L13.7721 19.0705L14.8582 20.1566L14.8589 20.1559L13.7728 19.0698ZM13.7723 20.1554L13.7731 20.1562L14.8585 19.0694L14.8578 19.0687L13.7723 20.1554ZM18.4571 14.3838L13.772 19.069L14.8581 20.1551L19.5432 15.47L18.4571 14.3838ZM13.7721 10.7849L18.4571 15.47L19.5432 14.3838L14.8582 9.69878L13.7721 10.7849ZM13.7728 9.6981L13.7721 9.69878L14.8582 10.7849L14.8589 10.7842L13.7728 9.6981ZM13.772 10.7834L13.7728 10.7842L14.8589 9.6981L14.8581 9.69732L13.772 10.7834ZM18.4571 5.01216L13.772 9.69732L14.8581 10.7834L19.5432 6.09828L18.4571 5.01216ZM13.6941 1.33529L18.4571 6.09828L19.5432 5.01216L14.7803 0.249178L13.6941 1.33529ZM10.0949 6.02065L14.7803 1.33529L13.6941 0.249178L9.00879 4.93453L10.0949 6.02065ZM4.32344 1.33529L9.00879 6.02065L10.0949 4.93453L5.40956 0.249178L4.32344 1.33529Z" fill="#D6C36D" mask="url(#path-1-inside-1_521_218168)"/>
</svg>
