<svg width="48" height="48" viewBox="0 0 48 48" fill="none" xmlns="http://www.w3.org/2000/svg">
<path d="M0 24C0 10.7452 10.7452 0 24 0C37.2548 0 48 10.7452 48 24C48 37.2548 37.2548 48 24 48C10.7452 48 0 37.2548 0 24Z" fill="#F3FCF6"/>
<path d="M21.719 19.0001C21.719 18.5859 22.0548 18.2501 22.469 18.2501H29.469C29.8832 18.2501 30.219 18.5859 30.219 19.0001C30.219 19.4143 29.8832 19.7501 29.469 19.7501H22.469C22.0548 19.7501 21.719 19.4143 21.719 19.0001Z" fill="#1B8354"/>
<path d="M22.469 22.2501C22.0548 22.2501 21.719 22.5859 21.719 23.0001C21.719 23.4143 22.0548 23.7501 22.469 23.7501H25.969C26.3832 23.7501 26.719 23.4143 26.719 23.0001C26.719 22.5859 26.3832 22.2501 25.969 22.2501H22.469Z" fill="#1B8354"/>
<path fill-rule="evenodd" clip-rule="evenodd" d="M17.2252 28.2368V18.5319C17.2252 17.8598 17.2379 17.0635 17.3958 16.3096C17.5548 15.5502 17.8748 14.7641 18.5423 14.1719C19.5846 13.2474 21.0103 13.249 22.0369 13.2501L29.4511 13.2502C30.4545 13.2502 31.6928 13.2572 32.7932 13.7973C32.8831 13.8415 32.9705 13.8883 33.0554 13.9382C33.9946 14.4903 34.4023 15.4073 34.5847 16.291C34.7521 17.1019 34.7511 17.9938 34.7502 18.7309L34.7501 29.4171C34.7501 30.4596 34.7086 31.6772 34.2022 32.7874C33.9581 33.3227 33.6426 33.7661 33.1902 34.1003C32.7433 34.4305 32.2201 34.6115 31.6322 34.7199C31.6081 34.7243 31.5839 34.7276 31.5596 34.7297C31.2671 34.7545 30.9863 34.7584 30.7161 34.7323H17.467C16.9357 34.7271 16.453 34.688 15.9897 34.5368C14.682 34.1099 13.9909 32.8524 13.6359 31.8498C13.4222 31.2463 13.308 30.6803 13.2558 30.0452C13.1707 29.0099 14.0287 28.2368 14.969 28.2368H17.2252ZM22.1401 14.7502C20.9604 14.7501 20.1125 14.7843 19.5377 15.2941C19.1979 15.5955 18.9855 16.0365 18.8639 16.617C18.7412 17.203 18.7252 17.8593 18.7252 18.5319V28.2368H26.8047C27.5239 28.2368 28.1798 28.6775 28.437 29.3616C28.5656 29.7036 28.673 30.0025 28.7684 30.285C28.8027 30.3864 28.8358 30.4858 28.8683 30.5832C29.1652 31.4734 29.4055 32.1938 29.9004 32.7378C30.1865 33.0523 30.4436 33.1869 30.7983 33.2323H31.4251C31.8436 33.1491 32.1081 33.0348 32.2989 32.8939C32.4939 32.7498 32.6681 32.5364 32.8375 32.165C33.1958 31.3792 33.2501 30.4575 33.2501 29.4171L33.2501 18.7732C33.2504 17.9953 33.2507 17.2483 33.1157 16.5943C32.9774 15.9245 32.7228 15.4827 32.2952 15.2313C32.2448 15.2017 32.1906 15.1725 32.1322 15.1439C31.3907 14.7799 30.5006 14.7502 29.4511 14.7502H22.1401ZM28.3921 33.2323C27.9299 32.5343 27.6682 31.7383 27.4472 31.0664C27.4131 30.9627 27.38 30.8619 27.3472 30.7649C27.2585 30.5021 27.1571 30.2197 27.033 29.8896C27 29.802 26.9117 29.7368 26.8047 29.7368H14.969C14.8962 29.7368 14.8351 29.7663 14.7962 29.8058C14.76 29.8424 14.7474 29.8812 14.7508 29.9223C14.7934 30.4401 14.8831 30.878 15.0499 31.3491C15.3677 32.2466 15.8431 32.911 16.4552 33.1108C16.7001 33.1908 17.0011 33.2275 17.4783 33.2323H28.3921Z" fill="#1B8354"/>
</svg>
