<svg width="22" height="22" viewBox="0 0 22 22" fill="none" xmlns="http://www.w3.org/2000/svg">
<path d="M17 10C16.4477 10 16 10.4477 16 11C16 11.5523 16.4477 12 17 12H17.009C17.5613 12 18.009 11.5523 18.009 11C18.009 10.4477 17.5613 10 17.009 10H17Z" fill="white"/>
<path fill-rule="evenodd" clip-rule="evenodd" d="M12.052 0.250001H9.948C9.04954 0.249973 8.3003 0.249949 7.70552 0.329915C7.07773 0.414319 6.51093 0.59999 6.05546 1.05546C5.59999 1.51093 5.41432 2.07773 5.32991 2.70552C5.24995 3.3003 5.24997 4.04951 5.25 4.94799L5.25 6.2544C4.86117 6.25968 4.51709 6.27129 4.21173 6.2968C3.6344 6.34502 3.13151 6.44666 2.66499 6.68655C2.10651 6.97374 1.62704 7.3906 1.27103 7.90269C0.971567 8.33345 0.813768 8.81457 0.705224 9.36962C0.600437 9.90546 0.531401 10.5705 0.446285 11.3904L0.438659 11.4639C0.336442 12.4483 0.254069 13.2417 0.25015 13.8833C0.246116 14.5438 0.32242 15.128 0.596817 15.6653C0.918901 16.296 1.41585 16.8231 2.0278 17.19C2.54485 17.5001 3.12804 17.6291 3.8033 17.6903C4.26638 17.7323 4.81096 17.7447 5.45125 17.7484C5.39076 18.0221 5.3412 18.2644 5.30703 18.4789C5.24759 18.8519 5.22268 19.2066 5.2915 19.5588C5.44953 20.3673 5.94712 21.0768 6.67159 21.4603C6.99394 21.6309 7.34088 21.6935 7.69884 21.7223C8.04456 21.75 8.47142 21.75 8.98109 21.75H13.0189C13.5286 21.75 13.9554 21.75 14.3011 21.7223C14.6591 21.6935 15.006 21.6309 15.3284 21.4603C16.0528 21.0768 16.5504 20.3673 16.7085 19.5588C16.7773 19.2066 16.7524 18.8519 16.6929 18.4789C16.6588 18.2644 16.6092 18.0221 16.5487 17.7484C17.189 17.7447 17.7336 17.7323 18.1967 17.6903C18.872 17.6291 19.4552 17.5001 19.9722 17.19C20.5841 16.8231 21.0811 16.296 21.4032 15.6653C21.6776 15.128 21.7539 14.5438 21.7499 13.8833C21.7459 13.2416 21.6636 12.4483 21.5613 11.4638L21.5537 11.3904C21.4686 10.5705 21.3996 9.90547 21.2948 9.36962C21.1862 8.81457 21.0284 8.33345 20.729 7.90269C20.373 7.3906 19.8935 6.97374 19.335 6.68655C18.8685 6.44666 18.3656 6.34502 17.7883 6.2968C17.4829 6.27129 17.1388 6.25968 16.75 6.2544L16.75 4.94801C16.75 4.04957 16.7501 3.30029 16.6701 2.70552C16.5857 2.07773 16.4 1.51093 15.9445 1.05546C15.4891 0.59999 14.9223 0.414319 14.2945 0.329915C13.6997 0.249949 12.9505 0.249973 12.052 0.250001ZM6.10282 15.5244C5.97571 15.7366 5.88576 15.9753 5.80699 16.2496C5.0136 16.2481 4.41787 16.2398 3.93865 16.1964C3.3634 16.1443 3.03792 16.0467 2.79919 15.9036C2.42321 15.6781 2.12427 15.3582 1.93269 14.9831C1.81413 14.7509 1.74677 14.4417 1.75012 13.8924C1.75354 13.3327 1.82749 12.6123 1.93467 11.5799C2.02425 10.7172 2.08701 10.1194 2.17734 9.65751C2.26538 9.20731 2.36848 8.95191 2.50265 8.75892C2.71603 8.45198 3.00668 8.19755 3.35095 8.02052C3.57195 7.90688 3.85589 7.83175 4.33659 7.79159C4.82717 7.75061 5.4552 7.75 6.35396 7.75H15.646C16.5448 7.75 17.1728 7.75061 17.6634 7.79159C18.1441 7.83175 18.4281 7.90688 18.6491 8.02052C18.9933 8.19755 19.284 8.45198 19.4974 8.75892C19.6315 8.95191 19.7346 9.20731 19.8227 9.65751C19.913 10.1194 19.9758 10.7172 20.0653 11.5799C20.1725 12.6123 20.2465 13.3327 20.2499 13.8924C20.2532 14.4417 20.1859 14.7509 20.0673 14.9831C19.8757 15.3582 19.5768 15.6781 19.2008 15.9036C18.9621 16.0467 18.6366 16.1443 18.0614 16.1964C17.5821 16.2398 16.9864 16.2481 16.193 16.2496C16.1142 15.9753 16.0242 15.7366 15.8971 15.5244C15.5905 15.0126 15.127 14.614 14.5705 14.4062C14.1486 14.2487 13.6745 14.2492 13.1016 14.2499H8.89832C8.32548 14.2492 7.85132 14.2487 7.42945 14.4062C6.87298 14.614 6.4095 15.0126 6.10282 15.5244ZM15.25 6.25V5C15.25 4.03599 15.2484 3.38843 15.1835 2.9054C15.1214 2.44393 15.0142 2.24644 14.8839 2.11612C14.7536 1.9858 14.5561 1.87858 14.0946 1.81654C13.6116 1.7516 12.964 1.75 12 1.75H10C9.03599 1.75 8.38843 1.7516 7.90539 1.81654C7.44393 1.87858 7.24644 1.9858 7.11612 2.11612C6.9858 2.24644 6.87858 2.44393 6.81654 2.9054C6.7516 3.38843 6.75 4.03599 6.75 5V6.25H15.25ZM9.0113 15.75C8.26465 15.75 8.08796 15.7615 7.95416 15.8115C7.73319 15.894 7.53098 16.0593 7.38954 16.2954C7.29741 16.4491 7.23831 16.6655 7.05967 17.4408C6.92745 18.0146 6.83724 18.4079 6.78835 18.7148C6.74001 19.0183 6.74416 19.1713 6.76365 19.271C6.84113 19.6674 7.07758 19.978 7.3734 20.1346C7.43367 20.1665 7.54573 20.2052 7.81882 20.2271C8.09733 20.2494 8.46354 20.25 9.0113 20.25H12.9887C13.5364 20.25 13.9026 20.2494 14.1811 20.2271C14.4542 20.2052 14.5663 20.1665 14.6266 20.1346C14.9224 19.978 15.1588 19.6674 15.2363 19.271C15.2558 19.1713 15.26 19.0183 15.2116 18.7148C15.1627 18.4079 15.0725 18.0146 14.9403 17.4408C14.7617 16.6655 14.7025 16.4491 14.6104 16.2954C14.469 16.0593 14.2668 15.894 14.0458 15.8115C13.912 15.7615 13.7353 15.75 12.9887 15.75H9.0113Z" fill="white"/>
</svg>
