<svg width="48" height="48" viewBox="0 0 48 48" fill="none" xmlns="http://www.w3.org/2000/svg">
<path d="M0 24C0 10.7452 10.7452 0 24 0V0C37.2548 0 48 10.7452 48 24V24C48 37.2548 37.2548 48 24 48V48C10.7452 48 0 37.2548 0 24V24Z" fill="#F3FCF6"/>
<path d="M28 24.75H29C29.414 24.75 29.75 24.414 29.75 24C29.75 23.586 29.414 23.25 29 23.25H28C27.586 23.25 27.25 23.586 27.25 24C27.25 24.414 27.586 24.75 28 24.75Z" fill="#1B8354"/>
<path fill-rule="evenodd" clip-rule="evenodd" d="M34 15.75H33.75V32.25H34C34.414 32.25 34.75 32.586 34.75 33C34.75 33.414 34.414 33.75 34 33.75H14C13.586 33.75 13.25 33.414 13.25 33C13.25 32.586 13.586 32.25 14 32.25H14.25V15.75H14C13.586 15.75 13.25 15.414 13.25 15C13.25 14.586 13.586 14.25 14 14.25H34C34.414 14.25 34.75 14.586 34.75 15C34.75 15.414 34.414 15.75 34 15.75ZM32.25 27.75V32.25H27.75V27.75H32.25ZM26.25 27.7413V32.25H21.75V15.75H26.25V20.2587C25.6009 20.2836 25.1452 20.3806 24.765 20.757L24.756 20.766C24.25 21.285 24.25 21.9299 24.25 22.9997V25C24.25 26.0698 24.25 26.715 24.756 27.234L24.765 27.243C25.1459 27.6194 25.6012 27.7164 26.25 27.7413ZM20.25 15.75V32.25H15.75V15.75H20.25ZM27 21.75C26.503 21.75 25.941 21.75 25.824 21.821C25.75 21.926 25.75 22.52 25.75 23V25C25.75 25.48 25.75 26.075 25.824 26.179C25.94 26.25 26.5029 26.25 26.9999 26.25H32.25V21.75H27ZM32.25 20.25H27.75V15.75H32.25V20.25Z" fill="#1B8354"/>
</svg>
