<svg width="48" height="48" viewBox="0 0 48 48" fill="none" xmlns="http://www.w3.org/2000/svg">
<path d="M0 24C0 10.7452 10.7452 0 24 0C37.2548 0 48 10.7452 48 24C48 37.2548 37.2548 48 24 48C10.7452 48 0 37.2548 0 24Z" fill="#F3FCF6"/>
<path fill-rule="evenodd" clip-rule="evenodd" d="M23.4156 15.4684C23.4155 15.4683 23.4158 15.4686 23.4156 15.4684L23.9995 15.9052L24.5836 15.4684C24.5833 15.4686 24.5838 15.4683 24.5836 15.4684C26.1992 14.2555 28.8738 13.5267 31.8543 15.355C35.2153 17.4166 36.1219 22.9586 32.0058 28.1779C31.012 29.438 29.7251 30.6881 28.1063 31.8863C28.0713 31.9122 28.0366 31.9379 28.0022 31.9634C26.5509 33.0383 25.5897 33.7501 23.9996 33.7501C22.4095 33.7501 21.4484 33.0383 19.997 31.9634C19.9626 31.9379 19.9279 31.9122 19.8929 31.8863C15.7133 28.7927 13.7398 25.3441 13.3308 22.2949C12.9238 19.2604 14.0837 16.6194 16.1449 15.355C19.1255 13.5267 21.8 14.2555 23.4156 15.4684ZM22.755 16.8475L22.5149 16.6679C21.3184 15.7693 19.3115 15.1723 16.9292 16.6336C15.4711 17.528 14.473 19.5273 14.8175 22.0956C15.16 24.6492 16.8471 27.7657 20.7853 30.6807C22.3675 31.8517 22.945 32.2501 23.9996 32.2501C25.0542 32.2501 25.6317 31.8517 27.2139 30.6807C28.5243 29.7107 29.5862 28.7175 30.4321 27.7304L25.3576 21.9733L23.2082 23.3167C22.1453 23.981 20.7659 23.8315 19.87 22.9549C18.6866 21.797 18.806 19.8587 20.1225 18.8548L22.755 16.8475ZM31.3661 26.5216C34.4858 22.0107 33.2679 17.9818 31.07 16.6336C28.6877 15.1723 26.6809 15.7693 25.4843 16.6679L25.4831 16.6688L24.4513 17.4403L21.0321 20.0476C20.4428 20.4969 20.3894 21.3645 20.919 21.8828C21.32 22.2751 21.9375 22.342 22.4132 22.0447L24.5993 20.6784C25.2006 20.3026 25.9855 20.4171 26.4543 20.949L31.3661 26.5216Z" fill="#1B8354"/>
</svg>
