<svg width="32" height="32" viewBox="0 0 32 32" fill="none" xmlns="http://www.w3.org/2000/svg">
<path d="M0.5 4C0.5 2.067 2.067 0.5 4 0.5H28C29.933 0.5 31.5 2.067 31.5 4V28C31.5 29.933 29.933 31.5 28 31.5H4C2.067 31.5 0.5 29.933 0.5 28V4Z" stroke="white" stroke-opacity="0.3"/>
<path fill-rule="evenodd" clip-rule="evenodd" d="M10.8541 12.1864C10.8541 9.34468 13.1578 7.04102 15.9995 7.04102C18.8412 7.04102 21.1448 9.34468 21.1448 12.1864C21.1448 13.6144 21.1742 14.7114 21.3517 15.604C21.6236 14.7562 22.2603 13.9153 23.088 13.0637C23.3286 12.8162 23.7243 12.8106 23.9718 13.0512C24.2194 13.2918 24.225 13.6875 23.9844 13.935C22.7946 15.159 22.3983 15.9956 22.465 16.6208C22.5289 17.2206 23.0603 17.9278 24.6318 18.7838C24.898 18.9288 25.0167 19.2393 24.9298 19.518C24.9531 19.5932 24.9625 19.6736 24.9556 19.7554C24.9332 20.0218 24.7438 20.2445 24.4844 20.3094C23.5705 20.5379 23.1403 20.7377 22.865 21.0131C22.5897 21.2884 22.3898 21.7185 22.1614 22.6324C22.0918 22.9106 21.8418 23.1058 21.555 23.1058C20.0838 23.1058 19.2709 23.5163 18.584 23.939C18.4931 23.995 18.4007 24.0543 18.306 24.115C17.6958 24.5065 16.9925 24.9577 15.9995 24.9577C15.0064 24.9577 14.3033 24.5066 13.693 24.1151C13.5984 24.0544 13.5059 23.995 13.415 23.939C12.728 23.5163 11.9151 23.1058 10.4439 23.1058C10.1571 23.1058 9.90713 22.9106 9.83757 22.6324C9.60909 21.7185 9.40923 21.2884 9.13391 21.0131C8.85859 20.7377 8.42846 20.5379 7.51455 20.3094C7.25512 20.2445 7.0657 20.0218 7.04332 19.7554C7.03645 19.6736 7.04579 19.5932 7.06912 19.518C6.98226 19.2393 7.10095 18.9288 7.36715 18.7838C8.93859 17.9278 9.47002 17.2206 9.53395 16.6208C9.6006 15.9956 9.20429 15.159 8.01454 13.935C7.77395 13.6875 7.77957 13.2918 8.02709 13.0512C8.2746 12.8106 8.67029 12.8162 8.91088 13.0637C9.73862 13.9153 10.3754 14.7562 10.6473 15.604C10.8247 14.7114 10.8541 13.6144 10.8541 12.1864ZM15.9995 8.29102C13.8481 8.29102 12.1041 10.035 12.1041 12.1864C12.1041 14.1394 12.0633 15.7546 11.5043 17.0782C11.0734 18.0983 10.3585 18.9015 9.25101 19.5862C9.54062 19.732 9.79578 19.9072 10.0178 20.1292C10.4618 20.5731 10.7185 21.1497 10.927 21.8692C12.4081 21.9533 13.3297 22.4189 14.0701 22.8745C14.1878 22.9469 14.2969 23.0157 14.3994 23.0802C15.0168 23.4693 15.395 23.7077 15.9995 23.7077C16.6039 23.7077 16.982 23.4694 17.5994 23.0803C17.7019 23.0157 17.8111 22.9469 17.9288 22.8745C18.6692 22.4189 19.5908 21.9533 21.0719 21.8692C21.2804 21.1497 21.5372 20.5731 21.9811 20.1292C22.2031 19.9072 22.4583 19.732 22.7479 19.5862C21.6404 18.9015 20.9255 18.0983 20.4947 17.0782C19.9356 15.7546 19.8948 14.1394 19.8948 12.1864C19.8948 10.035 18.1508 8.29102 15.9995 8.29102Z" fill="white"/>
</svg>
