<svg width="1440" height="409" viewBox="0 0 1440 409" fill="none" xmlns="http://www.w3.org/2000/svg">
<g filter="url(#filter0_d_272_203972)">
<path d="M-2 476L166.467 199.212L193.677 158.896C210.505 133.962 246.025 130.856 266.926 152.492V152.492C284.12 170.291 312.126 171.833 331.17 156.029L373.258 121.105V121.105C411.641 84.6492 474.118 94.2811 499.739 140.604L501.112 143.087C530.081 195.463 603.255 200.946 639.706 153.473L662.297 124.051C690.032 87.9302 738.669 75.1103 780.605 92.8677L1069.95 215.389C1099.46 227.884 1133.17 225.481 1160.61 208.925L1482 15" stroke="url(#paint0_linear_272_203972)" stroke-width="6" stroke-linejoin="round" shape-rendering="crispEdges"/>
</g>
<defs>
<filter id="filter0_d_272_203972" x="-20.5625" y="0.431396" width="1520.11" height="497.128" filterUnits="userSpaceOnUse" color-interpolation-filters="sRGB">
<feFlood flood-opacity="0" result="BackgroundImageFix"/>
<feColorMatrix in="SourceAlpha" type="matrix" values="0 0 0 0 0 0 0 0 0 0 0 0 0 0 0 0 0 0 127 0" result="hardAlpha"/>
<feOffset dy="4"/>
<feGaussianBlur stdDeviation="8"/>
<feComposite in2="hardAlpha" operator="out"/>
<feColorMatrix type="matrix" values="0 0 0 0 1 0 0 0 0 1 0 0 0 0 1 0 0 0 0.12 0"/>
<feBlend mode="normal" in2="BackgroundImageFix" result="effect1_dropShadow_272_203972"/>
<feBlend mode="normal" in="SourceGraphic" in2="effect1_dropShadow_272_203972" result="shape"/>
</filter>
<linearGradient id="paint0_linear_272_203972" x1="20.6937" y1="476" x2="1441.66" y2="493.246" gradientUnits="userSpaceOnUse">
<stop stop-color="#E3E2E0" stop-opacity="0.37"/>
<stop offset="1" stop-color="#106842" stop-opacity="0.51"/>
</linearGradient>
</defs>
</svg>
