<svg width="64" height="64" viewBox="0 0 64 64" fill="none" xmlns="http://www.w3.org/2000/svg">
<g clip-path="url(#clip0_835_170080)">
<path d="M64 32C64 49.6731 49.6731 64 32 64C14.3269 64 0 49.6731 0 32C0 14.3269 14.3269 0 32 0C49.6731 0 64 14.3269 64 32ZM3.84 32C3.84 47.5523 16.4477 60.16 32 60.16C47.5523 60.16 60.16 47.5523 60.16 32C60.16 16.4477 47.5523 3.84 32 3.84C16.4477 3.84 3.84 16.4477 3.84 32Z" fill="#E5E7EB"/>
<path d="M1.91952 32C0.859399 32 -0.00600116 32.8602 0.0575454 33.9185C0.397113 39.5731 2.23301 45.049 5.39297 49.7782C8.90918 55.0406 13.9069 59.1421 19.7541 61.5641C25.6014 63.9861 32.0355 64.6199 38.2429 63.3851C44.4503 62.1504 50.1521 59.1027 54.6274 54.6274C59.1027 50.1521 62.1504 44.4503 63.3851 38.2429C64.6199 32.0355 63.9861 25.6014 61.5641 19.7541C59.1421 13.9069 55.0406 8.90918 49.7782 5.39297C45.049 2.23301 39.5731 0.397113 33.9185 0.0575453C32.8602 -0.00600119 32 0.859399 32 1.91952V1.91952C32 2.97964 32.8605 3.83223 33.9181 3.90443C38.8129 4.23856 43.5476 5.84699 47.6454 8.58502C52.2764 11.6794 55.8859 16.0775 58.0173 21.2233C60.1488 26.369 60.7064 32.0312 59.6199 37.4939C58.5333 42.9566 55.8512 47.9744 51.9128 51.9128C47.9744 55.8512 42.9566 58.5333 37.4939 59.6199C32.0312 60.7064 26.369 60.1488 21.2233 58.0173C16.0775 55.8859 11.6794 52.2764 8.58502 47.6454C5.84699 43.5476 4.23856 38.8129 3.90443 33.9181C3.83223 32.8605 2.97964 32 1.91952 32V32Z" fill="#1B8354"/>
<path d="M15.718 37V35.124H11.42V33.332L15.228 27.228H17.72V33.5H18.952V35.124H17.72V37H15.718ZM13.1 33.5H15.718V29.398H15.578L13.1 33.5ZM27.5471 40.36C26.1098 40.36 25.0225 40.024 24.2851 39.352C23.5571 38.6893 23.1931 37.7467 23.1931 36.524C23.1931 36.104 23.2491 35.6327 23.3611 35.11C23.4825 34.578 23.6458 34.0647 23.8511 33.57L25.1951 33.962C25.0085 34.3633 24.8591 34.7693 24.7471 35.18C24.6445 35.5907 24.5931 35.9453 24.5931 36.244C24.5931 36.832 24.8031 37.2847 25.2231 37.602C25.6431 37.9287 26.2311 38.092 26.9871 38.092H28.1071C28.9005 38.092 29.4838 37.91 29.8571 37.546C30.2305 37.182 30.4171 36.6127 30.4171 35.838C30.4171 35.6233 30.3938 35.348 30.3471 35.012C30.3005 34.676 30.2445 34.3587 30.1791 34.06L29.8991 32.758L31.4111 32.464L31.6771 33.752C31.7145 33.92 31.7471 34.1067 31.7751 34.312C31.8031 34.508 31.8265 34.704 31.8451 34.9H33.1051V36.58L32.6851 37H31.8171C31.6585 38.148 31.2291 38.9927 30.5291 39.534C29.8385 40.0847 28.8445 40.36 27.5471 40.36ZM27.4071 32.828C27.1645 32.828 26.9638 32.7533 26.8051 32.604C26.6558 32.4547 26.5811 32.2167 26.5811 31.89C26.5811 31.5633 26.6558 31.3253 26.8051 31.176C26.9638 31.0267 27.1645 30.952 27.4071 30.952H27.6871C27.9298 30.952 28.1258 31.0267 28.2751 31.176C28.4338 31.3253 28.5131 31.5633 28.5131 31.89C28.5131 32.2167 28.4338 32.4547 28.2751 32.604C28.1258 32.7533 27.9298 32.828 27.6871 32.828H27.4071ZM34.7454 36.216C34.5308 36.5053 34.2601 36.7107 33.9334 36.832C33.6161 36.944 33.2008 37 32.6874 37V35.32L33.1074 34.9C33.4528 34.9 33.7048 34.8487 33.8634 34.746C34.0221 34.6433 34.1528 34.4613 34.2554 34.2L34.6474 33.234C34.7688 32.9353 34.9041 32.6553 35.0534 32.394C35.2028 32.1327 35.3801 31.904 35.5854 31.708C35.7908 31.512 36.0194 31.358 36.2714 31.246C36.5328 31.134 36.8314 31.078 37.1674 31.078C38.0448 31.078 38.7028 31.4233 39.1414 32.114C39.5894 32.8047 39.8134 33.7613 39.8134 34.984V35.39L38.4834 37.364L34.7454 36.216ZM35.5154 34.27L38.3294 35.124V34.984C38.3294 34.424 38.1941 33.9853 37.9234 33.668C37.6528 33.3507 37.2841 33.192 36.8174 33.192C36.5188 33.192 36.2574 33.2713 36.0334 33.43C35.8188 33.5887 35.6554 33.8407 35.5434 34.186L35.5154 34.27ZM47.2754 31.092C47.7981 31.092 48.1761 30.994 48.4094 30.798C48.6521 30.5927 48.7734 30.3407 48.7734 30.042V29.944C48.7734 29.5893 48.6568 29.3047 48.4234 29.09C48.1994 28.8753 47.8774 28.768 47.4574 28.768C47.0654 28.768 46.6968 28.8707 46.3514 29.076C46.0061 29.272 45.7121 29.5567 45.4694 29.93L44.1534 28.698C44.3401 28.4553 44.5408 28.236 44.7554 28.04C44.9701 27.8347 45.2128 27.662 45.4834 27.522C45.7541 27.3727 46.0574 27.2607 46.3934 27.186C46.7294 27.102 47.1074 27.06 47.5274 27.06C48.0501 27.06 48.5214 27.1207 48.9414 27.242C49.3708 27.3633 49.7348 27.5407 50.0334 27.774C50.3414 27.998 50.5748 28.2687 50.7334 28.586C50.9014 28.9033 50.9854 29.258 50.9854 29.65C50.9854 29.958 50.9341 30.238 50.8314 30.49C50.7381 30.742 50.6028 30.9613 50.4254 31.148C50.2574 31.3347 50.0614 31.4887 49.8374 31.61C49.6134 31.722 49.3754 31.8013 49.1234 31.848V31.932C49.4128 31.988 49.6788 32.0813 49.9214 32.212C50.1734 32.3333 50.3881 32.492 50.5654 32.688C50.7521 32.884 50.8968 33.1173 50.9994 33.388C51.1021 33.6493 51.1534 33.948 51.1534 34.284C51.1534 34.7227 51.0648 35.1193 50.8874 35.474C50.7101 35.8287 50.4581 36.132 50.1314 36.384C49.8048 36.636 49.4128 36.832 48.9554 36.972C48.4981 37.1027 47.9941 37.168 47.4434 37.168C46.9488 37.168 46.5101 37.1167 46.1274 37.014C45.7448 36.9113 45.4088 36.776 45.1194 36.608C44.8394 36.4307 44.5921 36.23 44.3774 36.006C44.1721 35.782 43.9901 35.544 43.8314 35.292L45.3854 34.088C45.6001 34.4893 45.8614 34.8207 46.1694 35.082C46.4868 35.334 46.9114 35.46 47.4434 35.46C47.9194 35.46 48.2881 35.3433 48.5494 35.11C48.8201 34.8673 48.9554 34.5407 48.9554 34.13V34.046C48.9554 33.6447 48.8014 33.346 48.4934 33.15C48.1948 32.9447 47.7794 32.842 47.2474 32.842H46.3654V31.092H47.2754Z" fill="#384250"/>
</g>
<defs>
<clipPath id="clip0_835_170080">
<rect width="64" height="64" fill="white"/>
</clipPath>
</defs>
</svg>
