<svg width="48" height="48" viewBox="0 0 48 48" fill="none" xmlns="http://www.w3.org/2000/svg">
<path d="M0 24C0 10.7452 10.7452 0 24 0C37.2548 0 48 10.7452 48 24C48 37.2548 37.2548 48 24 48C10.7452 48 0 37.2548 0 24Z" fill="#F3FCF6"/>
<path fill-rule="evenodd" clip-rule="evenodd" d="M17.75 18.5C17.75 15.6005 20.1005 13.25 23 13.25C25.8995 13.25 28.25 15.6005 28.25 18.5C28.25 21.3995 25.8995 23.75 23 23.75C20.1005 23.75 17.75 21.3995 17.75 18.5ZM23 14.75C20.9289 14.75 19.25 16.4289 19.25 18.5C19.25 20.5711 20.9289 22.25 23 22.25C25.0711 22.25 26.75 20.5711 26.75 18.5C26.75 16.4289 25.0711 14.75 23 14.75Z" fill="#1B8354"/>
<path d="M23.9304 26.7933C21.8759 26.6014 19.7734 27.0471 17.9615 28.126C17.7936 28.2259 17.6098 28.3302 17.4171 28.4395C16.7045 28.8438 15.8722 29.316 15.2921 29.8838C14.932 30.2363 14.7785 30.5271 14.7539 30.7517C14.7344 30.9301 14.7795 31.2242 15.2302 31.6535C16.266 32.6404 17.3186 33.25 18.591 33.25H25.0002C25.4144 33.25 25.7502 33.5858 25.7502 34C25.7502 34.4142 25.4144 34.75 25.0002 34.75H18.591C16.7727 34.75 15.367 33.8556 14.1955 32.7396C13.5165 32.0927 13.178 31.3646 13.2628 30.5887C13.3426 29.8592 13.7812 29.2637 14.2429 28.8118C14.9811 28.0893 16.0586 27.4814 16.7714 27.0793C16.9341 26.9875 17.0777 26.9064 17.194 26.8372C19.2881 25.5903 21.7098 25.0793 24.07 25.2998C24.4824 25.3384 24.7855 25.704 24.7469 26.1164C24.7084 26.5288 24.3428 26.8319 23.9304 26.7933Z" fill="#1B8354"/>
<path fill-rule="evenodd" clip-rule="evenodd" d="M26.6314 26.7423C27.9808 25.9376 29.2278 26.2392 30.0006 26.7889C30.7734 26.2392 32.0205 25.9376 33.3698 26.7423C34.3761 27.3424 34.8978 28.5666 34.7138 29.9004C34.5284 31.2443 33.646 32.6866 31.9029 33.941L31.8288 33.9943C31.2749 34.3941 30.7819 34.7498 30.0006 34.7498C29.2193 34.7498 28.7263 34.3941 28.1724 33.9943L28.0984 33.941C26.3552 32.6866 25.4729 31.2443 25.2875 29.9004C25.1035 28.5666 25.6251 27.3424 26.6314 26.7423ZM27.3997 28.0306C28.179 27.5658 28.7902 27.7621 29.1446 28.0209L29.1603 28.0323C29.2618 28.1064 29.3652 28.182 29.4521 28.2373C29.4991 28.2672 29.5637 28.3059 29.6381 28.3386C29.7072 28.3689 29.8364 28.4177 30.0006 28.4177C30.1648 28.4177 30.294 28.3689 30.3631 28.3386C30.4375 28.3059 30.5022 28.2672 30.5492 28.2373C30.636 28.182 30.7395 28.1064 30.8409 28.0323L30.8566 28.0209C31.211 27.7621 31.8222 27.5658 32.6015 28.0306C33.0029 28.2699 33.3444 28.8503 33.2278 29.6954C33.1126 30.5304 32.5307 31.6412 31.0267 32.7234C30.3746 33.1927 30.2577 33.2498 30.0006 33.2498C29.7436 33.2498 29.6266 33.1927 28.9745 32.7234C27.4705 31.6412 26.8886 30.5304 26.7734 29.6954C26.6568 28.8503 26.9983 28.2699 27.3997 28.0306Z" fill="#1B8354"/>
</svg>
