<svg width="48" height="48" viewBox="0 0 48 48" fill="none" xmlns="http://www.w3.org/2000/svg">
<path d="M0 24C0 10.7452 10.7452 0 24 0C37.2548 0 48 10.7452 48 24C48 37.2548 37.2548 48 24 48C10.7452 48 0 37.2548 0 24Z" fill="#F3FCF6"/>
<path fill-rule="evenodd" clip-rule="evenodd" d="M18.75 18.5C18.75 15.6005 21.1005 13.25 24 13.25C26.8995 13.25 29.25 15.6005 29.25 18.5C29.25 21.3995 26.8995 23.75 24 23.75C21.1005 23.75 18.75 21.3995 18.75 18.5ZM24 14.75C21.9289 14.75 20.25 16.4289 20.25 18.5C20.25 20.5711 21.9289 22.25 24 22.25C26.0711 22.25 27.75 20.5711 27.75 18.5C27.75 16.4289 26.0711 14.75 24 14.75Z" fill="#1B8354"/>
<path d="M25.3252 27.0244C22.8524 26.4311 20.1878 26.8003 17.9615 28.126C17.7936 28.226 17.6096 28.3303 17.4169 28.4397C16.7043 28.8439 15.8722 29.316 15.2921 29.8838C14.932 30.2363 14.7785 30.5271 14.7539 30.7517C14.7344 30.9301 14.7795 31.2242 15.2302 31.6535C16.266 32.6404 17.3186 33.25 18.591 33.25H25.0002C25.4144 33.25 25.7502 33.5858 25.7502 34C25.7502 34.4142 25.4144 34.75 25.0002 34.75H18.591C16.7727 34.75 15.367 33.8556 14.1955 32.7396C13.5165 32.0927 13.178 31.3646 13.2628 30.5887C13.3426 29.8592 13.7812 29.2637 14.2429 28.8118C14.9811 28.0893 16.0586 27.4814 16.7714 27.0792C16.9341 26.9875 17.0777 26.9064 17.194 26.8371C19.7661 25.3056 22.833 24.8839 25.6752 25.5658C26.0779 25.6625 26.3261 26.0674 26.2295 26.4701C26.1328 26.8729 25.728 27.1211 25.3252 27.0244Z" fill="#1B8354"/>
<path d="M28.5303 27.4697C28.2374 27.1768 27.7626 27.1768 27.4697 27.4697C27.1768 27.7626 27.1768 28.2374 27.4697 28.5303L29.9393 31L27.4697 33.4697C27.1768 33.7626 27.1768 34.2374 27.4697 34.5303C27.7626 34.8232 28.2374 34.8232 28.5303 34.5303L31 32.0607L33.4697 34.5303C33.7626 34.8232 34.2374 34.8232 34.5303 34.5303C34.8232 34.2374 34.8232 33.7626 34.5303 33.4697L32.0607 31L34.5303 28.5303C34.8232 28.2374 34.8232 27.7626 34.5303 27.4697C34.2374 27.1768 33.7626 27.1768 33.4697 27.4697L31 29.9393L28.5303 27.4697Z" fill="#1B8354"/>
</svg>
