<svg width="14" height="14" viewBox="0 0 14 14" fill="none" xmlns="http://www.w3.org/2000/svg">
<g id="elements">
<path id="Icon" fill-rule="evenodd" clip-rule="evenodd" d="M0.72505 0.724562C0.969128 0.480484 1.36486 0.480484 1.60893 0.724562L7.00033 6.11595L12.3917 0.724562C12.6358 0.480484 13.0315 0.480484 13.2756 0.724562C13.5197 0.96864 13.5197 1.36437 13.2756 1.60845L7.88421 6.99984L13.2756 12.3912C13.5197 12.6353 13.5197 13.031 13.2756 13.2751C13.0315 13.5192 12.6358 13.5192 12.3917 13.2751L7.00033 7.88372L1.60893 13.2751C1.36486 13.5192 0.969128 13.5192 0.72505 13.2751C0.480973 13.031 0.480973 12.6353 0.72505 12.3912L6.11644 6.99984L0.72505 1.60845C0.480973 1.36437 0.480973 0.96864 0.72505 0.724562Z" fill="#161616"/>
</g>
</svg>
