<svg width="1274" height="455" viewBox="0 0 1274 455" fill="none" xmlns="http://www.w3.org/2000/svg">
<path d="M971.921 117.2C971.921 118.558 970.819 119.66 969.46 119.66C968.102 119.66 967 118.558 967 117.2C967 115.841 968.102 114.739 969.46 114.739C970.819 114.739 971.921 115.841 971.921 117.2Z" fill="url(#paint0_linear_2_22447)"/>
<path d="M971.921 142.787C971.921 144.146 970.819 145.248 969.46 145.248C968.102 145.248 967 144.146 967 142.787C967 141.429 968.102 140.327 969.46 140.327C970.819 140.327 971.921 141.429 971.921 142.787Z" fill="url(#paint1_linear_2_22447)"/>
<path d="M969.461 170.836C968.102 170.836 967 169.734 967 168.375C967 167.017 968.102 165.915 969.461 165.915C970.819 165.915 971.921 167.017 971.921 168.375C971.921 169.734 970.819 170.836 969.461 170.836Z" fill="url(#paint2_linear_2_22447)"/>
<path d="M986.191 104.407C986.191 105.765 985.09 106.867 983.731 106.867C982.372 106.867 981.271 105.765 981.271 104.407C981.271 103.048 982.372 101.946 983.731 101.946C985.09 101.946 986.191 103.048 986.191 104.407Z" fill="url(#paint3_linear_2_22447)"/>
<path d="M986.191 129.995C986.191 131.353 985.09 132.455 983.731 132.455C982.372 132.455 981.271 131.353 981.271 129.995C981.271 128.636 982.372 127.534 983.731 127.534C985.09 127.534 986.191 128.636 986.191 129.995Z" fill="url(#paint4_linear_2_22447)"/>
<path d="M983.73 158.042C982.371 158.042 981.27 156.94 981.27 155.581C981.27 154.223 982.371 153.121 983.73 153.121C985.089 153.121 986.19 154.223 986.19 155.581C986.19 156.94 985.089 158.042 983.73 158.042Z" fill="url(#paint5_linear_2_22447)"/>
<path d="M983.73 183.63C982.371 183.63 981.27 182.528 981.27 181.169C981.27 179.811 982.371 178.709 983.73 178.709C985.089 178.709 986.19 179.811 986.19 181.169C986.19 182.528 985.089 183.63 983.73 183.63Z" fill="url(#paint6_linear_2_22447)"/>
<path d="M1000.46 117.2C1000.46 118.558 999.358 119.66 997.999 119.66C996.641 119.66 995.539 118.558 995.539 117.2C995.539 115.841 996.641 114.739 997.999 114.739C999.358 114.739 1000.46 115.841 1000.46 117.2Z" fill="url(#paint7_linear_2_22447)"/>
<path d="M1000.46 142.787C1000.46 144.146 999.358 145.248 997.999 145.248C996.641 145.248 995.539 144.146 995.539 142.787C995.539 141.429 996.641 140.327 997.999 140.327C999.358 140.327 1000.46 141.429 1000.46 142.787Z" fill="url(#paint8_linear_2_22447)"/>
<path d="M998 170.836C996.641 170.836 995.539 169.734 995.539 168.375C995.539 167.017 996.641 165.915 998 165.915C999.358 165.915 1000.46 167.017 1000.46 168.375C1000.46 169.734 999.358 170.836 998 170.836Z" fill="url(#paint9_linear_2_22447)"/>
<path d="M1014.73 104.407C1014.73 105.765 1013.63 106.867 1012.27 106.867C1010.91 106.867 1009.81 105.765 1009.81 104.407C1009.81 103.048 1010.91 101.946 1012.27 101.946C1013.63 101.946 1014.73 103.048 1014.73 104.407Z" fill="url(#paint10_linear_2_22447)"/>
<path d="M1014.73 129.995C1014.73 131.353 1013.63 132.455 1012.27 132.455C1010.91 132.455 1009.81 131.353 1009.81 129.995C1009.81 128.636 1010.91 127.534 1012.27 127.534C1013.63 127.534 1014.73 128.636 1014.73 129.995Z" fill="url(#paint11_linear_2_22447)"/>
<path d="M1012.27 158.042C1010.91 158.042 1009.81 156.94 1009.81 155.581C1009.81 154.223 1010.91 153.121 1012.27 153.121C1013.63 153.121 1014.73 154.223 1014.73 155.581C1014.73 156.94 1013.63 158.042 1012.27 158.042Z" fill="url(#paint12_linear_2_22447)"/>
<path d="M1012.27 183.63C1010.91 183.63 1009.81 182.528 1009.81 181.169C1009.81 179.811 1010.91 178.709 1012.27 178.709C1013.63 178.709 1014.73 179.811 1014.73 181.169C1014.73 182.528 1013.63 183.63 1012.27 183.63Z" fill="url(#paint13_linear_2_22447)"/>
<path d="M1029 117.2C1029 118.558 1027.9 119.66 1026.54 119.66C1025.18 119.66 1024.08 118.558 1024.08 117.2C1024.08 115.841 1025.18 114.739 1026.54 114.739C1027.9 114.739 1029 115.841 1029 117.2Z" fill="url(#paint14_linear_2_22447)"/>
<path d="M1029 142.787C1029 144.146 1027.9 145.248 1026.54 145.248C1025.18 145.248 1024.08 144.146 1024.08 142.787C1024.08 141.429 1025.18 140.327 1026.54 140.327C1027.9 140.327 1029 141.429 1029 142.787Z" fill="url(#paint15_linear_2_22447)"/>
<path d="M1026.54 170.836C1025.18 170.836 1024.08 169.734 1024.08 168.375C1024.08 167.017 1025.18 165.915 1026.54 165.915C1027.9 165.915 1029 167.017 1029 168.375C1029 169.734 1027.9 170.836 1026.54 170.836Z" fill="url(#paint16_linear_2_22447)"/>
<path d="M2 439.446C42 443.28 123.9 448.646 183.5 439.446C186 374.946 194.915 310.99 194.993 237.446C174.987 231.046 87.8861 234.78 46.8364 237.446L2 439.446Z" fill="url(#paint17_linear_2_22447)"/>
<path d="M194.993 217.946C166 214.446 52.7 213.846 49.5 225.446L46.8364 237.446C87.8861 234.78 174.987 231.046 194.993 237.446C195 230.511 194.993 225.012 194.993 217.946Z" fill="url(#paint18_linear_2_22447)"/>
<path d="M536 101.946L533 97.9463C533.834 93.4463 534.8 82.8463 532 76.4463C529.667 80.613 525.8 90.5463 529 96.9463V129.946L529.469 178.446L532 440.446L730.5 453.946L766 109.946L767.5 92.4463C767.523 92.4306 767.547 92.415 767.57 92.3994C767.74 91.6623 768.26 88.1807 769.5 77.9463C771.1 64.7463 817.167 51.113 840 45.9463L815 38.4463V32.9463C820.2 27.7463 813.5 11.113 809.5 3.44629C800.7 30.2463 804.5 34.2796 807.5 32.9463V38.4463L536 101.946Z" fill="url(#paint19_linear_2_22447)"/>
<path fill-rule="evenodd" clip-rule="evenodd" d="M1141 91.9463C1107 54.9463 844.5 54.9463 766 109.946L730.5 453.946H1227L1141 91.9463ZM969.46 119.66C970.819 119.66 971.921 118.558 971.921 117.2C971.921 115.841 970.819 114.739 969.46 114.739C968.102 114.739 967 115.841 967 117.2C967 118.558 968.102 119.66 969.46 119.66ZM969.46 145.248C970.819 145.248 971.921 144.146 971.921 142.787C971.921 141.429 970.819 140.327 969.46 140.327C968.102 140.327 967 141.429 967 142.787C967 144.146 968.102 145.248 969.46 145.248ZM967 168.375C967 169.734 968.102 170.836 969.461 170.836C970.819 170.836 971.921 169.734 971.921 168.375C971.921 167.017 970.819 165.915 969.461 165.915C968.102 165.915 967 167.017 967 168.375ZM983.731 106.867C985.09 106.867 986.191 105.765 986.191 104.407C986.191 103.048 985.09 101.946 983.731 101.946C982.372 101.946 981.271 103.048 981.271 104.407C981.271 105.765 982.372 106.867 983.731 106.867ZM983.731 132.455C985.09 132.455 986.191 131.353 986.191 129.995C986.191 128.636 985.09 127.534 983.731 127.534C982.372 127.534 981.271 128.636 981.271 129.995C981.271 131.353 982.372 132.455 983.731 132.455ZM981.27 155.581C981.27 156.94 982.371 158.042 983.73 158.042C985.089 158.042 986.19 156.94 986.19 155.581C986.19 154.223 985.089 153.121 983.73 153.121C982.371 153.121 981.27 154.223 981.27 155.581ZM981.27 181.169C981.27 182.528 982.371 183.63 983.73 183.63C985.089 183.63 986.19 182.528 986.19 181.169C986.19 179.811 985.089 178.709 983.73 178.709C982.371 178.709 981.27 179.811 981.27 181.169ZM997.999 119.66C999.358 119.66 1000.46 118.558 1000.46 117.2C1000.46 115.841 999.358 114.739 997.999 114.739C996.641 114.739 995.539 115.841 995.539 117.2C995.539 118.558 996.641 119.66 997.999 119.66ZM997.999 145.248C999.358 145.248 1000.46 144.146 1000.46 142.787C1000.46 141.429 999.358 140.327 997.999 140.327C996.641 140.327 995.539 141.429 995.539 142.787C995.539 144.146 996.641 145.248 997.999 145.248ZM995.539 168.375C995.539 169.734 996.641 170.836 998 170.836C999.358 170.836 1000.46 169.734 1000.46 168.375C1000.46 167.017 999.358 165.915 998 165.915C996.641 165.915 995.539 167.017 995.539 168.375ZM1012.27 106.867C1013.63 106.867 1014.73 105.765 1014.73 104.407C1014.73 103.048 1013.63 101.946 1012.27 101.946C1010.91 101.946 1009.81 103.048 1009.81 104.407C1009.81 105.765 1010.91 106.867 1012.27 106.867ZM1012.27 132.455C1013.63 132.455 1014.73 131.353 1014.73 129.995C1014.73 128.636 1013.63 127.534 1012.27 127.534C1010.91 127.534 1009.81 128.636 1009.81 129.995C1009.81 131.353 1010.91 132.455 1012.27 132.455ZM1009.81 155.581C1009.81 156.94 1010.91 158.042 1012.27 158.042C1013.63 158.042 1014.73 156.94 1014.73 155.581C1014.73 154.223 1013.63 153.121 1012.27 153.121C1010.91 153.121 1009.81 154.223 1009.81 155.581ZM1009.81 181.169C1009.81 182.528 1010.91 183.63 1012.27 183.63C1013.63 183.63 1014.73 182.528 1014.73 181.169C1014.73 179.811 1013.63 178.709 1012.27 178.709C1010.91 178.709 1009.81 179.811 1009.81 181.169ZM1026.54 119.66C1027.9 119.66 1029 118.558 1029 117.2C1029 115.841 1027.9 114.739 1026.54 114.739C1025.18 114.739 1024.08 115.841 1024.08 117.2C1024.08 118.558 1025.18 119.66 1026.54 119.66ZM1026.54 145.248C1027.9 145.248 1029 144.146 1029 142.787C1029 141.429 1027.9 140.327 1026.54 140.327C1025.18 140.327 1024.08 141.429 1024.08 142.787C1024.08 144.146 1025.18 145.248 1026.54 145.248ZM1024.08 168.375C1024.08 169.734 1025.18 170.836 1026.54 170.836C1027.9 170.836 1029 169.734 1029 168.375C1029 167.017 1027.9 165.915 1026.54 165.915C1025.18 165.915 1024.08 167.017 1024.08 168.375Z" fill="url(#paint20_linear_2_22447)"/>
<path d="M1136 77.4463L1141 91.9463L1227 453.946H1272.5L1218 99.9463C1216.4 76.7463 1217.33 84.9463 1218 91.9463C1219.6 87.9463 1215.67 76.613 1213.5 71.4463C1207.1 83.0463 1209.83 91.613 1212 94.4463V98.4463L1133.51 71.4463L1133.62 71.7327C1133.63 71.7377 1133.63 71.7428 1133.63 71.7479C1134.49 73.8697 1135.29 75.8455 1136 77.4463Z" fill="url(#paint21_linear_2_22447)"/>
<path d="M767.5 92.4463L766 109.946C844.5 54.9463 1107 54.9463 1141 91.9463L1136 77.4463C1077.22 28.6632 834.668 47.2348 767.57 92.3994C767.52 92.6129 767.5 92.5961 767.5 92.4463Z" fill="url(#paint22_linear_2_22447)"/>
<path d="M840 45.9463C817.167 51.113 771.1 64.7463 769.5 77.9463C768.26 88.1807 767.74 91.6623 767.57 92.3994C834.668 47.2348 1077.22 28.6632 1136 77.4463C1135.29 75.8455 1134.49 73.8697 1133.63 71.7479L1133.62 71.7327L1133.51 71.4463C1130.54 64.1233 1126.89 55.2098 1124 53.9463C1048.5 20.9463 902 38.4463 840 45.9463Z" fill="url(#paint23_linear_2_22447)"/>
<path d="M202 178.446L201 172.946C202.334 170.613 204.1 165.146 200.5 161.946C199.167 164.113 196.8 169.346 198 172.946L196.496 195.446L529.469 178.446L529 129.946L413.5 154.946L357 145.446L356.5 140.446C357.5 138.78 358.8 133.946 356 127.946C354.167 130.446 351.1 136.446 353.5 140.446L353 145.446L202 178.446Z" fill="url(#paint24_linear_2_22447)"/>
<path fill-rule="evenodd" clip-rule="evenodd" d="M194.993 237.446C194.915 310.99 186 374.946 183.5 439.446L413 440.446H532L529.469 178.446L196.496 195.446L194.993 217.946C194.993 225.012 195 230.511 194.993 237.446ZM369.5 206.946L344 209.946V220.446H338C336.5 248.946 333.7 305.946 334.5 305.946H375.5V213.946H369.5V206.946ZM413 200.946L387.5 203.946V214.446H381.5C380 242.946 380.7 305.946 381.5 305.946H419V207.946H413V200.946ZM456 193.446L430.5 196.446V206.946H424.5C423 235.446 423.7 305.446 424.5 305.446H462V200.446H456V193.446Z" fill="url(#paint25_linear_2_22447)"/>
<path d="M344 209.946L369.5 206.946V213.946H375.5V305.946H334.5C333.7 305.946 336.5 248.946 338 220.446H344V209.946Z" fill="url(#paint26_linear_2_22447)"/>
<path d="M387.5 203.946L413 200.946V207.946H419V305.946H381.5C380.7 305.946 380 242.946 381.5 214.446H387.5V203.946Z" fill="url(#paint27_linear_2_22447)"/>
<path d="M430.5 196.446L456 193.446V200.446H462V305.446H424.5C423.7 305.446 423 235.446 424.5 206.946H430.5V196.446Z" fill="url(#paint28_linear_2_22447)"/>
<path d="M840 45.9463L815 38.4463V32.9463C820.2 27.7463 813.5 11.113 809.5 3.44629C800.7 30.2463 804.5 34.2796 807.5 32.9463V38.4463L536 101.946L533 97.9463C533.834 93.4463 534.8 82.8463 532 76.4463C529.667 80.613 525.8 90.5463 529 96.9463V129.946M840 45.9463C817.167 51.113 771.1 64.7463 769.5 77.9463C768.26 88.1807 767.74 91.6623 767.57 92.3994M840 45.9463C902 38.4463 1048.5 20.9463 1124 53.9463C1126.89 55.2098 1130.54 64.1233 1133.51 71.4463M767.5 92.4463L766 109.946M767.5 92.4463C767.523 92.4306 767.547 92.415 767.57 92.3994M767.5 92.4463C767.5 92.5961 767.52 92.6129 767.57 92.3994M1136 77.4463L1141 91.9463M1136 77.4463C1077.22 28.6632 834.668 47.2348 767.57 92.3994M1136 77.4463C1135.29 75.8455 1134.49 73.8697 1133.63 71.7479M766 109.946C844.5 54.9463 1107 54.9463 1141 91.9463M766 109.946L730.5 453.946M1141 91.9463L1227 453.946M730.5 453.946H1227M730.5 453.946L532 440.446M1227 453.946H1272.5L1218 99.9463C1216.4 76.7463 1217.33 84.9463 1218 91.9463C1219.6 87.9463 1215.67 76.613 1213.5 71.4463C1207.1 83.0463 1209.83 91.613 1212 94.4463V98.4463L1133.51 71.4463M1133.51 71.4463L1133.62 71.7327M1133.51 71.4463C1133.55 71.542 1133.59 71.6375 1133.62 71.7327M529 129.946L413.5 154.946L357 145.446L356.5 140.446C357.5 138.78 358.8 133.946 356 127.946C354.167 130.446 351.1 136.446 353.5 140.446L353 145.446L202 178.446L201 172.946C202.334 170.613 204.1 165.146 200.5 161.946C199.167 164.113 196.8 169.346 198 172.946L196.496 195.446M529 129.946L529.469 178.446M194.993 217.946C166 214.446 52.7 213.846 49.5 225.446L46.8364 237.446M194.993 217.946C194.993 225.012 195 230.511 194.993 237.446M194.993 217.946L196.496 195.446M183.5 439.446C123.9 448.646 42 443.28 2 439.446L46.8364 237.446M183.5 439.446C186 374.946 194.915 310.99 194.993 237.446M183.5 439.446L413 440.446H532M46.8364 237.446C87.8861 234.78 174.987 231.046 194.993 237.446M532 440.446L529.469 178.446M375.5 305.946V213.946H369.5V206.946L344 209.946V220.446H338C336.5 248.946 333.7 305.946 334.5 305.946M375.5 305.946C362.167 305.946 335.3 305.946 334.5 305.946M375.5 305.946H334.5M419 305.946V207.946H413V200.946L387.5 203.946V214.446H381.5C380 242.946 380.7 305.946 381.5 305.946M419 305.946C405.667 305.946 382.3 305.946 381.5 305.946M419 305.946H381.5M462 305.446V200.446H456V193.446L430.5 196.446V206.946H424.5C423 235.446 423.7 305.446 424.5 305.446M462 305.446C448.667 305.446 425.3 305.446 424.5 305.446M462 305.446H424.5M1133.62 71.7327L1133.63 71.7479M1133.62 71.7327C1133.63 71.7377 1133.63 71.7428 1133.63 71.7479M196.496 195.446L529.469 178.446M971.921 117.2C971.921 118.558 970.819 119.66 969.46 119.66C968.102 119.66 967 118.558 967 117.2C967 115.841 968.102 114.739 969.46 114.739C970.819 114.739 971.921 115.841 971.921 117.2ZM971.921 142.787C971.921 144.146 970.819 145.248 969.46 145.248C968.102 145.248 967 144.146 967 142.787C967 141.429 968.102 140.327 969.46 140.327C970.819 140.327 971.921 141.429 971.921 142.787ZM969.461 170.836C968.102 170.836 967 169.734 967 168.375C967 167.017 968.102 165.915 969.461 165.915C970.819 165.915 971.921 167.017 971.921 168.375C971.921 169.734 970.819 170.836 969.461 170.836ZM986.191 104.407C986.191 105.765 985.09 106.867 983.731 106.867C982.372 106.867 981.271 105.765 981.271 104.407C981.271 103.048 982.372 101.946 983.731 101.946C985.09 101.946 986.191 103.048 986.191 104.407ZM986.191 129.995C986.191 131.353 985.09 132.455 983.731 132.455C982.372 132.455 981.271 131.353 981.271 129.995C981.271 128.636 982.372 127.534 983.731 127.534C985.09 127.534 986.191 128.636 986.191 129.995ZM983.73 158.042C982.371 158.042 981.27 156.94 981.27 155.581C981.27 154.223 982.371 153.121 983.73 153.121C985.089 153.121 986.19 154.223 986.19 155.581C986.19 156.94 985.089 158.042 983.73 158.042ZM983.73 183.63C982.371 183.63 981.27 182.528 981.27 181.169C981.27 179.811 982.371 178.709 983.73 178.709C985.089 178.709 986.19 179.811 986.19 181.169C986.19 182.528 985.089 183.63 983.73 183.63ZM1000.46 117.2C1000.46 118.558 999.358 119.66 997.999 119.66C996.641 119.66 995.539 118.558 995.539 117.2C995.539 115.841 996.641 114.739 997.999 114.739C999.358 114.739 1000.46 115.841 1000.46 117.2ZM1000.46 142.787C1000.46 144.146 999.358 145.248 997.999 145.248C996.641 145.248 995.539 144.146 995.539 142.787C995.539 141.429 996.641 140.327 997.999 140.327C999.358 140.327 1000.46 141.429 1000.46 142.787ZM998 170.836C996.641 170.836 995.539 169.734 995.539 168.375C995.539 167.017 996.641 165.915 998 165.915C999.358 165.915 1000.46 167.017 1000.46 168.375C1000.46 169.734 999.358 170.836 998 170.836ZM1014.73 104.407C1014.73 105.765 1013.63 106.867 1012.27 106.867C1010.91 106.867 1009.81 105.765 1009.81 104.407C1009.81 103.048 1010.91 101.946 1012.27 101.946C1013.63 101.946 1014.73 103.048 1014.73 104.407ZM1014.73 129.995C1014.73 131.353 1013.63 132.455 1012.27 132.455C1010.91 132.455 1009.81 131.353 1009.81 129.995C1009.81 128.636 1010.91 127.534 1012.27 127.534C1013.63 127.534 1014.73 128.636 1014.73 129.995ZM1012.27 158.042C1010.91 158.042 1009.81 156.94 1009.81 155.581C1009.81 154.223 1010.91 153.121 1012.27 153.121C1013.63 153.121 1014.73 154.223 1014.73 155.581C1014.73 156.94 1013.63 158.042 1012.27 158.042ZM1012.27 183.63C1010.91 183.63 1009.81 182.528 1009.81 181.169C1009.81 179.811 1010.91 178.709 1012.27 178.709C1013.63 178.709 1014.73 179.811 1014.73 181.169C1014.73 182.528 1013.63 183.63 1012.27 183.63ZM1029 117.2C1029 118.558 1027.9 119.66 1026.54 119.66C1025.18 119.66 1024.08 118.558 1024.08 117.2C1024.08 115.841 1025.18 114.739 1026.54 114.739C1027.9 114.739 1029 115.841 1029 117.2ZM1029 142.787C1029 144.146 1027.9 145.248 1026.54 145.248C1025.18 145.248 1024.08 144.146 1024.08 142.787C1024.08 141.429 1025.18 140.327 1026.54 140.327C1027.9 140.327 1029 141.429 1029 142.787ZM1026.54 170.836C1025.18 170.836 1024.08 169.734 1024.08 168.375C1024.08 167.017 1025.18 165.915 1026.54 165.915C1027.9 165.915 1029 167.017 1029 168.375C1029 169.734 1027.9 170.836 1026.54 170.836Z" stroke="url(#paint29_linear_2_22447)" stroke-opacity="0.15" stroke-width="2"/>
<defs>
<linearGradient id="paint0_linear_2_22447" x1="745" y1="3.44631" x2="755" y2="454.446" gradientUnits="userSpaceOnUse">
<stop stop-color="#135B3A"/>
<stop offset="1" stop-color="#004B2A" stop-opacity="0"/>
</linearGradient>
<linearGradient id="paint1_linear_2_22447" x1="745" y1="3.44631" x2="755" y2="454.446" gradientUnits="userSpaceOnUse">
<stop stop-color="#135B3A"/>
<stop offset="1" stop-color="#004B2A" stop-opacity="0"/>
</linearGradient>
<linearGradient id="paint2_linear_2_22447" x1="745" y1="3.44631" x2="755" y2="454.446" gradientUnits="userSpaceOnUse">
<stop stop-color="#135B3A"/>
<stop offset="1" stop-color="#004B2A" stop-opacity="0"/>
</linearGradient>
<linearGradient id="paint3_linear_2_22447" x1="745" y1="3.44631" x2="755" y2="454.446" gradientUnits="userSpaceOnUse">
<stop stop-color="#135B3A"/>
<stop offset="1" stop-color="#004B2A" stop-opacity="0"/>
</linearGradient>
<linearGradient id="paint4_linear_2_22447" x1="745" y1="3.44631" x2="755" y2="454.446" gradientUnits="userSpaceOnUse">
<stop stop-color="#135B3A"/>
<stop offset="1" stop-color="#004B2A" stop-opacity="0"/>
</linearGradient>
<linearGradient id="paint5_linear_2_22447" x1="745" y1="3.44631" x2="755" y2="454.446" gradientUnits="userSpaceOnUse">
<stop stop-color="#135B3A"/>
<stop offset="1" stop-color="#004B2A" stop-opacity="0"/>
</linearGradient>
<linearGradient id="paint6_linear_2_22447" x1="745" y1="3.44631" x2="755" y2="454.446" gradientUnits="userSpaceOnUse">
<stop stop-color="#135B3A"/>
<stop offset="1" stop-color="#004B2A" stop-opacity="0"/>
</linearGradient>
<linearGradient id="paint7_linear_2_22447" x1="745" y1="3.44631" x2="755" y2="454.446" gradientUnits="userSpaceOnUse">
<stop stop-color="#135B3A"/>
<stop offset="1" stop-color="#004B2A" stop-opacity="0"/>
</linearGradient>
<linearGradient id="paint8_linear_2_22447" x1="745" y1="3.44631" x2="755" y2="454.446" gradientUnits="userSpaceOnUse">
<stop stop-color="#135B3A"/>
<stop offset="1" stop-color="#004B2A" stop-opacity="0"/>
</linearGradient>
<linearGradient id="paint9_linear_2_22447" x1="745" y1="3.44631" x2="755" y2="454.446" gradientUnits="userSpaceOnUse">
<stop stop-color="#135B3A"/>
<stop offset="1" stop-color="#004B2A" stop-opacity="0"/>
</linearGradient>
<linearGradient id="paint10_linear_2_22447" x1="745" y1="3.44631" x2="755" y2="454.446" gradientUnits="userSpaceOnUse">
<stop stop-color="#135B3A"/>
<stop offset="1" stop-color="#004B2A" stop-opacity="0"/>
</linearGradient>
<linearGradient id="paint11_linear_2_22447" x1="745" y1="3.44631" x2="755" y2="454.446" gradientUnits="userSpaceOnUse">
<stop stop-color="#135B3A"/>
<stop offset="1" stop-color="#004B2A" stop-opacity="0"/>
</linearGradient>
<linearGradient id="paint12_linear_2_22447" x1="745" y1="3.44631" x2="755" y2="454.446" gradientUnits="userSpaceOnUse">
<stop stop-color="#135B3A"/>
<stop offset="1" stop-color="#004B2A" stop-opacity="0"/>
</linearGradient>
<linearGradient id="paint13_linear_2_22447" x1="745" y1="3.44631" x2="755" y2="454.446" gradientUnits="userSpaceOnUse">
<stop stop-color="#135B3A"/>
<stop offset="1" stop-color="#004B2A" stop-opacity="0"/>
</linearGradient>
<linearGradient id="paint14_linear_2_22447" x1="745" y1="3.44631" x2="755" y2="454.446" gradientUnits="userSpaceOnUse">
<stop stop-color="#135B3A"/>
<stop offset="1" stop-color="#004B2A" stop-opacity="0"/>
</linearGradient>
<linearGradient id="paint15_linear_2_22447" x1="745" y1="3.44631" x2="755" y2="454.446" gradientUnits="userSpaceOnUse">
<stop stop-color="#135B3A"/>
<stop offset="1" stop-color="#004B2A" stop-opacity="0"/>
</linearGradient>
<linearGradient id="paint16_linear_2_22447" x1="745" y1="3.44631" x2="755" y2="454.446" gradientUnits="userSpaceOnUse">
<stop stop-color="#135B3A"/>
<stop offset="1" stop-color="#004B2A" stop-opacity="0"/>
</linearGradient>
<linearGradient id="paint17_linear_2_22447" x1="745" y1="3.44631" x2="755" y2="454.446" gradientUnits="userSpaceOnUse">
<stop stop-color="#135B3A"/>
<stop offset="1" stop-color="#004B2A" stop-opacity="0"/>
</linearGradient>
<linearGradient id="paint18_linear_2_22447" x1="745" y1="3.44631" x2="755" y2="454.446" gradientUnits="userSpaceOnUse">
<stop stop-color="#135B3A"/>
<stop offset="1" stop-color="#004B2A" stop-opacity="0"/>
</linearGradient>
<linearGradient id="paint19_linear_2_22447" x1="745" y1="3.44631" x2="755" y2="454.446" gradientUnits="userSpaceOnUse">
<stop stop-color="#135B3A"/>
<stop offset="1" stop-color="#004B2A" stop-opacity="0"/>
</linearGradient>
<linearGradient id="paint20_linear_2_22447" x1="745" y1="3.44631" x2="755" y2="454.446" gradientUnits="userSpaceOnUse">
<stop stop-color="#135B3A"/>
<stop offset="1" stop-color="#004B2A" stop-opacity="0"/>
</linearGradient>
<linearGradient id="paint21_linear_2_22447" x1="745" y1="3.44631" x2="755" y2="454.446" gradientUnits="userSpaceOnUse">
<stop stop-color="#135B3A"/>
<stop offset="1" stop-color="#004B2A" stop-opacity="0"/>
</linearGradient>
<linearGradient id="paint22_linear_2_22447" x1="745" y1="3.44631" x2="755" y2="454.446" gradientUnits="userSpaceOnUse">
<stop stop-color="#135B3A"/>
<stop offset="1" stop-color="#004B2A" stop-opacity="0"/>
</linearGradient>
<linearGradient id="paint23_linear_2_22447" x1="745" y1="3.44631" x2="755" y2="454.446" gradientUnits="userSpaceOnUse">
<stop stop-color="#135B3A"/>
<stop offset="1" stop-color="#004B2A" stop-opacity="0"/>
</linearGradient>
<linearGradient id="paint24_linear_2_22447" x1="745" y1="3.44631" x2="755" y2="454.446" gradientUnits="userSpaceOnUse">
<stop stop-color="#135B3A"/>
<stop offset="1" stop-color="#004B2A" stop-opacity="0"/>
</linearGradient>
<linearGradient id="paint25_linear_2_22447" x1="745" y1="3.44631" x2="755" y2="454.446" gradientUnits="userSpaceOnUse">
<stop stop-color="#135B3A"/>
<stop offset="1" stop-color="#004B2A" stop-opacity="0"/>
</linearGradient>
<linearGradient id="paint26_linear_2_22447" x1="745" y1="3.44631" x2="755" y2="454.446" gradientUnits="userSpaceOnUse">
<stop stop-color="#135B3A"/>
<stop offset="1" stop-color="#004B2A" stop-opacity="0"/>
</linearGradient>
<linearGradient id="paint27_linear_2_22447" x1="745" y1="3.44631" x2="755" y2="454.446" gradientUnits="userSpaceOnUse">
<stop stop-color="#135B3A"/>
<stop offset="1" stop-color="#004B2A" stop-opacity="0"/>
</linearGradient>
<linearGradient id="paint28_linear_2_22447" x1="745" y1="3.44631" x2="755" y2="454.446" gradientUnits="userSpaceOnUse">
<stop stop-color="#135B3A"/>
<stop offset="1" stop-color="#004B2A" stop-opacity="0"/>
</linearGradient>
<linearGradient id="paint29_linear_2_22447" x1="30" y1="277.446" x2="1247.5" y2="249.946" gradientUnits="userSpaceOnUse">
<stop stop-color="#30AF79" stop-opacity="0.27"/>
<stop offset="1" stop-color="#195B3E"/>
</linearGradient>
</defs>
</svg>
