<svg xmlns="http://www.w3.org/2000/svg" xmlns:xlink="http://www.w3.org/1999/xlink">
    <defs>
        <symbol id="date" viewBox="0 0 21 21" xmlns="http://www.w3.org/2000/svg">
            <path d="M0 17.349C0 13.3154 0 9.28109 0 5.24748C0.0127687 5.2099 0.0315462 5.17308 0.0368039 5.13475C0.289925 3.23331 1.8462 1.76101 3.754 1.63324C4.10626 1.60995 4.46078 1.63024 4.83783 1.63024C4.83783 1.35367 4.83633 1.11617 4.83783 0.878681C4.84084 0.373635 5.17733 0.0076272 5.64452 0.000111633C6.11696 -0.00740393 6.47298 0.365368 6.47748 0.874924C6.47974 1.11242 6.47748 1.34991 6.47748 1.59792H14.518C14.518 1.35442 14.5173 1.12369 14.518 0.892209C14.521 0.375138 14.8613 0.00386942 15.3337 0.000863189C15.8076 -0.00214304 16.1539 0.367623 16.1577 0.882439C16.1592 1.11993 16.1577 1.35667 16.1577 1.61145C16.407 1.61145 16.6316 1.61295 16.8562 1.61145C19.2589 1.59642 20.9835 3.49861 20.991 5.60898C21.0038 9.4096 21.0023 13.211 20.991 17.0116C20.9857 18.8492 19.6736 20.4612 17.8822 20.8821C17.6914 20.9272 17.4976 20.9618 17.3053 21.0009H3.6909C3.6526 20.9888 3.61579 20.97 3.57674 20.9655C1.85447 20.7476 0.486713 19.515 0.0983941 17.8278C0.0615902 17.6685 0.0322973 17.5084 0 17.349ZM19.3551 8.10415H1.63965C1.63965 8.19433 1.63965 8.26949 1.63965 8.34465C1.63965 11.175 1.63965 14.0046 1.63965 16.835C1.63965 18.3103 2.67917 19.3565 4.15208 19.3572C8.38227 19.3595 12.6117 19.3595 16.8419 19.3572C18.3156 19.3572 19.3551 18.3103 19.3551 16.8357C19.3551 14.0054 19.3551 11.1758 19.3551 8.3454C19.3551 8.27024 19.3551 8.19584 19.3551 8.10415ZM19.3371 6.44095C19.615 4.00365 17.9475 3.00784 16.1569 3.28592C16.1569 3.79622 16.1592 4.30879 16.1569 4.8206C16.1539 5.30986 15.8114 5.66535 15.3465 5.6691C14.8725 5.67286 14.524 5.31437 14.5188 4.81534C14.5158 4.46661 14.5188 4.11789 14.5188 3.76917C14.5188 3.60157 14.5188 3.43397 14.5188 3.26262H6.47824C6.47824 3.34679 6.47824 3.42045 6.47824 3.49335C6.47824 3.94428 6.48274 4.39597 6.47673 4.8469C6.47073 5.26101 6.1838 5.59921 5.80149 5.65858C5.28399 5.73825 4.8461 5.37525 4.84009 4.84991C4.83408 4.32532 4.83858 3.80073 4.83858 3.2784C2.75879 2.99807 1.37827 4.28098 1.66444 6.44095H19.3386H19.3371Z"></path>
            <path d="M5.6757 15.3389C5.94159 15.3389 6.20823 15.3336 6.47412 15.3404C6.92703 15.3509 7.2778 15.7056 7.28305 16.1505C7.28831 16.591 6.93905 16.966 6.48839 16.975C5.93633 16.987 5.38277 16.9863 4.83071 16.975C4.3808 16.966 4.02779 16.5925 4.03004 16.1543C4.03229 15.7116 4.38531 15.3516 4.83672 15.3404C5.11613 15.3336 5.39629 15.3389 5.6757 15.3389Z"></path>
            <path d="M15.3505 15.3392C15.6164 15.3392 15.8831 15.3347 16.149 15.34C16.6109 15.3497 16.9714 15.7165 16.9669 16.1637C16.9624 16.6048 16.6094 16.9678 16.1572 16.9761C15.6119 16.9859 15.0651 16.9859 14.5198 16.9761C14.0662 16.9678 13.7169 16.6048 13.7139 16.1614C13.7109 15.7112 14.0684 15.349 14.5326 15.34C14.8052 15.3347 15.0786 15.3392 15.3513 15.3392H15.3505Z"></path>
            <path d="M15.3558 10.4989C15.6149 10.4989 15.874 10.4959 16.1339 10.4989C16.6003 10.5064 16.9601 10.8581 16.9676 11.3083C16.9751 11.7623 16.6086 12.132 16.1324 12.1373C15.6006 12.1433 15.0681 12.1441 14.5356 12.1373C14.0699 12.1305 13.7131 11.7675 13.7139 11.3181C13.7146 10.8672 14.0721 10.5087 14.5371 10.5004C14.8097 10.4951 15.0831 10.4996 15.3558 10.4996V10.4989Z"></path>
            <path d="M5.66376 12.1387C5.39787 12.1387 5.13123 12.1425 4.86534 12.1379C4.3899 12.1289 4.02336 11.7622 4.03012 11.309C4.03688 10.8595 4.39816 10.5041 4.86309 10.4996C5.39487 10.4943 5.9274 10.4943 6.45993 10.4996C6.92411 10.5048 7.28238 10.8656 7.28389 11.3165C7.28464 11.7667 6.92786 12.1267 6.46293 12.1372C6.19704 12.1432 5.9304 12.1379 5.66451 12.1387H5.66376Z"></path>
            <path d="M10.4987 10.4989C10.7646 10.4989 11.0312 10.4944 11.2971 10.4996C11.7613 10.5086 12.1166 10.8686 12.1143 11.3218C12.1121 11.7667 11.7651 12.1282 11.3106 12.1365C10.7646 12.1455 10.2186 12.1455 9.67325 12.1365C9.22034 12.129 8.86807 11.7667 8.86357 11.3256C8.85906 10.8769 9.21884 10.5101 9.68076 10.5004C9.95341 10.4944 10.2268 10.4996 10.4995 10.4996L10.4987 10.4989Z"></path>
            <path d="M10.4777 16.9781C10.2186 16.9781 9.95945 16.9818 9.69957 16.9773C9.22488 16.9683 8.85759 16.6015 8.8636 16.1484C8.86961 15.6974 9.22788 15.3442 9.69582 15.3397C10.2276 15.3344 10.7601 15.3337 11.2927 15.3397C11.7598 15.3449 12.1144 15.7019 12.1151 16.1551C12.1166 16.6068 11.7621 16.9661 11.2957 16.9766C11.023 16.9833 10.7496 16.9781 10.477 16.9781H10.4777Z"></path>
        </symbol>
        <symbol id="user-circle" viewBox="0 0 34 34" xmlns="http://www.w3.org/2000/svg">
            <path fill-rule="evenodd" clip-rule="evenodd" d="M33.6685 16.8688C33.6685 26.0738 26.2069 33.5355 17.0019 33.5355C7.79687 33.5355 0.335205 26.0738 0.335205 16.8688C0.335205 7.66382 7.79687 0.202148 17.0019 0.202148C26.2069 0.202148 33.6685 7.66382 33.6685 16.8688ZM22.0019 11.8688C22.0019 13.1949 21.4751 14.4667 20.5374 15.4043C19.5997 16.342 18.328 16.8688 17.0019 16.8688C15.6758 16.8688 14.404 16.342 13.4663 15.4043C12.5287 14.4667 12.0019 13.1949 12.0019 11.8688C12.0019 10.5427 12.5287 9.27096 13.4663 8.33328C14.404 7.3956 15.6758 6.86881 17.0019 6.86881C18.328 6.86881 19.5997 7.3956 20.5374 8.33328C21.4751 9.27096 22.0019 10.5427 22.0019 11.8688ZM17.0019 31.0355C19.8623 31.0401 22.6565 30.1745 25.0135 28.5538C26.0202 27.8621 26.4502 26.5455 25.8635 25.4738C24.6519 23.2521 22.1519 21.8688 17.0019 21.8688C11.8519 21.8688 9.35187 23.2521 8.13854 25.4738C7.55354 26.5455 7.98354 27.8621 8.9902 28.5538C11.3472 30.1745 14.1414 31.0401 17.0019 31.0355Z"/>
        </symbol>
        <symbol id="user" viewBox="0 0 26 32" fill="none" xmlns="http://www.w3.org/2000/svg">
            <path d="M13.0001 13.3219C16.2217 13.3219 18.8334 10.7103 18.8334 7.48861C18.8334 4.26695 16.2217 1.65527 13.0001 1.65527C9.77842 1.65527 7.16675 4.26695 7.16675 7.48861C7.16675 10.7103 9.77842 13.3219 13.0001 13.3219Z" stroke-width="2"/>
            <path d="M24.6667 24.2598C24.6667 27.8837 24.6667 30.8223 13 30.8223C1.33337 30.8223 1.33337 27.8837 1.33337 24.2598C1.33337 20.6358 6.55712 17.6973 13 17.6973C19.443 17.6973 24.6667 20.6358 24.6667 24.2598Z" stroke-width="2"/>
        </symbol>
        <symbol id="orders" viewBox="0 0 31 32" fill="none" xmlns="http://www.w3.org/2000/svg">
            <path d="M28.1216 17.1818L28.8756 14.3643C29.7564 11.0758 30.1983 9.43226 29.8673 8.00892C29.6049 6.88527 29.0152 5.86467 28.1727 5.07621C27.1066 4.07726 25.4616 3.63684 22.1731 2.75601C18.8846 1.87371 17.2396 1.4333 15.8177 1.76434C14.694 2.02671 13.6734 2.61644 12.885 3.45892C12.0289 4.37184 11.5827 5.70913 10.9191 8.13871L10.5633 9.45851L9.80935 12.276C8.92706 15.5645 8.48664 17.2081 8.81768 18.6314C9.08006 19.7551 9.66978 20.7757 10.5123 21.5641C11.5783 22.5631 13.2233 23.0035 16.5119 23.8858C19.4752 24.6791 21.1041 25.1152 22.4385 24.9504C22.5844 24.9329 22.7273 24.9066 22.8673 24.8745C23.9906 24.613 25.0111 24.0243 25.8 23.1829C26.7989 22.1154 27.2394 20.4704 28.1216 17.1818Z" stroke-width="2"/>
            <path d="M22.4386 24.9508C22.1337 25.8846 21.598 26.7264 20.8811 27.3979C19.815 28.3969 18.17 28.8373 14.8815 29.7181C11.5929 30.5989 9.94793 31.0408 8.52606 30.7083C7.40258 30.4464 6.38199 29.8571 5.59335 29.0152C4.59439 27.9492 4.15252 26.3042 3.27168 23.0156L2.51772 20.1981C1.63543 16.9096 1.19502 15.2646 1.52606 13.8427C1.78843 12.719 2.37816 11.6984 3.22064 10.91C4.28668 9.91103 5.93168 9.47061 9.22022 8.58832C9.84147 8.42207 10.4058 8.2704 10.9192 8.1377" stroke-width="2"/>
        </symbol>
        <symbol id="logout" viewBox="0 0 32 32" fill="none" xmlns="http://www.w3.org/2000/svg">
            <path d="M21.8347 16.2373H1.41805M1.41805 16.2373L6.52222 11.8623M1.41805 16.2373L6.52222 20.6123" stroke-width="2" stroke-linecap="round" stroke-linejoin="round"/>
            <path d="M11.6279 8.94694C11.6454 5.77506 11.7869 4.05715 12.9069 2.93715C14.1888 1.65527 16.2508 1.65527 20.375 1.65527H21.8333C25.959 1.65527 28.0211 1.65527 29.3029 2.93715C30.5833 4.21756 30.5833 6.28111 30.5833 10.4053V22.0719C30.5833 26.1961 30.5833 28.2596 29.3029 29.5401C28.0196 30.8219 25.959 30.8219 21.8333 30.8219H20.375C16.2508 30.8219 14.1888 30.8219 12.9069 29.5401C11.7869 28.4201 11.6454 26.7021 11.6279 23.5303" stroke-width="2" stroke-linecap="round"/>
        </symbol>
    </defs>
</svg>