<svg xmlns="http://www.w3.org/2000/svg" xmlns:xlink="http://www.w3.org/1999/xlink">
    <defs>
        <symbol id="date" viewBox="0 0 21 21" xmlns="http://www.w3.org/2000/svg">
            <path d="M0 17.349C0 13.3154 0 9.28109 0 5.24748C0.0127687 5.2099 0.0315462 5.17308 0.0368039 5.13475C0.289925 3.23331 1.8462 1.76101 3.754 1.63324C4.10626 1.60995 4.46078 1.63024 4.83783 1.63024C4.83783 1.35367 4.83633 1.11617 4.83783 0.878681C4.84084 0.373635 5.17733 0.0076272 5.64452 0.000111633C6.11696 -0.00740393 6.47298 0.365368 6.47748 0.874924C6.47974 1.11242 6.47748 1.34991 6.47748 1.59792H14.518C14.518 1.35442 14.5173 1.12369 14.518 0.892209C14.521 0.375138 14.8613 0.00386942 15.3337 0.000863189C15.8076 -0.00214304 16.1539 0.367623 16.1577 0.882439C16.1592 1.11993 16.1577 1.35667 16.1577 1.61145C16.407 1.61145 16.6316 1.61295 16.8562 1.61145C19.2589 1.59642 20.9835 3.49861 20.991 5.60898C21.0038 9.4096 21.0023 13.211 20.991 17.0116C20.9857 18.8492 19.6736 20.4612 17.8822 20.8821C17.6914 20.9272 17.4976 20.9618 17.3053 21.0009H3.6909C3.6526 20.9888 3.61579 20.97 3.57674 20.9655C1.85447 20.7476 0.486713 19.515 0.0983941 17.8278C0.0615902 17.6685 0.0322973 17.5084 0 17.349ZM19.3551 8.10415H1.63965C1.63965 8.19433 1.63965 8.26949 1.63965 8.34465C1.63965 11.175 1.63965 14.0046 1.63965 16.835C1.63965 18.3103 2.67917 19.3565 4.15208 19.3572C8.38227 19.3595 12.6117 19.3595 16.8419 19.3572C18.3156 19.3572 19.3551 18.3103 19.3551 16.8357C19.3551 14.0054 19.3551 11.1758 19.3551 8.3454C19.3551 8.27024 19.3551 8.19584 19.3551 8.10415ZM19.3371 6.44095C19.615 4.00365 17.9475 3.00784 16.1569 3.28592C16.1569 3.79622 16.1592 4.30879 16.1569 4.8206C16.1539 5.30986 15.8114 5.66535 15.3465 5.6691C14.8725 5.67286 14.524 5.31437 14.5188 4.81534C14.5158 4.46661 14.5188 4.11789 14.5188 3.76917C14.5188 3.60157 14.5188 3.43397 14.5188 3.26262H6.47824C6.47824 3.34679 6.47824 3.42045 6.47824 3.49335C6.47824 3.94428 6.48274 4.39597 6.47673 4.8469C6.47073 5.26101 6.1838 5.59921 5.80149 5.65858C5.28399 5.73825 4.8461 5.37525 4.84009 4.84991C4.83408 4.32532 4.83858 3.80073 4.83858 3.2784C2.75879 2.99807 1.37827 4.28098 1.66444 6.44095H19.3386H19.3371Z"></path>
            <path d="M5.6757 15.3389C5.94159 15.3389 6.20823 15.3336 6.47412 15.3404C6.92703 15.3509 7.2778 15.7056 7.28305 16.1505C7.28831 16.591 6.93905 16.966 6.48839 16.975C5.93633 16.987 5.38277 16.9863 4.83071 16.975C4.3808 16.966 4.02779 16.5925 4.03004 16.1543C4.03229 15.7116 4.38531 15.3516 4.83672 15.3404C5.11613 15.3336 5.39629 15.3389 5.6757 15.3389Z"></path>
            <path d="M15.3505 15.3392C15.6164 15.3392 15.8831 15.3347 16.149 15.34C16.6109 15.3497 16.9714 15.7165 16.9669 16.1637C16.9624 16.6048 16.6094 16.9678 16.1572 16.9761C15.6119 16.9859 15.0651 16.9859 14.5198 16.9761C14.0662 16.9678 13.7169 16.6048 13.7139 16.1614C13.7109 15.7112 14.0684 15.349 14.5326 15.34C14.8052 15.3347 15.0786 15.3392 15.3513 15.3392H15.3505Z"></path>
            <path d="M15.3558 10.4989C15.6149 10.4989 15.874 10.4959 16.1339 10.4989C16.6003 10.5064 16.9601 10.8581 16.9676 11.3083C16.9751 11.7623 16.6086 12.132 16.1324 12.1373C15.6006 12.1433 15.0681 12.1441 14.5356 12.1373C14.0699 12.1305 13.7131 11.7675 13.7139 11.3181C13.7146 10.8672 14.0721 10.5087 14.5371 10.5004C14.8097 10.4951 15.0831 10.4996 15.3558 10.4996V10.4989Z"></path>
            <path d="M5.66376 12.1387C5.39787 12.1387 5.13123 12.1425 4.86534 12.1379C4.3899 12.1289 4.02336 11.7622 4.03012 11.309C4.03688 10.8595 4.39816 10.5041 4.86309 10.4996C5.39487 10.4943 5.9274 10.4943 6.45993 10.4996C6.92411 10.5048 7.28238 10.8656 7.28389 11.3165C7.28464 11.7667 6.92786 12.1267 6.46293 12.1372C6.19704 12.1432 5.9304 12.1379 5.66451 12.1387H5.66376Z"></path>
            <path d="M10.4987 10.4989C10.7646 10.4989 11.0312 10.4944 11.2971 10.4996C11.7613 10.5086 12.1166 10.8686 12.1143 11.3218C12.1121 11.7667 11.7651 12.1282 11.3106 12.1365C10.7646 12.1455 10.2186 12.1455 9.67325 12.1365C9.22034 12.129 8.86807 11.7667 8.86357 11.3256C8.85906 10.8769 9.21884 10.5101 9.68076 10.5004C9.95341 10.4944 10.2268 10.4996 10.4995 10.4996L10.4987 10.4989Z"></path>
            <path d="M10.4777 16.9781C10.2186 16.9781 9.95945 16.9818 9.69957 16.9773C9.22488 16.9683 8.85759 16.6015 8.8636 16.1484C8.86961 15.6974 9.22788 15.3442 9.69582 15.3397C10.2276 15.3344 10.7601 15.3337 11.2927 15.3397C11.7598 15.3449 12.1144 15.7019 12.1151 16.1551C12.1166 16.6068 11.7621 16.9661 11.2957 16.9766C11.023 16.9833 10.7496 16.9781 10.477 16.9781H10.4777Z"></path>
        </symbol>
        <symbol id="user-circle" viewBox="0 0 34 34" xmlns="http://www.w3.org/2000/svg">
            <path fill-rule="evenodd" clip-rule="evenodd" d="M33.6685 16.8688C33.6685 26.0738 26.2069 33.5355 17.0019 33.5355C7.79687 33.5355 0.335205 26.0738 0.335205 16.8688C0.335205 7.66382 7.79687 0.202148 17.0019 0.202148C26.2069 0.202148 33.6685 7.66382 33.6685 16.8688ZM22.0019 11.8688C22.0019 13.1949 21.4751 14.4667 20.5374 15.4043C19.5997 16.342 18.328 16.8688 17.0019 16.8688C15.6758 16.8688 14.404 16.342 13.4663 15.4043C12.5287 14.4667 12.0019 13.1949 12.0019 11.8688C12.0019 10.5427 12.5287 9.27096 13.4663 8.33328C14.404 7.3956 15.6758 6.86881 17.0019 6.86881C18.328 6.86881 19.5997 7.3956 20.5374 8.33328C21.4751 9.27096 22.0019 10.5427 22.0019 11.8688ZM17.0019 31.0355C19.8623 31.0401 22.6565 30.1745 25.0135 28.5538C26.0202 27.8621 26.4502 26.5455 25.8635 25.4738C24.6519 23.2521 22.1519 21.8688 17.0019 21.8688C11.8519 21.8688 9.35187 23.2521 8.13854 25.4738C7.55354 26.5455 7.98354 27.8621 8.9902 28.5538C11.3472 30.1745 14.1414 31.0401 17.0019 31.0355Z"/>
        </symbol>
        <symbol id="user" viewBox="0 0 26 32" fill="none" xmlns="http://www.w3.org/2000/svg">
            <path d="M13.0001 13.3219C16.2217 13.3219 18.8334 10.7103 18.8334 7.48861C18.8334 4.26695 16.2217 1.65527 13.0001 1.65527C9.77842 1.65527 7.16675 4.26695 7.16675 7.48861C7.16675 10.7103 9.77842 13.3219 13.0001 13.3219Z" stroke-width="2"/>
            <path d="M24.6667 24.2598C24.6667 27.8837 24.6667 30.8223 13 30.8223C1.33337 30.8223 1.33337 27.8837 1.33337 24.2598C1.33337 20.6358 6.55712 17.6973 13 17.6973C19.443 17.6973 24.6667 20.6358 24.6667 24.2598Z" stroke-width="2"/>
        </symbol>
        <symbol id="orders" viewBox="0 0 31 32" fill="none" xmlns="http://www.w3.org/2000/svg">
            <path d="M28.1216 17.1818L28.8756 14.3643C29.7564 11.0758 30.1983 9.43226 29.8673 8.00892C29.6049 6.88527 29.0152 5.86467 28.1727 5.07621C27.1066 4.07726 25.4616 3.63684 22.1731 2.75601C18.8846 1.87371 17.2396 1.4333 15.8177 1.76434C14.694 2.02671 13.6734 2.61644 12.885 3.45892C12.0289 4.37184 11.5827 5.70913 10.9191 8.13871L10.5633 9.45851L9.80935 12.276C8.92706 15.5645 8.48664 17.2081 8.81768 18.6314C9.08006 19.7551 9.66978 20.7757 10.5123 21.5641C11.5783 22.5631 13.2233 23.0035 16.5119 23.8858C19.4752 24.6791 21.1041 25.1152 22.4385 24.9504C22.5844 24.9329 22.7273 24.9066 22.8673 24.8745C23.9906 24.613 25.0111 24.0243 25.8 23.1829C26.7989 22.1154 27.2394 20.4704 28.1216 17.1818Z" stroke-width="2"/>
            <path d="M22.4386 24.9508C22.1337 25.8846 21.598 26.7264 20.8811 27.3979C19.815 28.3969 18.17 28.8373 14.8815 29.7181C11.5929 30.5989 9.94793 31.0408 8.52606 30.7083C7.40258 30.4464 6.38199 29.8571 5.59335 29.0152C4.59439 27.9492 4.15252 26.3042 3.27168 23.0156L2.51772 20.1981C1.63543 16.9096 1.19502 15.2646 1.52606 13.8427C1.78843 12.719 2.37816 11.6984 3.22064 10.91C4.28668 9.91103 5.93168 9.47061 9.22022 8.58832C9.84147 8.42207 10.4058 8.2704 10.9192 8.1377" stroke-width="2"/>
        </symbol>
        <symbol id="logout" viewBox="0 0 32 32" fill="none" xmlns="http://www.w3.org/2000/svg">
            <path d="M21.8347 16.2373H1.41805M1.41805 16.2373L6.52222 11.8623M1.41805 16.2373L6.52222 20.6123" stroke-width="2" stroke-linecap="round" stroke-linejoin="round"/>
            <path d="M11.6279 8.94694C11.6454 5.77506 11.7869 4.05715 12.9069 2.93715C14.1888 1.65527 16.2508 1.65527 20.375 1.65527H21.8333C25.959 1.65527 28.0211 1.65527 29.3029 2.93715C30.5833 4.21756 30.5833 6.28111 30.5833 10.4053V22.0719C30.5833 26.1961 30.5833 28.2596 29.3029 29.5401C28.0196 30.8219 25.959 30.8219 21.8333 30.8219H20.375C16.2508 30.8219 14.1888 30.8219 12.9069 29.5401C11.7869 28.4201 11.6454 26.7021 11.6279 23.5303" stroke-width="2" stroke-linecap="round"/>
        </symbol>
        <symbol id="left-arrow" viewBox="0 0 25 24" fill="none" xmlns="http://www.w3.org/2000/svg">
         <path d="M15.5 5L9.5 12L15.5 19" stroke="#575661" stroke-width="2" stroke-linecap="round" stroke-linejoin="round"/>
        </symbol>
        <symbol id="mega-about-icon1" viewBox="0 0 40 40" fill="none" xmlns="http://www.w3.org/2000/svg">
            <path fill-rule="evenodd" clip-rule="evenodd" d="M11.6666 8.33301H18.3333C21.4766 8.33301 23.0466 8.33301 24.0233 9.30967C24.9999 10.2863 24.9999 11.8563 24.9999 14.9997V35.4163H36.6666C36.9981 35.4163 37.316 35.548 37.5505 35.7825C37.7849 36.0169 37.9166 36.3348 37.9166 36.6663C37.9166 36.9979 37.7849 37.3158 37.5505 37.5502C37.316 37.7846 36.9981 37.9163 36.6666 37.9163H3.33325C3.00173 37.9163 2.68379 37.7846 2.44937 37.5502C2.21495 37.3158 2.08325 36.9979 2.08325 36.6663C2.08325 36.3348 2.21495 36.0169 2.44937 35.7825C2.68379 35.548 3.00173 35.4163 3.33325 35.4163H4.99992V14.9997C4.99992 11.8563 4.99992 10.2863 5.97659 9.30967C6.95325 8.33301 8.52325 8.33301 11.6666 8.33301ZM8.74992 13.333C8.74992 13.0015 8.88161 12.6835 9.11603 12.4491C9.35046 12.2147 9.6684 12.083 9.99992 12.083H19.9999C20.3314 12.083 20.6494 12.2147 20.8838 12.4491C21.1182 12.6835 21.2499 13.0015 21.2499 13.333C21.2499 13.6645 21.1182 13.9825 20.8838 14.2169C20.6494 14.4513 20.3314 14.583 19.9999 14.583H9.99992C9.6684 14.583 9.35046 14.4513 9.11603 14.2169C8.88161 13.9825 8.74992 13.6645 8.74992 13.333ZM8.74992 18.333C8.74992 18.0015 8.88161 17.6835 9.11603 17.4491C9.35046 17.2147 9.6684 17.083 9.99992 17.083H19.9999C20.3314 17.083 20.6494 17.2147 20.8838 17.4491C21.1182 17.6835 21.2499 18.0015 21.2499 18.333C21.2499 18.6645 21.1182 18.9825 20.8838 19.2169C20.6494 19.4513 20.3314 19.583 19.9999 19.583H9.99992C9.6684 19.583 9.35046 19.4513 9.11603 19.2169C8.88161 18.9825 8.74992 18.6645 8.74992 18.333ZM8.74992 23.333C8.74992 23.0015 8.88161 22.6835 9.11603 22.4491C9.35046 22.2147 9.6684 22.083 9.99992 22.083H19.9999C20.3314 22.083 20.6494 22.2147 20.8838 22.4491C21.1182 22.6835 21.2499 23.0015 21.2499 23.333C21.2499 23.6645 21.1182 23.9825 20.8838 24.2169C20.6494 24.4513 20.3314 24.583 19.9999 24.583H9.99992C9.6684 24.583 9.35046 24.4513 9.11603 24.2169C8.88161 23.9825 8.74992 23.6645 8.74992 23.333ZM14.9999 30.4163C15.3314 30.4163 15.6494 30.548 15.8838 30.7825C16.1182 31.0169 16.2499 31.3348 16.2499 31.6663V35.4163H13.7499V31.6663C13.7499 31.3348 13.8816 31.0169 14.116 30.7825C14.3505 30.548 14.6684 30.4163 14.9999 30.4163Z" fill="#005B66"/>
            <path opacity="0.5" d="M24.9984 3.33301H28.3317C31.4751 3.33301 33.0451 3.33301 34.0217 4.30967C34.9984 5.28634 34.9984 6.85634 34.9984 9.99967V35.4163H24.9984V14.9997C24.9984 11.8563 24.9984 10.2863 24.0217 9.30967C23.0684 8.35467 21.5451 8.33301 18.5417 8.33301V5.83301C18.6817 5.18801 18.9167 4.69967 19.3084 4.30967C20.2817 3.33301 21.8551 3.33301 24.9984 3.33301Z" fill="#005B66"/>
        </symbol>
        <symbol id="mega-about-icon2" viewBox="0 0 40 41" fill="none" xmlns="http://www.w3.org/2000/svg">
            <path d="M35.0199 7.24707L21.7666 20.4987L35.0199 33.7521C36.6666 31.2587 36.6666 27.3904 36.6666 20.5004C36.6666 13.6121 36.6666 9.7404 35.0199 7.24707ZM19.9999 22.2671L6.74658 35.5204C9.23992 37.1671 13.1099 37.1671 19.9982 37.1671C26.8899 37.1671 30.7582 37.1671 33.2516 35.5204L19.9999 22.2671Z" fill="#005B66"/>
            <path opacity="0.5" d="M5.77325 6.27301C3.33325 8.71634 3.33325 12.643 3.33325 20.4997C3.33325 27.3897 3.33325 31.258 4.97992 33.753L33.2533 5.47967C30.7583 3.83301 26.8899 3.83301 19.9999 3.83301C12.1433 3.83301 8.21492 3.83301 5.77325 6.27301Z" fill="#005B66"/>
        </symbol>
        <symbol id="mega-about-icon3" viewBox="0 0 40 40" fill="none" xmlns="http://www.w3.org/2000/svg">
            <path opacity="0.5" d="M5 16.6663C5 10.3813 5 7.23801 6.95333 5.28634C8.905 3.33301 12.0483 3.33301 18.3333 3.33301H21.6667C27.9517 3.33301 31.095 3.33301 33.0467 5.28634C35 7.23801 35 10.3813 35 16.6663V23.333C35 29.618 35 32.7613 33.0467 34.713C31.095 36.6663 27.9517 36.6663 21.6667 36.6663H18.3333C12.0483 36.6663 8.905 36.6663 6.95333 34.713C5 32.7613 5 29.618 5 23.333V16.6663Z" fill="#005B66"/>
            <path fill-rule="evenodd" clip-rule="evenodd" d="M12.0834 19.9997C12.0834 19.6682 12.2151 19.3502 12.4495 19.1158C12.6839 18.8814 13.0019 18.7497 13.3334 18.7497H26.6667C26.9982 18.7497 27.3162 18.8814 27.5506 19.1158C27.785 19.3502 27.9167 19.6682 27.9167 19.9997C27.9167 20.3312 27.785 20.6491 27.5506 20.8836C27.3162 21.118 26.9982 21.2497 26.6667 21.2497H13.3334C13.0019 21.2497 12.6839 21.118 12.4495 20.8836C12.2151 20.6491 12.0834 20.3312 12.0834 19.9997ZM12.0834 13.333C12.0834 13.0015 12.2151 12.6835 12.4495 12.4491C12.6839 12.2147 13.0019 12.083 13.3334 12.083H26.6667C26.9982 12.083 27.3162 12.2147 27.5506 12.4491C27.785 12.6835 27.9167 13.0015 27.9167 13.333C27.9167 13.6645 27.785 13.9825 27.5506 14.2169C27.3162 14.4513 26.9982 14.583 26.6667 14.583H13.3334C13.0019 14.583 12.6839 14.4513 12.4495 14.2169C12.2151 13.9825 12.0834 13.6645 12.0834 13.333ZM12.0834 26.6663C12.0834 26.3348 12.2151 26.0169 12.4495 25.7825C12.6839 25.548 13.0019 25.4163 13.3334 25.4163H21.6667C21.9982 25.4163 22.3162 25.548 22.5506 25.7825C22.785 26.0169 22.9167 26.3348 22.9167 26.6663C22.9167 26.9979 22.785 27.3158 22.5506 27.5502C22.3162 27.7846 21.9982 27.9163 21.6667 27.9163H13.3334C13.0019 27.9163 12.6839 27.7846 12.4495 27.5502C12.2151 27.3158 12.0834 26.9979 12.0834 26.6663Z" fill="#005B66"/>
        </symbol>
        <symbol id="mega-about-icon4" viewBox="0 0 41 41" fill="none" xmlns="http://www.w3.org/2000/svg">
            <path d="M13.8333 8.83301C13.8333 10.1591 13.3065 11.4309 12.3688 12.3685C11.4311 13.3062 10.1593 13.833 8.83325 13.833C7.50717 13.833 6.2354 13.3062 5.29772 12.3685C4.36004 11.4309 3.83325 10.1591 3.83325 8.83301C3.83325 7.50693 4.36004 6.23516 5.29772 5.29747C6.2354 4.35979 7.50717 3.83301 8.83325 3.83301C10.1593 3.83301 11.4311 4.35979 12.3688 5.29747C13.3065 6.23516 13.8333 7.50693 13.8333 8.83301ZM37.1666 8.83301C37.1666 10.1591 36.6398 11.4309 35.7021 12.3685C34.7644 13.3062 33.4927 13.833 32.1666 13.833C30.8405 13.833 29.5687 13.3062 28.6311 12.3685C27.6934 11.4309 27.1666 10.1591 27.1666 8.83301C27.1666 7.50693 27.6934 6.23516 28.6311 5.29747C29.5687 4.35979 30.8405 3.83301 32.1666 3.83301C33.4927 3.83301 34.7644 4.35979 35.7021 5.29747C36.6398 6.23516 37.1666 7.50693 37.1666 8.83301ZM13.8333 32.1663C13.8333 33.4924 13.3065 34.7642 12.3688 35.7019C11.4311 36.6396 10.1593 37.1663 8.83325 37.1663C7.50717 37.1663 6.2354 36.6396 5.29772 35.7019C4.36004 34.7642 3.83325 33.4924 3.83325 32.1663C3.83325 30.8403 4.36004 29.5685 5.29772 28.6308C6.2354 27.6931 7.50717 27.1663 8.83325 27.1663C10.1593 27.1663 11.4311 27.6931 12.3688 28.6308C13.3065 29.5685 13.8333 30.8403 13.8333 32.1663ZM37.1666 32.1663C37.1666 33.4924 36.6398 34.7642 35.7021 35.7019C34.7644 36.6396 33.4927 37.1663 32.1666 37.1663C30.8405 37.1663 29.5687 36.6396 28.6311 35.7019C27.6934 34.7642 27.1666 33.4924 27.1666 32.1663C27.1666 30.8403 27.6934 29.5685 28.6311 28.6308C29.5687 27.6931 30.8405 27.1663 32.1666 27.1663C33.4927 27.1663 34.7644 27.6931 35.7021 28.6308C36.6398 29.5685 37.1666 30.8403 37.1666 32.1663Z" fill="#005B66"/>
            <path opacity="0.5" d="M27.3216 7.59301C27.2702 7.58648 27.2184 7.58314 27.1666 7.58301H13.8333C13.7814 7.58315 13.7297 7.58649 13.6783 7.59301C13.8861 8.40661 13.8861 9.2594 13.6783 10.073C13.7283 10.0797 13.7799 10.083 13.8333 10.083H27.1666C27.2184 10.0829 27.2702 10.0795 27.3216 10.073C27.1139 9.25939 27.1139 8.40663 27.3216 7.59301ZM32.1666 13.833C32.5949 13.833 33.0099 13.7797 33.4066 13.678C33.4132 13.728 33.4166 13.7797 33.4166 13.833V27.1663C33.4165 27.2182 33.4131 27.2699 33.4066 27.3213C32.593 27.1134 31.7402 27.1134 30.9266 27.3213C30.9201 27.2699 30.9167 27.2182 30.9166 27.1663V13.833C30.9166 13.7797 30.9199 13.728 30.9266 13.678C31.3233 13.778 31.7383 13.833 32.1666 13.833ZM27.3216 30.9263C27.2702 30.9198 27.2184 30.9165 27.1666 30.9163H13.8333C13.7814 30.9165 13.7297 30.9198 13.6783 30.9263C13.8861 31.7399 13.8861 32.5927 13.6783 33.4063C13.7283 33.413 13.7799 33.4163 13.8333 33.4163H27.1666C27.2184 33.4162 27.2702 33.4129 27.3216 33.4063C27.1136 32.5928 27.1136 31.7399 27.3216 30.9263ZM8.83325 13.833C8.40492 13.833 7.98992 13.7797 7.59325 13.678C7.58673 13.7294 7.58339 13.7812 7.58325 13.833V27.1663C7.58325 27.2197 7.58659 27.2713 7.59325 27.3213C8.40687 27.1136 9.25963 27.1136 10.0733 27.3213C10.0798 27.2699 10.0831 27.2182 10.0833 27.1663V13.833C10.0831 13.7812 10.0798 13.7294 10.0733 13.678C9.67659 13.778 9.26159 13.833 8.83325 13.833Z" fill="#005B66"/>
        </symbol>
        <symbol id="mega-media-icon1" viewBox="0 0 40 40" fill="none" xmlns="http://www.w3.org/2000/svg">
            <path d="M20.0001 16.6663C27.3634 16.6663 33.3334 13.683 33.3334 9.99967C33.3334 6.31634 27.3634 3.33301 20.0001 3.33301C12.6367 3.33301 6.66675 6.31634 6.66675 9.99967C6.66675 13.683 12.6367 16.6663 20.0001 16.6663Z" fill="#005B66"/>
            <path opacity="0.5" d="M6.66675 20V30C6.66675 33.6833 12.6367 36.6667 20.0001 36.6667C27.3634 36.6667 33.3334 33.6833 33.3334 30V20C33.3334 23.6833 27.3634 26.6667 20.0001 26.6667C12.6367 26.6667 6.66675 23.6833 6.66675 20Z" fill="#005B66"/>
            <path opacity="0.7" d="M6.66675 10V20C6.66675 23.6833 12.6367 26.6667 20.0001 26.6667C27.3634 26.6667 33.3334 23.6833 33.3334 20V10C33.3334 13.6833 27.3634 16.6667 20.0001 16.6667C12.6367 16.6667 6.66675 13.6833 6.66675 10Z" fill="#005B66"/>
        </symbol>
        <symbol id="mega-media-icon2" viewBox="0 0 40 40" fill="none" xmlns="http://www.w3.org/2000/svg">
            <path opacity="0.5" d="M10.4334 35.6468H10.0001C8.42841 35.6468 7.64342 35.6468 7.15508 35.1584C6.66675 34.6734 6.66675 33.8868 6.66675 32.3151V30.4618C6.66675 29.5984 6.66675 29.1668 6.88841 28.7801C7.11008 28.3951 7.44508 28.2001 8.11508 27.8101C12.5251 25.2451 18.7867 23.8018 22.9651 26.2934C23.2451 26.4618 23.4984 26.6651 23.7151 26.9068C23.9389 27.1521 24.1113 27.4398 24.2222 27.7528C24.333 28.0658 24.3801 28.3979 24.3605 28.7294C24.3409 29.0609 24.2551 29.3852 24.1082 29.683C23.9613 29.9808 23.7562 30.2462 23.5051 30.4634C23.3048 30.6538 23.0602 30.7913 22.7934 30.8634C22.9934 30.8401 23.1851 30.8134 23.3684 30.7851C24.8867 30.5434 26.1617 29.7301 27.3284 28.8484L30.3417 26.5734C30.8793 26.1824 31.527 25.9718 32.1917 25.9718C32.8565 25.9718 33.5042 26.1824 34.0417 26.5734C34.9967 27.2951 35.2901 28.4834 34.6851 29.4534C33.9801 30.5834 32.9867 32.0284 32.0334 32.9118C31.0784 33.7951 29.6567 34.5851 28.4967 35.1451C27.2101 35.7668 25.7901 36.1234 24.3451 36.3584C21.4151 36.8318 18.3617 36.7584 15.4617 36.1618C13.8072 35.8216 12.1225 35.6479 10.4334 35.6468Z" fill="#005B66"/>
            <path d="M10.9767 4.31046C10.365 4.92212 10.1367 5.76546 10.0517 7.08379C11.0287 7.07041 11.9619 6.67625 12.6526 5.98519C13.3434 5.29414 13.7371 4.36078 13.75 3.38379C12.4334 3.47046 11.5884 3.69879 10.9767 4.31046ZM29.0234 4.31046C28.4117 3.69879 27.5684 3.47046 26.25 3.38546C26.2634 4.36244 26.6576 5.29562 27.3486 5.98637C28.0397 6.67711 28.9731 7.07085 29.95 7.08379C29.8634 5.76712 29.635 4.92212 29.0234 4.31046ZM29.0234 15.6905C28.4117 16.3021 27.5684 16.5305 26.25 16.6155C26.2634 15.6385 26.6576 14.7053 27.3486 14.0145C28.0397 13.3238 28.9731 12.9301 29.95 12.9171C29.8634 14.2338 29.635 15.0788 29.0234 15.6905ZM10.9767 15.6905C11.5884 16.3021 12.4317 16.5305 13.75 16.6155C13.7367 15.6385 13.3425 14.7053 12.6515 14.0145C11.9604 13.3238 11.027 12.9301 10.05 12.9171C10.1367 14.2338 10.365 15.0788 10.9767 15.6905Z" fill="#005B66"/>
            <path fill-rule="evenodd" clip-rule="evenodd" d="M10 9.58301C11.6576 9.58301 13.2473 8.92453 14.4194 7.75243C15.5915 6.58032 16.25 4.99061 16.25 3.33301H23.75C23.75 4.99061 24.4085 6.58032 25.5806 7.75243C26.7527 8.92453 28.3424 9.58301 30 9.58301V10.4163C28.3424 10.4163 26.7527 11.0748 25.5806 12.2469C24.4085 13.419 23.75 15.0087 23.75 16.6663H16.25C16.25 15.0087 15.5915 13.419 14.4194 12.2469C13.2473 11.0748 11.6576 10.4163 10 10.4163V9.58301ZM20 11.6663C20.442 11.6663 20.8659 11.4907 21.1785 11.1782C21.4911 10.8656 21.6667 10.4417 21.6667 9.99967C21.6667 9.55765 21.4911 9.13372 21.1785 8.82116C20.8659 8.5086 20.442 8.33301 20 8.33301C19.558 8.33301 19.134 8.5086 18.8215 8.82116C18.5089 9.13372 18.3333 9.55765 18.3333 9.99967C18.3333 10.4417 18.5089 10.8656 18.8215 11.1782C19.134 11.4907 19.558 11.6663 20 11.6663Z" fill="#005B66"/>
        </symbol>
        <symbol id="mega-media-icon3" viewBox="0 0 40 40" fill="none" xmlns="http://www.w3.org/2000/svg">
            <path opacity="0.5" d="M35 26.6637V16.6637C35 11.9503 35 9.59366 33.535 8.12866C32.255 6.84866 30.2917 6.68699 26.6667 6.66699H13.3333C9.70833 6.68699 7.745 6.84866 6.465 8.12866C5 9.59366 5 11.9503 5 16.6637V26.6637C5 31.3787 5 33.7353 6.465 35.2003C7.92833 36.6637 10.2867 36.6637 15 36.6637H25C29.7133 36.6637 32.0717 36.6637 33.535 35.2003C35 33.7337 35 31.3787 35 26.6637Z" fill="#005B66"/>
            <path d="M13.3334 5.83301C13.3334 5.16997 13.5968 4.53408 14.0656 4.06524C14.5344 3.5964 15.1703 3.33301 15.8334 3.33301H24.1667C24.8297 3.33301 25.4656 3.5964 25.9345 4.06524C26.4033 4.53408 26.6667 5.16997 26.6667 5.83301V7.49967C26.6667 8.16272 26.4033 8.7986 25.9345 9.26744C25.4656 9.73628 24.8297 9.99967 24.1667 9.99967H15.8334C15.1703 9.99967 14.5344 9.73628 14.0656 9.26744C13.5968 8.7986 13.3334 8.16272 13.3334 7.49967V5.83301Z" fill="#005B66"/>
            <path fill-rule="evenodd" clip-rule="evenodd" d="M10.4166 17.5C10.4166 17.1685 10.5483 16.8505 10.7827 16.6161C11.0172 16.3817 11.3351 16.25 11.6666 16.25H12.5C12.8315 16.25 13.1494 16.3817 13.3838 16.6161C13.6183 16.8505 13.75 17.1685 13.75 17.5C13.75 17.8315 13.6183 18.1495 13.3838 18.3839C13.1494 18.6183 12.8315 18.75 12.5 18.75H11.6666C11.3351 18.75 11.0172 18.6183 10.7827 18.3839C10.5483 18.1495 10.4166 17.8315 10.4166 17.5ZM16.25 17.5C16.25 17.1685 16.3817 16.8505 16.6161 16.6161C16.8505 16.3817 17.1684 16.25 17.5 16.25H28.3333C28.6648 16.25 28.9828 16.3817 29.2172 16.6161C29.4516 16.8505 29.5833 17.1685 29.5833 17.5C29.5833 17.8315 29.4516 18.1495 29.2172 18.3839C28.9828 18.6183 28.6648 18.75 28.3333 18.75H17.5C17.1684 18.75 16.8505 18.6183 16.6161 18.3839C16.3817 18.1495 16.25 17.8315 16.25 17.5ZM10.4166 23.3333C10.4166 23.0018 10.5483 22.6839 10.7827 22.4495C11.0172 22.215 11.3351 22.0833 11.6666 22.0833H12.5C12.8315 22.0833 13.1494 22.215 13.3838 22.4495C13.6183 22.6839 13.75 23.0018 13.75 23.3333C13.75 23.6649 13.6183 23.9828 13.3838 24.2172C13.1494 24.4516 12.8315 24.5833 12.5 24.5833H11.6666C11.3351 24.5833 11.0172 24.4516 10.7827 24.2172C10.5483 23.9828 10.4166 23.6649 10.4166 23.3333ZM16.25 23.3333C16.25 23.0018 16.3817 22.6839 16.6161 22.4495C16.8505 22.215 17.1684 22.0833 17.5 22.0833H28.3333C28.6648 22.0833 28.9828 22.215 29.2172 22.4495C29.4516 22.6839 29.5833 23.0018 29.5833 23.3333C29.5833 23.6649 29.4516 23.9828 29.2172 24.2172C28.9828 24.4516 28.6648 24.5833 28.3333 24.5833H17.5C17.1684 24.5833 16.8505 24.4516 16.6161 24.2172C16.3817 23.9828 16.25 23.6649 16.25 23.3333ZM10.4166 29.1667C10.4166 28.8351 10.5483 28.5172 10.7827 28.2828C11.0172 28.0484 11.3351 27.9167 11.6666 27.9167H12.5C12.8315 27.9167 13.1494 28.0484 13.3838 28.2828C13.6183 28.5172 13.75 28.8351 13.75 29.1667C13.75 29.4982 13.6183 29.8161 13.3838 30.0506C13.1494 30.285 12.8315 30.4167 12.5 30.4167H11.6666C11.3351 30.4167 11.0172 30.285 10.7827 30.0506C10.5483 29.8161 10.4166 29.4982 10.4166 29.1667ZM16.25 29.1667C16.25 28.8351 16.3817 28.5172 16.6161 28.2828C16.8505 28.0484 17.1684 27.9167 17.5 27.9167H28.3333C28.6648 27.9167 28.9828 28.0484 29.2172 28.2828C29.4516 28.5172 29.5833 28.8351 29.5833 29.1667C29.5833 29.4982 29.4516 29.8161 29.2172 30.0506C28.9828 30.285 28.6648 30.4167 28.3333 30.4167H17.5C17.1684 30.4167 16.8505 30.285 16.6161 30.0506C16.3817 29.8161 16.25 29.4982 16.25 29.1667Z" fill="#005B66"/>
        </symbol>
        <symbol id="mega-media-icon4" viewBox="0 0 41 40" fill="none" xmlns="http://www.w3.org/2000/svg">
            <path opacity="0.5" d="M10.9334 35.6468H10.5001C8.92841 35.6468 8.14342 35.6468 7.65508 35.1584C7.16675 34.6734 7.16675 33.8868 7.16675 32.3151V30.4618C7.16675 29.5984 7.16675 29.1668 7.38841 28.7801C7.61008 28.3951 7.94508 28.2001 8.61508 27.8101C13.0251 25.2451 19.2867 23.8018 23.4651 26.2934C23.7451 26.4618 23.9984 26.6651 24.2151 26.9068C24.4389 27.1521 24.6113 27.4398 24.7222 27.7528C24.833 28.0658 24.8801 28.3979 24.8605 28.7294C24.8409 29.0609 24.7551 29.3852 24.6082 29.683C24.4613 29.9808 24.2562 30.2462 24.0051 30.4634C23.8048 30.6538 23.5602 30.7913 23.2934 30.8634C23.4934 30.8401 23.6851 30.8134 23.8684 30.7851C25.3867 30.5434 26.6617 29.7301 27.8284 28.8484L30.8417 26.5734C31.3793 26.1824 32.027 25.9718 32.6917 25.9718C33.3565 25.9718 34.0042 26.1824 34.5417 26.5734C35.4967 27.2951 35.7901 28.4834 35.1851 29.4534C34.4801 30.5834 33.4867 32.0284 32.5334 32.9118C31.5784 33.7951 30.1567 34.5851 28.9967 35.1451C27.7101 35.7668 26.2901 36.1234 24.8451 36.3584C21.9151 36.8318 18.8617 36.7584 15.9617 36.1618C14.3072 35.8216 12.6225 35.6479 10.9334 35.6468Z" fill="#005B66"/>
            <path d="M18.6016 5.60467C19.4466 4.08967 19.8682 3.33301 20.4999 3.33301C21.1316 3.33301 21.5532 4.08967 22.3982 5.60467L22.6149 5.99634C22.8566 6.42801 22.9766 6.64301 23.1632 6.78467C23.3499 6.92634 23.5833 6.97967 24.0499 7.08467L24.4732 7.18134C26.1132 7.55134 26.9333 7.73801 27.1283 8.36467C27.3232 8.99134 26.7649 9.64634 25.6466 10.953L25.3566 11.2913C25.0399 11.663 24.8816 11.848 24.8099 12.078C24.7383 12.308 24.7616 12.5563 24.8099 13.0513L24.8533 13.5013C25.0233 15.2463 25.1066 16.118 24.5966 16.5063C24.0866 16.8947 23.3183 16.5397 21.7833 15.833L21.3849 15.6497C20.9499 15.4497 20.7316 15.3497 20.4999 15.3497C20.2682 15.3497 20.0499 15.4497 19.6149 15.6497L19.2166 15.833C17.6832 16.5413 16.9132 16.8947 16.4032 16.5063C15.8932 16.118 15.9766 15.2463 16.1466 13.503L16.1899 13.0513C16.2382 12.5563 16.2616 12.308 16.1899 12.078C16.1182 11.848 15.9599 11.6613 15.6433 11.2913L15.3532 10.953C14.2366 9.64634 13.6766 8.99134 13.8716 8.36467C14.0666 7.73801 14.8866 7.55134 16.5266 7.18134L16.9499 7.08467C17.4166 6.97967 17.6499 6.92634 17.8366 6.78467C18.0233 6.64301 18.1432 6.42801 18.3832 5.99634L18.6016 5.60467ZM32.8832 12.803C33.3066 12.0447 33.5166 11.6663 33.8333 11.6663C34.1499 11.6663 34.3599 12.0447 34.7832 12.803L34.8916 12.998C35.0116 13.2147 35.0716 13.3213 35.1649 13.393C35.2582 13.463 35.3749 13.4897 35.6082 13.543L35.8199 13.5897C36.6399 13.7763 37.0499 13.868 37.1466 14.183C37.2449 14.4963 36.9649 14.823 36.4066 15.4763L36.2616 15.6447C36.1032 15.8313 36.0232 15.9247 35.9882 16.0397C35.9516 16.153 35.9649 16.278 35.9882 16.5263L36.0099 16.7513C36.0933 17.623 36.1366 18.0597 35.8816 18.253C35.6266 18.4463 35.2432 18.2697 34.4749 17.9163L34.2749 17.8247C34.0582 17.7247 33.9482 17.6747 33.8333 17.6747C33.7166 17.6747 33.6082 17.7247 33.3899 17.8247L33.1916 17.9163C32.4249 18.2697 32.0416 18.4463 31.7849 18.253C31.5299 18.0597 31.5716 17.623 31.6566 16.7513L31.6783 16.5263C31.7016 16.2763 31.7149 16.153 31.6783 16.0397C31.6433 15.923 31.5632 15.8313 31.4049 15.6447L31.2599 15.4763C30.7016 14.823 30.4216 14.4963 30.5199 14.183C30.6166 13.868 31.0266 13.7763 31.8466 13.5897L32.0582 13.543C32.2916 13.4897 32.4082 13.463 32.5016 13.393C32.5949 13.3213 32.6549 13.213 32.7749 12.998L32.8832 12.803ZM6.21658 12.803C6.64158 12.0447 6.84992 11.6663 7.16658 11.6663C7.48325 11.6663 7.69325 12.0447 8.11658 12.803L8.22492 12.998C8.34492 13.2147 8.40492 13.3213 8.49825 13.393C8.59158 13.463 8.70825 13.4897 8.94158 13.543L9.15325 13.5897C9.97325 13.7763 10.3832 13.868 10.4816 14.183C10.5782 14.4963 10.2982 14.823 9.73992 15.4763L9.59492 15.6447C9.43658 15.8313 9.35658 15.9247 9.32158 16.0397C9.28492 16.153 9.29825 16.278 9.32158 16.5263L9.34325 16.7513C9.42658 17.623 9.46992 18.0597 9.21492 18.253C8.95992 18.4463 8.57492 18.2697 7.80825 17.9163L7.60825 17.8247C7.39158 17.7247 7.28158 17.6747 7.16658 17.6747C7.04992 17.6747 6.94158 17.7247 6.72325 17.8247L6.52492 17.9163C5.75825 18.2697 5.37492 18.4463 5.11825 18.253C4.86325 18.0597 4.90492 17.623 4.98992 16.7513L5.01158 16.5263C5.03492 16.2763 5.04825 16.153 5.01158 16.0397C4.97658 15.923 4.89658 15.8313 4.73825 15.6447L4.59325 15.4763C4.03492 14.823 3.75492 14.4963 3.85158 14.183C3.94992 13.868 4.35992 13.7763 5.17992 13.5897L5.39158 13.543C5.62492 13.4897 5.74158 13.463 5.83492 13.393C5.92825 13.3213 5.98825 13.213 6.10825 12.998L6.21658 12.803Z" fill="#005B66"/>
        </symbol>
        <symbol id="mega-media-icon5" viewBox="0 0 41 40" fill="none" xmlns="http://www.w3.org/2000/svg">
            <path fill-rule="evenodd" clip-rule="evenodd" d="M19.6666 34.9998H21.3333C27.6183 34.9998 30.7616 34.9998 32.7132 33.0464C34.6666 31.0948 34.6666 27.9514 34.6666 21.6664V11.6631C34.4249 11.6664 34.0833 11.6664 33.8333 11.6664H7.16659C6.91659 11.6664 6.57492 11.6664 6.33325 11.6631V21.6664C6.33325 27.9514 6.33325 31.0948 8.28659 33.0464C10.2383 34.9998 13.3816 34.9998 19.6666 34.9998ZM25.5999 19.1664C25.7094 19.0439 25.7936 18.9009 25.8478 18.7458C25.902 18.5907 25.9251 18.4264 25.9158 18.2624C25.9065 18.0983 25.865 17.9377 25.7937 17.7897C25.7223 17.6417 25.6225 17.5092 25.4999 17.3998C25.3774 17.2903 25.2344 17.2061 25.0793 17.1519C24.9242 17.0977 24.7599 17.0746 24.5959 17.0839C24.4318 17.0931 24.2712 17.1347 24.1232 17.206C23.9752 17.2774 23.8427 17.3772 23.7333 17.4998L18.7149 23.1231L17.2649 21.4998C17.0433 21.2549 16.7338 21.1077 16.404 21.0902C16.0742 21.0728 15.7509 21.1866 15.5047 21.4068C15.2586 21.627 15.1096 21.9356 15.0902 22.2653C15.0709 22.595 15.1828 22.919 15.4016 23.1664L17.7816 25.8331C17.8988 25.9644 18.0425 26.0695 18.2032 26.1415C18.3639 26.2135 18.538 26.2507 18.7141 26.2507C18.8902 26.2507 19.0642 26.2135 19.2249 26.1415C19.3856 26.0695 19.5293 25.9644 19.6466 25.8331L25.5999 19.1664Z" fill="#005B66"/>
            <path opacity="0.5" d="M3.83325 8.33333C3.83325 6.76167 3.83325 5.97667 4.32159 5.48833C4.80992 5 5.59492 5 7.16659 5H33.8333C35.4049 5 36.1899 5 36.6783 5.48833C37.1666 5.97667 37.1666 6.76167 37.1666 8.33333C37.1666 9.905 37.1666 10.69 36.6783 11.1783C36.1899 11.6667 35.4049 11.6667 33.8333 11.6667H7.16659C5.59492 11.6667 4.80992 11.6667 4.32159 11.1783C3.83325 10.69 3.83325 9.905 3.83325 8.33333Z" fill="#005B66"/>
        </symbol>
        <symbol id="mega-media-icon6" viewBox="0 0 41 40" fill="none" xmlns="http://www.w3.org/2000/svg">
            <path opacity="0.5" d="M23.2157 34.1197L22.3123 35.6463C21.5073 37.0063 19.4957 37.0063 18.689 35.6463L17.7857 34.1197C17.0857 32.9363 16.7357 32.343 16.1723 32.0163C15.609 31.688 14.9007 31.6763 13.484 31.6513C11.3907 31.6163 10.079 31.488 8.97898 31.0313C7.96793 30.6126 7.04926 29.9987 6.27543 29.2249C5.50161 28.4511 4.88777 27.5324 4.46898 26.5213C3.83398 24.9913 3.83398 23.0497 3.83398 19.1663V17.4997C3.83398 12.0447 3.83398 9.31634 5.06232 7.31301C5.74905 6.19167 6.6914 5.24876 7.81232 4.56134C9.81732 3.33301 12.5473 3.33301 18.0007 3.33301H23.0007C28.4557 3.33301 31.184 3.33301 33.189 4.56134C34.3097 5.24828 35.252 6.19061 35.939 7.31134C37.1673 9.31634 37.1673 12.0463 37.1673 17.4997V19.1663C37.1673 23.0497 37.1673 24.9913 36.534 26.5213C36.115 27.5326 35.5009 28.4513 34.7268 29.2251C33.9527 29.999 33.0337 30.6127 32.0223 31.0313C30.9223 31.488 29.6107 31.6147 27.5173 31.6513C26.1007 31.6763 25.3923 31.688 24.829 32.0163C24.2657 32.343 23.9157 32.9347 23.2157 34.1197Z" fill="#005B66"/>
            <path d="M28.8327 18.3337C28.8327 18.7757 28.6571 19.1996 28.3445 19.5122C28.032 19.8247 27.608 20.0003 27.166 20.0003C26.724 20.0003 26.3001 19.8247 25.9875 19.5122C25.6749 19.1996 25.4993 18.7757 25.4993 18.3337C25.4993 17.8916 25.6749 17.4677 25.9875 17.1551C26.3001 16.8426 26.724 16.667 27.166 16.667C27.608 16.667 28.032 16.8426 28.3445 17.1551C28.6571 17.4677 28.8327 17.8916 28.8327 18.3337ZM22.166 18.3337C22.166 18.7757 21.9904 19.1996 21.6779 19.5122C21.3653 19.8247 20.9414 20.0003 20.4993 20.0003C20.0573 20.0003 19.6334 19.8247 19.3208 19.5122C19.0083 19.1996 18.8327 18.7757 18.8327 18.3337C18.8327 17.8916 19.0083 17.4677 19.3208 17.1551C19.6334 16.8426 20.0573 16.667 20.4993 16.667C20.9414 16.667 21.3653 16.8426 21.6779 17.1551C21.9904 17.4677 22.166 17.8916 22.166 18.3337ZM15.4993 18.3337C15.4993 18.7757 15.3238 19.1996 15.0112 19.5122C14.6986 19.8247 14.2747 20.0003 13.8327 20.0003C13.3907 20.0003 12.9667 19.8247 12.6542 19.5122C12.3416 19.1996 12.166 18.7757 12.166 18.3337C12.166 17.8916 12.3416 17.4677 12.6542 17.1551C12.9667 16.8426 13.3907 16.667 13.8327 16.667C14.2747 16.667 14.6986 16.8426 15.0112 17.1551C15.3238 17.4677 15.4993 17.8916 15.4993 18.3337Z" fill="#005B66"/>
        </symbol>
        <symbol id="mega-social-icon1" viewBox="0 0 40 40" fill="none" xmlns="http://www.w3.org/2000/svg">
            <path opacity="0.5" d="M3.33325 19.9997C3.33325 12.143 3.33325 8.21467 5.77325 5.77301C8.21659 3.33301 12.1433 3.33301 19.9999 3.33301C27.8566 3.33301 31.7849 3.33301 34.2249 5.77301C36.6666 8.21634 36.6666 12.143 36.6666 19.9997C36.6666 27.8563 36.6666 31.7847 34.2249 34.2247C31.7866 36.6663 27.8566 36.6663 19.9999 36.6663C12.1433 36.6663 8.21492 36.6663 5.77325 34.2247C3.33325 31.7863 3.33325 27.8563 3.33325 19.9997Z" fill="#005B66"/>
            <path d="M24.1666 17.917C23.8351 17.917 23.5171 17.7853 23.2827 17.5509C23.0483 17.3165 22.9166 16.9985 22.9166 16.667C22.9166 16.3355 23.0483 16.0175 23.2827 15.7831C23.5171 15.5487 23.8351 15.417 24.1666 15.417H28.3332C28.6648 15.417 28.9827 15.5487 29.2171 15.7831C29.4515 16.0175 29.5832 16.3355 29.5832 16.667V20.8337C29.5832 21.1652 29.4515 21.4831 29.2171 21.7175C28.9827 21.952 28.6648 22.0837 28.3332 22.0837C28.0017 22.0837 27.6838 21.952 27.4494 21.7175C27.2149 21.4831 27.0832 21.1652 27.0832 20.8337V19.6837L23.7282 23.0387C23.1813 23.5852 22.4398 23.8922 21.6666 23.8922C20.8934 23.8922 20.1518 23.5852 19.6049 23.0387L16.9616 20.3953C16.9229 20.3565 16.8769 20.3257 16.8263 20.3047C16.7756 20.2837 16.7214 20.2729 16.6666 20.2729C16.6118 20.2729 16.5575 20.2837 16.5069 20.3047C16.4563 20.3257 16.4103 20.3565 16.3716 20.3953L12.5499 24.217C12.3129 24.4378 11.9995 24.558 11.6757 24.5523C11.3519 24.5466 11.0429 24.4154 10.8139 24.1864C10.5848 23.9573 10.4537 23.6484 10.4479 23.3245C10.4422 23.0007 10.5624 22.6873 10.7832 22.4503L14.6049 18.6287C15.1518 18.0821 15.8934 17.7751 16.6666 17.7751C17.4398 17.7751 18.1813 18.0821 18.7282 18.6287L21.3716 21.272C21.4103 21.3108 21.4563 21.3416 21.5069 21.3626C21.5575 21.3836 21.6118 21.3944 21.6666 21.3944C21.7214 21.3944 21.7756 21.3836 21.8263 21.3626C21.8769 21.3416 21.9229 21.3108 21.9616 21.272L25.3149 17.917H24.1666Z" fill="#005B66"/>
        </symbol>
        <symbol id="mega-social-icon2" viewBox="0 0 40 40" fill="none" xmlns="http://www.w3.org/2000/svg">
            <path d="M11.5666 3.33301C12.2599 3.33301 12.8216 3.87301 12.8216 4.53967V6.97301C13.9349 6.95301 15.1833 6.95301 16.5883 6.95301H23.2799C24.6833 6.95301 25.9316 6.95301 27.0449 6.97467V4.54134C27.0449 3.87467 27.6066 3.33301 28.2999 3.33301C28.9932 3.33301 29.5549 3.87301 29.5549 4.53967V7.08301C31.9633 7.26801 33.5449 7.72301 34.7049 8.84134C35.8683 9.95801 36.3416 11.478 36.5333 13.7947L36.6666 14.9997H3.33325V13.793C3.52659 11.4763 3.99992 9.95634 5.16159 8.83967C6.32325 7.72301 7.90325 7.26634 10.3116 7.08134V4.53967C10.3116 3.87301 10.8733 3.33301 11.5666 3.33301Z" fill="#005B66"/>
            <path opacity="0.5" d="M36.6666 23.3333V20C36.6666 18.6017 36.6599 16.1083 36.6383 15H3.34993C3.32826 16.1083 3.33326 18.6017 3.33326 20V23.3333C3.33326 29.6183 3.33326 32.7617 5.2866 34.7133C7.23826 36.6667 10.3799 36.6667 16.6666 36.6667H23.3333C29.6166 36.6667 32.7599 36.6667 34.7133 34.7133C36.6666 32.7633 36.6666 29.62 36.6666 23.3333Z" fill="#005B66"/>
            <path d="M30 28.3333C30 28.7754 29.8244 29.1993 29.5118 29.5118C29.1993 29.8244 28.7754 30 28.3333 30C27.8913 30 27.4674 29.8244 27.1548 29.5118C26.8423 29.1993 26.6667 28.7754 26.6667 28.3333C26.6667 27.8913 26.8423 27.4674 27.1548 27.1548C27.4674 26.8423 27.8913 26.6667 28.3333 26.6667C28.7754 26.6667 29.1993 26.8423 29.5118 27.1548C29.8244 27.4674 30 27.8913 30 28.3333ZM30 21.6667C30 22.1087 29.8244 22.5326 29.5118 22.8452C29.1993 23.1577 28.7754 23.3333 28.3333 23.3333C27.8913 23.3333 27.4674 23.1577 27.1548 22.8452C26.8423 22.5326 26.6667 22.1087 26.6667 21.6667C26.6667 21.2246 26.8423 20.8007 27.1548 20.4882C27.4674 20.1756 27.8913 20 28.3333 20C28.7754 20 29.1993 20.1756 29.5118 20.4882C29.8244 20.8007 30 21.2246 30 21.6667ZM21.6667 28.3333C21.6667 28.7754 21.4911 29.1993 21.1785 29.5118C20.8659 29.8244 20.442 30 20 30C19.558 30 19.134 29.8244 18.8215 29.5118C18.5089 29.1993 18.3333 28.7754 18.3333 28.3333C18.3333 27.8913 18.5089 27.4674 18.8215 27.1548C19.134 26.8423 19.558 26.6667 20 26.6667C20.442 26.6667 20.8659 26.8423 21.1785 27.1548C21.4911 27.4674 21.6667 27.8913 21.6667 28.3333ZM21.6667 21.6667C21.6667 22.1087 21.4911 22.5326 21.1785 22.8452C20.8659 23.1577 20.442 23.3333 20 23.3333C19.558 23.3333 19.134 23.1577 18.8215 22.8452C18.5089 22.5326 18.3333 22.1087 18.3333 21.6667C18.3333 21.2246 18.5089 20.8007 18.8215 20.4882C19.134 20.1756 19.558 20 20 20C20.442 20 20.8659 20.1756 21.1785 20.4882C21.4911 20.8007 21.6667 21.2246 21.6667 21.6667ZM13.3333 28.3333C13.3333 28.7754 13.1577 29.1993 12.8452 29.5118C12.5326 29.8244 12.1087 30 11.6667 30C11.2246 30 10.8007 29.8244 10.4882 29.5118C10.1756 29.1993 10 28.7754 10 28.3333C10 27.8913 10.1756 27.4674 10.4882 27.1548C10.8007 26.8423 11.2246 26.6667 11.6667 26.6667C12.1087 26.6667 12.5326 26.8423 12.8452 27.1548C13.1577 27.4674 13.3333 27.8913 13.3333 28.3333ZM13.3333 21.6667C13.3333 22.1087 13.1577 22.5326 12.8452 22.8452C12.5326 23.1577 12.1087 23.3333 11.6667 23.3333C11.2246 23.3333 10.8007 23.1577 10.4882 22.8452C10.1756 22.5326 10 22.1087 10 21.6667C10 21.2246 10.1756 20.8007 10.4882 20.4882C10.8007 20.1756 11.2246 20 11.6667 20C12.1087 20 12.5326 20.1756 12.8452 20.4882C13.1577 20.8007 13.3333 21.2246 13.3333 21.6667Z" fill="#005B66"/>
        </symbol>
        <symbol id="mega-social-icon3" viewBox="0 0 40 40" fill="none" xmlns="http://www.w3.org/2000/svg">
            <path opacity="0.5" d="M36.6667 19.9997C36.6667 29.2047 29.205 36.6663 20 36.6663C10.795 36.6663 3.33337 29.2047 3.33337 19.9997C3.33337 10.7947 10.795 3.33301 20 3.33301C29.205 3.33301 36.6667 10.7947 36.6667 19.9997Z" fill="#005B66"/>
            <path d="M17.3549 14.163L17.6283 13.673C18.6833 11.7797 19.2116 10.833 19.9999 10.833C20.7883 10.833 21.3166 11.7797 22.3716 13.673L22.6449 14.163C22.9449 14.7013 23.0949 14.9697 23.3283 15.1463C23.5616 15.3247 23.8549 15.3913 24.4366 15.523L24.9666 15.643C27.0166 16.1063 28.0416 16.338 28.2849 17.123C28.5299 17.9063 27.8299 18.723 26.4333 20.358L26.0716 20.7813C25.6749 21.2447 25.4766 21.478 25.3883 21.7647C25.2966 22.0513 25.3266 22.3613 25.3883 22.9813L25.4416 23.5447C25.6533 25.7247 25.7583 26.8147 25.1199 27.2997C24.4816 27.783 23.5233 27.343 21.6033 26.4597L21.1066 26.2297C20.5616 25.9797 20.2899 25.853 19.9999 25.853C19.7116 25.853 19.4383 25.9797 18.8933 26.2297L18.3966 26.4597C16.4766 27.343 15.5183 27.7847 14.8799 27.2997C14.2416 26.8163 14.3466 25.7247 14.5583 23.5447L14.6116 22.9813C14.6733 22.3613 14.7033 22.0513 14.6116 21.7647C14.5233 21.478 14.3249 21.2447 13.9283 20.7813L13.5666 20.358C12.1699 18.7247 11.4699 17.908 11.7149 17.123C11.9583 16.3397 12.9816 16.1063 15.0316 15.643L15.5633 15.523C16.1466 15.3897 16.4366 15.3247 16.6716 15.148C16.9049 14.9697 17.0549 14.6997 17.3549 14.163Z" fill="#005B66"/>
        </symbol>
        <symbol id="mega-social-icon4" viewBox="0 0 41 40" fill="none" xmlns="http://www.w3.org/2000/svg">
            <path d="M33.8333 3.33301H23.8333C21.9924 3.33301 20.5 4.82539 20.5 6.66634V16.6663C20.5 18.5073 21.9924 19.9997 23.8333 19.9997H33.8333C35.6743 19.9997 37.1667 18.5073 37.1667 16.6663V6.66634C37.1667 4.82539 35.6743 3.33301 33.8333 3.33301Z" fill="#005B66"/>
            <path opacity="0.7" d="M20.5001 11.667H18.8334C15.6901 11.667 14.1201 11.667 13.1434 12.6437C12.1667 13.6203 12.1667 15.1903 12.1667 18.3337V21.667C12.1667 24.8103 12.1667 26.3803 13.1434 27.357C14.1201 28.3337 15.6901 28.3337 18.8334 28.3337H22.1667C25.3101 28.3337 26.8801 28.3337 27.8567 27.357C28.8334 26.3803 28.8334 24.8103 28.8334 21.667V20.0003H27.1667C24.0234 20.0003 22.4534 20.0003 21.4767 19.0237C20.5001 18.047 20.5001 16.477 20.5001 13.3337V11.667Z" fill="#005B66"/>
            <path opacity="0.4" d="M12.1666 20V21.6667C12.1666 24.81 12.1666 26.38 13.1433 27.3567C14.1199 28.3333 15.6899 28.3333 18.8333 28.3333H20.4999V30C20.4999 33.1433 20.4999 34.7133 19.5233 35.69C18.5466 36.6667 16.9766 36.6667 13.8333 36.6667H10.4999C7.35659 36.6667 5.78659 36.6667 4.80992 35.69C3.83325 34.7133 3.83325 33.1433 3.83325 30V26.6667C3.83325 23.5233 3.83325 21.9533 4.80992 20.9767C5.78659 20 7.35659 20 10.4999 20H12.1666Z" fill="#005B66"/>
        </symbol>
        <symbol id="mega-social-icon5" viewBox="0 0 41 40" fill="none" xmlns="http://www.w3.org/2000/svg">
            <path opacity="0.5" fill-rule="evenodd" clip-rule="evenodd" d="M6.27325 5.77301C3.83325 8.21634 3.83325 12.143 3.83325 19.9997C3.83325 27.8563 3.83325 31.7847 6.27325 34.2247C8.71659 36.6663 12.6433 36.6663 20.4999 36.6663C28.3566 36.6663 32.2849 36.6663 34.7249 34.2247C37.1666 31.7863 37.1666 27.8563 37.1666 19.9997C37.1666 12.143 37.1666 8.21467 34.7249 5.77301C32.2866 3.33301 28.3566 3.33301 20.4999 3.33301C12.6433 3.33301 8.71492 3.33301 6.27325 5.77301Z" fill="#005B66"/>
            <path d="M14.6733 21.9617C14.2057 21.4653 13.5608 21.1739 12.8792 21.1511C12.1977 21.1283 11.5347 21.3759 11.035 21.84L9.68501 23.095C9.44189 23.3207 9.11909 23.4405 8.78762 23.4281C8.45615 23.4158 8.14316 23.2723 7.91751 23.0292C7.69185 22.7861 7.57202 22.4633 7.58436 22.1318C7.59671 21.8003 7.74023 21.4873 7.98334 21.2617L9.33334 20.0083C10.3166 19.0948 11.6211 18.6072 12.9625 18.6519C14.3038 18.6965 15.5731 19.2698 16.4933 20.2467L20.905 24.93C21.128 25.1666 21.4302 25.313 21.7541 25.3413C22.0781 25.3696 22.4011 25.2778 22.6617 25.0833C23.6302 24.3608 24.8233 24.0047 26.0294 24.0782C27.2354 24.1518 28.3765 24.6502 29.25 25.485L33.03 29.0967C33.2593 29.328 33.3892 29.6396 33.3922 29.9652C33.3951 30.2909 33.2709 30.6048 33.0459 30.8403C32.8209 31.0757 32.5129 31.214 32.1874 31.2258C31.862 31.2376 31.5448 31.1219 31.3033 30.9033L27.5233 27.2933C27.077 26.8667 26.4939 26.612 25.8775 26.5745C25.2612 26.5369 24.6515 26.719 24.1567 27.0883C23.4042 27.6497 22.4716 27.9147 21.5364 27.833C20.6012 27.7512 19.7287 27.3284 19.085 26.645L14.6733 21.9617ZM30.5 13.3333C30.5 14.2174 30.1488 15.0652 29.5237 15.6904C28.8986 16.3155 28.0507 16.6667 27.1667 16.6667C26.2826 16.6667 25.4348 16.3155 24.8097 15.6904C24.1845 15.0652 23.8333 14.2174 23.8333 13.3333C23.8333 12.4493 24.1845 11.6014 24.8097 10.9763C25.4348 10.3512 26.2826 10 27.1667 10C28.0507 10 28.8986 10.3512 29.5237 10.9763C30.1488 11.6014 30.5 12.4493 30.5 13.3333Z" fill="#005B66"/>
        </symbol>
        <symbol id="mega-social-icon6" viewBox="0 0 41 40" fill="none" xmlns="http://www.w3.org/2000/svg">
            <path d="M17.3267 3.33967C11.5367 3.38467 8.36005 3.68634 6.27338 5.77301C4.84505 7.20301 4.25171 9.14301 4.00671 12.083H11.4967L17.3267 3.33967ZM36.9934 12.083C36.7467 9.14301 36.155 7.20301 34.7267 5.77301C33.73 4.77801 32.4867 4.18967 30.83 3.83967L25.335 12.083H36.9934ZM28.0667 3.47967C26.05 3.33301 23.575 3.33301 20.5 3.33301H20.3334L14.5 12.083H22.3284L28.0667 3.47967Z" fill="#005B66"/>
            <path opacity="0.5" d="M3.87671 14.583C3.83337 16.148 3.83337 17.938 3.83337 19.9997C3.83337 27.8563 3.83337 31.7847 6.27337 34.2247C8.71671 36.6663 12.6434 36.6663 20.5 36.6663C28.3567 36.6663 32.285 36.6663 34.725 34.2247C37.1667 31.7863 37.1667 27.8563 37.1667 19.9997C37.1667 17.938 37.1667 16.148 37.1234 14.583H3.87671Z" fill="#005B66"/>
        </symbol>
    </defs>
</svg>