<svg width="1139" height="406" viewBox="0 0 1139 406" fill="none" xmlns="http://www.w3.org/2000/svg">
<path d="M868.478 105.045C868.478 106.259 867.494 107.244 866.28 107.244C865.066 107.244 864.082 106.259 864.082 105.045C864.082 103.83 865.066 102.846 866.28 102.846C867.494 102.846 868.478 103.83 868.478 105.045Z" fill="url(#paint0_linear_842_39407)"/>
<path d="M868.478 127.913C868.478 129.127 867.494 130.112 866.28 130.112C865.066 130.112 864.082 129.127 864.082 127.913C864.082 126.699 865.066 125.714 866.28 125.714C867.494 125.714 868.478 126.699 868.478 127.913Z" fill="url(#paint1_linear_842_39407)"/>
<path d="M866.28 152.98C865.066 152.98 864.082 151.996 864.082 150.781C864.082 149.567 865.066 148.582 866.28 148.582C867.494 148.582 868.478 149.567 868.478 150.781C868.478 151.996 867.494 152.98 866.28 152.98Z" fill="url(#paint2_linear_842_39407)"/>
<path d="M881.226 93.6115C881.226 94.8259 880.242 95.8103 879.028 95.8103C877.814 95.8103 876.83 94.8259 876.83 93.6115C876.83 92.3971 877.814 91.4127 879.028 91.4127C880.242 91.4127 881.226 92.3971 881.226 93.6115Z" fill="url(#paint3_linear_842_39407)"/>
<path d="M881.226 116.48C881.226 117.694 880.242 118.679 879.028 118.679C877.814 118.679 876.83 117.694 876.83 116.48C876.83 115.265 877.814 114.281 879.028 114.281C880.242 114.281 881.226 115.265 881.226 116.48Z" fill="url(#paint4_linear_842_39407)"/>
<path d="M879.028 141.546C877.814 141.546 876.83 140.562 876.83 139.347C876.83 138.133 877.814 137.148 879.028 137.148C880.241 137.148 881.225 138.133 881.225 139.347C881.225 140.562 880.241 141.546 879.028 141.546Z" fill="url(#paint5_linear_842_39407)"/>
<path d="M879.028 164.414C877.814 164.414 876.83 163.43 876.83 162.215C876.83 161.001 877.814 160.017 879.028 160.017C880.241 160.017 881.225 161.001 881.225 162.215C881.225 163.43 880.241 164.414 879.028 164.414Z" fill="url(#paint6_linear_842_39407)"/>
<path d="M893.973 105.045C893.973 106.259 892.989 107.244 891.775 107.244C890.561 107.244 889.577 106.259 889.577 105.045C889.577 103.83 890.561 102.846 891.775 102.846C892.989 102.846 893.973 103.83 893.973 105.045Z" fill="url(#paint7_linear_842_39407)"/>
<path d="M893.973 127.913C893.973 129.127 892.989 130.112 891.775 130.112C890.561 130.112 889.577 129.127 889.577 127.913C889.577 126.699 890.561 125.714 891.775 125.714C892.989 125.714 893.973 126.699 893.973 127.913Z" fill="url(#paint8_linear_842_39407)"/>
<path d="M891.775 152.98C890.561 152.98 889.577 151.996 889.577 150.781C889.577 149.567 890.561 148.582 891.775 148.582C892.989 148.582 893.973 149.567 893.973 150.781C893.973 151.996 892.989 152.98 891.775 152.98Z" fill="url(#paint9_linear_842_39407)"/>
<path d="M906.721 93.6115C906.721 94.8259 905.737 95.8103 904.524 95.8103C903.31 95.8103 902.326 94.8259 902.326 93.6115C902.326 92.3971 903.31 91.4127 904.524 91.4127C905.737 91.4127 906.721 92.3971 906.721 93.6115Z" fill="url(#paint10_linear_842_39407)"/>
<path d="M906.721 116.48C906.721 117.694 905.737 118.679 904.524 118.679C903.31 118.679 902.326 117.694 902.326 116.48C902.326 115.265 903.31 114.281 904.524 114.281C905.737 114.281 906.721 115.265 906.721 116.48Z" fill="url(#paint11_linear_842_39407)"/>
<path d="M904.523 141.546C903.309 141.546 902.325 140.562 902.325 139.347C902.325 138.133 903.309 137.148 904.523 137.148C905.737 137.148 906.721 138.133 906.721 139.347C906.721 140.562 905.737 141.546 904.523 141.546Z" fill="url(#paint12_linear_842_39407)"/>
<path d="M904.523 164.414C903.309 164.414 902.325 163.43 902.325 162.215C902.325 161.001 903.309 160.017 904.523 160.017C905.737 160.017 906.721 161.001 906.721 162.215C906.721 163.43 905.737 164.414 904.523 164.414Z" fill="url(#paint13_linear_842_39407)"/>
<path d="M919.469 105.045C919.469 106.259 918.485 107.244 917.271 107.244C916.057 107.244 915.073 106.259 915.073 105.045C915.073 103.83 916.057 102.846 917.271 102.846C918.485 102.846 919.469 103.83 919.469 105.045Z" fill="url(#paint14_linear_842_39407)"/>
<path d="M919.469 127.913C919.469 129.127 918.485 130.112 917.271 130.112C916.057 130.112 915.073 129.127 915.073 127.913C915.073 126.699 916.057 125.714 917.271 125.714C918.485 125.714 919.469 126.699 919.469 127.913Z" fill="url(#paint15_linear_842_39407)"/>
<path d="M917.271 152.98C916.058 152.98 915.073 151.996 915.073 150.781C915.073 149.567 916.058 148.582 917.271 148.582C918.485 148.582 919.469 149.567 919.469 150.781C919.469 151.996 918.485 152.98 917.271 152.98Z" fill="url(#paint16_linear_842_39407)"/>
<path d="M2 393.041C37.734 396.467 110.899 401.263 164.143 393.041C166.376 335.397 174.34 278.238 174.41 212.511C156.538 206.791 78.7262 210.128 42.0546 212.511L2 393.041Z" fill="url(#paint17_linear_842_39407)"/>
<path d="M174.41 195.084C148.509 191.956 47.2928 191.419 44.4341 201.786L42.0546 212.511C78.7262 210.128 156.538 206.791 174.41 212.511C174.416 206.313 174.41 201.398 174.41 195.084Z" fill="url(#paint18_linear_842_39407)"/>
<path d="M479.049 91.4127L476.368 87.8378C477.113 83.8161 477.977 74.3427 475.475 68.623C473.391 72.3468 469.936 81.2243 472.795 86.9441V116.437L473.214 159.782L475.475 393.935L652.805 406L684.519 98.5624L685.859 82.9224C685.88 82.9084 685.9 82.8944 685.921 82.8805C686.073 82.2217 686.537 79.1102 687.645 69.9635C689.075 58.1665 730.228 45.9822 750.627 41.3647L728.293 34.6618V29.7464C732.938 25.0991 726.953 10.2336 723.379 3.38184C715.518 27.3334 718.913 30.938 721.593 29.7464V34.6618L479.049 91.4127Z" fill="url(#paint19_linear_842_39407)"/>
<path fill-rule="evenodd" clip-rule="evenodd" d="M1019.52 82.4755C989.151 49.4081 754.647 49.4081 684.519 98.5624L652.805 406H1096.35L1019.52 82.4755ZM866.28 107.244C867.494 107.244 868.478 106.259 868.478 105.045C868.478 103.83 867.494 102.846 866.28 102.846C865.066 102.846 864.082 103.83 864.082 105.045C864.082 106.259 865.066 107.244 866.28 107.244ZM866.28 130.112C867.494 130.112 868.478 129.127 868.478 127.913C868.478 126.699 867.494 125.714 866.28 125.714C865.066 125.714 864.082 126.699 864.082 127.913C864.082 129.127 865.066 130.112 866.28 130.112ZM864.082 150.781C864.082 151.996 865.066 152.98 866.28 152.98C867.494 152.98 868.478 151.996 868.478 150.781C868.478 149.567 867.494 148.582 866.28 148.582C865.066 148.582 864.082 149.567 864.082 150.781ZM879.028 95.8103C880.242 95.8103 881.226 94.8259 881.226 93.6115C881.226 92.3971 880.242 91.4127 879.028 91.4127C877.814 91.4127 876.83 92.3971 876.83 93.6115C876.83 94.8259 877.814 95.8103 879.028 95.8103ZM879.028 118.679C880.242 118.679 881.226 117.694 881.226 116.48C881.226 115.265 880.242 114.281 879.028 114.281C877.814 114.281 876.83 115.265 876.83 116.48C876.83 117.694 877.814 118.679 879.028 118.679ZM876.83 139.347C876.83 140.562 877.814 141.546 879.028 141.546C880.241 141.546 881.225 140.562 881.225 139.347C881.225 138.133 880.241 137.148 879.028 137.148C877.814 137.148 876.83 138.133 876.83 139.347ZM876.83 162.215C876.83 163.43 877.814 164.414 879.028 164.414C880.241 164.414 881.225 163.43 881.225 162.215C881.225 161.001 880.241 160.017 879.028 160.017C877.814 160.017 876.83 161.001 876.83 162.215ZM891.775 107.244C892.989 107.244 893.973 106.259 893.973 105.045C893.973 103.83 892.989 102.846 891.775 102.846C890.561 102.846 889.577 103.83 889.577 105.045C889.577 106.259 890.561 107.244 891.775 107.244ZM891.775 130.112C892.989 130.112 893.973 129.127 893.973 127.913C893.973 126.699 892.989 125.714 891.775 125.714C890.561 125.714 889.577 126.699 889.577 127.913C889.577 129.127 890.561 130.112 891.775 130.112ZM889.577 150.781C889.577 151.996 890.561 152.98 891.775 152.98C892.989 152.98 893.973 151.996 893.973 150.781C893.973 149.567 892.989 148.582 891.775 148.582C890.561 148.582 889.577 149.567 889.577 150.781ZM904.524 95.8103C905.737 95.8103 906.721 94.8259 906.721 93.6115C906.721 92.3971 905.737 91.4127 904.524 91.4127C903.31 91.4127 902.326 92.3971 902.326 93.6115C902.326 94.8259 903.31 95.8103 904.524 95.8103ZM904.524 118.679C905.737 118.679 906.721 117.694 906.721 116.48C906.721 115.265 905.737 114.281 904.524 114.281C903.31 114.281 902.326 115.265 902.326 116.48C902.326 117.694 903.31 118.679 904.524 118.679ZM902.325 139.347C902.325 140.562 903.309 141.546 904.523 141.546C905.737 141.546 906.721 140.562 906.721 139.347C906.721 138.133 905.737 137.148 904.523 137.148C903.309 137.148 902.325 138.133 902.325 139.347ZM902.325 162.215C902.325 163.43 903.309 164.414 904.523 164.414C905.737 164.414 906.721 163.43 906.721 162.215C906.721 161.001 905.737 160.017 904.523 160.017C903.309 160.017 902.325 161.001 902.325 162.215ZM917.271 107.244C918.485 107.244 919.469 106.259 919.469 105.045C919.469 103.83 918.485 102.846 917.271 102.846C916.057 102.846 915.073 103.83 915.073 105.045C915.073 106.259 916.057 107.244 917.271 107.244ZM917.271 130.112C918.485 130.112 919.469 129.127 919.469 127.913C919.469 126.699 918.485 125.714 917.271 125.714C916.057 125.714 915.073 126.699 915.073 127.913C915.073 129.127 916.057 130.112 917.271 130.112ZM915.073 150.781C915.073 151.996 916.058 152.98 917.271 152.98C918.485 152.98 919.469 151.996 919.469 150.781C919.469 149.567 918.485 148.582 917.271 148.582C916.058 148.582 915.073 149.567 915.073 150.781Z" fill="url(#paint20_linear_842_39407)"/>
<path d="M1015.06 69.5167L1019.52 82.4755L1096.35 406H1137L1088.31 89.6253C1086.88 68.8911 1087.72 76.2195 1088.31 82.4755C1089.74 78.9007 1086.23 68.7719 1084.29 64.1544C1078.58 74.5215 1081.02 82.1776 1082.95 84.7098V88.2847L1012.83 64.1544L1012.94 64.4103C1012.94 64.4149 1012.94 64.4194 1012.94 64.4239C1013.71 66.3203 1014.43 68.0861 1015.06 69.5167Z" fill="url(#paint21_linear_842_39407)"/>
<path d="M685.859 82.9224L684.519 98.5624C754.647 49.4081 989.151 49.4081 1019.52 82.4755L1015.06 69.5167C962.547 25.9185 745.863 42.5162 685.921 82.8805C685.877 83.0713 685.859 83.0563 685.859 82.9224Z" fill="url(#paint22_linear_842_39407)"/>
<path d="M750.627 41.3647C730.228 45.9822 689.075 58.1665 687.645 69.9635C686.537 79.1102 686.073 82.2217 685.921 82.8805C745.863 42.5162 962.547 25.9185 1015.06 69.5167C1014.43 68.0861 1013.71 66.3203 1012.94 64.4239L1012.94 64.4103L1012.83 64.1544C1010.18 57.6097 1006.92 49.6437 1004.34 48.5144C936.89 19.0218 806.014 34.6618 750.627 41.3647Z" fill="url(#paint23_linear_842_39407)"/>
<path d="M180.67 159.782L179.777 154.866C180.968 152.781 182.546 147.895 179.33 145.036C178.139 146.972 176.025 151.649 177.097 154.866L175.753 174.975L473.214 159.782L472.795 116.437L369.613 138.78L319.139 130.289L318.692 125.821C319.586 124.331 320.747 120.012 318.246 114.649C316.608 116.884 313.868 122.246 316.012 125.821L315.566 130.289L180.67 159.782Z" fill="url(#paint24_linear_842_39407)"/>
<path fill-rule="evenodd" clip-rule="evenodd" d="M174.41 212.511C174.34 278.238 166.376 335.397 164.143 393.041L369.166 393.935H475.475L473.214 159.782L175.753 174.975L174.41 195.084C174.41 201.398 174.416 206.313 174.41 212.511ZM330.306 185.253L307.525 187.934V197.318H302.165C300.825 222.789 298.324 273.73 299.039 273.73H335.666V191.509H330.306V185.253ZM369.166 179.89L346.386 182.572V191.956H341.026C339.686 217.426 340.311 273.73 341.026 273.73H374.527V186.146H369.166V179.89ZM407.58 173.188L384.8 175.869V185.253H379.44C378.1 210.724 378.725 273.284 379.44 273.284H412.941V179.444H407.58V173.188Z" fill="url(#paint25_linear_842_39407)"/>
<path d="M307.525 187.934L330.306 185.253V191.509H335.666V273.73H299.039C298.324 273.73 300.825 222.789 302.165 197.318H307.525V187.934Z" fill="url(#paint26_linear_842_39407)"/>
<path d="M346.386 182.572L369.166 179.89V186.146H374.527V273.73H341.026C340.311 273.73 339.686 217.426 341.026 191.956H346.386V182.572Z" fill="url(#paint27_linear_842_39407)"/>
<path d="M384.8 175.869L407.58 173.188V179.444H412.941V273.284H379.44C378.725 273.284 378.1 210.724 379.44 185.253H384.8V175.869Z" fill="url(#paint28_linear_842_39407)"/>
<path d="M750.627 41.3647L728.293 34.6618V29.7464C732.938 25.0991 726.953 10.2336 723.379 3.38184C715.518 27.3334 718.913 30.938 721.593 29.7464V34.6618L479.049 91.4127L476.369 87.8378C477.113 83.8161 477.977 74.3427 475.475 68.623C473.391 72.3468 469.936 81.2243 472.795 86.9441V116.437M750.627 41.3647C730.228 45.9822 689.075 58.1665 687.645 69.9635C686.537 79.1102 686.073 82.2217 685.921 82.8805M750.627 41.3647C806.014 34.6618 936.89 19.0218 1004.34 48.5144C1006.92 49.6437 1010.18 57.6097 1012.83 64.1544M685.859 82.9224L684.519 98.5624M685.859 82.9224C685.879 82.9084 685.9 82.8944 685.921 82.8805M685.859 82.9224C685.859 83.0563 685.877 83.0713 685.921 82.8805M1015.06 69.5167L1019.52 82.4755M1015.06 69.5167C962.547 25.9185 745.863 42.5162 685.921 82.8805M1015.06 69.5167C1014.43 68.0861 1013.71 66.3203 1012.94 64.4239M684.519 98.5624C754.647 49.4081 989.151 49.4081 1019.52 82.4755M684.519 98.5624L652.805 406M1019.52 82.4755L1096.35 406M652.805 406H1096.35M652.805 406L475.475 393.935M1096.35 406H1137L1088.31 89.6253C1086.88 68.8911 1087.72 76.2195 1088.31 82.4755C1089.74 78.9007 1086.23 68.7719 1084.29 64.1544C1078.58 74.5215 1081.02 82.1776 1082.95 84.7098V88.2847L1012.83 64.1544M1012.83 64.1544L1012.94 64.4103M1012.83 64.1544C1012.87 64.2399 1012.9 64.3253 1012.94 64.4103M472.795 116.437L369.613 138.78L319.139 130.289L318.692 125.821C319.586 124.331 320.747 120.012 318.246 114.649C316.608 116.884 313.868 122.246 316.012 125.821L315.566 130.289L180.67 159.782L179.777 154.866C180.968 152.781 182.546 147.895 179.33 145.036C178.139 146.972 176.025 151.649 177.097 154.866L175.753 174.975M472.795 116.437L473.214 159.782M174.41 195.084C148.509 191.956 47.2928 191.419 44.4341 201.786L42.0546 212.511M174.41 195.084C174.41 201.398 174.416 206.313 174.41 212.511M174.41 195.084L175.753 174.975M164.143 393.041C110.899 401.263 37.734 396.467 2 393.041L42.0546 212.511M164.143 393.041C166.376 335.397 174.34 278.238 174.41 212.511M164.143 393.041L369.166 393.935H475.475M42.0546 212.511C78.7262 210.128 156.538 206.791 174.41 212.511M475.475 393.935L473.214 159.782M335.666 273.73V191.509H330.306V185.253L307.525 187.934V197.318H302.165C300.825 222.789 298.324 273.73 299.039 273.73M335.666 273.73C323.755 273.73 299.753 273.73 299.039 273.73M335.666 273.73H299.039M374.527 273.73V186.146H369.166V179.89L346.386 182.572V191.956H341.026C339.686 217.426 340.311 273.73 341.026 273.73M374.527 273.73C362.615 273.73 341.741 273.73 341.026 273.73M374.527 273.73H341.026M412.941 273.284V179.444H407.58V173.188L384.8 175.869V185.253H379.44C378.1 210.724 378.725 273.284 379.44 273.284M412.941 273.284C401.029 273.284 380.155 273.284 379.44 273.284M412.941 273.284H379.44M1012.94 64.4103L1012.94 64.4239M1012.94 64.4103C1012.94 64.4149 1012.94 64.4194 1012.94 64.4239M175.753 174.975L473.214 159.782M868.478 105.045C868.478 106.259 867.494 107.244 866.28 107.244C865.066 107.244 864.082 106.259 864.082 105.045C864.082 103.83 865.066 102.846 866.28 102.846C867.494 102.846 868.478 103.83 868.478 105.045ZM868.478 127.913C868.478 129.127 867.494 130.112 866.28 130.112C865.066 130.112 864.082 129.127 864.082 127.913C864.082 126.699 865.066 125.714 866.28 125.714C867.494 125.714 868.478 126.699 868.478 127.913ZM866.28 152.98C865.066 152.98 864.082 151.996 864.082 150.781C864.082 149.567 865.066 148.582 866.28 148.582C867.494 148.582 868.478 149.567 868.478 150.781C868.478 151.996 867.494 152.98 866.28 152.98ZM881.226 93.6115C881.226 94.8259 880.242 95.8103 879.028 95.8103C877.814 95.8103 876.83 94.8259 876.83 93.6115C876.83 92.3971 877.814 91.4127 879.028 91.4127C880.242 91.4127 881.226 92.3971 881.226 93.6115ZM881.226 116.48C881.226 117.694 880.242 118.679 879.028 118.679C877.814 118.679 876.83 117.694 876.83 116.48C876.83 115.265 877.814 114.281 879.028 114.281C880.242 114.281 881.226 115.265 881.226 116.48ZM879.028 141.546C877.814 141.546 876.83 140.562 876.83 139.347C876.83 138.133 877.814 137.148 879.028 137.148C880.241 137.148 881.225 138.133 881.225 139.347C881.225 140.562 880.241 141.546 879.028 141.546ZM879.028 164.414C877.814 164.414 876.83 163.43 876.83 162.215C876.83 161.001 877.814 160.017 879.028 160.017C880.241 160.017 881.225 161.001 881.225 162.215C881.225 163.43 880.241 164.414 879.028 164.414ZM893.973 105.045C893.973 106.259 892.989 107.244 891.775 107.244C890.561 107.244 889.577 106.259 889.577 105.045C889.577 103.83 890.561 102.846 891.775 102.846C892.989 102.846 893.973 103.83 893.973 105.045ZM893.973 127.913C893.973 129.127 892.989 130.112 891.775 130.112C890.561 130.112 889.577 129.127 889.577 127.913C889.577 126.699 890.561 125.714 891.775 125.714C892.989 125.714 893.973 126.699 893.973 127.913ZM891.775 152.98C890.561 152.98 889.577 151.996 889.577 150.781C889.577 149.567 890.561 148.582 891.775 148.582C892.989 148.582 893.973 149.567 893.973 150.781C893.973 151.996 892.989 152.98 891.775 152.98ZM906.721 93.6115C906.721 94.8259 905.737 95.8103 904.524 95.8103C903.31 95.8103 902.326 94.8259 902.326 93.6115C902.326 92.3971 903.31 91.4127 904.524 91.4127C905.737 91.4127 906.721 92.3971 906.721 93.6115ZM906.721 116.48C906.721 117.694 905.737 118.679 904.524 118.679C903.31 118.679 902.326 117.694 902.326 116.48C902.326 115.265 903.31 114.281 904.524 114.281C905.737 114.281 906.721 115.265 906.721 116.48ZM904.523 141.546C903.309 141.546 902.325 140.562 902.325 139.347C902.325 138.133 903.309 137.148 904.523 137.148C905.737 137.148 906.721 138.133 906.721 139.347C906.721 140.562 905.737 141.546 904.523 141.546ZM904.523 164.414C903.309 164.414 902.325 163.43 902.325 162.215C902.325 161.001 903.309 160.017 904.523 160.017C905.737 160.017 906.721 161.001 906.721 162.215C906.721 163.43 905.737 164.414 904.523 164.414ZM919.469 105.045C919.469 106.259 918.485 107.244 917.271 107.244C916.057 107.244 915.073 106.259 915.073 105.045C915.073 103.83 916.057 102.846 917.271 102.846C918.485 102.846 919.469 103.83 919.469 105.045ZM919.469 127.913C919.469 129.127 918.485 130.112 917.271 130.112C916.057 130.112 915.073 129.127 915.073 127.913C915.073 126.699 916.057 125.714 917.271 125.714C918.485 125.714 919.469 126.699 919.469 127.913ZM917.271 152.98C916.058 152.98 915.073 151.996 915.073 150.781C915.073 149.567 916.058 148.582 917.271 148.582C918.485 148.582 919.469 149.567 919.469 150.781C919.469 151.996 918.485 152.98 917.271 152.98Z" stroke="url(#paint29_linear_842_39407)" stroke-width="1.91723"/>
<defs>
<linearGradient id="paint0_linear_842_39407" x1="588.485" y1="47.1723" x2="589.85" y2="376.058" gradientUnits="userSpaceOnUse">
<stop stop-color="#1E724E" stop-opacity="0.03"/>
<stop offset="1" stop-color="#01331C"/>
</linearGradient>
<linearGradient id="paint1_linear_842_39407" x1="588.485" y1="47.1723" x2="589.85" y2="376.058" gradientUnits="userSpaceOnUse">
<stop stop-color="#1E724E" stop-opacity="0.03"/>
<stop offset="1" stop-color="#01331C"/>
</linearGradient>
<linearGradient id="paint2_linear_842_39407" x1="588.485" y1="47.1723" x2="589.85" y2="376.058" gradientUnits="userSpaceOnUse">
<stop stop-color="#1E724E" stop-opacity="0.03"/>
<stop offset="1" stop-color="#01331C"/>
</linearGradient>
<linearGradient id="paint3_linear_842_39407" x1="588.485" y1="47.1723" x2="589.85" y2="376.058" gradientUnits="userSpaceOnUse">
<stop stop-color="#1E724E" stop-opacity="0.03"/>
<stop offset="1" stop-color="#01331C"/>
</linearGradient>
<linearGradient id="paint4_linear_842_39407" x1="588.485" y1="47.1723" x2="589.85" y2="376.058" gradientUnits="userSpaceOnUse">
<stop stop-color="#1E724E" stop-opacity="0.03"/>
<stop offset="1" stop-color="#01331C"/>
</linearGradient>
<linearGradient id="paint5_linear_842_39407" x1="588.485" y1="47.1723" x2="589.85" y2="376.058" gradientUnits="userSpaceOnUse">
<stop stop-color="#1E724E" stop-opacity="0.03"/>
<stop offset="1" stop-color="#01331C"/>
</linearGradient>
<linearGradient id="paint6_linear_842_39407" x1="588.485" y1="47.1723" x2="589.85" y2="376.058" gradientUnits="userSpaceOnUse">
<stop stop-color="#1E724E" stop-opacity="0.03"/>
<stop offset="1" stop-color="#01331C"/>
</linearGradient>
<linearGradient id="paint7_linear_842_39407" x1="588.485" y1="47.1723" x2="589.85" y2="376.058" gradientUnits="userSpaceOnUse">
<stop stop-color="#1E724E" stop-opacity="0.03"/>
<stop offset="1" stop-color="#01331C"/>
</linearGradient>
<linearGradient id="paint8_linear_842_39407" x1="588.485" y1="47.1723" x2="589.85" y2="376.058" gradientUnits="userSpaceOnUse">
<stop stop-color="#1E724E" stop-opacity="0.03"/>
<stop offset="1" stop-color="#01331C"/>
</linearGradient>
<linearGradient id="paint9_linear_842_39407" x1="588.485" y1="47.1723" x2="589.85" y2="376.058" gradientUnits="userSpaceOnUse">
<stop stop-color="#1E724E" stop-opacity="0.03"/>
<stop offset="1" stop-color="#01331C"/>
</linearGradient>
<linearGradient id="paint10_linear_842_39407" x1="588.485" y1="47.1723" x2="589.85" y2="376.058" gradientUnits="userSpaceOnUse">
<stop stop-color="#1E724E" stop-opacity="0.03"/>
<stop offset="1" stop-color="#01331C"/>
</linearGradient>
<linearGradient id="paint11_linear_842_39407" x1="588.485" y1="47.1723" x2="589.85" y2="376.058" gradientUnits="userSpaceOnUse">
<stop stop-color="#1E724E" stop-opacity="0.03"/>
<stop offset="1" stop-color="#01331C"/>
</linearGradient>
<linearGradient id="paint12_linear_842_39407" x1="588.485" y1="47.1723" x2="589.85" y2="376.058" gradientUnits="userSpaceOnUse">
<stop stop-color="#1E724E" stop-opacity="0.03"/>
<stop offset="1" stop-color="#01331C"/>
</linearGradient>
<linearGradient id="paint13_linear_842_39407" x1="588.485" y1="47.1723" x2="589.85" y2="376.058" gradientUnits="userSpaceOnUse">
<stop stop-color="#1E724E" stop-opacity="0.03"/>
<stop offset="1" stop-color="#01331C"/>
</linearGradient>
<linearGradient id="paint14_linear_842_39407" x1="588.485" y1="47.1723" x2="589.85" y2="376.058" gradientUnits="userSpaceOnUse">
<stop stop-color="#1E724E" stop-opacity="0.03"/>
<stop offset="1" stop-color="#01331C"/>
</linearGradient>
<linearGradient id="paint15_linear_842_39407" x1="588.485" y1="47.1723" x2="589.85" y2="376.058" gradientUnits="userSpaceOnUse">
<stop stop-color="#1E724E" stop-opacity="0.03"/>
<stop offset="1" stop-color="#01331C"/>
</linearGradient>
<linearGradient id="paint16_linear_842_39407" x1="588.485" y1="47.1723" x2="589.85" y2="376.058" gradientUnits="userSpaceOnUse">
<stop stop-color="#1E724E" stop-opacity="0.03"/>
<stop offset="1" stop-color="#01331C"/>
</linearGradient>
<linearGradient id="paint17_linear_842_39407" x1="588.485" y1="47.1723" x2="589.85" y2="376.058" gradientUnits="userSpaceOnUse">
<stop stop-color="#1E724E" stop-opacity="0.03"/>
<stop offset="1" stop-color="#01331C"/>
</linearGradient>
<linearGradient id="paint18_linear_842_39407" x1="588.485" y1="47.1723" x2="589.85" y2="376.058" gradientUnits="userSpaceOnUse">
<stop stop-color="#1E724E" stop-opacity="0.03"/>
<stop offset="1" stop-color="#01331C"/>
</linearGradient>
<linearGradient id="paint19_linear_842_39407" x1="588.485" y1="47.1723" x2="589.85" y2="376.058" gradientUnits="userSpaceOnUse">
<stop stop-color="#1E724E" stop-opacity="0.03"/>
<stop offset="1" stop-color="#01331C"/>
</linearGradient>
<linearGradient id="paint20_linear_842_39407" x1="588.485" y1="47.1723" x2="589.85" y2="376.058" gradientUnits="userSpaceOnUse">
<stop stop-color="#1E724E" stop-opacity="0.03"/>
<stop offset="1" stop-color="#01331C"/>
</linearGradient>
<linearGradient id="paint21_linear_842_39407" x1="588.485" y1="47.1723" x2="589.85" y2="376.058" gradientUnits="userSpaceOnUse">
<stop stop-color="#1E724E" stop-opacity="0.03"/>
<stop offset="1" stop-color="#01331C"/>
</linearGradient>
<linearGradient id="paint22_linear_842_39407" x1="588.485" y1="47.1723" x2="589.85" y2="376.058" gradientUnits="userSpaceOnUse">
<stop stop-color="#1E724E" stop-opacity="0.03"/>
<stop offset="1" stop-color="#01331C"/>
</linearGradient>
<linearGradient id="paint23_linear_842_39407" x1="588.485" y1="47.1723" x2="589.85" y2="376.058" gradientUnits="userSpaceOnUse">
<stop stop-color="#1E724E" stop-opacity="0.03"/>
<stop offset="1" stop-color="#01331C"/>
</linearGradient>
<linearGradient id="paint24_linear_842_39407" x1="588.485" y1="47.1723" x2="589.85" y2="376.058" gradientUnits="userSpaceOnUse">
<stop stop-color="#1E724E" stop-opacity="0.03"/>
<stop offset="1" stop-color="#01331C"/>
</linearGradient>
<linearGradient id="paint25_linear_842_39407" x1="588.485" y1="47.1723" x2="589.85" y2="376.058" gradientUnits="userSpaceOnUse">
<stop stop-color="#1E724E" stop-opacity="0.03"/>
<stop offset="1" stop-color="#01331C"/>
</linearGradient>
<linearGradient id="paint26_linear_842_39407" x1="588.485" y1="47.1723" x2="589.85" y2="376.058" gradientUnits="userSpaceOnUse">
<stop stop-color="#1E724E" stop-opacity="0.03"/>
<stop offset="1" stop-color="#01331C"/>
</linearGradient>
<linearGradient id="paint27_linear_842_39407" x1="588.485" y1="47.1723" x2="589.85" y2="376.058" gradientUnits="userSpaceOnUse">
<stop stop-color="#1E724E" stop-opacity="0.03"/>
<stop offset="1" stop-color="#01331C"/>
</linearGradient>
<linearGradient id="paint28_linear_842_39407" x1="588.485" y1="47.1723" x2="589.85" y2="376.058" gradientUnits="userSpaceOnUse">
<stop stop-color="#1E724E" stop-opacity="0.03"/>
<stop offset="1" stop-color="#01331C"/>
</linearGradient>
<linearGradient id="paint29_linear_842_39407" x1="690.772" y1="406.447" x2="690.772" y2="152.185" gradientUnits="userSpaceOnUse">
<stop stop-color="#01351D"/>
<stop offset="1" stop-color="#005132"/>
</linearGradient>
</defs>
</svg>
