<svg width="250" height="86" viewBox="0 0 250 86" fill="none" xmlns="http://www.w3.org/2000/svg">
<g id="Group">
<path id="Vector" d="M119.488 18.6478V43.5518H128.552V13.4238L119.488 18.6478Z" fill="#231F20"/>
<path id="Vector_2" d="M149.779 36.8553C145.371 36.8553 142.267 33.4273 142.267 28.4473C142.267 23.4673 145.371 20.1193 149.859 20.1193C153.043 20.1193 155.819 22.3233 156.555 25.4273L164.147 21.0993C161.859 15.8753 156.307 12.3633 149.531 12.3633C140.059 12.3633 133.203 19.1393 133.203 28.4473C133.203 37.7553 140.143 44.5313 149.615 44.5313C157.943 44.5313 164.395 39.4673 165.047 32.4473L156.555 31.4673C155.819 34.6513 153.043 36.8553 149.779 36.8553Z" fill="#231F20"/>
<path id="Vector_3" d="M105.119 18.3238V32.4478L94.7474 13.4238L85.2754 18.8918V43.5518H93.7674V24.3638L104.139 43.5518H113.607V13.4238L105.119 18.3238Z" fill="#231F20"/>
<path id="Vector_4" d="M92.7059 75.7189L87.6419 67.9629H86.3379V77.5149H87.4819V69.8429H87.5619L92.5419 77.5149H93.9299V67.9629H92.7059V75.7189Z" fill="#231F20"/>
<path id="Vector_5" d="M101.279 76.4556C101.279 76.2916 101.199 76.0476 101.199 75.8836V72.3716C101.199 72.0436 101.119 71.7196 100.955 71.3916C100.791 71.1476 100.627 70.9036 100.383 70.8196C100.139 70.6556 99.895 70.5756 99.567 70.5756C99.239 70.5756 98.915 70.4956 98.587 70.5756C98.179 70.5756 97.851 70.5756 97.527 70.6556C97.199 70.7356 96.875 70.8996 96.627 71.0636C96.379 71.2276 96.139 71.4716 95.975 71.7996C95.811 72.1276 95.731 72.5356 95.731 72.8596H96.875C96.875 72.4516 97.039 72.0436 97.363 71.7996C97.771 71.6356 98.179 71.4716 98.587 71.5556C98.751 71.5556 98.915 71.5556 99.159 71.5556C99.323 71.5556 99.487 71.6356 99.647 71.7196C99.811 71.7996 99.891 71.8836 99.975 72.0476C100.055 72.2116 100.139 72.4556 100.139 72.6196C100.139 72.7836 100.059 72.9476 99.975 73.1076C99.811 73.2716 99.647 73.3516 99.487 73.3516C99.243 73.4316 98.999 73.4316 98.751 73.5156C98.423 73.5156 98.179 73.5956 97.851 73.6796C97.523 73.7636 97.279 73.7596 96.951 73.9236C96.707 74.0036 96.463 74.0876 96.215 74.2516C95.971 74.4156 95.807 74.5796 95.643 74.8236C95.399 75.3956 95.399 76.0476 95.643 76.6996C95.723 76.9436 95.887 77.1076 96.131 77.2716C96.375 77.4356 96.619 77.5156 96.867 77.5996C97.195 77.6796 97.439 77.6796 97.767 77.6796C98.255 77.6796 98.667 77.5996 99.075 77.4356C99.483 77.2716 99.891 76.9476 100.135 76.6196C100.135 76.9476 100.215 77.1916 100.379 77.4356C100.543 77.5996 100.787 77.6796 101.115 77.6796C101.359 77.6796 101.687 77.5996 101.931 77.5156V76.6156C101.851 76.6156 101.687 76.6956 101.603 76.6956C101.363 76.6996 101.279 76.6196 101.279 76.4556ZM100.055 75.1476C100.055 75.3116 99.975 75.4756 99.975 75.6356C99.895 75.7996 99.731 75.9636 99.567 76.1236C99.403 76.2876 99.159 76.4516 98.915 76.5316C98.587 76.6116 98.263 76.6956 97.935 76.6956C97.771 76.6956 97.607 76.6956 97.447 76.6156C97.283 76.6156 97.119 76.5356 97.039 76.4516C96.875 76.3716 96.795 76.2876 96.711 76.1236C96.631 75.9596 96.631 75.7956 96.631 75.6356C96.631 75.4756 96.631 75.2276 96.711 75.0636C96.791 74.8996 96.875 74.8196 97.039 74.7356C97.203 74.6556 97.283 74.5716 97.447 74.4916C97.611 74.4116 97.775 74.4116 98.019 74.3276C98.183 74.3276 98.427 74.2476 98.591 74.2476L99.163 74.1676C99.327 74.1676 99.491 74.0876 99.651 74.0876C99.815 74.0876 99.895 74.0076 100.059 73.9236C100.055 73.9236 100.055 75.1476 100.055 75.1476Z" fill="#231F20"/>
<path id="Vector_6" d="M104.548 68.5352H103.404V70.5752H102.26V71.5552H103.404V76.0472C103.404 76.2912 103.404 76.5352 103.484 76.7832C103.564 76.9472 103.648 77.1112 103.812 77.2712C103.976 77.3512 104.14 77.4352 104.3 77.5152C104.544 77.5952 104.788 77.5952 105.036 77.5952H105.936V76.6152H105.448C105.284 76.6152 105.12 76.6152 105.04 76.6152C104.96 76.6152 104.876 76.6152 104.796 76.5352C104.716 76.4552 104.716 76.4552 104.632 76.3712C104.632 76.2912 104.632 76.1272 104.632 76.0432V71.7152H106.02V70.7352H104.632L104.548 68.5352Z" fill="#231F20"/>
<path id="Vector_7" d="M108.382 70.5752H107.238V77.5152H108.382V70.5752Z" fill="#231F20"/>
<path id="Vector_8" d="M115.568 71.4756C115.24 71.1476 114.916 70.9036 114.508 70.7396C113.608 70.3316 112.548 70.3316 111.652 70.7396C111.244 70.9036 110.916 71.1476 110.592 71.4756C110.264 71.8036 110.104 72.2116 109.94 72.6196C109.696 73.5196 109.696 74.4956 109.94 75.4756C110.104 75.8836 110.268 76.2916 110.592 76.6196C110.916 76.9476 111.244 77.2716 111.652 77.4356C112.552 77.8436 113.612 77.8436 114.508 77.4356C114.916 77.2716 115.244 76.9476 115.568 76.6196C115.892 76.2916 116.056 75.8836 116.22 75.4756C116.464 74.5756 116.464 73.5996 116.22 72.6196C116.06 72.2076 115.896 71.7996 115.568 71.4756ZM115.08 75.1476C115 75.4756 114.836 75.7196 114.592 75.9636C114.428 76.2076 114.184 76.3716 113.94 76.4516C113.696 76.5316 113.368 76.6156 113.124 76.6156C112.552 76.6156 111.98 76.3716 111.572 75.9636C111.328 75.7196 111.244 75.4756 111.084 75.1476C111.004 74.8196 110.92 74.4116 110.92 74.0036C110.92 73.5956 111 73.2676 111.084 72.8596C111.164 72.5316 111.328 72.2876 111.572 72.0436C111.736 71.7996 111.98 71.6356 112.224 71.5556C112.468 71.4756 112.796 71.3916 113.04 71.3916C113.284 71.3916 113.612 71.4716 113.856 71.5556C114.1 71.6396 114.344 71.8836 114.508 72.0436C114.752 72.2876 114.836 72.5316 114.996 72.8596C115.076 73.1876 115.16 73.5956 115.16 74.0036C115.244 74.4156 115.16 74.8236 115.08 75.1476Z" fill="#231F20"/>
<path id="Vector_9" d="M122.999 71.1471C122.835 70.9031 122.511 70.7391 122.263 70.6591C121.935 70.4951 121.527 70.4951 121.119 70.4951C120.631 70.4951 120.219 70.5751 119.811 70.8231C119.403 71.0671 119.075 71.3951 118.911 71.8031V70.7431H117.851V77.6831H118.995V73.5991C118.995 73.2711 118.995 73.0271 119.075 72.6991C119.155 72.4551 119.319 72.2111 119.483 72.0471C119.647 71.8831 119.891 71.7191 120.135 71.5591C120.379 71.4791 120.707 71.3951 121.035 71.3951C121.443 71.3951 121.771 71.4751 122.095 71.8031C122.339 72.0471 122.503 72.4551 122.503 72.8631V77.5151H123.647V72.9431C123.647 72.6151 123.647 72.2911 123.567 71.8831C123.323 71.6391 123.243 71.3911 122.999 71.1471Z" fill="#231F20"/>
<path id="Vector_10" d="M130.67 76.4551C130.67 76.2911 130.59 76.0471 130.59 75.8831V72.3711C130.59 72.0431 130.51 71.7191 130.346 71.3911C130.182 71.1471 130.018 70.9831 129.774 70.8191C129.53 70.6551 129.202 70.5751 128.958 70.5751C128.63 70.4951 128.306 70.4951 128.058 70.4951C127.65 70.4951 127.322 70.4951 126.914 70.5751C126.586 70.6551 126.262 70.8191 126.014 70.9831C125.77 71.1471 125.526 71.3911 125.362 71.7191C125.198 72.0471 125.118 72.4551 125.118 72.7791H126.262C126.262 72.3711 126.426 71.9631 126.75 71.7191C127.158 71.5551 127.566 71.3911 127.974 71.4751C128.138 71.4751 128.302 71.4751 128.546 71.4751C128.71 71.4751 128.874 71.5551 129.034 71.6391C129.198 71.7191 129.278 71.8031 129.362 71.9671C129.442 72.1311 129.526 72.3751 129.526 72.5391C129.526 72.7031 129.446 72.8671 129.362 73.0271C129.198 73.1911 129.034 73.2711 128.874 73.2711C128.63 73.3511 128.386 73.3511 128.138 73.4351C127.81 73.4351 127.566 73.5151 127.238 73.5991C126.91 73.6831 126.666 73.6791 126.338 73.8431C126.094 73.9231 125.85 74.0071 125.602 74.1711C125.358 74.3351 125.194 74.4991 125.114 74.7431C124.95 75.0711 124.87 75.3951 124.95 75.7231C124.95 76.0511 125.03 76.2951 125.114 76.6231C125.194 76.8671 125.358 77.0311 125.602 77.1951C125.846 77.3591 126.09 77.4391 126.338 77.5231C126.666 77.6031 126.91 77.6031 127.238 77.6031C127.726 77.6031 128.138 77.5231 128.546 77.3591C128.954 77.1951 129.362 76.8711 129.606 76.5431C129.606 76.8711 129.686 77.1151 129.85 77.3591C130.014 77.5231 130.258 77.6031 130.586 77.6031C130.83 77.6031 131.158 77.5231 131.402 77.4391V76.6231C131.322 76.6231 131.158 76.7031 131.074 76.7031C130.834 76.6991 130.754 76.6191 130.67 76.4551ZM129.53 75.1471C129.53 75.3111 129.45 75.4751 129.45 75.6351C129.37 75.7991 129.206 75.9631 129.042 76.1231C128.878 76.2871 128.634 76.4511 128.39 76.5311C127.902 76.6951 127.41 76.6951 126.922 76.6111C126.758 76.6111 126.594 76.5311 126.514 76.4471C126.35 76.3671 126.27 76.2831 126.186 76.1191C126.106 75.9551 126.106 75.7911 126.106 75.6311C126.106 75.4711 126.106 75.2231 126.186 75.0591C126.266 74.8951 126.35 74.8151 126.514 74.7311C126.678 74.6511 126.758 74.5671 126.922 74.4871C127.086 74.4071 127.25 74.4071 127.41 74.3231C127.574 74.3231 127.818 74.2431 127.982 74.2431L128.554 74.1631C128.718 74.1631 128.882 74.0831 129.042 74.0831C129.206 74.0831 129.286 74.0031 129.45 73.9191L129.53 75.1471Z" fill="#231F20"/>
<path id="Vector_11" d="M133.61 67.9629H132.466V77.5149H133.61V67.9629Z" fill="#231F20"/>
<path id="Vector_12" d="M140.636 67.9629H139.328V77.5149H140.636V67.9629Z" fill="#231F20"/>
<path id="Vector_13" d="M147.739 71.1471C147.575 70.9031 147.251 70.7391 147.003 70.6591C146.675 70.4951 146.267 70.4951 145.859 70.4951C145.371 70.4951 144.959 70.5751 144.551 70.8231C144.143 71.0711 143.815 71.3951 143.651 71.8031V70.7431H142.507V77.6831H143.651V73.5991C143.651 73.2711 143.651 73.0271 143.815 72.6991C143.895 72.4551 143.979 72.2111 144.223 72.0471C144.387 71.8831 144.631 71.7191 144.875 71.5591C145.119 71.4791 145.447 71.3951 145.775 71.3951C146.183 71.3951 146.511 71.4751 146.835 71.8031C147.079 72.0471 147.243 72.4551 147.243 72.8631V77.5151H148.387V72.9431C148.387 72.6151 148.387 72.2911 148.307 71.8831C148.063 71.6391 147.899 71.3911 147.739 71.1471Z" fill="#231F20"/>
<path id="Vector_14" d="M152.311 67.8838C151.823 67.8838 151.331 67.9638 150.923 68.2918C150.595 68.6198 150.435 69.1078 150.435 69.5998V70.6598H149.291V71.6398H150.435V77.5198H151.579V71.6398H152.887V70.6598H151.579V69.6798C151.579 69.4358 151.659 69.1918 151.823 69.0278C151.987 68.9478 152.231 68.8638 152.475 68.8638C152.555 68.8638 152.719 68.8638 152.803 68.8638C152.883 68.8638 153.047 68.8638 153.131 68.9438V67.9638C153.051 67.9638 152.887 67.8838 152.803 67.8838H152.311Z" fill="#231F20"/>
<path id="Vector_15" d="M159.411 71.4754C159.083 71.1474 158.759 70.9034 158.351 70.7394C157.863 70.5754 157.371 70.4114 156.883 70.4954C156.395 70.4954 155.903 70.5754 155.415 70.7394C155.007 70.9034 154.679 71.1474 154.355 71.4754C154.027 71.8034 153.867 72.2114 153.703 72.6194C153.459 73.5194 153.459 74.4954 153.703 75.4754C153.867 75.8834 154.031 76.2914 154.355 76.6194C154.599 76.9474 155.007 77.2714 155.415 77.4354C155.903 77.5994 156.395 77.6794 156.883 77.6794C157.371 77.6794 157.863 77.5994 158.351 77.4354C158.759 77.2714 159.087 76.9474 159.411 76.6194C159.735 76.2914 159.899 75.8834 160.063 75.4754C160.391 74.5754 160.391 73.5994 160.063 72.6194C159.903 72.2074 159.659 71.7994 159.411 71.4754ZM158.843 75.2314C158.763 75.5594 158.599 75.8034 158.355 76.0474C157.783 76.6994 156.803 76.8634 155.987 76.5354C155.743 76.4554 155.499 76.2914 155.251 76.0474C155.007 75.8034 154.923 75.5594 154.763 75.2314C154.763 74.8234 154.683 74.4154 154.683 74.0874C154.683 73.6794 154.763 73.3514 154.847 72.9434C154.927 72.6154 155.091 72.3714 155.335 72.1274C155.499 71.8834 155.743 71.7194 156.071 71.6394C156.559 71.3954 157.215 71.3954 157.703 71.6394C157.947 71.7194 158.191 71.9674 158.355 72.1274C158.599 72.3714 158.683 72.6154 158.843 72.9434C158.923 73.2714 159.007 73.6794 159.007 74.0874C159.003 74.4154 158.923 74.8234 158.843 75.2314Z" fill="#231F20"/>
<path id="Vector_16" d="M162.679 72.0472V70.5792H161.619V77.5192H162.763V74.4152C162.763 74.0072 162.843 73.5992 162.927 73.2712C163.007 72.9432 163.171 72.6192 163.335 72.3712C163.579 72.1272 163.823 71.9632 164.151 71.7992C164.559 71.6352 164.887 71.6352 165.295 71.6352V70.4912C164.723 70.4912 164.235 70.5712 163.743 70.8992C163.251 71.1472 162.923 71.5552 162.679 72.0472Z" fill="#231F20"/>
<path id="Vector_17" d="M175.091 70.9031C174.847 70.7391 174.603 70.5751 174.355 70.5751C174.027 70.4951 173.703 70.4951 173.455 70.4951C173.047 70.4951 172.555 70.5751 172.231 70.8231C171.823 70.9871 171.495 71.3111 171.331 71.7231C171.251 71.3151 170.923 70.9871 170.595 70.8231C170.267 70.6591 169.86 70.5791 169.452 70.5791C168.552 70.5791 167.735 70.9871 167.247 71.7231V70.6631H166.188V77.6031H167.331V73.2751C167.331 73.1111 167.331 72.9471 167.411 72.7871C167.491 72.5431 167.576 72.3791 167.74 72.2151C167.904 72.0511 168.067 71.8871 168.311 71.7271C168.555 71.5631 168.884 71.4831 169.128 71.4831C169.372 71.4831 169.535 71.4831 169.779 71.5631C169.943 71.6431 170.108 71.7271 170.188 71.8911C170.267 72.0551 170.351 72.2191 170.431 72.3791C170.511 72.5391 170.511 72.7871 170.511 73.0311V77.5231H171.655V73.1951C171.655 72.7071 171.819 72.2951 172.143 71.8871C172.471 71.5591 172.96 71.3991 173.452 71.3991C173.696 71.3991 173.939 71.3991 174.103 71.5631C174.267 71.6431 174.431 71.7271 174.511 71.8911C174.591 72.0551 174.675 72.2191 174.755 72.3791C174.755 72.5431 174.835 72.7871 174.835 72.9511V77.4431H175.979V72.3791C175.979 72.0511 175.899 71.7271 175.815 71.4791C175.415 71.3111 175.251 71.0671 175.091 70.9031Z" fill="#231F20"/>
<path id="Vector_18" d="M182.927 76.4551C182.927 76.2911 182.847 76.0471 182.847 75.8831V72.3711C182.847 72.0431 182.767 71.7191 182.603 71.3911C182.439 71.1471 182.275 70.9831 182.031 70.8191C181.787 70.6551 181.459 70.5751 181.215 70.5751C180.887 70.4951 180.563 70.4951 180.315 70.4951C179.907 70.4951 179.579 70.4951 179.255 70.5751C178.927 70.6551 178.603 70.8191 178.355 70.9831C178.111 71.1471 177.867 71.3911 177.703 71.7191C177.539 72.0471 177.459 72.4551 177.459 72.7791H178.603C178.603 72.3711 178.767 71.9631 179.091 71.7191C179.499 71.5551 179.907 71.3911 180.315 71.4751C180.479 71.4751 180.643 71.4751 180.887 71.4751C181.051 71.4751 181.215 71.5551 181.375 71.6391C181.535 71.7231 181.619 71.8831 181.703 71.9671C181.783 72.1311 181.867 72.3751 181.867 72.5391C181.867 72.7031 181.787 72.8671 181.703 73.0271C181.539 73.1911 181.375 73.2711 181.215 73.2711C180.971 73.3511 180.727 73.3511 180.479 73.4351C180.235 73.4351 179.907 73.5151 179.579 73.5991C179.335 73.6791 179.007 73.6791 178.763 73.8431C178.519 73.9231 178.275 74.0071 178.027 74.1711C177.783 74.3351 177.619 74.4991 177.539 74.7431C177.375 75.0711 177.295 75.3951 177.375 75.7231C177.375 76.0511 177.455 76.2951 177.539 76.6231C177.619 76.8671 177.783 77.0311 178.027 77.1951C178.271 77.3591 178.515 77.4391 178.763 77.5231C179.499 77.6871 180.315 77.6871 180.967 77.3591C181.375 77.1951 181.783 76.8711 182.027 76.5431C182.027 76.8711 182.107 77.1151 182.271 77.3591C182.435 77.5231 182.679 77.6031 183.007 77.6031C183.251 77.6031 183.579 77.5231 183.823 77.4391V76.6231C183.743 76.6231 183.579 76.7031 183.495 76.7031C183.007 76.6991 182.927 76.6191 182.927 76.4551ZM181.703 75.1471C181.703 75.3111 181.623 75.4751 181.623 75.6351C181.543 75.7991 181.379 75.9631 181.215 76.1231C181.051 76.2871 180.807 76.4511 180.563 76.5311C180.235 76.6111 179.911 76.6951 179.583 76.6951C179.419 76.6951 179.255 76.6951 179.095 76.6151C178.931 76.6151 178.767 76.5351 178.687 76.4511C178.523 76.3711 178.443 76.2871 178.359 76.1231C178.279 75.9591 178.279 75.7951 178.279 75.6351C178.279 75.4751 178.279 75.2271 178.359 75.0631C178.439 74.8991 178.523 74.8191 178.687 74.7351C178.851 74.6551 178.931 74.5711 179.095 74.4911C179.259 74.4111 179.423 74.4111 179.583 74.3271C179.747 74.3271 179.991 74.2471 180.155 74.2471L180.727 74.1671C180.891 74.1671 181.055 74.0871 181.215 74.0871C181.375 74.0871 181.459 74.0071 181.623 73.9231L181.703 75.1471Z" fill="#231F20"/>
<path id="Vector_19" d="M186.194 68.5352H185.05V70.5752H183.906V71.5552H185.05V76.0472C185.05 76.2912 185.05 76.5352 185.13 76.7832C185.21 76.9472 185.294 77.1112 185.458 77.2712C185.622 77.3512 185.786 77.4352 185.946 77.5152C186.19 77.5952 186.434 77.5952 186.682 77.5952H187.582V76.6152H187.094C186.93 76.6152 186.766 76.6152 186.686 76.6152C186.606 76.6152 186.522 76.6152 186.442 76.5352C186.362 76.5352 186.362 76.4552 186.362 76.3712C186.362 76.2872 186.282 76.1272 186.282 76.0432V71.7152H187.67V70.7352H186.282L186.194 68.5352Z" fill="#231F20"/>
<path id="Vector_20" d="M190.032 70.5752H188.888V77.5152H190.032V70.5752Z" fill="#231F20"/>
<path id="Vector_21" d="M197.214 71.4751C196.886 71.1471 196.562 70.9031 196.154 70.7391C195.746 70.5751 195.254 70.4951 194.766 70.4951C194.278 70.4951 193.786 70.5751 193.298 70.7391C192.89 70.9031 192.562 71.1471 192.238 71.4751C191.91 71.8031 191.75 72.2111 191.586 72.6191C191.342 73.5191 191.342 74.4951 191.586 75.4751C191.75 75.8831 191.914 76.2911 192.238 76.6191C192.482 76.9471 192.89 77.2711 193.298 77.4351C193.786 77.5991 194.278 77.6791 194.766 77.6791C195.254 77.6791 195.746 77.5991 196.234 77.4351C196.642 77.2711 196.97 76.9471 197.294 76.6191C197.618 76.2911 197.782 75.8831 197.946 75.4751C198.274 74.5751 198.274 73.5991 197.946 72.6191C197.786 72.2071 197.542 71.7991 197.214 71.4751ZM196.726 75.1471C196.646 75.4751 196.482 75.7191 196.238 75.9631C195.666 76.6151 194.686 76.7791 193.87 76.4511C193.626 76.3711 193.382 76.2071 193.134 75.9631C192.89 75.7191 192.806 75.4751 192.646 75.1471C192.566 74.8191 192.482 74.4111 192.482 74.0031C192.482 73.5951 192.562 73.2671 192.646 72.8591C192.726 72.5311 192.89 72.2871 193.134 72.0431C193.298 71.7991 193.542 71.6351 193.87 71.5551C194.358 71.3111 195.014 71.3111 195.502 71.5551C195.746 71.6351 195.99 71.8831 196.154 72.0431C196.398 72.2871 196.482 72.5311 196.642 72.8591C196.722 73.1871 196.806 73.5951 196.806 74.0031C196.886 74.4151 196.806 74.8231 196.726 75.1471Z" fill="#231F20"/>
<path id="Vector_22" d="M204.648 71.1471C204.484 70.9031 204.16 70.7391 203.912 70.6591C203.584 70.4951 203.176 70.4951 202.768 70.4951C202.28 70.4951 201.868 70.5751 201.46 70.8231C201.052 71.0671 200.724 71.3951 200.56 71.8031V70.7431H199.5V77.6831H200.644V73.5991C200.644 73.2711 200.644 73.0271 200.808 72.6991C200.888 72.4551 201.052 72.2111 201.216 72.0471C201.38 71.8831 201.624 71.7191 201.868 71.5591C202.196 71.4791 202.44 71.3951 202.768 71.3951C203.176 71.3951 203.504 71.4751 203.828 71.8031C204.072 72.0471 204.236 72.4551 204.236 72.8631V77.5151H205.38V72.9431C205.38 72.6151 205.38 72.2911 205.3 71.8831C204.972 71.6391 204.892 71.3911 204.648 71.1471Z" fill="#231F20"/>
<path id="Vector_23" d="M217.384 74.9838C217.22 75.3118 217.056 75.6358 216.812 75.8838C216.568 76.1318 216.324 76.2918 215.996 76.4558C215.668 76.6198 215.26 76.6998 214.852 76.6998C214.364 76.6998 213.872 76.6198 213.384 76.3718C212.976 76.2078 212.648 75.8838 212.404 75.4718C212.16 75.0598 211.916 74.6558 211.832 74.1638C211.668 73.6758 211.668 73.1038 211.668 72.6118C211.668 72.1198 211.748 71.6318 211.832 71.1438C211.912 70.7358 212.16 70.2438 212.404 69.9198C212.648 69.5958 212.976 69.2678 213.384 69.0198C213.872 68.7758 214.364 68.6918 214.852 68.6918C215.18 68.6918 215.504 68.7718 215.752 68.8558C216.08 68.9358 216.324 69.0998 216.568 69.2638C216.812 69.4278 216.976 69.6718 217.14 69.9158C217.304 70.1598 217.384 70.4878 217.468 70.8158H218.776C218.696 70.3278 218.532 69.9158 218.288 69.4278C218.044 69.0198 217.8 68.6918 217.388 68.4478C217.06 68.2038 216.652 67.9598 216.164 67.8758C215.676 67.7118 215.184 67.6318 214.776 67.6318C214.124 67.6318 213.468 67.7118 212.816 68.0398C212.244 68.2838 211.756 68.6918 211.428 69.0998C211.02 69.5878 210.776 70.1598 210.528 70.7318C210.284 71.3838 210.2 71.9558 210.2 72.6078C210.2 73.2598 210.28 73.9158 210.444 74.5678C210.608 75.1398 210.852 75.7118 211.26 76.1198C211.668 76.6078 212.076 76.9358 212.648 77.1798C213.22 77.4238 213.956 77.5878 214.608 77.5878C215.668 77.6678 216.732 77.2598 217.548 76.6078C218.284 75.8718 218.772 74.8918 218.772 73.8318H217.548C217.548 74.3318 217.464 74.6598 217.384 74.9838Z" fill="#231F20"/>
<path id="Vector_24" d="M225.628 71.7992C225.384 71.3912 225.056 71.0632 224.648 70.8192C224.16 70.5752 223.668 70.4112 223.096 70.4912C222.688 70.4912 222.196 70.5712 221.788 70.7352C221.38 70.8992 221.052 71.1432 220.728 71.4712C220.4 71.7992 220.24 72.2072 220.076 72.6152C219.912 73.1032 219.832 73.5952 219.832 74.0832C219.832 74.5712 219.912 75.0632 220.076 75.5512C220.24 75.9592 220.404 76.3672 220.728 76.6952C220.972 77.0232 221.38 77.2672 221.788 77.4312C222.276 77.5952 222.768 77.7592 223.256 77.6752C223.992 77.6752 224.644 77.5112 225.216 77.1032C225.788 76.6952 226.116 76.0432 226.196 75.3872H225.052C224.972 75.7952 224.808 76.1232 224.4 76.3672C224.072 76.6112 223.664 76.6952 223.256 76.6952C222.928 76.6952 222.604 76.6152 222.276 76.5312C221.788 76.2872 221.376 75.8792 221.216 75.3072C221.136 75.0632 221.136 74.7352 221.136 74.4072H226.28C226.28 73.9992 226.28 73.5072 226.2 73.0992C226.04 72.6192 225.876 72.2072 225.628 71.7992ZM221.056 73.4352C221.056 73.1912 221.136 72.9472 221.22 72.6992C221.3 72.4552 221.464 72.2912 221.628 72.0472C221.792 71.8832 222.036 71.7192 222.2 71.6392C222.444 71.5592 222.772 71.4752 223.016 71.4752C223.26 71.4752 223.504 71.5552 223.832 71.6392C224.076 71.7192 224.24 71.8832 224.484 72.0472C224.648 72.2112 224.812 72.4552 224.892 72.6992C224.972 72.9432 225.056 73.1872 225.056 73.4352H221.056Z" fill="#231F20"/>
<path id="Vector_25" d="M232.652 71.1471C232.488 70.9031 232.164 70.7391 231.916 70.6591C231.588 70.4951 231.18 70.4951 230.772 70.4951C230.284 70.4951 229.872 70.5751 229.464 70.8231C229.056 71.0671 228.728 71.3951 228.564 71.8031V70.7431H227.504V77.6831H228.648V73.5991C228.648 73.2711 228.648 73.0271 228.728 72.6991C228.808 72.4551 228.972 72.2111 229.136 72.0471C229.3 71.8831 229.544 71.7191 229.788 71.5591C230.032 71.4791 230.36 71.3951 230.688 71.3951C231.096 71.3951 231.424 71.4751 231.748 71.8031C231.992 72.0471 232.156 72.4551 232.156 72.8631V77.5151H233.3V72.9431C233.3 72.6151 233.3 72.2911 233.22 71.8831C232.98 71.6391 232.816 71.3911 232.652 71.1471Z" fill="#231F20"/>
<path id="Vector_26" d="M236.407 68.5352H235.263V70.5752H234.119V71.5552H235.263V76.0472C235.263 76.2912 235.263 76.5352 235.343 76.7832C235.423 76.9472 235.507 77.1112 235.671 77.2712C235.835 77.3512 235.999 77.4352 236.159 77.5152C236.403 77.5952 236.647 77.5952 236.895 77.5952H237.795V76.6152H237.223C237.059 76.6152 236.895 76.6152 236.815 76.6152C236.735 76.6152 236.651 76.6152 236.571 76.5352C236.491 76.4552 236.491 76.3712 236.491 76.2912C236.491 76.2112 236.491 76.0472 236.491 75.9632V71.7192H237.879V70.7392H236.491V68.5352H236.407Z" fill="#231F20"/>
<path id="Vector_27" d="M244.405 71.7991C244.161 71.3911 243.833 71.0631 243.425 70.8191C242.937 70.5751 242.445 70.4111 241.873 70.4111C241.465 70.4111 240.973 70.4911 240.565 70.6551C240.157 70.8191 239.829 71.0631 239.505 71.3911C239.177 71.7191 239.017 72.1271 238.853 72.5351C238.689 73.0231 238.609 73.5151 238.609 74.0031C238.609 74.4911 238.689 74.9831 238.853 75.4711C239.017 75.8791 239.181 76.2871 239.505 76.6151C239.749 76.9431 240.157 77.1871 240.565 77.3511C241.053 77.5151 241.545 77.6791 242.033 77.5951C242.769 77.5951 243.421 77.4311 243.993 77.0231C244.565 76.6151 244.893 75.9631 244.973 75.3071H243.829C243.749 75.7151 243.585 76.0431 243.177 76.2871C242.849 76.5311 242.441 76.6151 242.033 76.6151C241.705 76.6151 241.381 76.5351 241.053 76.4511C240.809 76.3711 240.565 76.2071 240.401 75.9631C240.237 75.7191 240.073 75.4751 239.993 75.2271C239.913 74.9831 239.913 74.6551 239.913 74.3271H245.057C245.057 73.9191 245.057 73.4271 244.977 73.0191C244.813 72.6191 244.649 72.2071 244.405 71.7991ZM239.917 73.4351C239.917 73.1911 239.997 72.9471 240.081 72.6991C240.161 72.4551 240.325 72.2911 240.489 72.0471C240.653 71.8831 240.897 71.7191 241.061 71.6391C241.305 71.5591 241.633 71.4751 241.877 71.4751C242.121 71.4751 242.365 71.5551 242.613 71.6391C242.861 71.7231 243.021 71.8831 243.265 72.0471C243.429 72.2111 243.593 72.4551 243.673 72.6991C243.753 72.9431 243.837 73.1871 243.837 73.4351H239.917Z" fill="#231F20"/>
<path id="Vector_28" d="M247.267 72.0472V70.5792H246.207V77.5192H247.351V74.4152C247.351 74.0072 247.351 73.5992 247.515 73.2712C247.595 72.9432 247.759 72.6192 247.923 72.3712C248.167 72.1272 248.411 71.9632 248.739 71.7992C249.147 71.6352 249.475 71.6352 249.883 71.6352V70.4912C249.311 70.4912 248.823 70.5712 248.331 70.8992C247.919 71.1472 247.511 71.5552 247.267 72.0472Z" fill="#231F20"/>
<path id="Vector_29" d="M108.382 67.9629H107.238V69.3509L108.382 68.6989V67.9629Z" fill="#231F20"/>
<path id="Vector_30" d="M190.032 67.9629H188.888V69.3509L190.032 68.6989V67.9629Z" fill="#231F20"/>
<path id="Vector_31" d="M97.6074 60.8597C98.0154 60.7797 98.2594 60.4517 98.4234 60.1237C98.5034 60.3677 98.6674 60.6117 98.8314 60.7757C99.0754 60.9397 99.4034 61.0197 99.7314 61.0197H111.243V58.6517C111.323 57.8357 110.999 56.9357 110.507 56.2837C109.935 55.7117 109.199 55.3837 108.383 55.4677C107.567 55.4677 106.831 55.7117 106.179 56.1197C105.527 56.6077 104.955 57.1797 104.547 57.9157V51.0557H103.323V59.8717H99.7314C99.4874 59.8717 99.3234 59.8717 99.1594 59.7917C98.9954 59.7117 98.9154 59.6277 98.7514 59.4637C98.6714 59.2997 98.5874 59.1357 98.5874 58.9757C98.5874 58.7317 98.5074 58.5677 98.5074 58.3237V55.6277H97.3634V58.8197C97.3634 58.9837 97.3634 59.2277 97.2834 59.3917C97.2034 59.5557 97.1194 59.6357 97.0394 59.7197C96.9594 59.8037 96.7954 59.7997 96.6314 59.8837C96.4674 59.8837 96.2234 59.8837 96.0594 59.8837H93.7714C92.6274 59.8837 91.4834 59.6397 90.4234 59.2317V60.3757C90.7514 60.3757 90.9954 60.4557 91.4034 60.5397C91.7314 60.6197 92.0554 60.7837 92.4634 60.8677C92.7914 60.9477 93.0354 61.1117 93.2794 61.2757C93.4434 61.4397 93.6074 61.6037 93.6074 61.8477C93.6074 62.0117 93.5274 62.2557 93.3634 62.3357C93.1194 62.4997 92.8754 62.6637 92.6274 62.6637C92.1394 62.9077 91.8114 62.9917 91.4034 62.9917C90.9954 63.0717 90.5034 63.0717 90.0954 63.0717C89.1154 63.1517 88.2194 62.9077 87.3194 62.4997C86.7474 62.0917 86.4194 61.4397 86.5034 60.7037V58.8197H85.3594V60.9437C85.3594 61.3517 85.4394 61.8437 85.6034 62.2517C85.7674 62.6597 86.0114 62.9877 86.3394 63.3117C86.7474 63.6397 87.2394 63.8837 87.8074 64.0477C88.5434 64.2117 89.3594 64.2917 90.0954 64.2917C90.8314 64.2917 91.5634 64.2117 92.2194 64.1277C92.7074 64.0477 93.1994 63.8837 93.6074 63.6397C93.9354 63.4757 94.2594 63.2317 94.4234 62.9037C94.5874 62.6597 94.6674 62.4157 94.6674 62.0877C94.6674 61.9237 94.6674 61.6797 94.5874 61.5157C94.5074 61.3517 94.4234 61.1877 94.3434 61.0277H96.4674C96.7874 61.0237 97.1994 60.9437 97.6074 60.8597ZM105.035 58.7357C105.279 58.3277 105.523 57.9997 105.851 57.6757C106.179 57.3477 106.503 57.1037 106.911 56.9397C107.239 56.6957 107.727 56.6117 108.135 56.6117C108.463 56.6117 108.787 56.6917 109.035 56.7757C109.283 56.8597 109.523 57.0197 109.687 57.2637C109.851 57.5077 109.931 57.7517 110.015 57.9997C110.095 58.3277 110.095 58.5717 110.095 58.8997V59.8797H104.463C104.627 59.4717 104.791 59.0637 105.035 58.7357Z" fill="#231F20"/>
<path id="Vector_32" d="M122.183 61.0235V51.0635H121.039V59.8795H117.935V59.2275C117.935 58.7395 117.855 58.2475 117.771 57.7595C117.691 57.3515 117.527 56.9435 117.283 56.6155C117.039 56.2875 116.795 56.0435 116.467 55.8795C116.059 55.7155 115.651 55.6355 115.243 55.6355C114.835 55.6355 114.427 55.7155 114.099 55.8795C113.771 56.0435 113.447 56.2875 113.199 56.5315C112.955 56.7755 112.791 57.1035 112.627 57.5115C112.463 57.8395 112.463 58.2475 112.463 58.6555C112.463 59.0635 112.543 59.4715 112.707 59.7995C112.787 60.1275 113.035 60.3715 113.279 60.5355C113.523 60.6995 113.767 60.8635 114.095 60.9435C114.423 61.0235 114.747 61.1075 115.155 61.1075H116.707C116.707 61.4355 116.627 61.7595 116.463 62.0075C116.299 62.2515 116.055 62.4155 115.811 62.5795C115.483 62.7435 115.159 62.8235 114.911 62.8235C114.503 62.9035 114.095 62.9035 113.687 62.9035H113.279V64.0475H113.931C114.503 64.0475 114.991 64.0475 115.483 63.8835C115.891 63.8035 116.299 63.6395 116.707 63.3955C117.035 63.1515 117.359 62.9075 117.523 62.4955C117.767 62.0875 117.851 61.5955 117.851 61.1075L122.183 61.0235ZM116.791 59.8795H115.323C114.915 59.8795 114.507 59.7995 114.099 59.5515C113.771 59.3075 113.691 58.8995 113.691 58.4915C113.691 58.2475 113.691 58.0835 113.771 57.8395C113.851 57.5955 113.935 57.4315 114.099 57.2675C114.343 56.8595 114.835 56.6955 115.243 56.6955C115.731 56.6155 116.223 56.8595 116.467 57.3475C116.711 57.8355 116.875 58.4075 116.795 58.9795C116.791 58.9835 116.791 59.8795 116.791 59.8795Z" fill="#231F20"/>
<path id="Vector_33" d="M125.282 51.0635H124.138V60.9435H125.282V51.0635Z" fill="#231F20"/>
<path id="Vector_34" d="M140.228 59.8797H133.452C133.044 59.8797 132.635 59.8797 132.391 59.8797C132.147 59.8797 131.904 59.7997 131.74 59.7157C131.576 59.6317 131.411 59.4717 131.411 59.3077C131.331 59.0637 131.331 58.8197 131.331 58.6557V56.8597H130.188V58.9837C130.188 59.3117 130.188 59.6357 130.352 59.8837C130.432 60.1277 130.596 60.3717 130.84 60.5357C131.084 60.6997 131.412 60.8637 131.74 60.8637C132.148 60.9437 132.639 60.9437 133.047 60.9437H141.455V55.6357H140.311L140.228 59.8797Z" fill="#231F20"/>
<path id="Vector_35" d="M149.944 60.2076C150.352 60.5356 150.844 60.7796 151.332 60.9436C151.74 61.1076 152.232 61.1876 152.64 61.1876C153.292 61.2676 153.948 60.9436 154.436 60.4516C154.844 59.8796 155.008 59.2276 155.008 58.5756C155.008 58.1676 154.928 57.7596 154.844 57.4316C154.764 57.1036 154.516 56.7796 154.356 56.5316C154.112 56.2876 153.868 56.1236 153.62 55.9596C153.292 55.7956 152.968 55.7156 152.64 55.7156C152.396 55.7156 152.152 55.7156 151.904 55.7956C151.656 55.8756 151.332 56.0396 151.168 56.2036C150.924 56.4476 150.68 56.6916 150.432 57.0196C150.188 57.5076 149.944 57.9196 149.78 58.4876C149.7 58.7316 149.616 58.9756 149.452 59.1396C149.372 59.3036 149.208 59.3836 149.124 59.5477C149.044 59.6277 148.88 59.7116 148.796 59.7116C148.716 59.7916 148.552 59.7916 148.468 59.8756H145.612C145.204 59.8756 144.96 59.7956 144.796 59.6316C144.632 59.3876 144.632 59.0596 144.632 58.8156V51.1396H143.244V59.1396C143.244 59.4676 143.244 59.7916 143.408 60.0396C143.488 60.2836 143.652 60.4476 143.816 60.6116C143.98 60.7756 144.224 60.8556 144.468 60.9396C144.712 61.0236 145.04 61.0196 145.284 61.0196H148.224C148.388 61.0196 148.552 61.0196 148.712 61.0196C148.872 61.0196 149.04 61.0196 149.12 60.9396C149.284 60.8596 149.364 60.7756 149.528 60.6956C149.696 60.5356 149.86 60.3716 149.944 60.2076ZM151.412 57.4316C151.656 57.1036 152.064 56.9436 152.472 56.9436C152.716 56.9436 152.88 57.0236 153.044 57.1076C153.208 57.1876 153.372 57.3516 153.452 57.4356C153.532 57.5996 153.696 57.7636 153.696 57.9236C153.776 58.0876 153.776 58.3316 153.776 58.4956C153.776 58.9036 153.696 59.3116 153.448 59.6396C153.204 59.8836 152.876 59.9676 152.548 59.9676C152.22 59.9676 151.812 59.8876 151.488 59.7236C151.16 59.5596 150.752 59.3956 150.428 59.1516C150.676 58.5756 151.004 58.0036 151.412 57.4316Z" fill="#231F20"/>
<path id="Vector_36" d="M185.13 51.0635V59.8795H182.926C182.598 59.8795 182.354 59.7995 182.11 59.6355C181.946 59.4715 181.782 59.2275 181.702 58.9835C181.702 58.9035 181.702 58.9035 181.702 58.8195V58.6555C181.702 58.2475 181.622 57.9195 181.538 57.5115C181.374 57.1835 181.21 56.9395 181.05 56.6955C180.806 56.4515 180.562 56.2875 180.314 56.1235C179.986 55.9595 179.662 55.8795 179.334 55.8795C179.09 55.8795 178.846 55.8795 178.598 55.9595C178.35 56.0395 178.11 56.2035 177.862 56.3675C177.618 56.6115 177.374 56.8555 177.126 57.1835C176.882 57.6715 176.638 58.0835 176.474 58.6515C176.394 58.8955 176.31 59.1395 176.146 59.3035C176.066 59.4675 175.902 59.5475 175.818 59.7115C175.738 59.7915 175.574 59.8755 175.49 59.8755C175.41 59.8755 175.246 59.8755 175.162 59.8755H172.714C172.47 59.8755 172.226 59.8755 171.978 59.7955C172.466 59.4675 172.878 59.0595 173.122 58.5715C173.366 58.1635 173.53 57.6715 173.53 57.1035C173.53 56.8595 173.45 56.6955 173.366 56.4515C173.286 56.2075 173.122 56.0435 172.958 55.8795C172.714 55.7155 172.47 55.5515 172.222 55.4715C171.894 55.3915 171.486 55.3075 171.162 55.3075C170.674 55.3075 170.262 55.3875 169.774 55.5515C169.366 55.7155 169.038 55.9595 168.714 56.2875C168.634 56.3675 168.634 56.4515 168.55 56.5315C168.47 56.6115 168.47 56.6955 168.386 56.7755C168.306 56.8555 168.306 57.0195 168.222 57.1035C168.138 57.1875 168.142 57.3475 168.142 57.4315L169.858 59.3915C169.206 59.5555 168.55 59.7195 167.818 59.6355H167.082C166.754 59.6355 166.43 59.4715 166.182 59.2275C165.938 58.8995 165.854 58.4915 165.854 58.0835V50.9795H164.71V58.7355C164.71 58.8995 164.71 59.1435 164.63 59.3075C164.55 59.3875 164.55 59.5515 164.386 59.6355C164.306 59.7155 164.142 59.7155 164.058 59.7995C163.894 59.7995 163.73 59.7995 163.65 59.7995H161.526V59.1475C161.526 58.6595 161.446 58.1675 161.362 57.6795C161.282 57.2715 161.118 56.8635 160.874 56.5355C160.71 56.2075 160.386 55.9635 160.058 55.7995C159.65 55.6355 159.242 55.5555 158.834 55.5555C158.426 55.5555 158.018 55.6355 157.69 55.7995C157.362 55.9635 157.118 56.2075 156.874 56.4515C156.63 56.6955 156.466 57.0235 156.302 57.4315C156.138 57.7595 156.138 58.1675 156.138 58.5755C156.138 58.9835 156.218 59.3915 156.302 59.7195C156.466 59.9635 156.63 60.2915 156.874 60.4555C157.118 60.6195 157.362 60.7835 157.69 60.8635C158.018 60.9435 158.426 61.0275 158.75 61.0275H160.302C160.302 61.3555 160.222 61.6795 160.058 61.9275C159.894 62.1715 159.65 62.3355 159.406 62.4995C159.078 62.6635 158.754 62.7435 158.506 62.7435C158.098 62.8235 157.69 62.8235 157.282 62.8235H156.874V63.9675H157.446C158.018 63.9675 158.506 63.9675 159.078 63.8035C159.486 63.7235 159.894 63.5595 160.302 63.3155C160.63 63.0715 160.954 62.8275 161.118 62.4155C161.362 62.0075 161.446 61.5155 161.446 61.0275H163.406C163.894 61.0275 164.386 60.9475 164.794 60.8635C165.202 60.7795 165.446 60.4555 165.61 60.1275C165.69 60.3715 165.854 60.6155 166.018 60.7795C166.262 60.9435 166.506 61.0235 166.834 61.0235H167.65C168.138 61.0235 168.63 60.9435 169.118 60.8595C169.606 60.7795 170.018 60.6155 170.506 60.4515C170.75 60.6955 170.994 60.7795 171.322 60.9395C171.566 61.0195 171.81 61.0195 172.058 61.0195H174.914C175.078 61.0195 175.242 61.0195 175.402 61.0195C175.562 61.0195 175.73 61.0195 175.81 60.9395C175.974 60.8595 176.054 60.7755 176.218 60.6955C176.382 60.5315 176.462 60.4515 176.546 60.2875C176.954 60.6155 177.446 60.8595 177.934 61.0235C178.342 61.1875 178.834 61.2675 179.242 61.2675C179.65 61.2675 180.142 61.1875 180.55 60.9395C180.878 60.7755 181.122 60.4515 181.286 60.1235C181.45 60.4515 181.614 60.6955 181.938 60.8595C182.182 61.0235 182.51 61.1035 182.838 61.1035H186.186V51.0595H185.13V51.0635ZM160.39 59.8795H158.922C158.514 59.8795 158.106 59.7995 157.698 59.5515C157.37 59.3075 157.29 58.8995 157.29 58.4915C157.29 58.2475 157.29 58.0835 157.37 57.8395C157.45 57.5955 157.534 57.4315 157.614 57.2675C157.778 57.1035 157.942 56.9395 158.102 56.8595C158.346 56.7795 158.59 56.6955 158.838 56.6955C159.326 56.6155 159.818 56.8595 160.062 57.3475C160.306 57.8355 160.47 58.4075 160.39 58.9795V59.8795ZM170.762 59.1475L169.046 57.3515C169.29 57.1075 169.534 56.8635 169.862 56.7795C170.19 56.6155 170.514 56.5355 170.922 56.5355C171.25 56.5355 171.658 56.6155 171.982 56.7795C172.146 56.9435 172.31 57.1075 172.31 57.3515C172.31 57.6795 172.146 58.0875 171.902 58.3315C171.578 58.6555 171.17 58.9835 170.762 59.1475ZM180.23 59.7155C179.986 59.9595 179.658 60.0435 179.33 60.0435C179.002 60.0435 178.594 59.9635 178.27 59.7995C177.942 59.6355 177.534 59.4715 177.21 59.2275C177.374 58.5755 177.698 57.9195 178.11 57.4315C178.354 57.1035 178.762 56.9435 179.17 56.9435C179.414 56.9435 179.578 57.0235 179.742 57.1075C179.906 57.1875 180.07 57.3515 180.15 57.4355C180.23 57.5995 180.394 57.7635 180.394 57.9235C180.474 58.0875 180.474 58.3315 180.474 58.4955C180.558 58.9835 180.478 59.3915 180.23 59.7155Z" fill="#231F20"/>
<path id="Vector_37" d="M189.294 51.0635H188.15V60.9435H189.294V51.0635Z" fill="#231F20"/>
<path id="Vector_38" d="M201.464 54.4911C201.384 54.5711 201.3 54.6551 201.3 54.7351C201.22 54.8151 201.22 54.9791 201.136 55.0631C201.056 55.1431 201.056 55.3071 201.056 55.3911C201.544 55.6351 202.036 55.8791 202.524 56.2071C202.932 56.5351 203.424 56.8591 203.748 57.1871C204.076 57.4311 204.4 57.7591 204.648 58.1671C204.812 58.4111 204.976 58.6551 204.976 58.9831C204.976 59.2271 204.896 59.5551 204.648 59.7191C204.404 59.7991 204.076 59.8831 203.832 59.8831H198.444C198.116 59.9631 197.708 59.8031 197.464 59.4751C197.3 59.1471 197.22 58.7391 197.22 58.3311V56.3711H196.076V60.1271C196.076 60.6151 196.076 61.0271 196.076 61.3511C196.076 61.6751 195.996 61.9231 195.832 62.1671C195.668 62.4111 195.504 62.5751 195.26 62.6551C194.932 62.7351 194.524 62.8191 194.2 62.8191V63.9631C194.688 63.9631 195.26 63.8831 195.752 63.7991C196.08 63.7191 196.404 63.4711 196.652 63.2271C196.896 62.8991 197.06 62.4911 197.06 62.0831C197.14 61.5111 197.224 60.9391 197.224 60.3671C197.304 60.5311 197.468 60.6951 197.712 60.8551C197.956 61.0151 198.2 61.0991 198.448 61.0991H203.756C204.164 61.0991 204.572 61.0191 204.98 60.9351C205.224 60.8551 205.468 60.6911 205.716 60.4471C205.88 60.2831 205.96 60.0391 206.044 59.7951C206.124 59.5511 206.124 59.3871 206.124 59.1431C206.124 58.8151 206.044 58.5711 205.96 58.2431C205.796 57.9151 205.632 57.5911 205.308 57.2631C204.98 56.8551 204.572 56.5271 204.164 56.2031C203.676 55.7951 203.104 55.3871 202.532 55.0591L206.616 53.2631V52.1191L201.552 54.3231C201.544 54.4111 201.464 54.4111 201.464 54.4911Z" fill="#231F20"/>
<path id="Vector_39" d="M218.199 60.4518C218.607 59.8798 218.851 59.2278 218.771 58.5758C218.771 58.1678 218.691 57.7598 218.607 57.4318C218.523 57.1038 218.279 56.7798 218.119 56.5318C217.875 56.2878 217.631 56.1238 217.303 55.9598C216.975 55.7958 216.651 55.7158 216.323 55.7158C216.079 55.7158 215.835 55.7158 215.587 55.7958C215.343 55.8758 215.015 56.0398 214.851 56.2038C214.607 56.4478 214.363 56.6918 214.115 57.0198C213.871 57.5078 213.627 57.9198 213.463 58.4878C213.383 58.7318 213.299 58.9758 213.135 59.1398C213.055 59.3038 212.891 59.3838 212.807 59.5478C212.727 59.6278 212.563 59.7118 212.399 59.7118C212.319 59.7118 212.155 59.7118 212.071 59.7118H211.499C211.171 59.7118 210.847 59.5478 210.599 59.3038C210.435 58.9758 210.355 58.5678 210.355 58.1598V56.2838H209.211V60.0398C209.211 60.5278 209.211 60.9398 209.211 61.2638C209.211 61.5078 209.131 61.8358 208.967 62.0798C208.803 62.3238 208.639 62.4878 208.395 62.5678C208.067 62.6478 207.659 62.7318 207.335 62.7318V63.8758C207.823 63.8758 208.315 63.7958 208.887 63.7118C209.215 63.6318 209.539 63.3838 209.787 63.1398C210.031 62.8118 210.195 62.4038 210.195 61.9958C210.275 61.4238 210.359 60.8518 210.275 60.2798C210.355 60.4438 210.519 60.6078 210.763 60.7678C211.007 60.9318 211.171 61.0118 211.415 61.0118H212.067C212.231 61.0118 212.395 61.0118 212.555 61.0118C212.719 61.0118 212.883 61.0118 212.963 60.9318C213.127 60.8518 213.207 60.7678 213.371 60.6878C213.535 60.5238 213.615 60.4438 213.779 60.2798C214.187 60.6078 214.679 60.8518 215.167 61.0158C215.575 61.1798 216.067 61.2598 216.475 61.2598C217.139 61.2678 217.791 61.0238 218.199 60.4518ZM217.299 59.6358C217.055 59.8798 216.727 59.9638 216.399 59.9638C216.071 59.9638 215.663 59.8838 215.339 59.7198C215.011 59.5558 214.603 59.3918 214.279 59.1478C214.443 58.4958 214.767 57.8398 215.179 57.3518C215.423 57.0238 215.831 56.8638 216.239 56.8638C216.403 56.8638 216.647 56.9438 216.811 57.0278C216.975 57.1078 217.139 57.1918 217.219 57.3558C217.299 57.5198 217.463 57.6838 217.463 57.8438C217.543 58.0078 217.543 58.2518 217.543 58.4158C217.711 58.9838 217.547 59.3918 217.299 59.6358Z" fill="#231F20"/>
<path id="Vector_40" d="M197.216 53.0234H196.156V54.4114L197.216 53.7554V53.0234Z" fill="#231F20"/>
<path id="Vector_41" d="M98.5034 52.6152H97.3594V54.0032L98.5034 53.3472V52.6152Z" fill="#231F20"/>
<path id="Vector_42" d="M137.289 53.4316H136.145V54.8196L137.289 54.1636V53.4316Z" fill="#231F20"/>
<path id="Vector_43" d="M135.492 53.4316H134.348V54.8196L135.492 54.1636V53.4316Z" fill="#231F20"/>
<path id="Vector_44" d="M91.2338 65.1074H90.0938V66.4954L91.2338 65.8394V65.1074Z" fill="#231F20"/>
<path id="Vector_45" d="M89.5229 65.1074H88.3789V66.4954L89.5229 65.8394V65.1074Z" fill="#231F20"/>
<g id="Layer_2_1_">
<g id="Layer_1-2">
<path id="Vector_46" d="M39.3122 29.6719L28.6162 35.8759V48.3679L39.3122 54.5719L50.0882 48.3679V35.8759L39.3122 29.6719Z" fill="#03B585"/>
<path id="Vector_47" d="M40.4502 56.4512L49.1062 61.5152L40.4502 66.4952V56.4512Z" fill="url(#paint0_linear_791_18299)"/>
<path id="Vector_48" d="M29.5908 23.9551L38.2468 28.9351L29.5908 33.9991V23.9551Z" fill="url(#paint1_linear_791_18299)"/>
<path id="Vector_49" d="M28.6162 48.3671L39.3122 42.0791V54.5711L28.6162 48.3671Z" fill="url(#paint2_linear_791_18299)"/>
<path id="Vector_50" d="M39.3096 29.6719L50.0856 35.8759L39.3096 42.0799V29.6719Z" fill="url(#paint3_linear_791_18299)"/>
<path id="Vector_51" d="M18.4883 7.46303L25.0203 3.70703V11.135L18.4883 7.46303Z" fill="url(#paint4_linear_791_18299)"/>
<path id="Vector_52" d="M41.5156 14.2394L48.0476 10.4834V17.9954L41.5156 14.2394Z" fill="url(#paint5_linear_791_18299)"/>
<path id="Vector_53" d="M64.1318 19.627L70.5798 23.303L64.1318 27.059V19.627Z" fill="url(#paint6_linear_791_18299)"/>
<path id="Vector_54" d="M64.1318 32.1191L70.5798 35.8751L64.1318 39.6311V32.1191Z" fill="url(#paint7_linear_791_18299)"/>
<path id="Vector_55" d="M70.9062 42.0791L77.3543 38.3271V45.8351L70.9062 42.0791Z" fill="url(#paint8_linear_791_18299)"/>
<path id="Vector_56" d="M52.3721 62.0831L58.8241 58.3271V65.8391L52.3721 62.0831Z" fill="url(#paint9_linear_791_18299)"/>
<path id="Vector_57" d="M18.4883 69.5157L25.0203 65.6797V73.2717L18.4883 69.5157Z" fill="url(#paint10_linear_791_18299)"/>
<path id="Vector_58" d="M5.75 48.3673L12.282 44.6113V52.1233L5.75 48.3673Z" fill="url(#paint11_linear_791_18299)"/>
<path id="Vector_59" d="M50.416 24.6074L59.068 29.5874L50.416 34.5714V24.6074Z" fill="url(#paint12_linear_791_18299)"/>
<path id="Vector_60" d="M51.3096 35.8754L59.9656 30.8154V40.8554L51.3096 35.8754Z" fill="url(#paint13_linear_791_18299)"/>
<path id="Vector_61" d="M51.3096 37.0996L59.9656 42.0796L51.3096 47.1436V37.0996Z" fill="url(#paint14_linear_791_18299)"/>
<path id="Vector_62" d="M51.3096 48.3677L59.9656 43.3877V53.3477L51.3096 48.3677Z" fill="url(#paint15_linear_791_18299)"/>
<path id="Vector_63" d="M50.416 49.5918L59.068 54.6558L50.416 59.6358V49.5918Z" fill="url(#paint16_linear_791_18299)"/>
<path id="Vector_64" d="M40.4502 55.2271L49.1062 50.2471V60.2071L40.4502 55.2271Z" fill="url(#paint17_linear_791_18299)"/>
<path id="Vector_65" d="M29.5908 61.5152L38.2468 56.4512V66.4952L29.5908 61.5152Z" fill="url(#paint18_linear_791_18299)"/>
<path id="Vector_66" d="M29.5908 50.2471L38.2468 55.2271L29.5908 60.2071V50.2471Z" fill="url(#paint19_linear_791_18299)"/>
<path id="Vector_67" d="M19.6318 54.6558L28.2878 49.5918V59.6358L19.6318 54.6558Z" fill="url(#paint20_linear_791_18299)"/>
<path id="Vector_68" d="M27.3864 48.3677L18.7344 53.3477V43.3877L27.3864 48.3677Z" fill="url(#paint21_linear_791_18299)"/>
<path id="Vector_69" d="M18.7344 42.0796L27.3864 37.0996V47.1436L18.7344 42.0796Z" fill="url(#paint22_linear_791_18299)"/>
<path id="Vector_70" d="M18.7344 30.8154L27.3864 35.8754L18.7344 40.8554V30.8154Z" fill="url(#paint23_linear_791_18299)"/>
<path id="Vector_71" d="M19.6318 29.5874L28.2878 24.6074V34.5714L19.6318 29.5874Z" fill="url(#paint24_linear_791_18299)"/>
<path id="Vector_72" d="M29.5908 22.732L38.2468 17.668V27.712L29.5908 22.732Z" fill="url(#paint25_linear_791_18299)"/>
<path id="Vector_73" d="M40.4502 17.668L49.1062 22.732L40.4502 27.712V17.668Z" fill="url(#paint26_linear_791_18299)"/>
<path id="Vector_74" d="M40.4502 28.9351L49.1062 23.9551V33.9991L40.4502 28.9351Z" fill="url(#paint27_linear_791_18299)"/>
<path id="Vector_75" d="M39.3096 42.0791L50.0856 48.3671L39.3096 54.5711V42.0791Z" fill="url(#paint28_linear_791_18299)"/>
<path id="Vector_76" d="M39.3096 42.079L50.0856 35.875V48.367L39.3096 42.079Z" fill="url(#paint29_linear_791_18299)"/>
<path id="Vector_77" d="M28.6162 35.875L39.3122 42.079L28.6162 48.367V35.875Z" fill="url(#paint30_linear_791_18299)"/>
<path id="Vector_78" d="M28.6162 35.8759L39.3122 29.6719V42.0799L28.6162 35.8759Z" fill="url(#paint31_linear_791_18299)"/>
<path id="Vector_79" d="M37.5945 16.1994L31.0625 19.9554V12.4434L37.5945 16.1994Z" fill="url(#paint32_linear_791_18299)"/>
<path id="Vector_80" d="M28.4502 4.19545L34.9822 0.439453V7.95145L28.4502 4.19545Z" fill="url(#paint33_linear_791_18299)"/>
<path id="Vector_81" d="M42.332 1.58398L48.78 5.33998L42.332 9.09598V1.58398Z" fill="url(#paint34_linear_791_18299)"/>
<path id="Vector_82" d="M56.7002 5.99121L63.1522 9.74721L56.7002 13.5032V5.99121Z" fill="url(#paint35_linear_791_18299)"/>
<path id="Vector_83" d="M50.416 21.0997L56.944 17.3438V24.8557L50.416 21.0997Z" fill="url(#paint36_linear_791_18299)"/>
<path id="Vector_84" d="M68.21 29.0997L74.662 25.3438V32.8557L68.21 29.0997Z" fill="url(#paint37_linear_791_18299)"/>
<path id="Vector_85" d="M63.7227 52.5315V45.0195L70.1707 48.7755L63.7227 52.5315Z" fill="url(#paint38_linear_791_18299)"/>
<path id="Vector_86" d="M64.1318 54.6554L70.5798 50.8994V58.4114L64.1318 54.6554Z" fill="url(#paint39_linear_791_18299)"/>
<path id="Vector_87" d="M70.2568 64.5352L76.7888 68.2912L70.2568 72.0472V64.5352Z" fill="url(#paint40_linear_791_18299)"/>
<path id="Vector_88" d="M53.6787 74.4153V66.9033L60.2107 70.6593L53.6787 74.4153Z" fill="url(#paint41_linear_791_18299)"/>
<path id="Vector_89" d="M41.5156 68.1271L48.0476 64.3711V71.8831L41.5156 68.1271Z" fill="url(#paint42_linear_791_18299)"/>
<path id="Vector_90" d="M26.9785 81.7638L33.5105 78.0078V85.5198L26.9785 81.7638Z" fill="url(#paint43_linear_791_18299)"/>
<path id="Vector_91" d="M31.3906 64.7793L37.8386 68.5353L31.3906 72.3713V64.7793Z" fill="url(#paint44_linear_791_18299)"/>
<path id="Vector_92" d="M19.7939 58.3271L26.3259 62.0831L19.7939 65.8391V58.3271Z" fill="url(#paint45_linear_791_18299)"/>
<path id="Vector_93" d="M2.97559 67.3917L9.50759 63.6357V71.1477L2.97559 67.3917Z" fill="url(#paint46_linear_791_18299)"/>
<path id="Vector_94" d="M4.03809 37.3477L10.4861 41.1037L4.03809 44.7757V37.3477Z" fill="url(#paint47_linear_791_18299)"/>
<path id="Vector_95" d="M8.52832 35.8751L14.9803 32.1191V39.6311L8.52832 35.8751Z" fill="url(#paint48_linear_791_18299)"/>
<path id="Vector_96" d="M0.119141 25.8359L6.65114 29.5879L0.119141 33.3439V25.8359Z" fill="url(#paint49_linear_791_18299)"/>
<path id="Vector_97" d="M5.34375 21.1798L11.8758 17.4238V24.9358L5.34375 21.1798Z" fill="url(#paint50_linear_791_18299)"/>
<path id="Vector_98" d="M19.7939 16.6074L26.3259 20.3634L19.7939 24.1194V16.6074Z" fill="url(#paint51_linear_791_18299)"/>
<path id="Vector_99" d="M1.75 53.5117L7.382 56.7797L1.75 60.0437V53.5117Z" fill="url(#paint52_linear_791_18299)"/>
<path id="Vector_100" d="M41.5156 82.4153V74.9033L48.0476 78.6593L41.5156 82.4153Z" fill="url(#paint53_linear_791_18299)"/>
</g>
</g>
</g>
<defs>
<linearGradient id="paint0_linear_791_18299" x1="91.8453" y1="8.86281" x2="14.8026" y2="90.9023" gradientUnits="userSpaceOnUse">
<stop stop-color="#A6CE39"/>
<stop offset="0.5" stop-color="#03B585"/>
<stop offset="1" stop-color="#273470"/>
</linearGradient>
<linearGradient id="paint1_linear_791_18299" x1="69.6432" y1="-11.591" x2="-7.39127" y2="70.4321" gradientUnits="userSpaceOnUse">
<stop stop-color="#A6CE39"/>
<stop offset="0.5" stop-color="#03B585"/>
<stop offset="1" stop-color="#273470"/>
</linearGradient>
<linearGradient id="paint2_linear_791_18299" x1="81.9617" y1="0.356847" x2="5.44972" y2="81.833" gradientUnits="userSpaceOnUse">
<stop stop-color="#A6CE39"/>
<stop offset="0.5" stop-color="#03B585"/>
<stop offset="1" stop-color="#273470"/>
</linearGradient>
<linearGradient id="paint3_linear_791_18299" x1="78.3431" y1="-3.05176" x2="1.8148" y2="78.4325" gradientUnits="userSpaceOnUse">
<stop stop-color="#A6CE39"/>
<stop offset="0.5" stop-color="#03B585"/>
<stop offset="1" stop-color="#273470"/>
</linearGradient>
<linearGradient id="paint4_linear_791_18299" x1="50.0316" y1="-20.8037" x2="-11.6123" y2="44.8246" gradientUnits="userSpaceOnUse">
<stop stop-color="#A6CE39"/>
<stop offset="0.5" stop-color="#03B585"/>
<stop offset="1" stop-color="#273470"/>
</linearGradient>
<linearGradient id="paint5_linear_791_18299" x1="65.3546" y1="-5.78989" x2="3.7187" y2="59.8384" gradientUnits="userSpaceOnUse">
<stop stop-color="#A6CE39"/>
<stop offset="0.5" stop-color="#03B585"/>
<stop offset="1" stop-color="#273470"/>
</linearGradient>
<linearGradient id="paint6_linear_791_18299" x1="81.2986" y1="6.61887" x2="19.6629" y2="72.2472" gradientUnits="userSpaceOnUse">
<stop stop-color="#A6CE39"/>
<stop offset="0.5" stop-color="#03B585"/>
<stop offset="1" stop-color="#273470"/>
</linearGradient>
<linearGradient id="paint7_linear_791_18299" x1="86.3051" y1="13.8212" x2="24.6693" y2="79.4495" gradientUnits="userSpaceOnUse">
<stop stop-color="#A6CE39"/>
<stop offset="0.5" stop-color="#03B585"/>
<stop offset="1" stop-color="#273470"/>
</linearGradient>
<linearGradient id="paint8_linear_791_18299" x1="94.8839" y1="21.8643" x2="33.2563" y2="87.4764" gradientUnits="userSpaceOnUse">
<stop stop-color="#A6CE39"/>
<stop offset="0.5" stop-color="#03B585"/>
<stop offset="1" stop-color="#273470"/>
</linearGradient>
<linearGradient id="paint9_linear_791_18299" x1="91.2908" y1="25.9587" x2="29.6549" y2="91.587" gradientUnits="userSpaceOnUse">
<stop stop-color="#A6CE39"/>
<stop offset="0.5" stop-color="#03B585"/>
<stop offset="1" stop-color="#273470"/>
</linearGradient>
<linearGradient id="paint10_linear_791_18299" x1="73.1037" y1="16.7193" x2="11.4679" y2="82.3476" gradientUnits="userSpaceOnUse">
<stop stop-color="#A6CE39"/>
<stop offset="0.5" stop-color="#03B585"/>
<stop offset="1" stop-color="#273470"/>
</linearGradient>
<linearGradient id="paint11_linear_791_18299" x1="56.6937" y1="-0.51931" x2="-4.94207" y2="65.109" gradientUnits="userSpaceOnUse">
<stop stop-color="#A6CE39"/>
<stop offset="0.5" stop-color="#03B585"/>
<stop offset="1" stop-color="#273470"/>
</linearGradient>
<linearGradient id="paint12_linear_791_18299" x1="73.6592" y1="29.5892" x2="8.88816" y2="29.5892" gradientUnits="userSpaceOnUse">
<stop stop-color="#A6CE39"/>
<stop offset="0.5" stop-color="#03B585"/>
<stop offset="1" stop-color="#273470"/>
</linearGradient>
<linearGradient id="paint13_linear_791_18299" x1="74.5223" y1="35.8353" x2="9.73485" y2="35.8353" gradientUnits="userSpaceOnUse">
<stop stop-color="#A6CE39"/>
<stop offset="0.5" stop-color="#03B585"/>
<stop offset="1" stop-color="#273470"/>
</linearGradient>
<linearGradient id="paint14_linear_791_18299" x1="74.5141" y1="42.1223" x2="9.74301" y2="42.1223" gradientUnits="userSpaceOnUse">
<stop stop-color="#A6CE39"/>
<stop offset="0.5" stop-color="#03B585"/>
<stop offset="1" stop-color="#273470"/>
</linearGradient>
<linearGradient id="paint15_linear_791_18299" x1="74.5223" y1="48.3684" x2="9.73485" y2="48.3684" gradientUnits="userSpaceOnUse">
<stop stop-color="#A6CE39"/>
<stop offset="0.5" stop-color="#03B585"/>
<stop offset="1" stop-color="#273470"/>
</linearGradient>
<linearGradient id="paint16_linear_791_18299" x1="73.6592" y1="54.6146" x2="8.88816" y2="54.6146" gradientUnits="userSpaceOnUse">
<stop stop-color="#A6CE39"/>
<stop offset="0.5" stop-color="#03B585"/>
<stop offset="1" stop-color="#273470"/>
</linearGradient>
<linearGradient id="paint17_linear_791_18299" x1="72.351" y1="55.2262" x2="7.57183" y2="55.2262" gradientUnits="userSpaceOnUse">
<stop stop-color="#A6CE39"/>
<stop offset="0.5" stop-color="#03B585"/>
<stop offset="1" stop-color="#273470"/>
</linearGradient>
<linearGradient id="paint18_linear_791_18299" x1="70.188" y1="61.4723" x2="5.40062" y2="61.4723" gradientUnits="userSpaceOnUse">
<stop stop-color="#A6CE39"/>
<stop offset="0.5" stop-color="#03B585"/>
<stop offset="1" stop-color="#273470"/>
</linearGradient>
<linearGradient id="paint19_linear_791_18299" x1="70.1798" y1="55.2262" x2="5.40878" y2="55.2262" gradientUnits="userSpaceOnUse">
<stop stop-color="#A6CE39"/>
<stop offset="0.5" stop-color="#03B585"/>
<stop offset="1" stop-color="#273470"/>
</linearGradient>
<linearGradient id="paint20_linear_791_18299" x1="68.8826" y1="54.6146" x2="4.09528" y2="54.6146" gradientUnits="userSpaceOnUse">
<stop stop-color="#A6CE39"/>
<stop offset="0.5" stop-color="#03B585"/>
<stop offset="1" stop-color="#273470"/>
</linearGradient>
<linearGradient id="paint21_linear_791_18299" x1="68.0157" y1="48.3684" x2="3.2365" y2="48.3684" gradientUnits="userSpaceOnUse">
<stop stop-color="#A6CE39"/>
<stop offset="0.5" stop-color="#03B585"/>
<stop offset="1" stop-color="#273470"/>
</linearGradient>
<linearGradient id="paint22_linear_791_18299" x1="68.0157" y1="42.1223" x2="3.2365" y2="42.1223" gradientUnits="userSpaceOnUse">
<stop stop-color="#A6CE39"/>
<stop offset="0.5" stop-color="#03B585"/>
<stop offset="1" stop-color="#273470"/>
</linearGradient>
<linearGradient id="paint23_linear_791_18299" x1="68.0157" y1="35.8353" x2="3.2365" y2="35.8353" gradientUnits="userSpaceOnUse">
<stop stop-color="#A6CE39"/>
<stop offset="0.5" stop-color="#03B585"/>
<stop offset="1" stop-color="#273470"/>
</linearGradient>
<linearGradient id="paint24_linear_791_18299" x1="68.8826" y1="29.5892" x2="4.09528" y2="29.5892" gradientUnits="userSpaceOnUse">
<stop stop-color="#A6CE39"/>
<stop offset="0.5" stop-color="#03B585"/>
<stop offset="1" stop-color="#273470"/>
</linearGradient>
<linearGradient id="paint25_linear_791_18299" x1="70.188" y1="22.6906" x2="5.40062" y2="22.6906" gradientUnits="userSpaceOnUse">
<stop stop-color="#A6CE39"/>
<stop offset="0.5" stop-color="#03B585"/>
<stop offset="1" stop-color="#273470"/>
</linearGradient>
<linearGradient id="paint26_linear_791_18299" x1="72.351" y1="22.6906" x2="7.57183" y2="22.6906" gradientUnits="userSpaceOnUse">
<stop stop-color="#A6CE39"/>
<stop offset="0.5" stop-color="#03B585"/>
<stop offset="1" stop-color="#273470"/>
</linearGradient>
<linearGradient id="paint27_linear_791_18299" x1="72.351" y1="28.9765" x2="7.57183" y2="28.9765" gradientUnits="userSpaceOnUse">
<stop stop-color="#A6CE39"/>
<stop offset="0.5" stop-color="#03B585"/>
<stop offset="1" stop-color="#273470"/>
</linearGradient>
<linearGradient id="paint28_linear_791_18299" x1="78.9802" y1="48.327" x2="-1.45085" y2="48.327" gradientUnits="userSpaceOnUse">
<stop stop-color="#A6CE39"/>
<stop offset="0.5" stop-color="#03B585"/>
<stop offset="1" stop-color="#273470"/>
</linearGradient>
<linearGradient id="paint29_linear_791_18299" x1="78.9802" y1="42.1217" x2="-1.45085" y2="42.1217" gradientUnits="userSpaceOnUse">
<stop stop-color="#A6CE39"/>
<stop offset="0.5" stop-color="#03B585"/>
<stop offset="1" stop-color="#273470"/>
</linearGradient>
<linearGradient id="paint30_linear_791_18299" x1="78.9747" y1="42.1217" x2="-1.44007" y2="42.1217" gradientUnits="userSpaceOnUse">
<stop stop-color="#A6CE39"/>
<stop offset="0.5" stop-color="#03B585"/>
<stop offset="1" stop-color="#273470"/>
</linearGradient>
<linearGradient id="paint31_linear_791_18299" x1="78.991" y1="35.8766" x2="-1.45639" y2="35.8766" gradientUnits="userSpaceOnUse">
<stop stop-color="#A6CE39"/>
<stop offset="0.5" stop-color="#03B585"/>
<stop offset="1" stop-color="#273470"/>
</linearGradient>
<linearGradient id="paint32_linear_791_18299" x1="70.2612" y1="16.199" x2="5.48194" y2="16.199" gradientUnits="userSpaceOnUse">
<stop stop-color="#A6CE39"/>
<stop offset="0.5" stop-color="#03B585"/>
<stop offset="1" stop-color="#273470"/>
</linearGradient>
<linearGradient id="paint33_linear_791_18299" x1="69.7383" y1="4.19685" x2="4.95911" y2="4.19685" gradientUnits="userSpaceOnUse">
<stop stop-color="#A6CE39"/>
<stop offset="0.5" stop-color="#03B585"/>
<stop offset="1" stop-color="#273470"/>
</linearGradient>
<linearGradient id="paint34_linear_791_18299" x1="72.508" y1="5.34042" x2="7.72877" y2="5.34042" gradientUnits="userSpaceOnUse">
<stop stop-color="#A6CE39"/>
<stop offset="0.5" stop-color="#03B585"/>
<stop offset="1" stop-color="#273470"/>
</linearGradient>
<linearGradient id="paint35_linear_791_18299" x1="78.8277" y1="9.74861" x2="14.0567" y2="9.74861" gradientUnits="userSpaceOnUse">
<stop stop-color="#A6CE39"/>
<stop offset="0.5" stop-color="#03B585"/>
<stop offset="1" stop-color="#273470"/>
</linearGradient>
<linearGradient id="paint36_linear_791_18299" x1="74.1328" y1="21.0982" x2="9.3536" y2="21.0982" gradientUnits="userSpaceOnUse">
<stop stop-color="#A6CE39"/>
<stop offset="0.5" stop-color="#03B585"/>
<stop offset="1" stop-color="#273470"/>
</linearGradient>
<linearGradient id="paint37_linear_791_18299" x1="77.6824" y1="29.0997" x2="12.9032" y2="29.0997" gradientUnits="userSpaceOnUse">
<stop stop-color="#A6CE39"/>
<stop offset="0.5" stop-color="#03B585"/>
<stop offset="1" stop-color="#273470"/>
</linearGradient>
<linearGradient id="paint38_linear_791_18299" x1="76.785" y1="48.7765" x2="12.0058" y2="48.7765" gradientUnits="userSpaceOnUse">
<stop stop-color="#A6CE39"/>
<stop offset="0.5" stop-color="#03B585"/>
<stop offset="1" stop-color="#273470"/>
</linearGradient>
<linearGradient id="paint39_linear_791_18299" x1="76.876" y1="54.655" x2="12.0885" y2="54.655" gradientUnits="userSpaceOnUse">
<stop stop-color="#A6CE39"/>
<stop offset="0.5" stop-color="#03B585"/>
<stop offset="1" stop-color="#273470"/>
</linearGradient>
<linearGradient id="paint40_linear_791_18299" x1="80.8695" y1="68.2899" x2="16.0904" y2="68.2899" gradientUnits="userSpaceOnUse">
<stop stop-color="#A6CE39"/>
<stop offset="0.5" stop-color="#03B585"/>
<stop offset="1" stop-color="#273470"/>
</linearGradient>
<linearGradient id="paint41_linear_791_18299" x1="74.7928" y1="70.6578" x2="10.0054" y2="70.6578" gradientUnits="userSpaceOnUse">
<stop stop-color="#A6CE39"/>
<stop offset="0.5" stop-color="#03B585"/>
<stop offset="1" stop-color="#273470"/>
</linearGradient>
<linearGradient id="paint42_linear_791_18299" x1="72.3525" y1="68.1266" x2="7.57326" y2="68.1266" gradientUnits="userSpaceOnUse">
<stop stop-color="#A6CE39"/>
<stop offset="0.5" stop-color="#03B585"/>
<stop offset="1" stop-color="#273470"/>
</linearGradient>
<linearGradient id="paint43_linear_791_18299" x1="69.4529" y1="81.7625" x2="4.66546" y2="81.7625" gradientUnits="userSpaceOnUse">
<stop stop-color="#A6CE39"/>
<stop offset="0.5" stop-color="#03B585"/>
<stop offset="1" stop-color="#273470"/>
</linearGradient>
<linearGradient id="paint44_linear_791_18299" x1="70.3184" y1="68.5759" x2="5.54739" y2="68.5759" gradientUnits="userSpaceOnUse">
<stop stop-color="#A6CE39"/>
<stop offset="0.5" stop-color="#03B585"/>
<stop offset="1" stop-color="#273470"/>
</linearGradient>
<linearGradient id="paint45_linear_791_18299" x1="68.0153" y1="62.0847" x2="3.23606" y2="62.0847" gradientUnits="userSpaceOnUse">
<stop stop-color="#A6CE39"/>
<stop offset="0.5" stop-color="#03B585"/>
<stop offset="1" stop-color="#273470"/>
</linearGradient>
<linearGradient id="paint46_linear_791_18299" x1="59.8358" y1="67.3924" x2="-4.95153" y2="67.3924" gradientUnits="userSpaceOnUse">
<stop stop-color="#A6CE39"/>
<stop offset="0.5" stop-color="#03B585"/>
<stop offset="1" stop-color="#273470"/>
</linearGradient>
<linearGradient id="paint47_linear_791_18299" x1="61.5979" y1="41.0609" x2="-3.18128" y2="41.0609" gradientUnits="userSpaceOnUse">
<stop stop-color="#A6CE39"/>
<stop offset="0.5" stop-color="#03B585"/>
<stop offset="1" stop-color="#273470"/>
</linearGradient>
<linearGradient id="paint48_linear_791_18299" x1="65.756" y1="35.8758" x2="0.96864" y2="35.8758" gradientUnits="userSpaceOnUse">
<stop stop-color="#A6CE39"/>
<stop offset="0.5" stop-color="#03B585"/>
<stop offset="1" stop-color="#273470"/>
</linearGradient>
<linearGradient id="paint49_linear_791_18299" x1="64.0647" y1="29.5897" x2="-0.706298" y2="29.5897" gradientUnits="userSpaceOnUse">
<stop stop-color="#A6CE39"/>
<stop offset="0.5" stop-color="#03B585"/>
<stop offset="1" stop-color="#273470"/>
</linearGradient>
<linearGradient id="paint50_linear_791_18299" x1="65.1268" y1="21.1799" x2="0.33939" y2="21.1799" gradientUnits="userSpaceOnUse">
<stop stop-color="#A6CE39"/>
<stop offset="0.5" stop-color="#03B585"/>
<stop offset="1" stop-color="#273470"/>
</linearGradient>
<linearGradient id="paint51_linear_791_18299" x1="68.0153" y1="20.363" x2="3.23606" y2="20.363" gradientUnits="userSpaceOnUse">
<stop stop-color="#A6CE39"/>
<stop offset="0.5" stop-color="#03B585"/>
<stop offset="1" stop-color="#273470"/>
</linearGradient>
<linearGradient id="paint52_linear_791_18299" x1="54.568" y1="56.7782" x2="-10.2112" y2="56.7782" gradientUnits="userSpaceOnUse">
<stop stop-color="#A6CE39"/>
<stop offset="0.5" stop-color="#03B585"/>
<stop offset="1" stop-color="#273470"/>
</linearGradient>
<linearGradient id="paint53_linear_791_18299" x1="72.3525" y1="78.6593" x2="7.57326" y2="78.6593" gradientUnits="userSpaceOnUse">
<stop stop-color="#A6CE39"/>
<stop offset="0.5" stop-color="#03B585"/>
<stop offset="1" stop-color="#273470"/>
</linearGradient>
</defs>
</svg>
